<svg width="25" height="24" viewBox="0 0 25 24" fill="none" xmlns="http://www.w3.org/2000/svg">
<path fill-rule="evenodd" clip-rule="evenodd" d="M8.5 10.2C9.46615 10.2 10.3927 9.82072 11.0759 9.14559C11.7591 8.47045 12.1429 7.55478 12.1429 6.6C12.1429 5.64522 11.7591 4.72955 11.0759 4.05442C10.3927 3.37928 9.46615 3 8.5 3C7.53385 3 6.60728 3.37928 5.92411 4.05442C5.24094 4.72955 4.85714 5.64522 4.85714 6.6C4.85714 7.55478 5.24094 8.47045 5.92411 9.14559C6.60728 9.82072 7.53385 10.2 8.5 10.2ZM0 21C-1.66332e-08 19.8969 0.219859 18.8046 0.647024 17.7855C1.07419 16.7663 1.70029 15.8403 2.48959 15.0603C3.27889 14.2803 4.21592 13.6616 5.24719 13.2394C6.27846 12.8173 7.38376 12.6 8.5 12.6C9.61624 12.6 10.7215 12.8173 11.7528 13.2394C12.7841 13.6616 13.7211 14.2803 14.5104 15.0603C15.2997 15.8403 15.9258 16.7663 16.353 17.7855C16.7801 18.8046 17 19.8969 17 21H0Z" fill="#4B84F7"/>
<path fill-rule="evenodd" clip-rule="evenodd" d="M20.3381 5.65814C20.1243 4.78062 18.8755 4.78062 18.6618 5.65814C18.6299 5.79 18.5673 5.91246 18.4791 6.01556C18.3909 6.11866 18.2796 6.19948 18.1543 6.25145C18.029 6.30342 17.8932 6.32507 17.7579 6.31463C17.6227 6.3042 17.4918 6.26197 17.3759 6.19139C16.6041 5.72114 15.721 6.60427 16.1913 7.37604C16.495 7.87442 16.2256 8.52468 15.6586 8.66249C14.7805 8.87569 14.7805 10.125 15.6586 10.3376C15.7905 10.3696 15.9129 10.4323 16.016 10.5205C16.1191 10.6088 16.1999 10.7201 16.2519 10.8455C16.3038 10.9709 16.3254 11.1068 16.3148 11.2421C16.3043 11.3774 16.2619 11.5083 16.1913 11.6241C15.721 12.3959 16.6041 13.279 17.3759 12.8087C17.4917 12.738 17.6226 12.6957 17.7579 12.6852C17.8932 12.6746 18.0291 12.6962 18.1545 12.7481C18.2799 12.8001 18.3912 12.8809 18.4795 12.984C18.5677 13.0871 18.6304 13.2095 18.6624 13.3414C18.8755 14.2195 20.1249 14.2195 20.3375 13.3414C20.3696 13.2096 20.4323 13.0872 20.5205 12.9842C20.6088 12.8812 20.7202 12.8004 20.8455 12.7485C20.9708 12.6966 21.1067 12.675 21.2419 12.6855C21.3772 12.6959 21.5081 12.7382 21.624 12.8087C22.3957 13.279 23.2789 12.3959 22.8086 11.6241C22.738 11.5082 22.6958 11.3773 22.6853 11.2421C22.6749 11.1068 22.6965 10.971 22.7484 10.8456C22.8003 10.7203 22.881 10.609 22.984 10.5207C23.0871 10.4324 23.2095 10.3697 23.3413 10.3376C24.2194 10.1245 24.2194 8.87512 23.3413 8.66249C23.2094 8.63054 23.0869 8.56789 22.9838 8.47964C22.8807 8.39139 22.7999 8.28004 22.748 8.15465C22.6961 8.02926 22.6745 7.89339 22.685 7.75808C22.6956 7.62278 22.7379 7.49188 22.8086 7.37604C23.2789 6.60427 22.3957 5.72114 21.624 6.19139C21.5081 6.26209 21.3772 6.30443 21.2419 6.31496C21.1066 6.32549 20.9707 6.30392 20.8454 6.252C20.72 6.20008 20.6086 6.11928 20.5204 6.01618C20.4321 5.91308 20.3695 5.79059 20.3375 5.6587L20.3381 5.65814ZM19.4999 11.1876C19.9475 11.1876 20.3767 11.0098 20.6932 10.6933C21.0097 10.3769 21.1875 9.94763 21.1875 9.50007C21.1875 9.05251 21.0097 8.62328 20.6932 8.30681C20.3767 7.99034 19.9475 7.81254 19.4999 7.81254C19.0524 7.81254 18.6231 7.99034 18.3067 8.30681C17.9902 8.62328 17.8124 9.05251 17.8124 9.50007C17.8124 9.94763 17.9902 10.3769 18.3067 10.6933C18.6231 11.0098 19.0524 11.1876 19.4999 11.1876V11.1876Z" stroke="#4B84F7"/>
</svg>
