<svg width="20" height="20" viewBox="0 0 20 20" fill="none" xmlns="http://www.w3.org/2000/svg">
<g clip-path="url(#clip0_6822_89503)">
<path d="M9.77361 0.0170542C8.89439 0.0894616 7.91099 0.68147 7.10442 1.03887C5.97986 1.53718 4.55657 2.68427 4.27254 5.31706C4.26804 5.35873 4.26524 5.40142 4.26164 5.44318C4.23988 5.69608 4.11296 6.65558 3.42319 7.09318C3.41031 7.10136 3.39785 7.10902 3.38548 7.11796C3.23453 7.22694 2.20674 8.05373 2.74419 10.0167C2.75943 10.0723 2.7739 10.1291 2.78066 10.1864C2.81579 10.4843 2.86035 11.4981 1.96969 12.159C1.89813 12.2121 1.82576 12.2641 1.76573 12.3299C1.55589 12.5601 1.08985 13.1939 1.37589 14.0401C1.44141 14.234 1.59336 14.402 1.61012 14.606C1.625 14.7869 1.56052 15.0516 1.24642 15.3899C1.20292 15.4367 1.16353 15.4871 1.13916 15.5462C1.05192 15.7577 0.87275 16.3407 1.12294 17.1347C1.21205 17.4175 1.58137 17.2987 1.6448 17.0091C1.68066 16.8453 1.8609 16.8425 1.95728 16.9797C2.01368 17.06 2.07778 17.1563 2.14219 17.2635C2.41681 17.7206 3.33383 18.2482 3.84085 18.0831C4.45882 17.8817 5.26033 17.6835 6.18241 17.6009C6.23659 17.5961 6.2898 17.5894 6.34243 17.5756C6.73629 17.4729 8.49056 16.8868 8.67465 14.5671C8.71893 14.0092 8.41701 13.4966 8.01457 13.1077C7.28158 12.3993 6.20431 11.1556 6.2642 10.0115L6.55465 7.68929C6.5726 7.54579 6.63068 7.41087 6.72015 7.29725C6.87592 7.09943 7.13579 6.75945 7.35202 6.42811C7.5146 6.17899 7.81843 5.83508 7.90944 6.1183C8.01379 6.44302 8.3303 7.11428 8.48514 6.81038C8.66687 6.45369 8.76462 5.9445 8.6329 5.22249C8.60325 5.05996 8.61498 4.88987 8.69198 4.7437C8.71105 4.70751 8.73195 4.66909 8.75421 4.63006C8.94615 4.29352 9.25306 4.42339 9.4685 4.74539C9.70802 5.10341 10.1041 5.56593 10.7006 5.90094C11.5084 6.3547 12.182 6.60761 12.5517 7.45725C12.9346 8.33724 13.9961 9.53827 13.8055 10.4788C13.6386 11.3026 13.3145 12.2817 12.6858 13.0349C12.3198 13.4732 11.9827 13.9715 12.0424 14.5394C12.1449 15.514 12.5856 17.0106 14.269 17.5884C14.8828 17.7991 15.395 18.0919 15.4058 18.7407C15.4168 19.4065 16.2838 19.2136 16.6438 18.6535C16.7657 18.4637 16.9486 18.3131 17.2203 18.2552C17.3804 18.2211 17.538 18.3033 17.6413 18.4303C17.8606 18.6999 18.2679 18.6934 18.4436 18.3936C18.7153 17.93 19.0305 17.2457 19.0033 16.5993C18.9852 16.168 18.6081 15.8705 18.3293 15.5409C18.1004 15.2703 17.8865 14.8585 17.912 14.2761C17.9304 13.8591 18.2971 13.5075 18.3073 13.0903C18.3121 12.8962 18.2297 12.6613 17.9595 12.4018C17.8021 12.2507 17.6072 12.0884 17.6521 11.8748C17.6736 11.7728 17.734 11.6535 17.8693 11.5284C17.8817 11.517 17.8943 11.5063 17.9064 11.4946C18.0504 11.3554 18.9663 10.3392 17.4065 8.30427C17.119 7.9292 16.9244 7.48339 16.9065 7.01114L16.8498 5.52136C16.8463 5.4283 16.8368 5.3373 16.8141 5.24699C16.6475 4.58485 15.7084 1.64573 11.8963 0.16025C11.8953 0.159925 10.7347 -0.0620958 9.77361 0.0170542Z" fill="#4B84F7"/>
</g>
<defs>
<clipPath id="clip0_6822_89503">
<rect width="20" height="20" fill="white"/>
</clipPath>
</defs>
</svg>
