<svg width="20" height="20" viewBox="0 0 20 20" fill="none" xmlns="http://www.w3.org/2000/svg">
<g clip-path="url(#clip0_6822_89522)">
<path d="M10.8333 2.70898H5.83333C2.98333 2.70898 1.875 3.81732 1.875 6.66732V13.334C1.875 15.2507 2.91667 17.2923 5.83333 17.2923H10.8333C13.6833 17.2923 14.7917 16.184 14.7917 13.334V6.66732C14.7917 3.81732 13.6833 2.70898 10.8333 2.70898Z" fill="#4B84F7"/>
<path d="M9.58327 9.48294C10.4485 9.48294 11.1499 8.78152 11.1499 7.91628C11.1499 7.05103 10.4485 6.34961 9.58327 6.34961C8.71802 6.34961 8.0166 7.05103 8.0166 7.91628C8.0166 8.78152 8.71802 9.48294 9.58327 9.48294Z" fill="#4B84F7"/>
<path d="M18.0421 5.14168C17.7004 4.96668 16.9837 4.76668 16.0087 5.45001L14.7754 6.31668C14.7837 6.43334 14.7921 6.54168 14.7921 6.66668V13.3333C14.7921 13.4583 14.7754 13.5667 14.7754 13.6833L16.0087 14.55C16.5254 14.9167 16.9754 15.0333 17.3337 15.0333C17.6421 15.0333 17.8837 14.95 18.0421 14.8667C18.3837 14.6917 18.9587 14.2167 18.9587 13.025V6.98334C18.9587 5.79168 18.3837 5.31668 18.0421 5.14168Z" fill="#4B84F7"/>
</g>
<defs>
<clipPath id="clip0_6822_89522">
<rect width="20" height="20" fill="white"/>
</clipPath>
</defs>
</svg>
