<svg width="24" height="24" viewBox="0 0 24 24" fill="none" xmlns="http://www.w3.org/2000/svg">
<path d="M19.2004 2.90039C19.7042 2.90039 20.1873 3.10045 20.5436 3.45658C20.5436 3.45661 20.5437 3.45665 20.5437 3.45668C20.8998 3.81298 21.0999 4.29612 21.0999 4.79988C21.0999 5.30366 20.8998 5.78683 20.5436 6.14312C20.5436 6.14314 20.5436 6.14316 20.5436 6.14318L11.5869 15.0999H8.90039V12.4134L17.8571 3.45668C17.8571 3.45667 17.8571 3.45665 17.8571 3.45663C18.2134 3.10047 18.6966 2.90039 19.2004 2.90039Z" stroke="#4B84F7"/>
<path fill-rule="evenodd" clip-rule="evenodd" d="M2.40039 7.20078C2.40039 6.56426 2.65325 5.95381 3.10333 5.50372C3.55342 5.05364 4.16387 4.80078 4.80039 4.80078H9.60039C9.91865 4.80078 10.2239 4.92721 10.4489 5.15225C10.674 5.3773 10.8004 5.68252 10.8004 6.00078C10.8004 6.31904 10.674 6.62427 10.4489 6.84931C10.2239 7.07435 9.91865 7.20078 9.60039 7.20078H4.80039V19.2008H16.8004V14.4008C16.8004 14.0825 16.9268 13.7773 17.1519 13.5523C17.3769 13.3272 17.6821 13.2008 18.0004 13.2008C18.3187 13.2008 18.6239 13.3272 18.8489 13.5523C19.074 13.7773 19.2004 14.0825 19.2004 14.4008V19.2008C19.2004 19.8373 18.9475 20.4477 18.4974 20.8978C18.0474 21.3479 17.4369 21.6008 16.8004 21.6008H4.80039C4.16387 21.6008 3.55342 21.3479 3.10333 20.8978C2.65325 20.4477 2.40039 19.8373 2.40039 19.2008V7.20078Z" fill="#4B84F7"/>
</svg>
