<svg width="21" height="20" viewBox="0 0 21 20" fill="none" xmlns="http://www.w3.org/2000/svg">
<path d="M12.167 13.3328C12.167 14.8078 11.5253 16.1411 10.5003 17.0495C9.61699 17.8495 8.45033 18.3328 7.16699 18.3328C4.40866 18.3328 2.16699 16.0911 2.16699 13.3328C2.16699 11.0328 3.73366 9.08281 5.85033 8.50781C6.42533 9.95781 7.65866 11.0745 9.18366 11.4911C9.60033 11.6078 10.042 11.6661 10.5003 11.6661C10.9587 11.6661 11.4003 11.6078 11.817 11.4911C12.042 12.0578 12.167 12.6828 12.167 13.3328Z" stroke="#4B84F7" stroke-width="1.5" stroke-linecap="round" stroke-linejoin="round"/>
<path d="M15.5 6.66602C15.5 7.31602 15.375 7.94102 15.15 8.50768C14.575 9.95768 13.3417 11.0743 11.8167 11.491C11.4 11.6077 10.9583 11.666 10.5 11.666C10.0417 11.666 9.6 11.6077 9.18333 11.491C7.65833 11.0743 6.425 9.95768 5.85 8.50768C5.625 7.94102 5.5 7.31602 5.5 6.66602C5.5 3.90768 7.74167 1.66602 10.5 1.66602C13.2583 1.66602 15.5 3.90768 15.5 6.66602Z" stroke="#4B84F7" stroke-width="1.5" stroke-linecap="round" stroke-linejoin="round"/>
<path d="M18.8333 13.3328C18.8333 16.0911 16.5917 18.3328 13.8333 18.3328C12.55 18.3328 11.3833 17.8495 10.5 17.0495C11.525 16.1411 12.1667 14.8078 12.1667 13.3328C12.1667 12.6828 12.0417 12.0578 11.8167 11.4911C13.3417 11.0745 14.575 9.95781 15.15 8.50781C17.2667 9.08281 18.8333 11.0328 18.8333 13.3328Z" stroke="#4B84F7" stroke-width="1.5" stroke-linecap="round" stroke-linejoin="round"/>
</svg>
