<svg width="20" height="20" viewBox="0 0 20 20" fill="none" xmlns="http://www.w3.org/2000/svg">
<path d="M18.7504 13.1252C18.7447 14.0226 18.5252 14.9058 18.1099 15.7015C17.6947 16.4971 17.0957 17.1823 16.3627 17.7002C15.6297 18.2181 14.7838 18.5538 13.8952 18.6795C13.0065 18.8051 12.1007 18.7171 11.2529 18.4227C12.0966 17.7277 12.7615 16.8407 13.1918 15.8359C13.6221 14.8311 13.8053 13.7378 13.726 12.6477C15.1341 11.7338 16.1614 10.3386 16.616 8.72266C17.281 9.24782 17.8184 9.9167 18.1881 10.6792C18.5577 11.4416 18.7499 12.2778 18.7504 13.1252ZM12.4929 13.2752C12.4687 14.2209 12.2063 15.1453 11.7299 15.9626C11.2535 16.78 10.5785 17.4639 9.76747 17.951C8.95645 18.4381 8.03562 18.7127 7.09026 18.7493C6.14491 18.7859 5.20561 18.5833 4.35936 18.1603C3.51312 17.7373 2.78731 17.1076 2.24915 16.3295C1.71099 15.5515 1.3779 14.6501 1.28072 13.7091C1.18354 12.768 1.32541 11.8177 1.69321 10.946C2.06101 10.0744 2.64282 9.30964 3.38477 8.72266C3.648 9.64328 4.09975 10.4991 4.71135 11.2359C5.32296 11.9726 6.08105 12.5741 6.93752 13.0023C7.79398 13.4304 8.7301 13.6758 9.68646 13.7229C10.6428 13.77 11.5985 13.6171 12.4929 13.2752Z" fill="#4B84F7"/>
<path d="M4.375 6.875C4.375 5.76248 4.7049 4.67495 5.32298 3.74992C5.94107 2.82489 6.81957 2.10392 7.84741 1.67818C8.87524 1.25244 10.0062 1.14104 11.0974 1.35809C12.1885 1.57513 13.1908 2.11086 13.9775 2.89753C14.7641 3.6842 15.2999 4.68648 15.5169 5.77762C15.734 6.86876 15.6226 7.99976 15.1968 9.0276C14.7711 10.0554 14.0501 10.9339 13.1251 11.552C12.2001 12.1701 11.1125 12.5 10 12.5C8.50866 12.4983 7.07889 11.9052 6.02435 10.8507C4.96982 9.79612 4.37665 8.36634 4.375 6.875Z" fill="#4B84F7"/>
</svg>
