<svg width="24" height="24" viewBox="0 0 24 24" fill="none" xmlns="http://www.w3.org/2000/svg">
<path d="M19.2004 11.5008H13.7004V10.8008C13.7004 10.3499 13.5213 9.91753 13.2025 9.59871C12.8837 9.2799 12.4513 9.1008 12.0004 9.1008C11.5495 9.1008 11.1171 9.2799 10.7983 9.59872C10.4795 9.91753 10.3004 10.3499 10.3004 10.8008V11.5008H4.80039C4.29648 11.5008 3.81321 11.3006 3.45689 10.9443C3.10057 10.588 2.90039 10.1047 2.90039 9.6008C2.90039 9.09688 3.10057 8.61361 3.45689 8.25729C3.81321 7.90097 4.29648 7.7008 4.80039 7.7008H6.20439H6.91009L6.67611 7.03502C6.56252 6.7118 6.50039 6.3634 6.50039 6.0008C6.50041 5.40237 6.67363 4.81675 6.99914 4.3146C7.32466 3.81246 7.78857 3.41526 8.33485 3.17096C8.88114 2.92666 9.48646 2.8457 10.0778 2.93785C10.669 3.03 11.221 3.29132 11.6671 3.69027L12.0007 3.98872L12.3341 3.68993C12.847 3.23021 13.4985 2.95441 14.1856 2.90608C14.8727 2.85775 15.5563 3.03964 16.1286 3.42303C16.7008 3.80642 17.1291 4.36948 17.3458 5.02332C17.5624 5.67717 17.5552 6.38455 17.3251 7.0338L17.0888 7.7008H17.7964H19.2004C19.7043 7.7008 20.1876 7.90097 20.5439 8.25729C20.9002 8.61361 21.1004 9.09688 21.1004 9.6008C21.1004 10.1047 20.9002 10.588 20.5439 10.9443C20.1876 11.3006 19.7043 11.5008 19.2004 11.5008ZM10.8004 7.7008H11.3004V7.2008V6.0008C11.3004 5.66457 11.2007 5.33589 11.0139 5.05633C10.8271 4.77676 10.5616 4.55887 10.251 4.4302C9.94032 4.30153 9.5985 4.26787 9.26874 4.33346C8.93897 4.39906 8.63606 4.56097 8.39831 4.79871C8.16056 5.03646 7.99865 5.33937 7.93306 5.66914C7.86746 5.99891 7.90113 6.34072 8.0298 6.65136C8.15846 6.96199 8.37636 7.2275 8.65592 7.41429C8.93548 7.60109 9.26416 7.7008 9.60039 7.7008H10.8004ZM12.7004 7.2008V7.7008H13.2004H14.4004C14.7366 7.7008 15.0653 7.60109 15.3449 7.41429C15.6244 7.22749 15.8423 6.96199 15.971 6.65136C16.0997 6.34072 16.1333 5.99891 16.0677 5.66914C16.0021 5.33937 15.8402 5.03646 15.6025 4.79871C15.3647 4.56097 15.0618 4.39906 14.732 4.33346C14.4023 4.26787 14.0605 4.30153 13.7498 4.4302C13.4392 4.55887 13.1737 4.77676 12.9869 5.05633C12.8001 5.33589 12.7004 5.66457 12.7004 6.0008V7.2008Z" stroke="#4B84F7"/>
<path d="M10.7996 13.1992H3.59961V19.1992C3.59961 19.8357 3.85247 20.4462 4.30255 20.8963C4.75264 21.3464 5.36309 21.5992 5.99961 21.5992H10.7996V13.1992ZM13.1996 21.5992H17.9996C18.6361 21.5992 19.2466 21.3464 19.6967 20.8963C20.1468 20.4462 20.3996 19.8357 20.3996 19.1992V13.1992H13.1996V21.5992Z" fill="#4B84F7"/>
</svg>
