<svg width="20" height="20" viewBox="0 0 20 20" fill="none" xmlns="http://www.w3.org/2000/svg">
<path d="M16.6419 8.33398H3.30859V15.0007C3.30859 17.5007 4.14193 18.334 6.64193 18.334H13.3086C15.8086 18.334 16.6419 17.5007 16.6419 15.0007V8.33398Z" stroke="#4B84F7" stroke-miterlimit="10" stroke-linecap="round" stroke-linejoin="round"/>
<path d="M17.9163 5.83268V6.66602C17.9163 7.58268 17.4747 8.33268 16.2497 8.33268H3.74967C2.47467 8.33268 2.08301 7.58268 2.08301 6.66602V5.83268C2.08301 4.91602 2.47467 4.16602 3.74967 4.16602H16.2497C17.4747 4.16602 17.9163 4.91602 17.9163 5.83268Z" stroke="#4B84F7" stroke-miterlimit="10" stroke-linecap="round" stroke-linejoin="round"/>
<path d="M9.69998 4.16589H5.09998C4.81665 3.85755 4.82498 3.38255 5.12498 3.08255L6.30832 1.89922C6.61665 1.59089 7.12498 1.59089 7.43332 1.89922L9.69998 4.16589Z" stroke="#4B84F7" stroke-miterlimit="10" stroke-linecap="round" stroke-linejoin="round"/>
<path d="M14.892 4.16589H10.292L12.5587 1.89922C12.867 1.59089 13.3753 1.59089 13.6837 1.89922L14.867 3.08255C15.167 3.38255 15.1753 3.85755 14.892 4.16589Z" stroke="#4B84F7" stroke-miterlimit="10" stroke-linecap="round" stroke-linejoin="round"/>
<path d="M7.4502 8.33398V12.6173C7.4502 13.284 8.18353 13.6757 8.74186 13.3173L9.5252 12.8007C9.80853 12.6173 10.1669 12.6173 10.4419 12.8007L11.1835 13.3007C11.7335 13.6673 12.4752 13.2757 12.4752 12.609V8.33398H7.4502Z" stroke="#4B84F7" stroke-miterlimit="10" stroke-linecap="round" stroke-linejoin="round"/>
</svg>
