<svg width="20" height="20" viewBox="0 0 20 20" fill="none" xmlns="http://www.w3.org/2000/svg">
<g clip-path="url(#clip0_6822_89511)">
<path d="M11.2105 12.5195C11.2175 12.3125 11.1144 12.1172 10.9394 12.0055L10.3933 11.6579C8.64213 10.5438 7.31596 8.84535 6.65971 6.87621L6.1808 5.43984C6.10112 5.20039 5.87729 5.03906 5.62494 5.03906C5.3726 5.03906 5.14877 5.20039 5.06908 5.43984L4.59916 6.85004C3.93744 8.8348 2.5976 10.5422 0.826506 11.6563L0.273772 12.0039C0.0975999 12.1153 -0.00669694 12.3113 0.000334312 12.5195C0.00736556 12.7277 0.124162 12.9168 0.307756 13.0156L0.314397 13.0195C2.41635 14.1527 3.96322 16.0332 4.67026 18.3141L5.06518 19.5875C5.14135 19.8328 5.3683 20 5.62494 20C5.88158 20 6.10854 19.8329 6.18471 19.5875L6.58744 18.2883C7.28979 16.0231 8.82338 14.15 10.9054 13.0145C11.0874 12.9152 11.2035 12.727 11.2105 12.5195ZM19.6722 9.47383L19.6628 9.46953C18.2011 8.74961 17.0945 7.44219 16.6261 5.88164L16.4988 5.45664C16.4617 5.33277 16.3859 5.22809 16.2871 5.15469C16.1882 5.08129 16.0667 5.03906 15.9374 5.03906C15.6789 5.03906 15.4507 5.20859 15.3761 5.45664L15.2417 5.9043C14.7777 7.45152 13.6828 8.75348 12.2378 9.47578C12.1405 9.5245 12.0587 9.59934 12.0015 9.69192C11.9443 9.78451 11.914 9.89118 11.914 10C11.914 10.1088 11.9443 10.2155 12.0015 10.3081C12.0587 10.4007 12.1405 10.4755 12.2378 10.5242C13.6828 11.2465 14.7777 12.5484 15.2417 14.0957L15.3761 14.5434C15.4507 14.7914 15.6789 14.9609 15.9374 14.9609C16.196 14.9609 16.4242 14.7914 16.4988 14.5434L16.6261 14.1184C17.0945 12.5579 18.2011 11.2504 19.6621 10.5309L19.6722 10.5262C19.8726 10.4277 19.9999 10.2234 19.9999 10C19.9999 9.77656 19.8726 9.57227 19.6722 9.47383ZM7.48744 4.8625L7.50346 4.87344C8.61674 5.61562 9.45346 6.66992 9.92338 7.9227L10.0765 8.33086C10.1184 8.44251 10.1933 8.53873 10.2913 8.60666C10.3893 8.67458 10.5057 8.71098 10.6249 8.71098C10.7442 8.71098 10.8606 8.67458 10.9586 8.60666C11.0566 8.53873 11.1315 8.44251 11.1734 8.33086L11.3265 7.9227C11.7964 6.66996 12.6331 5.61562 13.7464 4.87344L13.7624 4.8625C13.8427 4.809 13.9085 4.73651 13.954 4.65147C13.9996 4.56643 14.0234 4.47146 14.0234 4.375C14.0234 4.27854 13.9996 4.18357 13.954 4.09853C13.9085 4.01349 13.8427 3.941 13.7624 3.8875C12.6394 3.13906 11.7992 2.07422 11.3316 0.808203L11.1746 0.382812C11.0898 0.152734 10.8703 0 10.6249 0C10.3796 0 10.1601 0.152734 10.0753 0.382812L9.9183 0.808203C9.45072 2.07422 8.61049 3.13906 7.48744 3.8875C7.40718 3.941 7.34136 4.01349 7.29584 4.09853C7.25032 4.18357 7.22651 4.27854 7.22651 4.375C7.22651 4.47146 7.25032 4.56643 7.29584 4.65147C7.34136 4.73651 7.40718 4.809 7.48744 4.8625ZM11.2507 15.9766H11.2503C10.9267 15.9766 10.6646 16.2389 10.6646 16.5625C10.6646 16.8861 10.9271 17.1484 11.2507 17.1484C11.5744 17.1484 11.8367 16.8861 11.8367 16.5625C11.8367 16.2389 11.5744 15.9766 11.2507 15.9766ZM14.3757 2.14844C14.6994 2.14844 14.9617 1.88609 14.9617 1.5625C14.9617 1.23891 14.6994 0.976562 14.3757 0.976562H14.3753C14.0517 0.976562 13.7896 1.23891 13.7896 1.5625C13.7896 1.88609 14.0521 2.14844 14.3757 2.14844ZM2.18823 6.52344C2.51186 6.52344 2.77416 6.26109 2.77416 5.9375C2.77416 5.61391 2.51186 5.35156 2.18823 5.35156H2.18783C1.86424 5.35156 1.60209 5.61391 1.60209 5.9375C1.60209 6.26109 1.86463 6.52344 2.18823 6.52344Z" fill="#4B84F7"/>
</g>
<defs>
<clipPath id="clip0_6822_89511">
<rect width="20" height="20" fill="white"/>
</clipPath>
</defs>
</svg>
