<svg width="20" height="20" viewBox="0 0 20 20" fill="none" xmlns="http://www.w3.org/2000/svg">
<path fill-rule="evenodd" clip-rule="evenodd" d="M10.2926 15.7076C10.1051 15.52 9.99981 15.2657 9.99981 15.0006C9.99981 14.7354 10.1051 14.4811 10.2926 14.2936L14.5856 10.0006L10.2926 5.70757C10.1971 5.61532 10.1209 5.50498 10.0685 5.38297C10.0161 5.26097 9.9885 5.12975 9.98734 4.99697C9.98619 4.86419 10.0115 4.73251 10.0618 4.60962C10.1121 4.48672 10.1863 4.37507 10.2802 4.28117C10.3741 4.18728 10.4857 4.11303 10.6086 4.06275C10.7315 4.01247 10.8632 3.98717 10.996 3.98832C11.1288 3.98947 11.26 4.01706 11.382 4.06947C11.504 4.12188 11.6143 4.19806 11.7066 4.29357L16.7066 9.29357C16.8941 9.4811 16.9994 9.7354 16.9994 10.0006C16.9994 10.2657 16.8941 10.52 16.7066 10.7076L11.7066 15.7076C11.5191 15.895 11.2648 16.0004 10.9996 16.0004C10.7344 16.0004 10.4801 15.895 10.2926 15.7076Z" fill="#3F3F46"/>
<path fill-rule="evenodd" clip-rule="evenodd" d="M4.29279 15.7064C4.10532 15.5189 4 15.2646 4 14.9994C4 14.7343 4.10532 14.48 4.29279 14.2924L8.58579 9.99943L4.29279 5.70643C4.11063 5.51783 4.00983 5.26523 4.01211 5.00303C4.01439 4.74083 4.11956 4.49002 4.30497 4.30461C4.49038 4.1192 4.74119 4.01403 5.00339 4.01176C5.26558 4.00948 5.51818 4.11027 5.70679 4.29243L10.7068 9.29243C10.8943 9.47996 10.9996 9.73427 10.9996 9.99943C10.9996 10.2646 10.8943 10.5189 10.7068 10.7064L5.70679 15.7064C5.51926 15.8939 5.26495 15.9992 4.99979 15.9992C4.73462 15.9992 4.48031 15.8939 4.29279 15.7064Z" fill="#3F3F46"/>
</svg>
