<svg width="21" height="20" viewBox="0 0 21 20" fill="none" xmlns="http://www.w3.org/2000/svg">
<path d="M4.10328 14.3767L4.10307 14.3782L3.7662 16.7096C3.76611 16.7102 3.76603 16.7108 3.76595 16.7114C3.73284 16.9515 3.75141 17.1958 3.82042 17.4281C3.88961 17.661 4.00789 17.8764 4.16729 18.0597C4.32669 18.2431 4.52352 18.3901 4.74453 18.491C4.96535 18.5918 5.20519 18.6442 5.44792 18.6446C5.44813 18.6446 5.44834 18.6446 5.44854 18.6446L15.5522 18.6446C15.7952 18.6444 16.0353 18.5921 16.2563 18.4911C16.4773 18.3902 16.674 18.243 16.8332 18.0596L4.10328 14.3767ZM4.10328 14.3767L5.03541 7.83403M4.10328 14.3767L5.03541 7.83403M5.03541 7.83403C5.03545 7.83376 5.03549 7.8335 5.03552 7.83323M5.03541 7.83403L5.03552 7.83323M5.03552 7.83323C5.09404 7.43067 5.29527 7.06253 5.60254 6.79592C5.90981 6.52932 6.30266 6.38202 6.70945 6.38086H14.2883C14.5273 6.38336 14.7634 6.43395 14.9824 6.52963C15.2422 6.64653 15.4684 6.82702 15.6401 7.05445C15.8122 7.28258 15.924 7.55054 15.9648 7.83342C15.9648 7.83349 15.9648 7.83356 15.9649 7.83363L17.234 16.7088C17.2341 16.7093 17.2342 16.7098 17.2342 16.7104C17.2671 16.9506 17.2484 17.1951 17.1794 17.4276L17.8984 17.641L17.1794 17.4276C17.1103 17.6605 16.9923 17.8759 16.8333 18.0595L5.03552 7.83323Z" stroke="#4B84F7" stroke-width="1.5"/>
<path d="M13.6084 6.96261H7.39255C7.21592 6.96261 7.04652 6.89244 6.92163 6.76754C6.79673 6.64265 6.72656 6.47325 6.72656 6.29662V4.07666C6.72656 3.07575 7.12417 2.11584 7.83192 1.40809C8.53967 0.700344 9.49958 0.302734 10.5005 0.302734C11.5014 0.302734 12.4613 0.700344 13.1691 1.40809C13.8768 2.11584 14.2744 3.07575 14.2744 4.07666V6.29662C14.2744 6.47325 14.2043 6.64265 14.0794 6.76754C13.9545 6.89244 13.7851 6.96261 13.6084 6.96261ZM8.05854 5.63063H12.9424V4.07666C12.9424 3.42902 12.6852 2.8079 12.2272 2.34994C11.7693 1.89199 11.1481 1.63471 10.5005 1.63471C9.85285 1.63471 9.23172 1.89199 8.77377 2.34994C8.31581 2.8079 8.05854 3.42902 8.05854 4.07666V5.63063Z" fill="#4B84F7"/>
<path d="M10.4999 14.0655C9.61707 14.0644 8.77077 13.7132 8.14654 13.0889C7.52231 12.4647 7.1711 11.6184 7.16992 10.7356V9.84763C7.16992 9.671 7.24009 9.5016 7.36499 9.3767C7.48988 9.25181 7.65928 9.18164 7.83591 9.18164C8.01254 9.18164 8.18194 9.25181 8.30683 9.3767C8.43173 9.5016 8.5019 9.671 8.5019 9.84763V10.7356C8.5019 11.2655 8.7124 11.7737 9.08709 12.1484C9.46178 12.5231 9.96997 12.7336 10.4999 12.7336C11.0298 12.7336 11.5379 12.5231 11.9126 12.1484C12.2873 11.7737 12.4978 11.2655 12.4978 10.7356V9.84763C12.4978 9.671 12.568 9.5016 12.6929 9.3767C12.8178 9.25181 12.9872 9.18164 13.1638 9.18164C13.3404 9.18164 13.5098 9.25181 13.6347 9.3767C13.7596 9.5016 13.8298 9.671 13.8298 9.84763V10.7356C13.8286 11.6184 13.4774 12.4647 12.8532 13.0889C12.229 13.7132 11.3827 14.0644 10.4999 14.0655Z" fill="#4B84F7"/>
</svg>
