<svg width="20" height="20" viewBox="0 0 20 20" fill="none" xmlns="http://www.w3.org/2000/svg">
<path d="M15.8337 9.16602C15.8337 10.7131 15.2191 12.1968 14.1251 13.2908C13.0312 14.3848 11.5474 14.9993 10.0003 14.9993M10.0003 14.9993C8.45323 14.9993 6.9695 14.3848 5.87554 13.2908C4.78157 12.1968 4.16699 10.7131 4.16699 9.16602M10.0003 14.9993V18.3327M10.0003 18.3327H6.66699M10.0003 18.3327H13.3337M10.0003 11.666C9.33728 11.666 8.7014 11.4026 8.23256 10.9338C7.76372 10.4649 7.50033 9.82906 7.50033 9.16602V4.16602C7.50033 3.50297 7.76372 2.86709 8.23256 2.39825C8.7014 1.92941 9.33728 1.66602 10.0003 1.66602C10.6634 1.66602 11.2993 1.92941 11.7681 2.39825C12.2369 2.86709 12.5003 3.50297 12.5003 4.16602V9.16602C12.5003 9.82906 12.2369 10.4649 11.7681 10.9338C11.2993 11.4026 10.6634 11.666 10.0003 11.666Z" stroke="#4B84F7" stroke-width="1.5" stroke-linecap="round" stroke-linejoin="round"/>
</svg>
