<svg width="21" height="20" viewBox="0 0 21 20" fill="none" xmlns="http://www.w3.org/2000/svg">
<path d="M7.16634 13.334H5.49967C5.05765 13.334 4.63372 13.1584 4.32116 12.8458C4.0086 12.5333 3.83301 12.1093 3.83301 11.6673V5.00065C3.83301 4.55862 4.0086 4.1347 4.32116 3.82214C4.63372 3.50958 5.05765 3.33398 5.49967 3.33398H12.1663C12.6084 3.33398 13.0323 3.50958 13.3449 3.82214C13.6574 4.1347 13.833 4.55862 13.833 5.00065V6.66732M8.83301 16.6673H15.4997C15.9417 16.6673 16.3656 16.4917 16.6782 16.1792C16.9907 15.8666 17.1663 15.4427 17.1663 15.0007V8.33398C17.1663 7.89196 16.9907 7.46803 16.6782 7.15547C16.3656 6.84291 15.9417 6.66732 15.4997 6.66732H8.83301C8.39098 6.66732 7.96706 6.84291 7.6545 7.15547C7.34194 7.46803 7.16634 7.89196 7.16634 8.33398V15.0007C7.16634 15.4427 7.34194 15.8666 7.6545 16.1792C7.96706 16.4917 8.39098 16.6673 8.83301 16.6673Z" stroke="#4B84F7" stroke-width="1.5" stroke-linecap="round" stroke-linejoin="round"/>
</svg>
