<svg width="22" height="17" viewBox="0 0 22 17" fill="none" xmlns="http://www.w3.org/2000/svg">
<path d="M2.49721 15.1313H8.79651V15.1267C9.18448 15.1267 9.49722 15.435 9.49722 15.8122C9.49722 16.1918 9.18213 16.4977 8.79651 16.4977H2.49721C1.53316 16.4977 0.747803 15.7294 0.747803 14.7863V2.46141C0.747803 1.51829 1.53316 0.75 2.49721 0.75H19.9984C20.9625 0.75 21.7478 1.51829 21.7478 2.46141V6.22696C21.7478 6.60651 21.4351 6.91244 21.0471 6.91244C20.6591 6.91244 20.3464 6.60421 20.3464 6.22696V2.46141C20.3464 2.27278 20.1889 2.11866 19.996 2.11866H2.49721C2.3044 2.11866 2.14686 2.27278 2.14686 2.46141V14.7886C2.14686 14.9772 2.3044 15.1313 2.49721 15.1313Z" fill="white"/>
<path d="M6.15121 7.66924C6.53683 7.66924 6.85191 7.36331 6.85191 6.98376V5.24705L9.12097 7.46682C9.39373 7.73365 9.83814 7.73365 10.1109 7.46682C10.3837 7.19999 10.3837 6.76523 10.1109 6.4984L7.84183 4.27863H9.61711C10.0027 4.27863 10.3178 3.9727 10.3178 3.59315C10.3178 3.21361 10.0051 2.90767 9.61711 2.90767H6.15356C6.10653 2.90767 6.06185 2.91227 6.01718 2.92147C6.00031 2.92514 5.98493 2.93027 5.96867 2.93569L5.95604 2.93987C5.94821 2.94217 5.94037 2.94422 5.93253 2.94626C5.91685 2.95035 5.90118 2.95444 5.8855 2.96058C5.87089 2.96629 5.85718 2.97379 5.84326 2.9814C5.83478 2.98604 5.82621 2.99073 5.81731 2.99508L5.80607 3.00049C5.79179 3.00729 5.77868 3.01353 5.76558 3.02268C5.68799 3.07329 5.62215 3.1377 5.57042 3.21361C5.56454 3.22166 5.55984 3.23086 5.55514 3.24006C5.55043 3.24926 5.54573 3.25846 5.53985 3.26651C5.53657 3.27228 5.53311 3.27806 5.52962 3.28388C5.52059 3.29894 5.51136 3.31433 5.50458 3.33092C5.49951 3.34333 5.4958 3.35574 5.49199 3.3685C5.48873 3.37941 5.4854 3.39057 5.48107 3.40223C5.47401 3.42063 5.46696 3.43903 5.46461 3.45974C5.4552 3.50344 5.4505 3.54945 5.4505 3.59315V6.98146C5.4505 7.35871 5.76323 7.66694 6.15121 7.66694V7.66924Z" fill="white"/>
<path fill-rule="evenodd" clip-rule="evenodd" d="M20.3464 7.94068H11.9473C11.1761 7.94068 10.5482 8.55485 10.5482 9.30934V15.129C10.5482 15.8835 11.1761 16.4977 11.9473 16.4977H20.3464C21.1176 16.4977 21.7454 15.8835 21.7454 15.129V9.30704C21.7454 8.55255 21.1176 7.93838 20.3464 7.93838V7.94068ZM11.9473 15.1313V9.31164H20.3464V15.1313H11.9473Z" fill="white"/>
</svg>
