<svg width="24" height="11" viewBox="0 0 24 11" fill="none" xmlns="http://www.w3.org/2000/svg">
<path d="M4.76562 4.97559C4.97526 4.93685 5.16667 4.91748 5.33984 4.91748C5.67708 4.91748 5.8457 4.96875 5.8457 5.07129C5.8457 5.14648 5.73063 5.22738 5.50049 5.31396C5.27035 5.40055 4.95133 5.46891 4.54346 5.51904L4.22217 5.95312C4.50928 6.05566 4.89551 6.10693 5.38086 6.10693C5.78874 6.10693 6.20801 6.0625 6.63867 5.97363C7.07161 5.88249 7.49544 5.73665 7.91016 5.53613C8.32715 5.33561 8.69743 5.07357 9.021 4.75C9.59977 4.17122 9.88916 3.72803 9.88916 3.42041C9.88916 3.21305 9.77751 3.03418 9.5542 2.88379C9.33089 2.7334 8.96973 2.60465 8.4707 2.49756C7.97396 2.38818 7.32227 2.29932 6.51562 2.23096C6.52474 2.26742 6.5293 2.31413 6.5293 2.37109C6.5293 2.5306 6.41764 2.74023 6.19434 3L4.76562 4.97559ZM5.63379 2.34033C5.10742 2.34033 4.57194 2.38818 4.02734 2.48389C3.48275 2.57731 2.98828 2.68896 2.54395 2.81885C2.10189 2.94645 1.67578 3.08203 1.26562 3.22559C1.09473 3.27116 0.978516 3.29395 0.916992 3.29395C0.766602 3.29395 0.691406 3.23356 0.691406 3.11279C0.691406 2.98519 0.760905 2.80745 0.899902 2.57959C1.04118 2.34945 1.23714 2.06689 1.48779 1.73193C1.73844 1.39469 1.88428 1.19645 1.92529 1.13721C1.9891 1.03695 2.17594 0.936686 2.48584 0.836426C2.79801 0.733887 3.15462 0.641602 3.55566 0.55957C3.95898 0.47526 4.32471 0.411458 4.65283 0.368164C5.18376 0.27474 5.79102 0.228027 6.47461 0.228027C7.69368 0.228027 8.75212 0.423991 9.6499 0.815918C10.5477 1.20557 10.9966 1.896 10.9966 2.88721C10.9966 3.79183 10.7881 4.56201 10.3711 5.19775C9.9541 5.8335 9.40495 6.34049 8.72363 6.71875C8.04232 7.09473 7.3029 7.36475 6.50537 7.52881C5.71012 7.69287 4.91602 7.7749 4.12305 7.7749C3.70378 7.7749 3.29704 7.75098 2.90283 7.70312L2.47217 8.57129C2.62028 8.63509 2.69434 8.7194 2.69434 8.82422C2.69434 8.89941 2.63053 9.02132 2.50293 9.18994C2.37533 9.35628 2.28988 9.48161 2.24658 9.56592C2.13037 9.83936 1.93441 10.0946 1.65869 10.3315C1.38525 10.5685 1.14714 10.687 0.944336 10.687C0.757487 10.687 0.645833 10.5651 0.609375 10.3213C0.609375 10.0273 0.702799 9.68213 0.889648 9.28564C1.0765 8.88688 1.42171 8.24772 1.92529 7.36816C1.71338 7.30892 1.54818 7.21322 1.42969 7.08105C1.3112 6.94889 1.25195 6.80192 1.25195 6.64014C1.25195 6.34619 1.43538 6.06364 1.80225 5.79248C2.17139 5.51904 2.72054 5.31624 3.44971 5.18408L5.63379 2.34033ZM18.0034 3.32129L22.0469 1.36279C22.7008 1.06429 23.1304 0.915039 23.3354 0.915039C23.495 0.915039 23.5747 0.97998 23.5747 1.10986C23.5747 1.14632 23.5417 1.26823 23.4756 1.47559C23.3092 1.84701 23.0996 2.1307 22.8467 2.32666C22.5938 2.52262 22.3511 2.62061 22.1187 2.62061C22.007 2.62061 21.909 2.60238 21.8247 2.56592L17.0225 4.97559C16.6579 5.14876 16.4756 5.35384 16.4756 5.59082C16.4756 5.74349 16.5508 5.86426 16.7012 5.95312L21.2778 8.79688C21.4601 8.85612 21.5968 8.95752 21.688 9.10107C21.7791 9.24235 21.8247 9.4668 21.8247 9.77441C21.8247 10.2894 21.647 10.5469 21.2915 10.5469C21.0705 10.5469 20.7765 10.4398 20.4097 10.2256L15.2725 7.15967L14.165 8.47559C14.0488 8.96094 13.8175 9.33919 13.4712 9.61035C13.1248 9.87923 12.7922 10.0137 12.4731 10.0137C12.1746 10.0137 12.0254 9.90658 12.0254 9.69238C12.0254 9.55794 12.0858 9.40413 12.2065 9.23096L14.4043 6.5C14.2448 6.25163 14.165 6.04199 14.165 5.87109C14.165 5.69108 14.2402 5.51676 14.3906 5.34814C14.5433 5.17952 14.7826 4.99837 15.1084 4.80469C15.4342 4.60872 15.89 4.37061 16.4756 4.09033L17.7778 2.11816C17.3586 2.15918 16.8778 2.28109 16.3354 2.48389C15.7931 2.68669 15.1141 2.9738 14.2983 3.34521C13.4849 3.71663 12.889 3.97868 12.5107 4.13135C12.1348 4.28174 11.8283 4.35693 11.5913 4.35693C11.3475 4.35693 11.2256 4.23161 11.2256 3.98096C11.2256 3.68018 11.3031 3.32699 11.458 2.92139C11.613 2.51351 11.7497 2.24577 11.8682 2.11816C11.9229 2.06576 12.0698 1.95752 12.3091 1.79346C12.5506 1.62939 12.7352 1.48584 12.8628 1.36279C13.159 1.10986 13.4062 0.983398 13.6045 0.983398C13.6979 0.983398 13.7446 1.021 13.7446 1.09619C13.7446 1.2238 13.5635 1.45736 13.2012 1.79688C13.3516 1.73991 13.6455 1.61914 14.083 1.43457C14.5205 1.24772 14.9136 1.08708 15.2622 0.952637C15.6131 0.818197 15.9937 0.69401 16.4038 0.580078C16.8162 0.463867 17.2048 0.393229 17.5693 0.368164C17.681 0.359049 17.82 0.354492 17.9863 0.354492C18.2347 0.354492 18.401 0.389811 18.4854 0.460449C18.5697 0.528809 18.6973 0.684896 18.8682 0.928711C19.0186 1.11328 19.0938 1.30469 19.0938 1.50293C19.0938 1.62826 19.0562 1.76383 18.981 1.90967L18.0034 3.32129Z" fill="#4B84F7"/>
</svg>
