<svg width="25" height="11" viewBox="0 0 25 11" fill="none" xmlns="http://www.w3.org/2000/svg">
<path d="M5.80908 2.45312C4.51025 2.58757 3.56234 2.80745 2.96533 3.11279C3.22965 3.09456 3.39827 3.08545 3.47119 3.08545C3.92008 3.08545 4.14453 3.14128 4.14453 3.25293C4.14453 3.3418 3.97135 3.43978 3.625 3.54688C3.38118 3.58789 3.05534 3.66878 2.64746 3.78955C2.24186 3.90804 2.02197 3.97184 1.98779 3.98096C1.75537 4.07438 1.56396 4.12109 1.41357 4.12109C1.04899 4.12109 0.866699 3.9012 0.866699 3.46143C0.866699 3.0376 0.98291 2.58984 1.21533 2.11816C1.58219 1.57129 2.33643 1.12467 3.47803 0.77832C4.61963 0.429688 5.81706 0.255371 7.07031 0.255371C7.52832 0.255371 7.96126 0.281576 8.36914 0.333984C8.7793 0.384115 9.15983 0.462728 9.51074 0.569824C9.86165 0.674642 10.1704 0.8125 10.437 0.983398C10.7059 1.15202 10.9132 1.34798 11.0591 1.57129C11.647 2.42122 11.9409 3.27116 11.9409 4.12109C11.9409 4.84342 11.7393 5.51676 11.3359 6.14111C10.9326 6.76546 10.4062 7.32373 9.75684 7.81592C9.27604 8.18962 8.73714 8.5223 8.14014 8.81396C7.54313 9.10335 6.93815 9.34489 6.3252 9.53857C5.71452 9.72998 5.1084 9.88379 4.50684 10C4.07617 10.0934 3.59538 10.1401 3.06445 10.1401C2.62467 10.1401 2.24186 10.1014 1.91602 10.0239C1.59245 9.94645 1.39648 9.83138 1.32812 9.67871C1.26432 9.52148 1.23242 9.33464 1.23242 9.11816C1.23242 8.59863 1.44661 8.0529 1.875 7.48096L5.80908 2.45312ZM6.80371 2.34033C6.80371 2.48161 6.76725 2.63883 6.69434 2.81201C6.62142 2.98519 6.50863 3.12305 6.35596 3.22559L3.19092 7.48096C3.01318 7.72477 2.92432 7.92074 2.92432 8.06885C2.92432 8.35824 3.2137 8.50293 3.79248 8.50293C4.15479 8.50293 4.5752 8.45622 5.05371 8.36279C5.95605 8.20785 6.81738 7.96745 7.6377 7.6416C8.46029 7.31348 9.15527 6.89535 9.72266 6.38721C10.2923 5.87679 10.6307 5.29346 10.7378 4.63721C10.7651 4.49821 10.7788 4.36833 10.7788 4.24756C10.7788 3.80778 10.6341 3.45915 10.3447 3.20166C10.0553 2.94417 9.69759 2.7596 9.27148 2.64795C8.84538 2.53402 8.39648 2.45996 7.9248 2.42578C7.4554 2.38932 7.08171 2.36084 6.80371 2.34033ZM18.9409 3.32129L22.9844 1.36279C23.6383 1.06429 24.0679 0.915039 24.2729 0.915039C24.4325 0.915039 24.5122 0.97998 24.5122 1.10986C24.5122 1.14632 24.4792 1.26823 24.4131 1.47559C24.2467 1.84701 24.0371 2.1307 23.7842 2.32666C23.5312 2.52262 23.2886 2.62061 23.0562 2.62061C22.9445 2.62061 22.8465 2.60238 22.7622 2.56592L17.96 4.97559C17.5954 5.14876 17.4131 5.35384 17.4131 5.59082C17.4131 5.74349 17.4883 5.86426 17.6387 5.95312L22.2153 8.79688C22.3976 8.85612 22.5343 8.95752 22.6255 9.10107C22.7166 9.24235 22.7622 9.4668 22.7622 9.77441C22.7622 10.2894 22.5845 10.5469 22.229 10.5469C22.008 10.5469 21.714 10.4398 21.3472 10.2256L16.21 7.15967L15.1025 8.47559C14.9863 8.96094 14.755 9.33919 14.4087 9.61035C14.0623 9.87923 13.7297 10.0137 13.4106 10.0137C13.1121 10.0137 12.9629 9.90658 12.9629 9.69238C12.9629 9.55794 13.0233 9.40413 13.144 9.23096L15.3418 6.5C15.1823 6.25163 15.1025 6.04199 15.1025 5.87109C15.1025 5.69108 15.1777 5.51676 15.3281 5.34814C15.4808 5.17952 15.7201 4.99837 16.0459 4.80469C16.3717 4.60872 16.8275 4.37061 17.4131 4.09033L18.7153 2.11816C18.2961 2.15918 17.8153 2.28109 17.2729 2.48389C16.7306 2.68669 16.0516 2.9738 15.2358 3.34521C14.4224 3.71663 13.8265 3.97868 13.4482 4.13135C13.0723 4.28174 12.7658 4.35693 12.5288 4.35693C12.285 4.35693 12.1631 4.23161 12.1631 3.98096C12.1631 3.68018 12.2406 3.32699 12.3955 2.92139C12.5505 2.51351 12.6872 2.24577 12.8057 2.11816C12.8604 2.06576 13.0073 1.95752 13.2466 1.79346C13.4881 1.62939 13.6727 1.48584 13.8003 1.36279C14.0965 1.10986 14.3438 0.983398 14.542 0.983398C14.6354 0.983398 14.6821 1.021 14.6821 1.09619C14.6821 1.2238 14.501 1.45736 14.1387 1.79688C14.2891 1.73991 14.583 1.61914 15.0205 1.43457C15.458 1.24772 15.8511 1.08708 16.1997 0.952637C16.5506 0.818197 16.9312 0.69401 17.3413 0.580078C17.7537 0.463867 18.1423 0.393229 18.5068 0.368164C18.6185 0.359049 18.7575 0.354492 18.9238 0.354492C19.1722 0.354492 19.3385 0.389811 19.4229 0.460449C19.5072 0.528809 19.6348 0.684896 19.8057 0.928711C19.9561 1.11328 20.0312 1.30469 20.0312 1.50293C20.0312 1.62826 19.9937 1.76383 19.9185 1.90967L18.9409 3.32129Z" fill="#4B84F7"/>
</svg>
