<svg width="20" height="20" viewBox="0 0 20 20" fill="none" xmlns="http://www.w3.org/2000/svg">
<path d="M13.6837 6.62461C15.717 8.65794 15.717 11.9579 13.6837 13.9913C11.6503 16.0246 8.35033 16.0246 6.31699 13.9913C4.28366 11.9579 4.28366 8.65794 6.31699 6.62461C8.35033 4.59128 11.6503 4.59128 13.6837 6.62461Z" fill="#4B84F7"/>
<path d="M6.87486 18.6581C6.79986 18.6581 6.71653 18.6414 6.64153 18.6164C4.76653 17.8664 3.24986 16.5414 2.2332 14.7914C1.24986 13.0831 0.858196 11.1497 1.11653 9.18306C1.1582 8.84139 1.4832 8.59972 1.81653 8.64139C2.1582 8.68306 2.39986 8.99972 2.3582 9.34139C2.14153 11.0331 2.47486 12.6997 3.31653 14.1664C4.1832 15.6664 5.49153 16.8081 7.09986 17.4497C7.41653 17.5831 7.57486 17.9414 7.44986 18.2664C7.3582 18.5081 7.11653 18.6581 6.87486 18.6581Z" fill="#4B84F7"/>
<path d="M4.87468 4.35846C4.69135 4.35846 4.50801 4.27513 4.38301 4.1168C4.16635 3.85013 4.21635 3.45846 4.49135 3.2418C6.07468 2.00013 7.98301 1.3418 9.99968 1.3418C11.9663 1.3418 13.8413 1.97513 15.4163 3.17513C15.6913 3.38346 15.7413 3.77513 15.533 4.05013C15.3247 4.32513 14.933 4.37513 14.658 4.1668C13.2997 3.13346 11.6913 2.5918 9.99968 2.5918C8.26635 2.5918 6.62468 3.15846 5.25801 4.22513C5.14135 4.3168 5.00801 4.35846 4.87468 4.35846Z" fill="#4B84F7"/>
<path d="M13.1252 18.6575C12.8752 18.6575 12.6419 18.5075 12.5419 18.2659C12.4169 17.9492 12.5669 17.5825 12.8919 17.4492C14.5002 16.7992 15.8086 15.6659 16.6752 14.1659C17.5252 12.6992 17.8586 11.0325 17.6336 9.3492C17.5919 9.00754 17.8336 8.69087 18.1752 8.6492C18.5086 8.60754 18.8336 8.8492 18.8752 9.19087C19.1252 11.1492 18.7419 13.0909 17.7586 14.7992C16.7502 16.5492 15.2252 17.8659 13.3502 18.6242C13.2836 18.6409 13.2086 18.6575 13.1252 18.6575Z" fill="#4B84F7"/>
</svg>
