<svg width="20" height="20" viewBox="0 0 20 20" fill="none" xmlns="http://www.w3.org/2000/svg">
<path d="M2.80866 16.7493C2.02533 15.8077 1.66699 14.4243 1.66699 12.4993V7.49935C1.66699 3.33268 3.33366 1.66602 7.50033 1.66602H12.5003C14.3253 1.66602 15.667 1.98268 16.6003 2.69102" stroke="#4B84F7" stroke-width="1.5" stroke-linecap="round" stroke-linejoin="round"/>
<path d="M18.3081 6.6582C18.3248 6.92487 18.3331 7.2082 18.3331 7.49987V12.4999C18.3331 16.6665 16.6665 18.3332 12.4998 18.3332H7.4998C6.88314 18.3332 6.31647 18.2999 5.7998 18.2165" stroke="#4B84F7" stroke-width="1.5" stroke-linecap="round" stroke-linejoin="round"/>
<path d="M6.66667 8.33333C7.58714 8.33333 8.33333 7.58714 8.33333 6.66667C8.33333 5.74619 7.58714 5 6.66667 5C5.74619 5 5 5.74619 5 6.66667C5 7.58714 5.74619 8.33333 6.66667 8.33333Z" stroke="#4B84F7" stroke-width="1.5" stroke-linecap="round" stroke-linejoin="round"/>
<path d="M18.3337 1.66602L1.66699 18.3327" stroke="#4B84F7" stroke-width="1.5" stroke-linecap="round" stroke-linejoin="round"/>
<path d="M9.52539 13.709C9.77539 13.959 10.1837 13.959 10.4337 13.709L14.6254 9.50898C15.2754 8.85898 16.3254 8.85898 16.9754 9.50898L18.3337 10.8757" stroke="#4B84F7" stroke-width="1.5" stroke-linecap="round" stroke-linejoin="round"/>
</svg>
