<svg width="21" height="20" viewBox="0 0 21 20" fill="none" xmlns="http://www.w3.org/2000/svg">
<path d="M8.00033 18.9583C4.44199 18.9583 1.54199 16.0583 1.54199 12.5C1.54199 12.1583 1.82533 11.875 2.16699 11.875C2.50866 11.875 2.79199 12.1583 2.79199 12.5C2.79199 14.9667 4.50865 17.0334 6.81698 17.575L6.59199 17.2C6.41699 16.9 6.50867 16.5167 6.80867 16.3417C7.10033 16.1667 7.492 16.2583 7.667 16.5583L8.54199 18.0167C8.65865 18.2083 8.65866 18.45 8.55033 18.6417C8.43366 18.8333 8.22533 18.9583 8.00033 18.9583Z" fill="#4B84F7"/>
<path d="M18.8337 8.12435C18.492 8.12435 18.2087 7.84102 18.2087 7.49935C18.2087 5.03268 16.492 2.96599 14.1837 2.42433L14.4087 2.79934C14.5837 3.09934 14.492 3.48269 14.192 3.65769C13.9003 3.83269 13.5087 3.74102 13.3337 3.44102L12.4587 1.98269C12.342 1.79102 12.342 1.54935 12.4504 1.35769C12.5587 1.15769 12.767 1.04102 12.992 1.04102C16.5503 1.04102 19.4503 3.94102 19.4503 7.49935C19.4587 7.84102 19.1754 8.12435 18.8337 8.12435Z" fill="#4B84F7"/>
<path d="M14.2473 6.33268C13.9087 6.33268 13.5978 6.1431 13.4424 5.8506L13.0427 5.06518C12.7874 4.57227 12.1212 4.16602 11.555 4.16602H10.2839C9.7121 4.16602 9.04598 4.57227 8.79063 5.06518L8.39096 5.8506C8.23553 6.1431 7.92467 6.33268 7.58606 6.33268C6.38149 6.33268 5.42672 7.32393 5.50443 8.49393L5.79308 12.9681C5.85969 14.0839 6.47586 14.9993 8.00794 14.9993H13.8254C15.3575 14.9993 15.9681 14.0839 16.0403 12.9681L16.3289 8.49393C16.4066 7.32393 15.4518 6.33268 14.2473 6.33268ZM10.084 7.00977H11.7493C11.9769 7.00977 12.1656 7.19393 12.1656 7.41602C12.1656 7.6381 11.9769 7.82227 11.7493 7.82227H10.084C9.85642 7.82227 9.66769 7.6381 9.66769 7.41602C9.66769 7.19393 9.85642 7.00977 10.084 7.00977ZM10.9167 12.8977C9.88418 12.8977 9.04042 12.0798 9.04042 11.0668C9.04042 10.0539 9.87863 9.23602 10.9167 9.23602C11.9547 9.23602 12.7929 10.0539 12.7929 11.0668C12.7929 12.0798 11.9492 12.8977 10.9167 12.8977Z" fill="#4B84F7"/>
</svg>
