<svg width="21" height="18" viewBox="0 0 21 18" fill="none" xmlns="http://www.w3.org/2000/svg">
<path d="M16.7761 3.07879H15.6689C15.1957 3.07879 15.0772 2.72266 14.8561 2.28027C14.328 1.22418 13.2669 0.568359 12.0866 0.568359H8.91344C7.73309 0.568359 6.67195 1.22418 6.14395 2.28027C5.92281 2.72266 5.80434 3.07879 5.33105 3.07879H4.22395C2.16414 3.07879 0.5 4.74598 0.5 6.80277V13.7064C0.5 15.7665 2.16746 17.4304 4.22395 17.4304H16.7761C18.8325 17.4304 20.5 15.7665 20.5 13.7064V6.80277C20.5 4.74598 18.8359 3.07879 16.7761 3.07879ZM6.10676 11.7819C6.0298 11.782 5.95357 11.7669 5.88247 11.7375C5.81137 11.708 5.7468 11.6648 5.69246 11.6103L4.43727 10.3551C4.20844 10.1262 4.20844 9.75527 4.43727 9.52645C4.66605 9.29762 5.03707 9.29762 5.2659 9.52645L5.52355 9.7841C5.60664 7.11078 7.80691 4.9616 10.5 4.9616C11.829 4.9616 13.0792 5.47965 14.0203 6.42035C14.2491 6.64914 14.2492 7.02012 14.0204 7.24898C13.7916 7.47781 13.4206 7.47793 13.1918 7.24914C12.472 6.52969 11.5161 6.13344 10.5 6.13344C8.45531 6.13344 6.78219 7.75367 6.69645 9.77766L6.9477 9.52645C7.17648 9.29762 7.5475 9.29762 7.77633 9.52645C8.00516 9.75527 8.00516 10.1262 7.77633 10.3551L6.52109 11.6103C6.46674 11.6648 6.40216 11.708 6.33105 11.7375C6.25994 11.7669 6.18372 11.782 6.10676 11.7819ZM16.5628 10.3551C16.334 10.5839 15.963 10.5839 15.7341 10.3551L15.4765 10.0975C15.3934 12.7707 13.1931 14.92 10.5 14.92C9.17102 14.92 7.92082 14.4019 6.97973 13.4612C6.75086 13.2324 6.75078 12.8614 6.97957 12.6326C7.20836 12.4037 7.57937 12.4036 7.8082 12.6324C8.52797 13.3519 9.48391 13.7481 10.5 13.7481C12.5447 13.7481 14.2178 12.1279 14.3036 10.1039L14.0523 10.3551C13.8235 10.5839 13.4525 10.5839 13.2237 10.3551C12.9948 10.1263 12.9948 9.75531 13.2237 9.52648L14.4789 8.27129C14.5933 8.15687 14.7432 8.09965 14.8932 8.09965C15.0431 8.09965 15.1931 8.15684 15.3075 8.27129L16.5627 9.52648C16.7916 9.75531 16.7916 10.1263 16.5628 10.3551Z" fill="#4B84F7"/>
</svg>
