<svg width="20" height="20" viewBox="0 0 20 20" fill="none" xmlns="http://www.w3.org/2000/svg">
<path fill-rule="evenodd" clip-rule="evenodd" d="M7.87868 1.87868C7.31607 2.44129 7 3.20435 7 4V4.82397L12.2558 9.97773C12.734 9.43229 13 8.72985 13 8V4C13 3.20435 12.6839 2.44129 12.1213 1.87868C11.5587 1.31607 10.7956 1 10 1C9.20435 1 8.44129 1.31607 7.87868 1.87868ZM8.72196 10.7141L7.31142 9.331C7.45492 9.62088 7.64565 9.88829 7.87868 10.1213C8.12583 10.3685 8.41167 10.568 8.72196 10.7141ZM10.9585 12.9073L12.5884 14.5055C12.081 14.7075 11.5482 14.8508 11 14.93V17H14C14.2652 17 14.5196 17.1054 14.7071 17.2929C14.8946 17.4804 15 17.7348 15 18C15 18.2652 14.8946 18.5196 14.7071 18.7071C14.5196 18.8946 14.2652 19 14 19H6C5.73478 19 5.48043 18.8946 5.29289 18.7071C5.10536 18.5196 5 18.2652 5 18C5 17.7348 5.10536 17.4804 5.29289 17.2929C5.48043 17.1054 5.73478 17 6 17H9V14.93C7.33379 14.6893 5.81011 13.8562 4.70815 12.5835C3.6062 11.3107 2.99978 9.68351 3 8C3 7.73478 3.10536 7.48043 3.29289 7.29289C3.48043 7.10536 3.73478 7 4 7C4.26522 7 4.51957 7.10536 4.70711 7.29289C4.89464 7.48043 5 7.73478 5 8C5 9.32608 5.52678 10.5979 6.46447 11.5355C7.40215 12.4732 8.67392 13 10 13C10.3241 13 10.645 12.9685 10.9585 12.9073ZM15.1144 12.7808L13.6851 11.3793C14.5291 10.4591 15 9.25382 15 8C15 7.73478 15.1054 7.48043 15.2929 7.29289C15.4804 7.10536 15.7348 7 16 7C16.2652 7 16.5196 7.10536 16.7071 7.29289C16.8946 7.48043 17 7.73478 17 8C17.0002 9.68351 16.3938 11.3107 15.2918 12.5835C15.2338 12.6505 15.1747 12.7163 15.1144 12.7808Z" fill="#4B84F7"/>
<path d="M1.714 3.12788C1.31967 2.7412 1.31346 2.10806 1.70014 1.71373C2.08682 1.3194 2.71995 1.31319 3.11429 1.69987L18.1084 16.4028C18.5027 16.7895 18.5089 17.4227 18.1222 17.817C17.7356 18.2113 17.1024 18.2175 16.7081 17.8308L1.714 3.12788Z" fill="#4B84F7"/>
</svg>
