<svg width="20" height="20" viewBox="0 0 20 20" fill="none" xmlns="http://www.w3.org/2000/svg">
<path d="M1.66699 8.33283V11.6662C1.66699 13.3328 2.50033 14.1662 4.16699 14.1662H5.35866C5.66699 14.1662 5.97533 14.2578 6.24199 14.4162L8.67533 15.9412C10.7753 17.2578 12.5003 16.2995 12.5003 13.8245V6.1745C12.5003 3.69117 10.7753 2.74117 8.67533 4.05783L6.24199 5.58283C5.97533 5.74117 5.66699 5.83283 5.35866 5.83283H4.16699C2.50033 5.83283 1.66699 6.66617 1.66699 8.33283Z" stroke="#4B84F7" stroke-width="1.5"/>
<path d="M15 6.66602C16.4833 8.64102 16.4833 11.3577 15 13.3327" stroke="#4B84F7" stroke-width="1.5" stroke-linecap="round" stroke-linejoin="round"/>
<path d="M16.5254 4.58398C18.9337 7.79232 18.9337 12.209 16.5254 15.4173" stroke="#4B84F7" stroke-width="1.5" stroke-linecap="round" stroke-linejoin="round"/>
</svg>
