<svg width="20" height="20" viewBox="0 0 20 20" fill="none" xmlns="http://www.w3.org/2000/svg">
<path fill-rule="evenodd" clip-rule="evenodd" d="M7.00533 3.24167L5.83366 5H5.00033C4.11627 5 3.26842 5.35119 2.6433 5.97631C2.01818 6.60143 1.66699 7.44928 1.66699 8.33333V14.1667C1.66699 15.0507 2.01818 15.8986 2.6433 16.5237C3.26842 17.1488 4.11627 17.5 5.00033 17.5H15.0003C15.8844 17.5 16.7322 17.1488 17.3573 16.5237C17.9825 15.8986 18.3337 15.0507 18.3337 14.1667V8.33333C18.3337 7.44928 17.9825 6.60143 17.3573 5.97631C16.7322 5.35119 15.8844 5 15.0003 5H14.167L12.9953 3.24167C12.8431 3.01347 12.6369 2.82639 12.395 2.69701C12.1531 2.56763 11.883 2.49996 11.6087 2.5H8.39199C8.11767 2.49996 7.84758 2.56763 7.60569 2.69701C7.36379 2.82639 7.15757 3.01347 7.00533 3.24167ZM12.5003 11.25C12.5003 11.913 12.2369 12.5489 11.7681 13.0178C11.2993 13.4866 10.6634 13.75 10.0003 13.75C9.33728 13.75 8.7014 13.4866 8.23256 13.0178C7.76372 12.5489 7.50033 11.913 7.50033 11.25C7.50033 10.587 7.76372 9.95107 8.23256 9.48223C8.7014 9.01339 9.33728 8.75 10.0003 8.75C10.6634 8.75 11.2993 9.01339 11.7681 9.48223C12.2369 9.95107 12.5003 10.587 12.5003 11.25ZM10.0003 5.83333C10.2213 5.83333 10.4333 5.74554 10.5896 5.58926C10.7459 5.43298 10.8337 5.22101 10.8337 5C10.8337 4.77899 10.7459 4.56702 10.5896 4.41074C10.4333 4.25446 10.2213 4.16667 10.0003 4.16667C9.77931 4.16667 9.56735 4.25446 9.41107 4.41074C9.25479 4.56702 9.16699 4.77899 9.16699 5C9.16699 5.22101 9.25479 5.43298 9.41107 5.58926C9.56735 5.74554 9.77931 5.83333 10.0003 5.83333Z" fill="#4B84F7"/>
</svg>
