<svg width="20" height="20" viewBox="0 0 20 20" fill="none" xmlns="http://www.w3.org/2000/svg">
<mask id="path-1-inside-1_6822_89482" fill="white">
<path fill-rule="evenodd" clip-rule="evenodd" d="M1.22536 2.10772C1.11496 1.98924 1.05486 1.83253 1.05771 1.67061C1.06057 1.5087 1.12616 1.35421 1.24068 1.2397C1.35519 1.12519 1.50967 1.05959 1.67159 1.05674C1.83351 1.05388 1.99021 1.11398 2.10869 1.22438L18.7754 17.8911C18.8368 17.9483 18.886 18.0173 18.9202 18.0939C18.9543 18.1706 18.9727 18.2534 18.9742 18.3373C18.9757 18.4212 18.9602 18.5046 18.9288 18.5824C18.8974 18.6602 18.8506 18.7309 18.7912 18.7902C18.7319 18.8496 18.6612 18.8964 18.5834 18.9278C18.5055 18.9593 18.4222 18.9747 18.3383 18.9732C18.2543 18.9717 18.1716 18.9534 18.0949 18.9192C18.0182 18.885 17.9492 18.8358 17.892 18.7744L16.3379 17.2202C15.9162 17.4049 15.4607 17.5 15.0004 17.4994H5.00036C4.11631 17.4994 3.26846 17.1482 2.64334 16.5231C2.01822 15.898 1.66703 15.0501 1.66703 14.166V8.33272C1.66703 6.76355 2.75036 5.44855 4.21036 5.09355L1.22536 2.10772ZM8.42536 9.30772C8.15361 9.52839 7.93124 9.80367 7.77263 10.1157C7.61403 10.4278 7.52273 10.7697 7.50465 11.1193C7.48656 11.4689 7.5421 11.8184 7.66766 12.1452C7.79323 12.4719 7.98601 12.7687 8.23354 13.0162C8.48107 13.2637 8.77783 13.4565 9.10459 13.5821C9.43136 13.7076 9.78085 13.7632 10.1304 13.7451C10.48 13.727 10.8219 13.6357 11.134 13.4771C11.4461 13.3185 11.7214 13.0961 11.942 12.8244L8.42536 9.30772ZM8.39203 2.49938H11.6087C11.883 2.49934 12.1531 2.56701 12.395 2.69639C12.6369 2.82577 12.8431 3.01286 12.9954 3.24105L14.167 4.99938H15.0004C15.8844 4.99938 16.7323 5.35057 17.3574 5.97569C17.9825 6.60082 18.3337 7.44866 18.3337 8.33272V14.166C18.3337 14.4235 18.3045 14.6744 18.2495 14.9152L6.83369 3.49938L7.00536 3.24105C7.15761 3.01286 7.36383 2.82577 7.60572 2.69639C7.84762 2.56701 8.11771 2.49934 8.39203 2.49938ZM10.0004 5.83272C10.2214 5.83272 10.4333 5.74492 10.5896 5.58864C10.7459 5.43236 10.8337 5.2204 10.8337 4.99938C10.8337 4.77837 10.7459 4.56641 10.5896 4.41013C10.4333 4.25385 10.2214 4.16605 10.0004 4.16605C9.77935 4.16605 9.56738 4.25385 9.4111 4.41013C9.25482 4.56641 9.16703 4.77837 9.16703 4.99938C9.16703 5.2204 9.25482 5.43236 9.4111 5.58864C9.56738 5.74492 9.77935 5.83272 10.0004 5.83272Z"/>
</mask>
<path d="M1.22536 2.10772L-10.4804 13.0153L-10.2887 13.221L-10.0899 13.4198L1.22536 2.10772ZM2.10869 1.22438L13.4224 -10.0893L13.2228 -10.2889L13.0163 -10.4814L2.10869 1.22438ZM18.7754 17.8911L7.46165 29.2048L7.66127 29.4044L7.8678 29.5968L18.7754 17.8911ZM17.892 18.7744L29.5978 7.86683L29.4054 7.66029L29.2057 7.46068L17.892 18.7744ZM16.3379 17.2202L27.6516 5.90651L19.9259 -1.81918L9.91813 2.5646L16.3379 17.2202ZM15.0004 17.4994L15.0216 1.4994L15.011 1.49938H15.0004V17.4994ZM1.66703 14.166H-14.333H1.66703ZM4.21036 5.09355L7.99063 20.6406L35.653 13.9144L15.5256 -6.21858L4.21036 5.09355ZM8.42536 9.30772L19.7391 -2.00599L9.53818 -12.2069L-1.66072 -3.11287L8.42536 9.30772ZM11.942 12.8244L24.3626 22.9105L33.4566 11.7116L23.2557 1.51068L11.942 12.8244ZM8.39203 2.49938L8.38963 18.4994H8.39203V2.49938ZM11.6087 2.49938V18.4994H11.6111L11.6087 2.49938ZM12.9954 3.24105L26.3101 -5.63124L26.305 -5.63895L12.9954 3.24105ZM14.167 4.99938L0.852281 13.8717L5.60184 20.9994H14.167V4.99938ZM15.0004 4.99938V-11.0006V4.99938ZM18.2495 14.9152L6.93582 26.2289L27.4034 46.6965L33.8479 18.4775L18.2495 14.9152ZM6.83369 3.49938L-6.49231 -5.35599L-13.741 5.55215L-4.48002 14.8131L6.83369 3.49938ZM7.00536 3.24105L-6.30424 -5.63895L-6.31246 -5.62664L-6.32065 -5.61432L7.00536 3.24105ZM12.9311 -8.79984C15.647 -5.88525 17.1255 -2.0303 17.0552 1.95287L-14.9398 1.38836C-15.0158 5.69536 -13.4171 9.86373 -10.4804 13.0153L12.9311 -8.79984ZM17.0552 1.95287C16.9849 5.93604 15.3714 9.73644 12.5544 12.5534L-10.073 -10.074C-13.119 -7.02802 -14.8638 -2.91865 -14.9398 1.38836L17.0552 1.95287ZM12.5544 12.5534C9.73741 15.3704 5.93702 16.984 1.95385 17.0542L1.38933 -14.9408C-2.91767 -14.8648 -7.02704 -13.12 -10.073 -10.074L12.5544 12.5534ZM1.95385 17.0542C-2.02932 17.1245 -5.88427 15.646 -8.79886 12.9302L13.0163 -10.4814C9.8647 -13.418 5.69634 -15.0168 1.38933 -14.9408L1.95385 17.0542ZM-9.20501 12.5381L7.46165 29.2048L30.0891 6.57734L13.4224 -10.0893L-9.20501 12.5381ZM7.8678 29.5968C6.3572 28.1892 5.14562 26.4918 4.30529 24.6059L33.5351 11.582C32.6264 9.54272 31.3163 7.70731 29.6829 6.18527L7.8678 29.5968ZM4.30529 24.6059C3.46491 22.7198 3.0131 20.6838 2.97668 18.6195L34.9717 18.055C34.9323 15.8229 34.4438 13.6214 33.5351 11.582L4.30529 24.6059ZM2.97668 18.6195C2.94025 16.5552 3.31999 14.5046 4.09329 12.5901L33.7643 24.5747C34.6005 22.5045 35.0111 20.2872 34.9717 18.055L2.97668 18.6195ZM4.09329 12.5901C4.86658 10.6756 6.01755 8.93651 7.47752 7.47654L30.1049 30.104C31.6836 28.5253 32.9281 26.6448 33.7643 24.5747L4.09329 12.5901ZM7.47752 7.47654C8.93748 6.01657 10.6766 4.8656 12.5911 4.09231L24.5757 33.7633C26.6458 32.9272 28.5263 31.6826 30.1049 30.104L7.47752 7.47654ZM12.5911 4.09231C14.5056 3.31901 16.5562 2.93928 18.6205 2.9757L18.056 34.9707C20.2882 35.0101 22.5055 34.5995 24.5757 33.7633L12.5911 4.09231ZM18.6205 2.9757C20.6848 3.01212 22.7207 3.46394 24.6068 4.30432L11.583 33.5341C13.6224 34.4428 15.8239 34.9313 18.056 34.9707L18.6205 2.9757ZM24.6068 4.30432C26.4928 5.14464 28.1902 6.35622 29.5978 7.86683L6.18625 29.6819C7.70828 31.3154 9.5437 32.6254 11.583 33.5341L24.6068 4.30432ZM29.2057 7.46068L27.6516 5.90651L5.02415 28.5339L6.57832 30.0881L29.2057 7.46068ZM9.91813 2.5646C11.5271 1.8598 13.265 1.49707 15.0216 1.4994L14.9792 33.4994C17.6564 33.5029 20.3052 32.9501 22.7576 31.8758L9.91813 2.5646ZM15.0004 1.49938H5.00036V33.4994H15.0004V1.49938ZM5.00036 1.49938C8.35978 1.49938 11.5816 2.83391 13.957 5.20936L-8.67037 27.8368C-5.04467 31.4625 -0.127167 33.4994 5.00036 33.4994V1.49938ZM13.957 5.20936C16.3325 7.58483 17.667 10.8066 17.667 14.166H-14.333C-14.333 19.2936 -12.2961 24.2111 -8.67037 27.8368L13.957 5.20936ZM17.667 14.166V8.33272H-14.333V14.166H17.667ZM17.667 8.33272C17.667 14.3161 13.5335 19.2928 7.99063 20.6406L0.430094 -10.4535C-8.03279 -8.39571 -14.333 -0.788965 -14.333 8.33272H17.667ZM15.5256 -6.21858L12.5406 -9.20441L-10.0899 13.4198L-7.10493 16.4057L15.5256 -6.21858ZM-1.66072 -3.11287C-3.67165 -1.4799 -5.31722 0.55718 -6.49089 2.86648L22.0362 17.365C21.1797 19.0502 19.9789 20.5367 18.5114 21.7283L-1.66072 -3.11287ZM-6.49089 2.86648C-7.66457 5.17578 -8.34018 7.70582 -8.47399 10.2928L23.4833 11.9458C23.3856 13.8336 22.8926 15.6798 22.0362 17.365L-6.49089 2.86648ZM-8.47399 10.2928C-8.6078 12.8798 -8.19682 15.4661 -7.26767 17.8841L22.603 6.40617C23.281 8.17071 23.5809 10.058 23.4833 11.9458L-8.47399 10.2928ZM-7.26767 17.8841C-6.33851 20.3022 -4.91188 22.4982 -3.08017 24.3299L19.5473 1.70249C20.8839 3.03915 21.925 4.64163 22.603 6.40617L-7.26767 17.8841ZM-3.08017 24.3299C-1.24843 26.1616 0.947557 27.5883 3.36561 28.5174L14.8436 -1.35325C16.6081 -0.675224 18.2106 0.365819 19.5473 1.70249L-3.08017 24.3299ZM3.36561 28.5174C5.78366 29.4466 8.36991 29.8575 10.9569 29.7237L9.30397 -2.23354C11.1918 -2.33119 13.0791 -2.03128 14.8436 -1.35325L3.36561 28.5174ZM10.9569 29.7237C13.5439 29.5899 16.074 28.9143 18.3833 27.7406L3.88475 -0.786418C5.56989 -1.64287 7.41614 -2.1359 9.30397 -2.23354L10.9569 29.7237ZM18.3833 27.7406C20.6925 26.567 22.7296 24.9214 24.3626 22.9105L-0.478563 2.73831C0.713078 1.27085 2.1996 0.0700348 3.88475 -0.786418L18.3833 27.7406ZM23.2557 1.51068L19.7391 -2.00599L-2.88835 20.6214L0.628318 24.1381L23.2557 1.51068ZM8.39203 18.4994H11.6087V-13.5006H8.39203V18.4994ZM11.6111 18.4994C9.25193 18.4997 6.92916 17.9178 4.84887 16.8051L19.9411 -11.4123C17.377 -12.7837 14.5141 -13.5011 11.6063 -13.5006L11.6111 18.4994ZM4.84887 16.8051C2.76857 15.6924 0.995079 14.0835 -0.314246 12.1211L26.305 -5.63895C24.6911 -8.05779 22.5052 -10.0409 19.9411 -11.4123L4.84887 16.8051ZM-0.319386 12.1133L0.852281 13.8717L27.4818 -3.87291L26.3101 -5.63124L-0.319386 12.1133ZM14.167 20.9994H15.0004V-11.0006H14.167V20.9994ZM15.0004 20.9994C11.641 20.9994 8.41913 19.6649 6.04367 17.2894L28.6711 -5.33801C25.0454 -8.96372 20.1279 -11.0006 15.0004 -11.0006V20.9994ZM6.04367 17.2894C3.66822 14.9139 2.33369 11.6921 2.33369 8.33272H34.3337C34.3337 3.20519 32.2968 -1.71232 28.6711 -5.33801L6.04367 17.2894ZM2.33369 8.33272V14.166H34.3337V8.33272H2.33369ZM2.33369 14.166C2.33369 13.2122 2.44206 12.2684 2.65112 11.353L33.8479 18.4775C34.167 17.0804 34.3337 15.6349 34.3337 14.166H2.33369ZM29.5632 3.60151L18.1474 -7.81433L-4.48002 14.8131L6.93582 26.2289L29.5632 3.60151ZM20.1597 12.3548L20.3314 12.0964L-6.32065 -5.61432L-6.49231 -5.35599L20.1597 12.3548ZM20.315 12.1211C19.0056 14.0835 17.2322 15.6924 15.1519 16.8051L0.059593 -11.4123C-2.5045 -10.0409 -4.69042 -8.05779 -6.30424 -5.63895L20.315 12.1211ZM15.1519 16.8051C13.0716 17.9178 10.7488 18.4997 8.38963 18.4994L8.39442 -13.5006C5.48662 -13.5011 2.62367 -12.7837 0.059593 -11.4123L15.1519 16.8051ZM10.0004 21.8327C14.4648 21.8327 18.7465 20.0592 21.9033 16.9023L-0.724093 -5.72507C2.1202 -8.56936 5.9779 -10.1673 10.0004 -10.1673V21.8327ZM21.9033 16.9023C25.0602 13.7455 26.8337 9.46387 26.8337 4.99938H-5.16631C-5.16631 0.976922 -3.56839 -2.88078 -0.724093 -5.72507L21.9033 16.9023ZM26.8337 4.99938C26.8337 0.534895 25.0602 -3.74673 21.9033 -6.90358L-0.724093 15.7238C-3.56839 12.8795 -5.16631 9.02184 -5.16631 4.99938H26.8337ZM21.9033 -6.90358C18.7465 -10.0604 14.4648 -11.834 10.0004 -11.834V20.166C5.9779 20.166 2.1202 18.5681 -0.724093 15.7238L21.9033 -6.90358ZM10.0004 -11.834C5.53587 -11.834 1.25425 -10.0604 -1.9026 -6.90358L20.7248 15.7238C17.8805 18.5681 14.0228 20.166 10.0004 20.166V-11.834ZM-1.9026 -6.90358C-5.05946 -3.74673 -6.83297 0.534895 -6.83297 4.99938H25.167C25.167 9.02184 23.5691 12.8795 20.7248 15.7238L-1.9026 -6.90358ZM-6.83297 4.99938C-6.83297 9.46387 -5.05946 13.7455 -1.9026 16.9023L20.7248 -5.72507C23.5691 -2.88078 25.167 0.976922 25.167 4.99938H-6.83297ZM-1.9026 16.9023C1.25425 20.0592 5.53587 21.8327 10.0004 21.8327V-10.1673C14.0228 -10.1673 17.8805 -8.56936 20.7248 -5.72507L-1.9026 16.9023Z" fill="#4B84F7" mask="url(#path-1-inside-1_6822_89482)"/>
</svg>
