<svg width="20" height="20" viewBox="0 0 20 20" fill="none" xmlns="http://www.w3.org/2000/svg">
<path d="M12.5003 6.9745V6.1745C12.5003 3.69117 10.7753 2.74117 8.67533 4.05783L6.24199 5.58283C5.97533 5.74117 5.66699 5.83283 5.35866 5.83283H4.16699C2.50033 5.83283 1.66699 6.66617 1.66699 8.33283V11.6662C1.66699 13.3328 2.50033 14.1662 4.16699 14.1662H5.83366" stroke="#4B84F7" stroke-width="1.5" stroke-linecap="round" stroke-linejoin="round"/>
<path d="M8.6748 15.941C10.7748 17.2577 12.4998 16.2994 12.4998 13.8243V10.791" stroke="#4B84F7" stroke-width="1.5" stroke-linecap="round" stroke-linejoin="round"/>
<path d="M15.675 7.84961C16.425 9.64128 16.2 11.7329 15 13.3329" stroke="#4B84F7" stroke-width="1.5" stroke-linecap="round" stroke-linejoin="round"/>
<path d="M17.6254 6.5C18.8504 9.40833 18.4837 12.8083 16.5254 15.4167" stroke="#4B84F7" stroke-width="1.5" stroke-linecap="round" stroke-linejoin="round"/>
<path d="M18.3337 1.66602L1.66699 18.3327" stroke="#4B84F7" stroke-width="1.5" stroke-linecap="round" stroke-linejoin="round"/>
</svg>
