<svg width="20" height="20" viewBox="0 0 20 20" fill="none" xmlns="http://www.w3.org/2000/svg">
<path d="M10.7337 17.3839H5.67533C2.71699 17.3839 1.66699 15.3089 1.66699 13.3755V6.62552C1.66699 3.74219 2.79199 2.61719 5.67533 2.61719H10.7337C13.617 2.61719 14.742 3.74219 14.742 6.62552V13.3755C14.742 16.2589 13.617 17.3839 10.7337 17.3839ZM5.67533 3.88385C3.50033 3.88385 2.93366 4.45052 2.93366 6.62552V13.3755C2.93366 14.4005 3.29199 16.1172 5.67533 16.1172H10.7337C12.9087 16.1172 13.4753 15.5505 13.4753 13.3755V6.62552C13.4753 4.45052 12.9087 3.88385 10.7337 3.88385H5.67533Z" fill="#4B84F7"/>
<path d="M17.3167 15.0911C16.9584 15.0911 16.5001 14.9744 15.9751 14.6078L13.7501 13.0494C13.5834 12.9328 13.4834 12.7411 13.4834 12.5328V7.46609C13.4834 7.25776 13.5834 7.06609 13.7501 6.94943L15.9751 5.39109C16.9667 4.69943 17.6917 4.89943 18.0334 5.07443C18.3751 5.25776 18.9584 5.73276 18.9584 6.94109V13.0494C18.9584 14.2578 18.3751 14.7411 18.0334 14.9161C17.8751 15.0078 17.6251 15.0911 17.3167 15.0911ZM14.7417 12.1994L16.7001 13.5661C17.0751 13.8244 17.3417 13.8494 17.4501 13.7911C17.5667 13.7328 17.6917 13.4994 17.6917 13.0494V6.94943C17.6917 6.49109 17.5584 6.26609 17.4501 6.20776C17.3417 6.14943 17.0751 6.17443 16.7001 6.43276L14.7417 7.79943V12.1994Z" fill="#4B84F7"/>
</svg>
