<svg width="20" height="20" viewBox="0 0 20 20" fill="none" xmlns="http://www.w3.org/2000/svg">
<path d="M11.9271 7.74167C11.9937 7.89167 12.1104 8.01667 12.2687 8.08333C12.3437 8.10833 12.4187 8.125 12.5021 8.125H15.8354C16.1771 8.125 16.4604 7.84167 16.4604 7.5C16.4604 7.15833 16.1771 6.875 15.8354 6.875H14.0104L17.9437 2.94167C18.1854 2.7 18.1854 2.3 17.9437 2.05833C17.8187 1.93333 17.6604 1.875 17.5021 1.875C17.3438 1.875 17.1854 1.93333 17.0604 2.05833L13.1271 5.99167V4.16667C13.1271 3.825 12.8437 3.54167 12.5021 3.54167C12.1604 3.54167 11.8771 3.825 11.8771 4.16667V7.5C11.8771 7.58333 11.8937 7.65833 11.9271 7.74167Z" fill="#4B84F7"/>
<path d="M2.93971 17.9438L6.87305 14.0104V15.8354C6.87305 16.1771 7.15638 16.4604 7.49805 16.4604C7.83971 16.4604 8.12305 16.1771 8.12305 15.8354V12.5021C8.12305 12.4188 8.10638 12.3438 8.07305 12.2604C8.00638 12.1104 7.88971 11.9854 7.73138 11.9187C7.66471 11.8938 7.58138 11.8771 7.49805 11.8771H4.16471C3.82305 11.8771 3.53971 12.1604 3.53971 12.5021C3.53971 12.8438 3.82305 13.1271 4.16471 13.1271H5.98971L2.05638 17.0604C1.81471 17.3021 1.81471 17.7021 2.05638 17.9438C2.29805 18.1854 2.69805 18.1854 2.93971 17.9438Z" fill="#4B84F7"/>
<path d="M1.83366 12.291C1.54199 12.291 1.28366 12.0827 1.22533 11.791C1.10866 11.2077 1.04199 10.5993 1.04199 9.99935C1.04199 5.05768 5.05866 1.04102 10.0003 1.04102C10.6087 1.04102 11.217 1.09935 11.8087 1.22435C12.1503 1.29102 12.367 1.62435 12.3003 1.95768C12.2337 2.29935 11.892 2.50768 11.567 2.44935C11.042 2.34102 10.5253 2.29102 10.0003 2.29102C5.75033 2.29102 2.29199 5.74935 2.29199 9.99935C2.29199 10.516 2.34199 11.041 2.45033 11.541C2.51699 11.8827 2.30033 12.2077 1.95866 12.2743C1.91699 12.291 1.87533 12.291 1.83366 12.291Z" fill="#4B84F7"/>
<path d="M9.99954 18.9583C9.3912 18.9583 8.78287 18.8999 8.1912 18.7749C7.84954 18.7083 7.63287 18.3749 7.69954 18.0416C7.7662 17.6999 8.10787 17.4916 8.43287 17.5499C8.9412 17.6499 9.4662 17.7083 9.9912 17.7083C14.2412 17.7083 17.6995 14.2499 17.6995 9.99993C17.6995 9.48326 17.6495 8.96659 17.5495 8.45826C17.4829 8.11659 17.6995 7.79159 18.0412 7.72493C18.3829 7.65826 18.7079 7.87493 18.7745 8.21659C18.8912 8.79993 18.9495 9.39993 18.9495 9.99993C18.9579 14.9416 14.9412 18.9583 9.99954 18.9583Z" fill="#4B84F7"/>
</svg>
