<svg width="213" height="178" viewBox="0 0 213 178" fill="none" xmlns="http://www.w3.org/2000/svg">
    <path fill-rule="evenodd" clip-rule="evenodd" d="M95.6206 1.7053C95.6206 1.1777 95.1929 0.75 94.6653 0.75C94.1377 0.75 93.71 1.1777 93.71 1.7053V3.01349C93.71 3.54109 94.1377 3.96879 94.6653 3.96879C95.1929 3.96879 95.6206 3.54109 95.6206 3.01349V1.7053ZM90.7405 4.67452C90.2129 4.67452 89.7852 5.10223 89.7852 5.62982C89.7852 6.15742 90.2129 6.58513 90.7405 6.58513H92.0486C92.5762 6.58513 93.0039 6.15742 93.0039 5.62982C93.0039 5.10223 92.5762 4.67452 92.0486 4.67452H90.7405ZM94.6653 7.29103C95.1929 7.29103 95.6206 7.71874 95.6206 8.24634V9.55452C95.6206 10.0821 95.1929 10.5098 94.6653 10.5098C94.1377 10.5098 93.71 10.0821 93.71 9.55452V8.24634C93.71 7.71874 94.1377 7.29103 94.6653 7.29103ZM96.6271 4.67452C96.0995 4.67452 95.6718 5.10223 95.6718 5.62982C95.6718 6.15742 96.0995 6.58513 96.6271 6.58513H97.9353C98.4629 6.58513 98.8906 6.15742 98.8906 5.62982C98.8906 5.10223 98.4629 4.67452 97.9353 4.67452H96.6271Z" fill="#D2D8DF"/>
    <path fill-rule="evenodd" clip-rule="evenodd" d="M19.7445 56.6487C19.7445 56.1211 19.3168 55.6934 18.7892 55.6934C18.2616 55.6934 17.8339 56.1211 17.8339 56.6487V58.6109C17.8339 59.1385 18.2616 59.5662 18.7892 59.5662C19.3168 59.5662 19.7445 59.1385 19.7445 58.6109V56.6487ZM12.9026 61.5801C12.375 61.5801 11.9473 62.0078 11.9473 62.5354C11.9473 63.063 12.375 63.4907 12.9026 63.4907H14.8648C15.3924 63.4907 15.8201 63.063 15.8201 62.5354C15.8201 62.0078 15.3924 61.5801 14.8648 61.5801H12.9026ZM18.7892 64.8506C19.3168 64.8506 19.7445 65.2783 19.7445 65.8059V67.7682C19.7445 68.2958 19.3168 68.7235 18.7892 68.7235C18.2616 68.7235 17.8339 68.2958 17.8339 67.7682V65.8059C17.8339 65.2783 18.2616 64.8506 18.7892 64.8506ZM22.0601 61.5801C21.5325 61.5801 21.1048 62.0078 21.1048 62.5354C21.1048 63.063 21.5325 63.4907 22.0601 63.4907H24.0224C24.55 63.4907 24.9777 63.063 24.9777 62.5354C24.9777 62.0078 24.55 61.5801 24.0224 61.5801H22.0601Z" fill="#D2D8DF"/>
    <path fill-rule="evenodd" clip-rule="evenodd" d="M158.632 127.971C158.632 127.443 159.059 127.016 159.587 127.016C161.678 127.016 163.373 128.712 163.373 130.803C163.373 132.894 161.678 134.59 159.587 134.59C157.496 134.59 155.801 132.894 155.801 130.803C155.801 130.275 156.228 129.847 156.756 129.847C157.284 129.847 157.711 130.275 157.711 130.803C157.711 131.839 158.552 132.679 159.587 132.679C160.622 132.679 161.463 131.839 161.463 130.803C161.463 129.766 160.622 128.926 159.587 128.926C159.059 128.926 158.632 128.499 158.632 127.971Z" fill="#D2D8DF"/>
    <path fill-rule="evenodd" clip-rule="evenodd" d="M172.543 102.28C174.224 101.756 176.8 99.7001 177.397 97.4883C177.938 99.4434 180.205 101.756 182.251 101.931C179.948 102.746 177.746 105.168 177.397 107.071C177.159 105.132 174.114 102.563 172.543 102.28Z" fill="#EBECEE"/>
    <path fill-rule="evenodd" clip-rule="evenodd" d="M0 127.099C0.84072 126.837 2.12845 125.809 2.42665 124.703C2.69708 125.68 3.83044 126.837 4.8533 126.924C3.70217 127.331 2.60157 128.543 2.42665 129.494C2.30782 128.525 0.78519 127.24 0 127.099Z" fill="#EBECEE"/>
    <path fill-rule="evenodd" clip-rule="evenodd" d="M15.6011 36.1078C15.6011 37.3209 14.6182 38.3034 13.406 38.3034C12.1933 38.3034 11.2109 37.3209 11.2109 36.1078C11.2109 34.8952 12.1933 33.9121 13.406 33.9121C14.6182 33.9121 15.6011 34.8952 15.6011 36.1078Z" fill="#D1D8DF"/>
    <path fill-rule="evenodd" clip-rule="evenodd" d="M162.18 42.0038C162.18 44.0306 160.537 45.6736 158.511 45.6736C156.484 45.6736 154.842 44.0306 154.842 42.0038C154.842 39.977 156.484 38.334 158.511 38.334C160.537 38.334 162.18 39.977 162.18 42.0038Z" fill="#EBECEE"/>
    <path fill-rule="evenodd" clip-rule="evenodd" d="M213 32.0615C213 33.6695 211.697 34.9725 210.09 34.9725C208.482 34.9725 207.18 33.6695 207.18 32.0615C207.18 30.4535 208.482 29.1504 210.09 29.1504C211.697 29.1504 213 30.4535 213 32.0615Z" fill="#EBECEE"/>
    <path fill-rule="evenodd" clip-rule="evenodd" d="M54.7914 167.139C54.3066 167.139 53.9126 167.532 53.9126 168.019C53.9126 168.506 54.3066 168.899 54.7914 168.899C55.277 168.899 55.6708 168.505 55.6708 168.019C55.6708 167.533 55.277 167.139 54.7914 167.139ZM52.002 168.019C52.002 166.478 53.2505 165.229 54.7914 165.229C56.3327 165.229 57.5814 166.478 57.5814 168.019C57.5814 169.56 56.3327 170.809 54.7914 170.809C53.2505 170.809 52.002 169.56 52.002 168.019Z" fill="#D2D8DF"/>
    <path fill-rule="evenodd" clip-rule="evenodd" d="M53.3379 20.7622C52.6535 20.7622 52.0981 21.3174 52.0981 22.0025C52.0981 22.6881 52.6534 23.2429 53.3379 23.2429C54.0224 23.2429 54.5777 22.6881 54.5777 22.0025C54.5777 21.3174 54.0223 20.7622 53.3379 20.7622ZM50.1875 22.0025C50.1875 20.2626 51.5978 18.8516 53.3379 18.8516C55.0779 18.8516 56.4883 20.2626 56.4883 22.0025C56.4883 23.7431 55.0778 25.1535 53.3379 25.1535C51.598 25.1535 50.1875 23.7431 50.1875 22.0025Z" fill="#D2D8DF"/>
    <path fill-rule="evenodd" clip-rule="evenodd" d="M116.389 173.026C115.704 173.026 115.149 173.581 115.149 174.266C115.149 174.952 115.704 175.507 116.389 175.507C117.073 175.507 117.628 174.952 117.628 174.266C117.628 173.581 117.073 173.026 116.389 173.026ZM113.238 174.266C113.238 172.526 114.649 171.115 116.389 171.115C118.129 171.115 119.539 172.526 119.539 174.266C119.539 176.007 118.129 177.417 116.389 177.417C114.649 177.417 113.238 176.007 113.238 174.266Z" fill="#D2D8DF"/>
    <path fill-rule="evenodd" clip-rule="evenodd" d="M110.692 136.448H57.0532C53.2778 136.448 50.1875 133.349 50.1875 129.561V53.0695C50.1875 49.2815 53.2778 46.1836 57.0532 46.1836H110.692C114.469 46.1836 117.559 49.2815 117.559 53.0695V129.561C117.559 133.349 114.469 136.448 110.692 136.448Z" fill="#E0E2EE"/>
    <path fill-rule="evenodd" clip-rule="evenodd" d="M106.112 139.72H52.4731C48.6977 139.72 45.6074 136.62 45.6074 132.832V56.341C45.6074 52.553 48.6977 49.4551 52.4731 49.4551H106.112C109.889 49.4551 112.979 52.553 112.979 56.341V132.832C112.979 136.62 109.889 139.72 106.112 139.72Z" fill="#E8EBF2"/>
    <path fill-rule="evenodd" clip-rule="evenodd" d="M101.659 142.301H47.9092C44.126 142.301 41.0293 139.215 41.0293 135.442V59.2676C41.0293 55.4952 44.126 52.4102 47.9092 52.4102H101.659C105.443 52.4102 108.54 55.4952 108.54 59.2676V135.442C108.54 139.215 105.443 142.301 101.659 142.301Z" fill="#D8DBEA"/>
    <path fill-rule="evenodd" clip-rule="evenodd" d="M101.659 142.301H47.9092C44.126 142.301 41.0293 139.215 41.0293 135.442V59.2676C41.0293 55.4952 44.126 52.4102 47.9092 52.4102H101.659C105.443 52.4102 108.54 55.4952 108.54 59.2676V135.442C108.54 139.215 105.443 142.301 101.659 142.301Z" fill="#F1F2F7"/>
    <path fill-rule="evenodd" clip-rule="evenodd" d="M93.9108 75.6179H54.2103C53.0765 75.6179 52.1484 74.735 52.1484 73.6564C52.1484 72.5763 53.0765 71.6934 54.2103 71.6934H93.9108C95.0446 71.6934 95.9726 72.5763 95.9726 73.6564C95.9726 74.735 95.0446 75.6179 93.9108 75.6179Z" fill="#E0E2EE"/>
    <path fill-rule="evenodd" clip-rule="evenodd" d="M93.9108 87.3913H54.2103C53.0765 87.3913 52.1484 86.5084 52.1484 85.4298C52.1484 84.3497 53.0765 83.4668 54.2103 83.4668H93.9108C95.0446 83.4668 95.9726 84.3497 95.9726 85.4298C95.9726 86.5084 95.0446 87.3913 93.9108 87.3913Z" fill="#E0E2EE"/>
    <path fill-rule="evenodd" clip-rule="evenodd" d="M93.9108 99.1648H54.2103C53.0765 99.1648 52.1484 98.2819 52.1484 97.2032C52.1484 96.1246 53.0765 95.2402 54.2103 95.2402H93.9108C95.0446 95.2402 95.9726 96.1246 95.9726 97.2032C95.9726 98.2819 95.0446 99.1648 93.9108 99.1648Z" fill="#E0E2EE"/>
    <path fill-rule="evenodd" clip-rule="evenodd" d="M93.9108 110.938H54.2103C53.0765 110.938 52.1484 110.055 52.1484 108.977C52.1484 107.897 53.0765 107.014 54.2103 107.014H93.9108C95.0446 107.014 95.9726 107.897 95.9726 108.977C95.9726 110.055 95.0446 110.938 93.9108 110.938Z" fill="#E0E2EE"/>
    <path fill-rule="evenodd" clip-rule="evenodd" d="M74.9333 122.712H54.2191C53.0805 122.712 52.1484 121.829 52.1484 120.75C52.1484 119.67 53.0805 118.787 54.2191 118.787H74.9333C76.0719 118.787 77.0039 119.67 77.0039 120.75C77.0039 121.829 76.0719 122.712 74.9333 122.712Z" fill="#E0E2EE"/>
    <path fill-rule="evenodd" clip-rule="evenodd" d="M116.743 107.495C108.805 115.432 96.5151 116.328 87.5928 110.2C86.4526 109.403 85.3672 108.507 84.3552 107.495C83.8341 106.976 83.3431 106.44 82.8803 105.876C81.9548 104.749 81.1441 103.547 80.4799 102.306C79.3097 100.209 78.514 97.9836 78.0796 95.6835C76.678 88.4703 78.7737 80.7063 84.3552 75.1274C89.9499 69.532 97.7153 67.4499 104.93 68.8379C107.229 69.2856 109.456 70.0812 111.553 71.2379C112.797 71.9169 113.982 72.7275 115.11 73.6528C115.673 74.1139 116.209 74.6065 116.728 75.1274C117.742 76.1393 118.651 77.2228 119.433 78.3645C125.564 87.2837 124.667 99.573 116.743 107.495Z" fill="white" fill-opacity="0.1"/>
    <path fill-rule="evenodd" clip-rule="evenodd" d="M114.522 105.932C106.263 114.193 92.8785 114.191 84.618 105.932C76.3682 97.6826 76.3682 84.2967 84.6287 76.0378C92.8785 67.788 106.263 67.788 114.512 76.0378C122.771 84.2967 122.771 97.6826 114.522 105.932ZM118.761 71.7946C108.16 61.1935 90.9812 61.1935 80.3801 71.7946C69.7805 82.3941 69.7713 99.5837 80.3708 110.185C90.0191 119.83 105.142 120.7 115.778 112.78C116.817 112.006 117.817 111.138 118.772 110.185C119.725 109.23 120.593 108.23 121.366 107.191C129.285 96.553 128.408 81.4413 118.761 71.7946Z" fill="#E0E2EE"/>
    <path fill-rule="evenodd" clip-rule="evenodd" d="M160.481 150.145L160.036 150.59C157.091 153.536 152.27 153.536 149.324 150.59L122.137 123.403L133.294 112.246L160.481 139.433C163.427 142.379 163.427 147.199 160.481 150.145Z" fill="#4B84F7"/>
    <path fill-rule="evenodd" clip-rule="evenodd" d="M121.952 106.359L129.986 114.393L124.282 120.095L116.25 112.061C117.31 111.271 118.329 110.385 119.305 109.413C120.277 108.44 121.163 107.419 121.952 106.359Z" fill="#E0E2EE"/>
    <path fill-rule="evenodd" clip-rule="evenodd" d="M160.074 139.099L148.988 150.183L146.992 148.186L158.077 137.102L160.074 139.099Z" fill="#085CAF"/>
    <path fill-rule="evenodd" clip-rule="evenodd" d="M133.91 112.63L122.52 124.019L120.828 122.327L132.218 110.938L133.91 112.63Z" fill="#085CAF"/>
    <path fill-rule="evenodd" clip-rule="evenodd" d="M109.055 73.1967L81.123 101.127C80.0711 99.242 79.3558 97.2415 78.9668 95.1737L103.101 71.0391C105.168 71.4431 107.17 72.1568 109.055 73.1967Z" fill="white" fill-opacity="0.5"/>
    <path fill-rule="evenodd" clip-rule="evenodd" d="M118.212 79.835L88.0143 108.322C86.9328 107.61 85.9035 106.809 84.9437 105.903C84.4495 105.437 83.9822 104.959 83.5449 104.454L114.11 75.6172C114.646 76.0312 115.154 76.4721 115.646 76.9382C116.606 77.8438 117.47 78.8133 118.212 79.835Z" fill="white" fill-opacity="0.5"/>
</svg>
