<svg width="36" height="36" viewBox="0 0 36 36" fill="none" xmlns="http://www.w3.org/2000/svg">
<path d="M18 36C27.9411 36 36 27.9411 36 18C36 8.05887 27.9411 0 18 0C8.05887 0 0 8.05887 0 18C0 27.9411 8.05887 36 18 36Z" fill="#FF908A"/>
<path d="M36 18C36 15.7176 35.5742 13.5349 34.7994 11.5257L30.9272 7.65356L5.45288 24.8081L11.0777 30.4429C11.0702 30.5057 11.0659 32.392 11.0659 32.392L14.2903 35.6164C15.4875 35.8673 16.7282 36 18 36C27.9411 36 36 27.9411 36 18Z" fill="#FF6F64"/>
<path d="M6.16968 8.28687H29.8305V23.7946H6.16968V8.28687Z" fill="#FEDD55"/>
<path d="M18 8.28705H29.8301V23.7945H18V8.28705Z" fill="#FFC627"/>
<path d="M23.168 13.4219H25.2773V18.6602H23.168V13.4219Z" fill="white"/>
<path d="M13.781 13.7167H22.2189V18.082H13.781V13.7167Z" fill="#436375"/>
<path d="M13.3862 24.6694H22.6138V29.748H13.3862V24.6694Z" fill="#5A7784"/>
<path d="M18 24.6691H22.6139V29.7478H18V24.6691Z" fill="#436375"/>
<path d="M28.5237 25.5484H7.47647C5.74292 25.5484 4.33252 24.138 4.33252 22.4044V9.6771C4.33252 7.94354 5.74292 6.53314 7.47647 6.53314H28.5237C30.2572 6.53314 31.6676 7.94354 31.6676 9.6771V22.4044C31.6676 24.1381 30.2572 25.5484 28.5237 25.5484ZM7.47647 8.99415C7.10621 8.99415 6.79346 9.3069 6.79346 9.67717V22.4044C6.79346 22.7747 7.10621 23.0875 7.47647 23.0875H28.5237C28.8939 23.0875 29.2067 22.7747 29.2067 22.4044V9.67717C29.2067 9.3069 28.8939 8.99415 28.5237 8.99415H7.47647Z" fill="#436375"/>
<path d="M28.5237 6.53345H18V8.99438H28.5237C28.8935 8.99438 29.2064 9.30728 29.2064 9.67712V22.4044C29.2064 22.7749 28.8935 23.0878 28.5237 23.0878H18V25.5488H28.5237C30.2569 25.5488 31.6673 24.1383 31.6673 22.4044V9.67712C31.6673 7.94392 30.2569 6.53345 28.5237 6.53345Z" fill="#274A59"/>
<path d="M24.9341 32.392H11.0659V30.6343C11.0659 29.7492 11.7834 29.0317 12.6685 29.0317H23.3316C24.2167 29.0317 24.9341 29.7492 24.9341 30.6343V32.392Z" fill="#436375"/>
<path d="M24.9342 30.6345V32.3923H18V29.032H23.3318C24.2163 29.032 24.9342 29.7492 24.9342 30.6345Z" fill="#274A59"/>
<path d="M26.3584 13.3737L18 15.8993L9.6416 13.3737L18 11.5786L26.3584 13.3737Z" fill="#5A7784"/>
<path d="M13.781 18H22.2189V20.4609H13.781V18Z" fill="#21D461"/>
</svg>
