<svg width="33" height="32" viewBox="0 0 33 32" fill="none" xmlns="http://www.w3.org/2000/svg">
<path d="M26.801 15.9593C26.4427 15.7362 25.9717 15.8399 25.7405 16.1928L23.777 19.1897L22.7956 19.5707L22.4529 19.9295L22.1074 19.838C22.1843 19.6913 22.2265 19.5238 22.2228 19.3459C22.2111 18.7894 21.7391 18.352 21.1819 18.352H19.303C19.084 18.352 18.868 18.301 18.6721 18.2031L16.8049 17.2704C16.6242 17.1802 16.425 17.1332 16.223 17.1332H15.1148C14.9749 17.1332 14.836 17.1557 14.7033 17.1999L12.4638 17.9457H11.2439L10.1602 20.4606L11.2439 23.1169L17.3999 23.5951C17.4838 23.6017 17.5679 23.6049 17.6521 23.6049H19.5854C20.0368 23.6049 20.4809 23.4906 20.8761 23.2726L24.3708 21.345C24.7962 21.1104 25.1417 20.7543 25.3631 20.3224L27.0813 16.9713C27.2653 16.6125 27.1435 16.1726 26.801 15.9593Z" fill="#FED2A4"/>
<path d="M26.801 15.9593C26.4427 15.7362 25.9718 15.8399 25.7405 16.1928L23.7771 19.1897L22.7956 19.5707L22.4529 19.9295L22.432 19.9239C21.6385 21.4653 20.4102 22.7465 18.9082 23.6049H19.5854C20.0368 23.6049 20.4809 23.4905 20.8761 23.2726L24.3708 21.345C24.7962 21.1104 25.1417 20.7543 25.3632 20.3223L27.0813 16.9712C27.2653 16.6125 27.1435 16.1726 26.801 15.9593Z" fill="#FFBD86"/>
<path d="M11.2439 23.6014V17.4263C11.2439 17.2019 11.0618 17.02 10.8372 17.02H9.24268V24.0076H10.8372C11.0618 24.0077 11.2439 23.8258 11.2439 23.6014Z" fill="#D8ECFE"/>
<path d="M10.0238 24.3732V16.6543C10.0238 16.4299 9.84175 16.248 9.61718 16.248H7.5733C7.34873 16.248 7.16666 16.4299 7.16666 16.6543V24.3732C7.16666 24.5976 7.34873 24.7795 7.5733 24.7795H9.61722C9.84179 24.7794 10.0238 24.5976 10.0238 24.3732Z" fill="#60B7FF"/>
<path d="M9.61705 16.248H8.39713C8.6217 16.248 8.80377 16.4299 8.80377 16.6543V24.3732C8.80377 24.5976 8.6217 24.7795 8.39713 24.7795H9.61705C9.84163 24.7795 10.0237 24.5976 10.0237 24.3732V16.6543C10.0237 16.4299 9.84163 16.248 9.61705 16.248Z" fill="#26A6FE"/>
<path d="M21.4264 7.49067C20.5921 6.60364 19.2364 6.42049 18.1651 7.00026C17.7086 7.2473 17.3911 7.59405 17.1669 7.97998C16.9426 7.59405 16.6252 7.2473 16.1687 7.00026C15.0974 6.42053 13.7417 6.60364 12.9074 7.49067C11.9228 8.53758 11.9424 10.1839 12.9663 11.2069L16.1168 14.3545C16.6967 14.9339 17.6371 14.9339 18.217 14.3545L21.3675 11.2069C22.3914 10.1839 22.411 8.53755 21.4264 7.49067Z" fill="#FD4278"/>
<path d="M21.4263 7.49079C21.1199 7.16507 20.7429 6.93525 20.3359 6.80225C20.6419 7.72963 20.4259 8.7913 19.6876 9.52893L16.5371 12.6764C15.9572 13.2559 15.0168 13.2559 14.4369 12.6764L16.1166 14.3546C16.6966 14.934 17.6369 14.934 18.2169 14.3546L21.3673 11.2071C22.3913 10.1841 22.4109 8.53767 21.4263 7.49079Z" fill="#E10371"/>
<path d="M22.7953 19.5708L22.1071 19.838C22.1071 19.838 22.1071 19.8379 22.1071 19.8379C21.9373 20.162 21.5977 20.3833 21.2061 20.3833H18.0757C17.9938 20.3833 17.9157 20.4175 17.8601 20.4776L17.5081 20.8589C17.4013 20.9745 17.4049 21.1536 17.5162 21.2648C17.6339 21.3824 17.8258 21.3787 17.9388 21.2567L18.2058 20.9687H21.2061C22.0209 20.9687 22.695 20.358 22.7953 19.5708Z" fill="#F6A96C"/>
</svg>
