<svg width="33" height="32" viewBox="0 0 33 32" fill="none" xmlns="http://www.w3.org/2000/svg">
<path d="M22.8673 15.1016H10.6322C10.4444 15.1016 10.2924 15.2548 10.2924 15.4438V17.8931C10.2924 19.9736 13.1288 21.6033 16.7498 21.6033C20.3707 21.6033 23.2072 19.9735 23.2072 17.8931V15.4438C23.2072 15.2548 23.0552 15.1016 22.8673 15.1016Z" fill="#5D647F"/>
<path d="M16.7604 15.1016H10.6322C10.4444 15.1016 10.2924 15.2548 10.2924 15.4438V17.8931C10.2924 19.9736 13.1288 21.6033 16.7498 21.6033C16.7533 21.6033 16.7568 21.603 16.7604 21.603V15.1016Z" fill="#5C546A"/>
<path d="M26.5929 11.4483L17.9533 7.71986C17.1886 7.39003 16.3104 7.3902 15.5451 7.72072L6.90747 11.448C6.39899 11.6674 6.08334 12.1496 6.08334 12.7063C6.08334 13.2629 6.39899 13.7446 6.90713 13.9638L15.5464 17.6923C15.9284 17.857 16.3386 17.9394 16.7492 17.9394C17.1604 17.9394 17.5716 17.8568 17.9546 17.6914L26.5923 13.9641C27.1007 13.7449 27.4167 13.2627 27.4167 12.706C27.4167 12.1494 27.1011 11.6676 26.5929 11.4483Z" fill="#527992"/>
<path d="M8.25341 19.8924C8.06555 19.8924 7.91354 19.7391 7.91354 19.5502V14.3629C7.91354 14.029 8.15051 13.7454 8.47712 13.6885L15.3325 12.4879C15.5173 12.4559 15.6932 12.5803 15.7254 12.7665C15.7576 12.9527 15.6338 13.1299 15.4486 13.1623L8.59327 14.3629V19.5501C8.59327 19.7391 8.44127 19.8924 8.25341 19.8924Z" fill="#5C546A"/>
<path d="M8.25333 20.5768C8.62874 20.5768 8.93306 20.2704 8.93306 19.8924C8.93306 19.5144 8.62874 19.208 8.25333 19.208C7.87793 19.208 7.57361 19.5144 7.57361 19.8924C7.57361 20.2704 7.87793 20.5768 8.25333 20.5768Z" fill="#FF9600"/>
<path d="M15.3903 12.3638V13.0482C15.3903 13.4261 15.9989 13.7326 16.7497 13.7326C17.5005 13.7326 18.1092 13.4261 18.1092 13.0482V12.3638H15.3903Z" fill="#FF9600"/>
<path d="M16.7497 13.0485C17.5005 13.0485 18.1092 12.7421 18.1092 12.3641C18.1092 11.9861 17.5005 11.6797 16.7497 11.6797C15.9989 11.6797 15.3903 11.9861 15.3903 12.3641C15.3903 12.7421 15.9989 13.0485 16.7497 13.0485Z" fill="#FCCCBE"/>
<path d="M7.55509 21.2582L7.31048 23.9677C7.29238 24.1681 7.4491 24.3409 7.64894 24.3409H8.94377C9.14361 24.3409 9.30033 24.1681 9.28223 23.9677L9.03762 21.2582C9.00278 20.8722 8.68131 20.5767 8.29638 20.5767C7.91144 20.5767 7.58997 20.8722 7.55509 21.2582Z" fill="#FFD200"/>
</svg>
