<svg width="32" height="32" viewBox="0 0 32 32" fill="none" xmlns="http://www.w3.org/2000/svg">
<rect width="32" height="32" rx="6" fill="white"/>
<g clip-path="url(#clip0_1531_10772)">
<path d="M9.10415 17.271C7.0249 17.271 5.33331 18.9626 5.33331 21.0418V24.146C5.33331 24.4912 5.61315 24.771 5.95831 24.771H12.25C12.5951 24.771 12.875 24.4912 12.875 24.146V21.0418C12.875 18.9626 11.1834 17.271 9.10415 17.271Z" fill="#FCBE29"/>
<path d="M12.875 21.0419V24.1461C12.875 24.4911 12.595 24.7711 12.25 24.7711H9.125V17.2715C9.78042 17.2748 10.3967 17.4465 10.9329 17.7457C12.0904 18.3894 12.875 19.6256 12.875 21.0419Z" fill="#FE9022"/>
<path d="M22.8958 17.271C20.8166 17.271 19.125 18.9626 19.125 21.0418V24.146C19.125 24.4912 19.4048 24.771 19.75 24.771H26.0417C26.3868 24.771 26.6667 24.4912 26.6667 24.146V21.0418C26.6667 18.9626 24.9751 17.271 22.8958 17.271Z" fill="#A0FF97"/>
<path d="M26.6667 21.0418V24.146C26.6667 24.491 26.3867 24.771 26.0417 24.771H22.875V17.2714C22.8821 17.271 22.8887 17.271 22.8958 17.271C23.5479 17.271 24.1621 17.4372 24.6975 17.7302C25.8696 18.3702 26.6667 19.6147 26.6667 21.0418Z" fill="#7CE294"/>
<path d="M17.0417 19.146H14.9583C12.7757 19.146 11 20.9217 11 23.1043V25.396C11 25.7412 11.2798 26.021 11.625 26.021H20.375C20.7202 26.021 21 25.7412 21 25.396V23.1043C21 20.9217 19.2243 19.146 17.0417 19.146Z" fill="#960095"/>
<path d="M21 23.1043V25.396C21 25.741 20.72 26.021 20.375 26.021H16V19.146H17.0417C17.4479 19.146 17.8404 19.2077 18.2096 19.3218C19.8238 19.8214 21 21.3281 21 23.1043Z" fill="#6E0095"/>
<path d="M16 20.396C17.5533 20.396 18.8125 19.1368 18.8125 17.5835C18.8125 16.0302 17.5533 14.771 16 14.771C14.4467 14.771 13.1875 16.0302 13.1875 17.5835C13.1875 19.1368 14.4467 20.396 16 20.396Z" fill="#FCCCBE"/>
<path d="M18.8125 17.5835C18.8125 18.2389 18.5871 18.8431 18.2096 19.3218C17.6942 19.9756 16.8954 20.396 16 20.396V14.771C17.5508 14.771 18.8125 16.0327 18.8125 17.5835Z" fill="#FEB99E"/>
<path d="M9.125 18.521C10.5057 18.521 11.625 17.4017 11.625 16.021C11.625 14.6403 10.5057 13.521 9.125 13.521C7.74429 13.521 6.625 14.6403 6.625 16.021C6.625 17.4017 7.74429 18.521 9.125 18.521Z" fill="#FECEC0"/>
<path d="M11.625 16.021C11.625 16.6889 11.3617 17.2968 10.9329 17.7456C10.4775 18.2231 9.83542 18.521 9.125 18.521V13.521C10.5033 13.521 11.625 14.6427 11.625 16.021Z" fill="#FEB99E"/>
<path d="M22.875 18.521C24.2557 18.521 25.375 17.4017 25.375 16.021C25.375 14.6403 24.2557 13.521 22.875 13.521C21.4943 13.521 20.375 14.6403 20.375 16.021C20.375 17.4017 21.4943 18.521 22.875 18.521Z" fill="#FECEC0"/>
<path d="M25.375 16.021C25.375 16.6814 25.1175 17.2831 24.6975 17.7302C24.2412 18.2168 23.5929 18.521 22.875 18.521V13.521C24.2533 13.521 25.375 14.6427 25.375 16.021Z" fill="#FEB99E"/>
<path d="M16 6.54093C14.4895 5.25885 12.25 6.28602 12.25 8.47306C12.25 9.43756 12.8452 10.4629 14.0191 11.5208C14.8359 12.2568 15.6443 12.7448 15.6783 12.7652C15.8763 12.884 16.1236 12.8841 16.3216 12.7652C16.3556 12.7448 17.1641 12.2567 17.9808 11.5208C19.1548 10.463 19.75 9.43756 19.75 8.4731C19.75 6.28643 17.5107 5.2586 16 6.54093Z" fill="#FD4278"/>
<path d="M19.75 8.47311C19.75 9.43769 19.1546 10.4631 17.9808 11.5206C17.1642 12.2569 16.3558 12.7448 16.3217 12.7652C16.2225 12.8244 16.1113 12.8544 16 12.8544V6.54102C17.5108 5.25852 19.75 6.28644 19.75 8.47311Z" fill="#E10371"/>
</g>
<defs>
<clipPath id="clip0_1531_10772">
<rect width="21.3333" height="21.3333" fill="white" transform="translate(5.33331 5.3335)"/>
</clipPath>
</defs>
</svg>
