<svg width="36" height="36" viewBox="0 0 36 36" fill="none" xmlns="http://www.w3.org/2000/svg">
<g clip-path="url(#clip0_180_19986)">
<path d="M2.39062 25.9869C0.871734 23.4201 0 20.4251 0 17.2266C0 7.71258 7.71258 0 17.2266 0C26.7405 0 34.4531 7.71258 34.4531 17.2266C34.4531 22.1398 32.3962 26.5726 29.0965 29.7109C26.0314 24.95 2.50087 26.1732 2.39062 25.9869Z" fill="#FFC143"/>
<path d="M29.9531 3.25537V28.8365C29.2323 29.6263 28.4389 30.3487 27.5835 30.9932H7.69998C6.89955 30.3901 6.15332 29.7187 5.47009 28.9878C5.39113 28.9033 4.85866 28.8181 4.54492 28.732V3.25537C4.54492 2.86704 4.85971 2.55225 5.24805 2.55225H29.25C29.6383 2.55225 29.9531 2.86704 29.9531 3.25537Z" fill="#596C76"/>
<path d="M5.40661 28.9499C5.16684 28.8481 4.4164 28.7451 4.32422 28.641C3.59916 27.8221 2.95087 26.9335 2.39062 25.9868V3.25537C2.39062 2.86704 2.70541 2.55225 3.09375 2.55225H6.10973C5.7214 2.55225 5.40661 2.86704 5.40661 3.25537V28.9499Z" fill="#465A61"/>
<path d="M6.57422 6.68567H27.3164C27.7047 6.68567 28.0195 7.00046 28.0195 7.38879V30.6537C25.0663 33.0306 21.3126 34.4531 17.2266 34.4531C13.1271 34.4531 9.36204 33.0211 6.40441 30.6301C6.34416 30.5814 6.28418 30.1145 6.22455 30.0649C6.10538 29.9659 5.98753 29.8652 5.87109 29.7631V7.38879C5.87109 7.00046 6.18588 6.68567 6.57422 6.68567Z" fill="white"/>
<path d="M6.40441 30.6301C5.65692 30.0258 4.96097 29.3603 4.32422 28.641V7.38879C4.32422 7.00046 4.63901 6.68567 5.02734 6.68567H7.10754C6.7192 6.68567 6.40441 7.00046 6.40441 7.38879V30.6301Z" fill="#D9E7EC"/>
<path d="M22.5 6.01467H20.6069C20.6617 5.83573 20.6913 5.64588 20.6913 5.44922V1.93359C20.6913 0.867375 19.8239 0 18.7577 0H13.586C12.5198 0 11.6524 0.867375 11.6524 1.93359V5.44922C11.6524 5.64588 11.6819 5.8358 11.7368 6.01467H9.84375C8.77753 6.01467 7.91016 6.88205 7.91016 7.94827V9.4623C7.91016 10.5285 8.77753 11.3959 9.84375 11.3959H22.5C23.5662 11.3959 24.4336 10.5285 24.4336 9.4623V7.94827C24.4336 6.88212 23.5662 6.01467 22.5 6.01467ZM12.7072 5.44922V1.93359C12.7072 1.44893 13.1014 1.05469 13.5861 1.05469H18.7578C19.2424 1.05469 19.6367 1.44893 19.6367 1.93359V5.44922C19.6367 5.66445 19.5589 5.86174 19.43 6.01467H12.9138C12.7849 5.86174 12.7072 5.66445 12.7072 5.44922ZM23.3789 9.46238C23.3789 9.94704 22.9847 10.3413 22.5 10.3413H9.84375C9.35909 10.3413 8.96484 9.94704 8.96484 9.46238V7.94834C8.96484 7.46367 9.35909 7.06943 9.84375 7.06943H12.5317C12.8352 7.26757 13.1974 7.38288 13.5861 7.38288H18.7578C19.1464 7.38288 19.5086 7.26757 19.8121 7.06943H22.5C22.9847 7.06943 23.3789 7.46367 23.3789 7.94834V9.46238Z" fill="#465A61"/>
<path d="M14.4141 8.80933H11.25C10.8617 8.80933 10.5469 8.49454 10.5469 8.1062V4.62573C10.5469 4.2374 10.8617 3.92261 11.25 3.92261H14.4141C14.8024 3.92261 15.1172 4.2374 15.1172 4.62573V8.1062C15.1172 8.49454 14.8024 8.80933 14.4141 8.80933Z" fill="#00D1FC"/>
<path d="M21.0939 8.80933H13.9863C13.598 8.80933 13.2832 8.49454 13.2832 8.1062V4.62573C13.2832 4.2374 13.598 3.92261 13.9863 3.92261H21.0939C21.4822 3.92261 21.797 4.2374 21.797 4.62573V8.1062C21.797 8.49454 21.4822 8.80933 21.0939 8.80933Z" fill="#64DCFC"/>
<path d="M18.9844 7.06909H13.3594C12.971 7.06909 12.6562 6.7543 12.6562 6.36597C12.6562 5.97763 12.971 5.66284 13.3594 5.66284H18.9844C19.3727 5.66284 19.6875 5.97763 19.6875 6.36597C19.6875 6.7543 19.3727 7.06909 18.9844 7.06909Z" fill="#00C1FB"/>
<path d="M18.9844 19.6875H11.25C10.8617 19.6875 10.5469 19.3727 10.5469 18.9844C10.5469 18.596 10.8617 18.2812 11.25 18.2812H18.9844C19.3727 18.2812 19.6875 18.596 19.6875 18.9844C19.6875 19.3727 19.3727 19.6875 18.9844 19.6875ZM19.6875 21.7969C19.6875 21.4085 19.3727 21.0938 18.9844 21.0938H11.25C10.8617 21.0938 10.5469 21.4085 10.5469 21.7969C10.5469 22.1852 10.8617 22.5 11.25 22.5H18.9844C19.3727 22.5 19.6875 22.1852 19.6875 21.7969ZM16.7578 24.6094C16.7578 24.221 16.443 23.9062 16.0547 23.9062H11.25C10.8617 23.9062 10.5469 24.221 10.5469 24.6094C10.5469 24.9977 10.8617 25.3125 11.25 25.3125H16.0547C16.443 25.3125 16.7578 24.9977 16.7578 24.6094ZM19.6875 27.4219C19.6875 27.0335 19.3727 26.7188 18.9844 26.7188H11.25C10.8617 26.7188 10.5469 27.0335 10.5469 27.4219C10.5469 27.8102 10.8617 28.125 11.25 28.125H18.9844C19.3727 28.125 19.6875 27.8102 19.6875 27.4219ZM14.7701 30.2344C14.7701 29.846 14.4553 29.5312 14.067 29.5312H11.25C10.8617 29.5312 10.5469 29.846 10.5469 30.2344C10.5469 30.6227 10.8617 30.9375 11.25 30.9375H14.067C14.4553 30.9375 14.7701 30.6227 14.7701 30.2344Z" fill="#B6C4CF"/>
<path d="M8.4375 19.6875H7.73438C7.34604 19.6875 7.03125 19.3727 7.03125 18.9844C7.03125 18.596 7.34604 18.2812 7.73438 18.2812H8.4375C8.82584 18.2812 9.14062 18.596 9.14062 18.9844C9.14062 19.3727 8.82584 19.6875 8.4375 19.6875ZM9.14062 21.7969C9.14062 21.4085 8.82584 21.0938 8.4375 21.0938H7.73438C7.34604 21.0938 7.03125 21.4085 7.03125 21.7969C7.03125 22.1852 7.34604 22.5 7.73438 22.5H8.4375C8.82584 22.5 9.14062 22.1852 9.14062 21.7969ZM9.14062 24.6094C9.14062 24.221 8.82584 23.9062 8.4375 23.9062H7.73438C7.34604 23.9062 7.03125 24.221 7.03125 24.6094C7.03125 24.9977 7.34604 25.3125 7.73438 25.3125H8.4375C8.82584 25.3125 9.14062 24.9977 9.14062 24.6094ZM9.14062 27.4219C9.14062 27.0335 8.82584 26.7188 8.4375 26.7188H7.73438C7.34604 26.7188 7.03125 27.0335 7.03125 27.4219C7.03125 27.8102 7.34604 28.125 7.73438 28.125H8.4375C8.82584 28.125 9.14062 27.8102 9.14062 27.4219ZM9.14062 30.2344C9.14062 29.846 8.82584 29.5312 8.4375 29.5312H7.73438C7.34604 29.5312 7.03125 29.846 7.03125 30.2344C7.03125 30.6227 7.34604 30.9375 7.73438 30.9375H8.4375C8.82584 30.9375 9.14062 30.6227 9.14062 30.2344ZM13.8985 15.4688H7.73438C7.34604 15.4688 7.03125 15.154 7.03125 14.7656C7.03125 14.3773 7.34604 14.0625 7.73438 14.0625H13.8985C14.2868 14.0625 14.6016 14.3773 14.6016 14.7656C14.6016 15.154 14.2868 15.4688 13.8985 15.4688Z" fill="#8D9CA8"/>
<path d="M23.2031 14.4227V29.8915C23.2031 30.6681 22.5735 31.2977 21.7969 31.2977H19.125C18.3483 31.2977 17.7188 30.6681 17.7188 29.8915V14.4227C17.7188 13.6461 18.3483 13.0165 19.125 13.0165H21.7969C22.5735 13.0165 23.2031 13.6461 23.2031 14.4227Z" fill="#FF4343"/>
<path d="M36 14.4227V29.8915C36 30.6682 35.3704 31.2977 34.5938 31.2977H27.1735L22.575 35.8963C22.3535 36.1178 21.9748 35.9609 21.9748 35.6477V31.2977H21.7969C21.0202 31.2977 20.3906 30.6681 20.3906 29.8914V14.4227C20.3906 13.646 21.0202 13.0164 21.7969 13.0164H34.5938C35.3704 13.0165 36 13.6461 36 14.4227Z" fill="#FF5757"/>
<path d="M27.5977 27.3379C27.5977 27.7456 27.2671 28.0761 26.8594 28.0761C26.4516 28.0761 26.1211 27.7456 26.1211 27.3379C26.1211 26.9301 26.4516 26.5996 26.8594 26.5996C27.2671 26.5996 27.5977 26.9301 27.5977 27.3379ZM26.8594 25.5124C27.2477 25.5124 27.5625 25.1976 27.5625 24.8093V22.1562C27.5625 21.7679 27.2477 21.4531 26.8594 21.4531C26.471 21.4531 26.1562 21.7679 26.1562 22.1562V24.8093C26.1562 25.1976 26.471 25.5124 26.8594 25.5124Z" fill="#FFE7BF"/>
<path d="M29.2093 21.7792C28.5999 22.421 27.7435 22.789 26.8594 22.789C26.4711 22.789 26.1563 22.4742 26.1563 22.0859C26.1563 21.6976 26.4711 21.3828 26.8594 21.3828C27.367 21.3828 27.8394 21.1797 28.1895 20.811C28.5393 20.4426 28.7174 19.9592 28.691 19.4502C28.6415 18.4965 27.8538 17.7343 26.8977 17.7151C25.9667 17.6945 25.1712 18.3743 25.0431 19.292C25.0314 19.3764 25.0254 19.4628 25.0254 19.5488C25.0254 19.9371 24.7106 20.2519 24.3223 20.2519C23.9339 20.2519 23.6191 19.9371 23.6191 19.5488C23.6191 19.3979 23.6296 19.2462 23.6504 19.0977C23.8768 17.4749 25.2839 16.2768 26.926 16.3091C28.6157 16.3431 30.0079 17.6909 30.0953 19.3773C30.142 20.2753 29.8272 21.1283 29.2093 21.7792Z" fill="white"/>
</g>
<defs>
<clipPath id="clip0_180_19986">
<rect width="36" height="36" fill="white"/>
</clipPath>
</defs>
</svg>
