<svg width="33" height="32" viewBox="0 0 33 32" fill="none" xmlns="http://www.w3.org/2000/svg">
<path d="M24.2499 23.141V8.77528C24.2499 6.82821 22.7116 5.24951 20.8143 5.24951C20.8106 5.24951 17.6621 5.24951 15.0641 5.24951C8.24972 7.63716 8.41206 23.7556 16.4401 26.6668H20.8143C22.7116 26.6668 24.2499 25.0881 24.2499 23.141Z" fill="#F9996E"/>
<path d="M15.0644 5.24951C13.2405 5.24951 11.688 5.24951 11.6856 5.24951C9.78834 5.24951 8.25 6.82821 8.25 8.77528V23.141C8.25 25.0881 9.78834 26.6668 11.6856 26.6668H16.4404C14.7696 24.2863 13.5279 21.073 13.0516 17.4398C12.4257 12.665 13.2612 8.23075 15.0644 5.24951Z" fill="#F38054"/>
<path d="M19.0327 4H15.5544C13.5911 4 13.3045 4.5459 13.2201 5.25078L13.2174 6.6454V7.63697H20.4129V5.25078C20.3294 4.5486 19.7442 4 19.0327 4Z" fill="#69576E"/>
<path d="M15.5544 4H13.4674C12.7574 4 12.1717 4.5459 12.0872 5.25078V7.63697H14.1646L14.1742 5.25078C14.2587 4.5459 14.8444 4 15.5544 4Z" fill="#594C5E"/>
<path d="M22.5108 22.9981V8.91794C22.5108 7.87754 21.689 7.03418 20.6752 7.03418C20.3203 7.03418 16.6742 7.03418 14.1708 7.03418C9.67976 9.41386 9.03048 21.9787 15.3509 24.8819H20.6752C21.689 24.8819 22.5108 24.0385 22.5108 22.9981Z" fill="#ECEAF5"/>
<path d="M14.1711 7.03418C12.9102 7.03418 11.9392 7.03418 11.8249 7.03418C10.8111 7.03418 9.98926 7.87754 9.98926 8.91794V22.9981C9.98926 24.0385 10.8111 24.8819 11.8249 24.8819H15.3512C12.57 19.6301 11.9993 12.3148 14.1711 7.03418Z" fill="#DBD8F1"/>
<path d="M19.7284 22.7399C20.3047 22.7399 20.7719 22.2604 20.7719 21.669C20.7719 21.0776 20.3047 20.5981 19.7284 20.5981C19.1521 20.5981 18.6849 21.0776 18.6849 21.669C18.6849 22.2604 19.1521 22.7399 19.7284 22.7399Z" fill="#FB8798"/>
<path d="M19.7284 14.8868C20.3047 14.8868 20.7719 14.4074 20.7719 13.816C20.7719 13.2246 20.3047 12.7451 19.7284 12.7451C19.1521 12.7451 18.6849 13.2246 18.6849 13.816C18.6849 14.4074 19.1521 14.8868 19.7284 14.8868Z" fill="#FB8798"/>
<path d="M19.7284 10.9606C20.3047 10.9606 20.7719 10.4811 20.7719 9.88971C20.7719 9.29829 20.3047 8.81885 19.7284 8.81885C19.1521 8.81885 18.6849 9.29829 18.6849 9.88971C18.6849 10.4811 19.1521 10.9606 19.7284 10.9606Z" fill="#FB8798"/>
<path d="M16.9454 21.6695C16.9454 21.2754 16.6338 20.9556 16.2498 20.9556H13.7816C13.0871 21.366 13.106 21.8298 14.2462 22.3834H16.2498C16.6331 22.3834 16.9454 22.0636 16.9454 21.6695Z" fill="#05E2FD"/>
<path d="M12.4238 20.9556C12.0405 20.9556 11.7282 21.2754 11.7282 21.6695C11.7282 22.0635 12.0398 22.3834 12.4238 22.3834H14.2465C14.078 21.9206 13.9229 21.4441 13.7819 20.9556H12.4238Z" fill="#01CFFD"/>
<path d="M16.9461 9.88969C16.9461 9.49559 16.6345 9.17578 16.2505 9.17578H13.4661C12.3544 9.51219 12.3436 10.0001 13.1591 10.6036H16.2505C16.6338 10.6036 16.9461 10.2838 16.9461 9.88969Z" fill="#05E2FD"/>
<path d="M12.4238 9.17578C12.0405 9.17578 11.7282 9.49559 11.7282 9.88969C11.7282 10.2838 12.0398 10.6036 12.4238 10.6036H13.1586C13.2441 10.1143 13.3471 9.6381 13.4656 9.17578H12.4238Z" fill="#01CFFD"/>
<path d="M16.9457 13.8164C16.9457 13.4224 16.6341 13.1025 16.25 13.1025H12.878C12.0754 13.5249 11.9671 13.9954 12.8468 14.5304H16.25C16.6334 14.5304 16.9457 14.2105 16.9457 13.8164Z" fill="#05E2FD"/>
<path d="M12.8779 13.1025H12.4238C12.0405 13.1025 11.7282 13.4224 11.7282 13.8164C11.7282 14.2105 12.0398 14.5304 12.4238 14.5304H12.8467C12.8422 14.0477 12.8529 13.5713 12.8779 13.1025Z" fill="#01CFFD"/>
<path d="M16.946 17.7427C16.946 17.3486 16.6344 17.0288 16.2503 17.0288H13.0017C12.2502 17.411 12.2514 17.8566 13.2075 18.4566H16.2503C16.6337 18.4566 16.946 18.1368 16.946 17.7427Z" fill="#05E2FD"/>
<path d="M13.0013 17.0288H12.4238C12.0405 17.0288 11.7282 17.3486 11.7282 17.7427C11.7282 18.1368 12.0398 18.4566 12.4238 18.4566H13.2071C13.1488 18.1215 13.0965 17.7826 13.0515 17.4396C13.0335 17.3024 13.0169 17.1655 13.0013 17.0288Z" fill="#01CFFD"/>
<path d="M18.7866 18.7093L18.1012 18.0059C17.9666 17.8677 17.9529 17.6408 18.0834 17.4985C18.2185 17.3512 18.4445 17.3486 18.5828 17.4905L18.9798 17.8979C19.0288 17.9482 19.1063 17.9538 19.1617 17.9112L20.2035 17.1094C20.3558 16.9921 20.5768 17.0103 20.6956 17.1631C20.8185 17.3212 20.789 17.5511 20.6325 17.6715L19.2412 18.7424C19.1028 18.849 18.909 18.8349 18.7866 18.7093Z" fill="#05DBB7"/>
</svg>
