<svg width="36" height="36" viewBox="0 0 36 36" fill="none" xmlns="http://www.w3.org/2000/svg">
<path d="M18 0C27.9411 0 36 8.05887 36 18C36 22.1345 34.6061 25.9434 32.2625 28.9824C32.1535 29.1236 31.3243 29.1375 31.2112 29.2754C29.6081 31.2317 28.3191 32.3529 26.0354 33.4941C25.8607 33.5814 25.6845 34.283 25.5066 34.3647C23.2218 35.4146 20.6793 36 18 36C8.05887 36 0 27.9411 0 18C0 13.4274 1.70501 9.25305 4.51399 6.07795C4.6542 5.91947 5.60953 6.08512 5.75515 5.93163C7.67538 3.90867 9.4429 2.57112 12.1222 1.61114C12.2707 1.55791 12.2257 0.945352 12.3759 0.895992C14.1454 0.314578 16.036 0 18 0V0Z" fill="#2476ED"/>
<path d="M19.0547 5.55469C25.928 5.55469 31.5 11.1267 31.5 18C31.5 24.8733 25.928 30.4453 19.0547 30.4453C12.1814 30.4453 6.60938 24.8733 6.60938 18C6.60938 11.1267 12.1814 5.55469 19.0547 5.55469Z" fill="#3493F8"/>
<path d="M11.396 16.7813C11.396 16.9754 11.2387 17.1329 11.0445 17.1329H10.4585V17.7188C10.4585 17.9129 10.3011 18.0703 10.1069 18.0703C9.91271 18.0703 9.75535 17.9129 9.75535 17.7188V17.1329H9.16943C8.97523 17.1329 8.81787 16.9754 8.81787 16.7813C8.81787 16.5872 8.97523 16.4297 9.16943 16.4297H9.75535V15.8438C9.75535 15.6497 9.91271 15.4922 10.1069 15.4922C10.3011 15.4922 10.4585 15.6497 10.4585 15.8438V16.4297H11.0445C11.2387 16.4297 11.396 16.5871 11.396 16.7813Z" fill="#A7D0FC"/>
<path d="M8.35232 21.5244C8.35232 21.7185 8.19496 21.876 8.00076 21.876H7.41477V22.4619C7.41477 22.656 7.25741 22.8134 7.06321 22.8134C6.86901 22.8134 6.71165 22.656 6.71165 22.4619V21.876H6.12573C5.93153 21.876 5.77417 21.7185 5.77417 21.5244C5.77417 21.3303 5.93153 21.1728 6.12573 21.1728H6.71165V20.5869C6.71165 20.3928 6.86901 20.2354 7.06321 20.2354C7.25741 20.2354 7.41477 20.3928 7.41477 20.5869V21.1728H8.00076C8.19496 21.1728 8.35232 21.3303 8.35232 21.5244Z" fill="white"/>
<path d="M31.1665 13.2225C30.763 14.0147 29.9857 14.7883 29.4606 14.8323C29.4458 14.8336 29.4307 14.8342 29.4154 14.8342C29.4002 14.8342 29.3851 14.8336 29.3703 14.8323C28.8452 14.7883 28.0677 14.0147 27.6644 13.2225C27.2156 12.3411 27.3994 11.7703 27.9117 11.6267C28.3348 11.508 28.8495 11.7178 29.2687 12.291C29.3386 12.3866 29.4923 12.3866 29.5622 12.291C29.9814 11.7178 30.4961 11.508 30.9192 11.6267C31.4314 11.7703 31.6153 12.3411 31.1665 13.2225ZM5.25513 14.3688C4.83206 14.2502 4.31737 14.46 3.89817 15.0332C3.82828 15.1288 3.67451 15.1288 3.60461 15.0332C3.18541 14.46 2.67072 14.2502 2.24765 14.3688C1.73543 14.5125 1.55149 15.0833 2.00029 15.9647C2.40375 16.7569 3.18112 17.5305 3.70622 17.5745C3.72098 17.5758 3.73603 17.5764 3.75136 17.5764C3.76661 17.5764 3.78166 17.5758 3.7965 17.5745C4.32159 17.5305 5.09897 16.7569 5.50242 15.9647C5.95122 15.0833 5.76736 14.5125 5.25513 14.3688Z" fill="#FF94D2"/>
<path d="M30.0975 14.5336C29.872 14.7058 29.65 14.8164 29.4606 14.8323C29.4459 14.8336 29.4308 14.8342 29.4155 14.8342C29.4002 14.8342 29.3852 14.8336 29.3703 14.8323C28.8453 14.7883 28.0678 14.0147 27.6644 13.2225C27.2156 12.3411 27.3995 11.7703 27.9118 11.6266C27.9257 11.6228 27.9397 11.6192 27.9538 11.616C27.9571 11.9025 28.0512 12.2516 28.2569 12.6555C28.6904 13.5069 29.4865 14.3403 30.0975 14.5336ZM2.59275 15.3976C2.38708 14.9938 2.29301 14.6447 2.2897 14.3582C2.27557 14.3614 2.26158 14.365 2.24765 14.3688C1.73543 14.5125 1.55149 15.0833 2.00029 15.9646C2.40375 16.7569 3.18112 17.5305 3.70622 17.5745C3.72098 17.5758 3.73603 17.5764 3.75136 17.5764C3.76661 17.5764 3.78166 17.5758 3.7965 17.5745C3.98578 17.5586 4.20783 17.448 4.43339 17.2758C3.82244 17.0825 3.02636 16.2491 2.59275 15.3976Z" fill="#FF72C3"/>
<path d="M22.4501 8.30214C22.3154 10.3052 21.4758 12.9775 20.5463 13.6402C20.4994 13.6865 20.4487 13.7336 20.3939 13.7816C19.515 14.5498 17.9205 15.2338 17.4868 14.7375C17.0531 14.2412 17.9444 12.7526 18.8233 11.9845C18.837 11.9726 18.8505 11.9609 18.8641 11.9494C18.69 11.3112 18.5671 10.569 18.505 9.8263C18.0739 9.75079 17.6136 9.59568 17.1609 9.35936C15.737 8.61609 14.9282 7.35159 15.3545 6.53498C15.7807 5.71837 19.8775 5.30458 20.6548 5.35682C21.7508 5.43051 22.6068 5.97269 22.4501 8.30214Z" fill="#FFBEAA"/>
<path d="M24.375 10.01C23.9113 11.9633 22.6418 14.4602 21.6157 14.9602C21.5618 14.9982 21.504 15.0363 21.4419 15.0745C20.4482 15.6869 18.7626 16.0981 18.4169 15.5371C18.0711 14.976 19.1961 13.6551 20.1898 13.0427C20.2053 13.0331 20.2207 13.0238 20.2359 13.0147C20.1145 11.8104 20.22 10.2909 20.5048 9.09117C21.0441 6.81958 22.0222 6.55485 23.0909 6.80854C23.7744 6.97082 24.3695 7.25271 24.5398 8.06742C24.6357 8.52663 24.5694 9.19129 24.375 10.01Z" fill="#FFDECF"/>
<path d="M22.9659 16.6885C22.0324 18.5219 20.2336 20.3119 19.0185 20.4136C18.9842 20.4166 18.9494 20.4182 18.9141 20.4181C18.8787 20.4182 18.8439 20.4166 18.8097 20.4136C17.5946 20.3119 15.7958 18.5219 14.8622 16.6885C13.8237 14.6491 14.2493 13.3284 15.4346 12.996C16.4135 12.7215 17.6044 13.207 18.5745 14.5333C18.7362 14.7543 19.092 14.7543 19.2537 14.5333C20.2237 13.207 21.4147 12.7215 22.3936 12.996C23.5789 13.3283 24.0044 14.6491 22.9659 16.6885Z" fill="#FB5858"/>
<path d="M20.4921 19.7224C19.9703 20.1208 19.4565 20.3768 19.0185 20.4135C18.9842 20.4166 18.9494 20.4181 18.9141 20.418C18.8787 20.4181 18.8439 20.4166 18.8097 20.4135C17.5946 20.3118 15.7958 18.5218 14.8622 16.6885C13.8237 14.649 14.2493 13.3283 15.4346 12.9959C15.4668 12.9869 15.4992 12.9787 15.5318 12.9713C15.5393 13.6342 15.7572 14.442 16.233 15.3764C17.2362 17.3468 19.0784 19.275 20.4921 19.7224Z" fill="#F44545"/>
<path d="M24.4327 8.79067C23.758 10.0833 20.4554 9.69278 17.0561 7.91845C16.7659 7.76692 16.4843 7.6102 16.2124 7.44953L15.1059 9.56946C16.0447 12.3685 16.3263 16.1077 15.7809 17.3265C15.7349 17.4544 15.6634 17.5691 15.5655 17.6643C15.094 18.1223 14.444 18.3629 13.7977 17.6977C13.6879 17.5847 13.6386 17.4312 13.6357 17.2576C13.6187 16.2564 13.3443 15.2755 12.9109 14.3729C12.2872 13.0735 11.6658 11.5947 11.1437 10.3179L11.1383 10.3046C10.8177 9.51974 10.2202 8.87969 9.45914 8.50605L4.51392 6.07802C6.60529 3.71404 9.3086 1.90406 12.3758 0.896057L12.6167 1.03274C13.2135 1.37144 13.8782 1.56768 14.5619 1.62759C15.9311 1.74761 17.7019 2.29893 19.4996 3.23732C22.8989 5.01173 25.1075 7.49805 24.4327 8.79067Z" fill="#FFDECF"/>
<path d="M15.2573 17.9109C14.8299 18.1827 14.3127 18.2276 13.7978 17.6977C13.6879 17.5847 13.6387 17.4312 13.6358 17.2576C13.6188 16.2564 13.3443 15.2755 12.9109 14.3727C12.2872 13.0734 11.6658 11.5946 11.1438 10.3178C11.1419 10.3134 11.1402 10.309 11.1383 10.3046C10.8195 9.52326 10.2288 8.88384 9.47137 8.51196L4.51392 6.07802C4.95864 5.57536 5.431 5.09772 5.92867 4.64758L9.98008 6.63679C10.9318 7.10409 11.6739 7.90741 12.0745 8.88911C12.0768 8.8946 12.079 8.90015 12.0813 8.90571C12.7372 10.5099 13.518 12.368 14.3016 14.0004C14.8461 15.1346 15.1909 16.3671 15.2123 17.625C15.2141 17.7266 15.2285 17.8228 15.2573 17.9109Z" fill="#FFBEAA"/>
<path d="M32.2626 28.9824C30.4899 31.2811 28.1738 33.1394 25.5067 34.3648L23.2626 32.76C20.6815 33.3728 17.277 33.4188 14.2362 32.4261C10.8131 31.3086 9.50972 29.4398 9.17173 28.8276C8.43261 27.4886 7.89619 25.6061 8.44822 25.229C8.90694 24.9158 9.89419 25.7906 10.6876 26.2969C12.9681 27.7521 16.2715 27.3818 19.1373 26.8552C19.7299 26.7462 19.7225 25.8945 19.1281 25.7963C18.4066 25.6772 17.7042 25.571 16.879 25.4334C14.9535 25.1123 13.4905 25.1641 13.3325 24.5605C13.2823 24.3684 13.3387 23.9486 13.5645 23.6143C13.6329 23.5132 13.7226 23.4323 13.8279 23.3717C14.9073 22.6373 18.7942 22.2992 21.4721 22.8739C22.4754 23.0891 23.2004 23.3319 23.7148 23.5947C23.9693 23.7247 26.2201 25.1853 26.2201 25.1853L32.2626 28.9824Z" fill="#FFDECF"/>
<path d="M27.4527 33.3212C26.8284 33.7072 26.1787 34.0561 25.5067 34.3648L24.3412 33.5313C23.6867 33.0633 22.8751 32.867 22.0801 32.9912C19.6927 33.3641 16.8319 33.2735 14.2362 32.4261C10.8131 31.3086 9.50972 29.4398 9.17173 28.8276C8.43261 27.4886 7.89619 25.6061 8.44822 25.229C8.47564 25.2103 8.50503 25.1958 8.53611 25.1853C8.74044 25.8165 9.87725 27.6086 10.1495 27.86C14.4604 31.8422 19.8419 31.8691 23.0512 31.3515C23.8561 31.2217 24.6797 31.4042 25.3504 31.8678L27.4527 33.3212Z" fill="#FFBEAA"/>
<path d="M13.3171 24.3418C13.3294 24.1305 13.4043 23.8509 13.5643 23.6143C13.6326 23.5131 13.7223 23.4322 13.8277 23.3716C13.9715 23.2737 14.1652 23.1829 14.3993 23.1003C14.8101 23.1169 15.1354 23.2981 15.1932 23.5767C15.2692 23.9423 14.8559 24.3374 14.2703 24.4591C13.8971 24.5366 13.544 24.4844 13.3171 24.3418Z" fill="white"/>
<path d="M29.7125 20.4187C29.1827 21.4591 28.1619 22.4749 27.4724 22.5326C27.453 22.5344 27.4332 22.5352 27.4131 22.5352C27.393 22.5353 27.3732 22.5344 27.3538 22.5326C26.6643 22.4749 25.6435 21.4591 25.1137 20.4187C24.5243 19.2612 24.7658 18.5118 25.4385 18.3231C25.994 18.1674 26.6698 18.4429 27.2204 19.1955C27.3121 19.3209 27.5141 19.3209 27.6058 19.1955C28.1563 18.4429 28.8322 18.1673 29.3878 18.3231C30.0604 18.5118 30.3019 19.2613 29.7125 20.4187Z" fill="#F44545"/>
<path d="M28.3087 22.1405C28.0125 22.3665 27.7209 22.5118 27.4724 22.5326C27.453 22.5344 27.4332 22.5352 27.4131 22.5352C27.393 22.5353 27.3732 22.5344 27.3538 22.5326C26.6643 22.4749 25.6435 21.4591 25.1137 20.4186C24.5243 19.2612 24.7658 18.5118 25.4385 18.3231C25.4567 18.318 25.4751 18.3134 25.4936 18.3092C25.4979 18.6854 25.6215 19.1438 25.8915 19.6741C26.461 20.7922 27.5064 21.8865 28.3087 22.1405Z" fill="#C42D2D"/>
</svg>
