<svg width="35" height="35" viewBox="0 0 35 35" fill="none" xmlns="http://www.w3.org/2000/svg">
<g clip-path="url(#clip0_180_19948)">
<path d="M17.5 1.50366C8.25038 1.50366 0.751953 9.00209 0.751953 18.2519C0.751953 21.7743 1.84036 25.0419 3.69781 27.7392L17.105 34.9949C17.2364 34.9981 17.3681 35 17.5002 35C26.7498 35 34.2483 27.5015 34.2483 18.2519C34.2483 9.00209 26.7498 1.50366 17.5 1.50366Z" fill="#FE4675"/>
<path d="M20.5915 3.1118e-08L7.38751 0.000534088C5.26784 0.00080112 3.54978 1.71886 3.55005 3.83853L3.55112 27.5231C6.54584 32.0199 11.6565 34.9863 17.4614 34.9994H17.5389C19.5082 34.9951 21.3972 34.6501 23.1513 34.0215C23.9363 33.3187 24.4306 32.2981 24.4306 31.1614L24.4293 3.83746C24.4293 1.71806 22.7109 -0.000266997 20.5915 3.1118e-08V3.1118e-08Z" fill="#6244BD"/>
<path d="M7.38751 0.000534057C5.26784 0.000801089 3.54978 1.71886 3.55005 3.83853L3.55112 27.5232C4.65608 29.1822 6.04917 30.6327 7.65881 31.8036C7.62383 31.5951 7.60461 31.3812 7.60434 31.1625L7.60301 3.83853C7.60301 1.71913 9.32107 0.000801089 11.4407 0.000801089V0.000267028C11.4381 0.000267028 11.4431 0 11.4407 0L7.38751 0.000534057Z" fill="#4E2AA5"/>
<path d="M20.5917 2.00592H18.1433C17.8923 2.00592 17.6646 2.15012 17.554 2.37575C17.3123 2.86896 16.8061 3.20862 16.2197 3.20862L11.76 3.20888C11.1739 3.20888 10.6673 2.86922 10.4257 2.37602C10.3151 2.15038 10.0874 2.00645 9.83608 2.00645H7.3877C6.37593 2.00645 5.55615 2.82677 5.55615 3.83827L5.55722 29.9918C6.7252 31.1798 8.06862 32.1951 9.54609 32.994L20.5933 32.9935C21.6051 32.9932 22.4251 32.1732 22.4251 31.1617L22.4238 3.83747C22.4235 2.82596 21.6035 2.00592 20.5917 2.00592Z" fill="#E6FCFF"/>
<path d="M7.3877 2.00647C6.37593 2.00647 5.55615 2.82678 5.55615 3.83828L5.55722 29.9918C6.20583 30.6517 6.90838 31.2576 7.6582 31.8031C7.62322 31.5948 7.60453 31.3809 7.60453 31.1625L7.60319 3.83855C7.60319 3.17499 7.77169 2.55094 8.06782 2.00647H7.3877Z" fill="#CCEBFF"/>
<path d="M19.7656 5.81158H8.21372C7.87646 5.81158 7.60303 6.08475 7.60303 6.42201V11.6614C7.60303 11.9986 7.87646 12.2721 8.21372 12.2721H19.7656C20.1032 12.2721 20.3763 11.9986 20.3763 11.6614V6.42201C20.3763 6.08502 20.1029 5.81158 19.7656 5.81158Z" fill="#FE4675"/>
<path d="M10.3091 11.6614V6.42201C10.3091 6.08502 10.5825 5.81158 10.9198 5.81158H8.21372C7.87646 5.81158 7.60303 6.08502 7.60303 6.42201V11.6614C7.60303 11.9986 7.87646 12.2721 8.21372 12.2721H10.9198C10.5825 12.2721 10.3091 11.9986 10.3091 11.6614Z" fill="#EC3969"/>
<path d="M19.6211 30.9389H15.7198C15.3043 30.9389 14.9644 30.5988 14.9644 30.1833V26.282C14.9644 25.8665 15.3043 25.5266 15.7198 25.5266H19.6211C20.0366 25.5266 20.3765 25.8665 20.3765 26.282V30.1833C20.3765 30.5988 20.0366 30.9389 19.6211 30.9389Z" fill="#205DD9"/>
<path d="M12.2597 30.9389H8.35845C7.94295 30.9389 7.60303 30.5988 7.60303 30.1833V26.282C7.60303 25.8665 7.94295 25.5266 8.35845 25.5266H12.2597C12.6752 25.5266 13.0154 25.8665 13.0154 26.282V30.1833C13.0154 30.5988 12.6755 30.9389 12.2597 30.9389Z" fill="#51E0F4"/>
<path d="M10.3091 30.1833V26.282C10.3091 25.8665 10.6493 25.5266 11.0648 25.5266H8.35872C7.94295 25.5266 7.60303 25.8665 7.60303 26.282V30.1833C7.60303 30.5988 7.94295 30.9389 8.35872 30.9389H11.0648C10.6493 30.9389 10.3091 30.5988 10.3091 30.1833Z" fill="#15D4F0"/>
<path d="M8.35845 23.6277H12.2597C12.6755 23.6277 13.0154 23.2878 13.0154 22.8723V18.971C13.0154 18.5555 12.6755 18.2153 12.2597 18.2153H8.35845C7.94295 18.2153 7.60303 18.5553 7.60303 18.971V22.8723C7.60303 23.2878 7.94295 23.6277 8.35845 23.6277Z" fill="#F9CE00"/>
<path d="M10.3091 22.8723V18.971C10.3091 18.5555 10.6493 18.2153 11.0648 18.2153H8.35872C7.94295 18.2153 7.60303 18.5553 7.60303 18.971V22.8723C7.60303 23.2878 7.94295 23.6277 8.35872 23.6277H11.0648C10.6493 23.6277 10.3091 23.2878 10.3091 22.8723Z" fill="#F4B500"/>
<path d="M15.7198 23.6277H19.6211C20.0366 23.6277 20.3765 23.2878 20.3765 22.8723V18.971C20.3765 18.5555 20.0366 18.2153 19.6211 18.2153H15.7198C15.3043 18.2153 14.9641 18.5553 14.9641 18.971V22.8723C14.9641 23.2878 15.3043 23.6277 15.7198 23.6277Z" fill="#8DAE16"/>
<path d="M17.6704 22.8723V18.971C17.6704 18.5555 18.0103 18.2153 18.4258 18.2153H15.7198C15.3043 18.2153 14.9644 18.5553 14.9644 18.971V22.8723C14.9644 23.2878 15.3043 23.6277 15.7198 23.6277H18.4258C18.0103 23.6277 17.6704 23.2878 17.6704 22.8723Z" fill="#749C18"/>
<path d="M16.5513 9.59887H11.4284C11.1207 9.59887 10.8713 9.34946 10.8713 9.04185C10.8713 8.73396 11.1207 8.48456 11.4284 8.48456H16.5513C16.8589 8.48456 17.1083 8.73396 17.1083 9.04185C17.1083 9.34946 16.8589 9.59887 16.5513 9.59887Z" fill="#FC6590"/>
<path d="M20.3765 21.8806V22.9465C20.3765 23.362 20.0366 23.702 19.6211 23.702H15.7198C15.304 23.702 14.9641 23.362 14.9641 22.9465V21.8806H20.3765Z" fill="#A5C013"/>
<path d="M17.6694 22.9465V21.8806H14.9641V22.9465C14.9641 23.362 15.304 23.702 15.7198 23.702H18.4248C18.0093 23.702 17.6694 23.362 17.6694 22.9465Z" fill="#8DAE16"/>
<path d="M13.0154 21.8806V22.9465C13.0154 23.362 12.6755 23.702 12.2597 23.702H8.35845C7.94295 23.702 7.60303 23.362 7.60303 22.9465V21.8806H13.0154Z" fill="#FFE600"/>
<path d="M10.3083 22.9465V21.8806H7.60303V22.9465C7.60303 23.362 7.94295 23.702 8.35845 23.702H11.0637C10.6482 23.702 10.3083 23.362 10.3083 22.9465Z" fill="#F9CE00"/>
<path d="M7.60303 29.1915V30.2578C7.60303 30.6733 7.94295 31.0132 8.35845 31.0132H12.2597C12.6755 31.0132 13.0154 30.6733 13.0154 30.2578V29.1915H7.60303Z" fill="#8CECF8"/>
<path d="M10.3083 30.2578V29.1915H7.60303V30.2578C7.60303 30.673 7.94295 31.0132 8.35845 31.0132H11.0637C10.6482 31.0132 10.3083 30.673 10.3083 30.2578Z" fill="#51E0F4"/>
<path d="M14.9641 29.1915V30.2578C14.9641 30.6733 15.304 31.0132 15.7198 31.0132H19.6211C20.0366 31.0132 20.3765 30.6733 20.3765 30.2578V29.1915H14.9641Z" fill="#5F83FA"/>
<path d="M17.6694 30.2578V29.1915H14.9641V30.2578C14.9641 30.673 15.304 31.0132 15.7198 31.0132H18.4248C18.0093 31.0132 17.6694 30.673 17.6694 30.2578Z" fill="#4070EA"/>
<path d="M30.5081 24.4684C28.5695 21.111 24.2765 19.9609 20.9191 21.8993C17.5618 23.8377 16.4114 28.1309 18.3498 31.4883C20.2884 34.8456 24.5814 35.996 27.9388 34.0574C31.2961 32.119 32.4465 27.826 30.5081 24.4684Z" fill="#FFE600"/>
<path d="M25.2783 31.7857C24.5603 30.5419 24.6906 29.0417 25.489 27.9533L25.1403 27.3496C23.7987 27.4964 22.3175 26.6572 21.5995 25.4134C20.8443 24.1054 21.027 22.5134 21.9386 21.4154C21.592 21.5476 21.2513 21.7083 20.9196 21.8998C17.5623 23.8382 16.4119 28.1314 18.3503 31.4891C20.2886 34.8464 24.5819 35.9968 27.9395 34.0584C28.2244 33.8936 28.4933 33.7118 28.746 33.5153C27.3905 33.6811 26.0044 33.0429 25.2783 31.7857Z" fill="#F9CE00"/>
<path d="M28.0727 25.6248H21.4087L22.2338 29.0673H27.2542C27.4259 29.0673 27.5776 28.9555 27.628 28.7915L28.4462 26.1308C28.5237 25.8793 28.3357 25.6248 28.0727 25.6248Z" fill="#FE4675"/>
<path d="M24.1163 28.4911L23.6565 26.5722C23.5553 26.1493 23.8109 25.7415 24.2029 25.6248H21.4089L22.2341 29.0673H24.6619C24.3956 28.9875 24.1839 28.772 24.1163 28.4911Z" fill="#EC3969"/>
<path d="M27.5431 31.4482H23.3097C22.4685 31.4482 21.7844 30.7641 21.7844 29.9229V29.6311C21.7844 29.5988 21.7806 29.5665 21.7732 29.5352C21.7713 29.5277 20.6399 24.8118 20.642 24.8192C20.5812 24.6272 20.3147 24.7218 20.1259 24.6748C19.8273 24.6005 19.6452 24.2983 19.7195 23.9997C19.7833 23.7431 20.0124 23.5735 20.2687 23.5768C20.9796 23.5487 21.515 23.8865 21.7043 24.4814H21.704C21.7318 24.5722 21.7467 24.6419 22.8568 29.2754C22.9182 29.532 22.8928 29.6986 22.8987 29.9229C22.8987 30.1497 23.0832 30.3339 23.3097 30.3339H27.5431C27.8507 30.3339 28.1004 30.5833 28.1004 30.8909C28.1004 31.1988 27.8507 31.4482 27.5431 31.4482ZM20.6442 24.8259C20.649 24.8422 20.6517 24.8473 20.6541 24.8531C20.6511 24.8457 20.6474 24.8347 20.6442 24.8259ZM20.3937 23.5933H20.3945C20.3942 23.5933 20.394 23.5933 20.3937 23.5933ZM20.3929 23.593H20.3934C20.3932 23.593 20.3932 23.593 20.3929 23.593Z" fill="#E6FCFF"/>
<path d="M24.4307 30.8861C24.4307 30.6431 24.5724 30.4335 24.7775 30.3339H23.3097C23.083 30.3339 22.8987 30.1497 22.8987 29.9229C22.8928 29.6986 22.9182 29.532 22.8568 29.2757C21.7465 24.6419 21.7315 24.5722 21.704 24.4814C21.5147 23.8865 20.9793 23.5487 20.2687 23.5768C20.0121 23.5735 19.7833 23.7431 19.7195 23.9997C19.6452 24.2983 19.8271 24.6005 20.1256 24.6748C20.3144 24.7218 20.5812 24.6272 20.6421 24.8192C20.6397 24.8118 21.7711 29.5277 21.7729 29.5352C21.7804 29.5665 21.7841 29.5988 21.7841 29.6311V29.9229C21.7841 30.7641 22.4685 31.4482 23.3097 31.4482H24.7973C24.5815 31.3529 24.4307 31.1374 24.4307 30.8861ZM20.6442 24.8259C20.6474 24.835 20.6511 24.8457 20.6541 24.8531C20.6517 24.8473 20.649 24.8419 20.6442 24.8259Z" fill="#CCEBFF"/>
<path d="M24.2874 31.5734C24.2874 31.9913 23.9488 32.3299 23.5309 32.3299C23.113 32.3299 22.7744 31.9913 22.7744 31.5734C22.7744 31.1555 23.113 30.8167 23.5309 30.8167C23.9488 30.8167 24.2874 31.1555 24.2874 31.5734Z" fill="#6244BD"/>
<path d="M27.4691 31.5734C27.4691 31.9913 27.1302 32.3299 26.7123 32.3299C26.2947 32.3299 25.9558 31.9913 25.9558 31.5734C25.9558 31.1555 26.2947 30.8167 26.7123 30.8167C27.1302 30.8167 27.4691 31.1555 27.4691 31.5734Z" fill="#6244BD"/>
<path d="M19.5378 16.2839H10.6409C10.0871 16.2839 9.63794 15.8348 9.63794 15.281C9.63794 14.7269 10.0871 14.278 10.6409 14.278H19.5375C20.0916 14.278 20.5404 14.7269 20.5404 15.281C20.5404 15.8348 20.0916 16.2839 19.5378 16.2839Z" fill="#CCEBFF"/>
<path d="M13.9107 15.281C13.9107 14.7269 14.3598 14.278 14.9136 14.278H10.6409C10.0871 14.278 9.63794 14.7269 9.63794 15.281C9.63794 15.8348 10.0871 16.2839 10.6409 16.2839H14.9136C14.3598 16.2839 13.9107 15.8348 13.9107 15.281Z" fill="#B8DFF4"/>
<path d="M10.6408 16.2839H8.44314C7.88933 16.2839 7.44019 15.8348 7.44019 15.281C7.44019 14.7269 7.88933 14.278 8.44314 14.278H10.6408C11.1949 14.278 11.6437 14.7269 11.6437 15.281C11.6437 15.8348 11.1949 16.2839 10.6408 16.2839Z" fill="#FE4675"/>
<path d="M9.62288 15.281C9.62288 14.7269 10.072 14.278 10.6258 14.278H8.44314C7.88933 14.278 7.44019 14.7269 7.44019 15.281C7.44019 15.8348 7.88933 16.2839 8.44314 16.2839H10.6258C10.072 16.2839 9.62288 15.8348 9.62288 15.281Z" fill="#EC3969"/>
</g>
<defs>
<clipPath id="clip0_180_19948">
<rect width="35" height="35" fill="white"/>
</clipPath>
</defs>
</svg>
