<svg width="16" height="16" viewBox="0 0 16 16" fill="none" xmlns="http://www.w3.org/2000/svg">
<path fill-rule="evenodd" clip-rule="evenodd" d="M13.3657 4.23423C13.5157 4.38425 13.5999 4.5877 13.5999 4.79983C13.5999 5.01196 13.5157 5.21541 13.3657 5.36543L6.96568 11.7654C6.81566 11.9154 6.61221 11.9997 6.40008 11.9997C6.18795 11.9997 5.9845 11.9154 5.83448 11.7654L2.63448 8.56543C2.48876 8.41455 2.40812 8.21247 2.40994 8.00271C2.41177 7.79295 2.4959 7.5923 2.64423 7.44397C2.79255 7.29565 2.9932 7.21151 3.20296 7.20969C3.41272 7.20787 3.6148 7.2885 3.76568 7.43423L6.40008 10.0686L12.2345 4.23423C12.3845 4.08425 12.588 4 12.8001 4C13.0122 4 13.2157 4.08425 13.3657 4.23423Z" fill="white"/>
</svg>
