<svg width="72" height="72" viewBox="0 0 72 72" fill="none" xmlns="http://www.w3.org/2000/svg">
    <rect width="72" height="72" rx="36" fill="#20C17C"/>
    <path d="M22.1445 23.3996C22.1445 22.9222 22.3342 22.4644 22.6717 22.1268C23.0093 21.7893 23.4671 21.5996 23.9445 21.5996H27.8199C28.246 21.5998 28.6582 21.7511 28.9832 22.0267C29.3082 22.3022 29.5249 22.6841 29.5947 23.1044L30.9267 31.0874C30.9904 31.4676 30.9303 31.8582 30.7553 32.2017C30.5803 32.5451 30.2997 32.8234 29.9547 32.9954L27.1683 34.3868C28.1675 36.863 29.6556 39.1123 31.5437 41.0004C33.4318 42.8885 35.6812 44.3766 38.1573 45.3758L39.5505 42.5894C39.7225 42.2448 40.0004 41.9644 40.3435 41.7894C40.6866 41.6145 41.0768 41.5542 41.4567 41.6174L49.4397 42.9494C49.86 43.0193 50.2419 43.236 50.5175 43.561C50.793 43.886 50.9443 44.2981 50.9445 44.7242V48.5996C50.9445 49.077 50.7549 49.5348 50.4173 49.8724C50.0798 50.21 49.6219 50.3996 49.1445 50.3996H45.5445C32.6205 50.3996 22.1445 39.9236 22.1445 26.9996V23.3996Z" fill="white"/>
</svg>
