<svg width="21" height="20" viewBox="0 0 21 20" fill="none" xmlns="http://www.w3.org/2000/svg">
<path d="M14.25 7.19257C13.9083 7.19257 13.625 6.90923 13.625 6.56757V5.41757C13.625 4.54257 13.25 3.69257 12.6 3.1009C11.9417 2.5009 11.0917 2.2259 10.1917 2.30923C8.69167 2.4509 7.375 3.98423 7.375 5.58423V6.39257C7.375 6.73423 7.09167 7.01757 6.75 7.01757C6.40833 7.01757 6.125 6.73423 6.125 6.39257V5.5759C6.125 3.33423 7.93333 1.26757 10.075 1.05923C11.325 0.942567 12.525 1.33423 13.4417 2.1759C14.35 3.0009 14.875 4.18423 14.875 5.41757V6.56757C14.875 6.90923 14.5917 7.19257 14.25 7.19257Z" fill="#6E6E6E"/>
<path d="M12.9998 18.9577H7.99985C4.14985 18.9577 3.43318 17.166 3.24985 15.4244L2.62485 10.4327C2.53318 9.53268 2.49985 8.24102 3.37485 7.27435C4.12485 6.44102 5.36652 6.04102 7.16652 6.04102H13.8332C15.6415 6.04102 16.8832 6.44935 17.6248 7.27435C18.4915 8.24102 18.4665 9.53268 18.3748 10.416L17.7498 15.4244C17.5665 17.166 16.8498 18.9577 12.9998 18.9577ZM7.16652 7.29102C5.75818 7.29102 4.79152 7.56602 4.29985 8.11602C3.89152 8.56602 3.75818 9.25768 3.86652 10.291L4.49152 15.2827C4.63318 16.616 4.99985 17.716 7.99985 17.716H12.9998C15.9998 17.716 16.3665 16.6244 16.5082 15.2994L17.1332 10.291C17.2415 9.27435 17.1082 8.58268 16.6998 8.12435C16.2082 7.56602 15.2415 7.29102 13.8332 7.29102H7.16652Z" fill="#6E6E6E"/>
<path d="M13.3505 10.9577C12.8838 10.9577 12.5088 10.5827 12.5088 10.1243C12.5088 9.66602 12.8838 9.29102 13.3421 9.29102C13.8005 9.29102 14.1755 9.66602 14.1755 10.1243C14.1755 10.5827 13.8088 10.9577 13.3505 10.9577Z" fill="#6E6E6E"/>
<path d="M7.51647 10.9577C7.0498 10.9577 6.6748 10.5827 6.6748 10.1243C6.6748 9.66602 7.0498 9.29102 7.50814 9.29102C7.96647 9.29102 8.34147 9.66602 8.34147 10.1243C8.34147 10.5827 7.97481 10.9577 7.51647 10.9577Z" fill="#6E6E6E"/>
</svg>
