<svg width="40" height="40" viewBox="0 0 40 40" fill="none" xmlns="http://www.w3.org/2000/svg">
    <rect width="40" height="40" rx="20" fill="white" fill-opacity="0.1"/>
    <path fill-rule="evenodd" clip-rule="evenodd" d="M23.332 12.4685C23.632 12.7685 23.8005 13.1754 23.8005 13.5997C23.8005 14.0239 23.632 14.4308 23.332 14.7309L18.0632 19.9997L23.332 25.2685C23.6235 25.5702 23.7848 25.9744 23.7811 26.3939C23.7775 26.8134 23.6092 27.2147 23.3125 27.5114C23.0159 27.808 22.6146 27.9763 22.1951 27.9799C21.7756 27.9836 21.3714 27.8223 21.0696 27.5309L14.6696 21.1309C14.3697 20.8308 14.2012 20.4239 14.2012 19.9997C14.2012 19.5754 14.3697 19.1685 14.6696 18.8685L21.0696 12.4685C21.3697 12.1685 21.7766 12 22.2008 12C22.6251 12 23.032 12.1685 23.332 12.4685Z" fill="white"/>
</svg>
