<svg width="24" height="24" viewBox="0 0 24 24" fill="none" xmlns="http://www.w3.org/2000/svg">
    <g clip-path="url(#clip0_2338_42777)">
        <defs>
            <clipPath id="clip0_2338_42777">
                <rect width="24" height="24" fill="white"/>
            </clipPath>
        </defs>
        <path d="M13 3.25H7C3.58 3.25 2.25 4.58 2.25 8V16C2.25 18.3 3.5 20.75 7 20.75H13C16.42 20.75 17.75 19.42 17.75 16V8C17.75 4.58 16.42 3.25 13 3.25Z" fill="#4B84F7"/>
        <path d="M11.4991 11.3811C12.5374 11.3811 13.3791 10.5394 13.3791 9.50109C13.3791 8.4628 12.5374 7.62109 11.4991 7.62109C10.4608 7.62109 9.61914 8.4628 9.61914 9.50109C9.61914 10.5394 10.4608 11.3811 11.4991 11.3811Z" fill="#4B84F7"/>
        <path d="M21.6485 6.16962C21.2385 5.95962 20.3785 5.71962 19.2085 6.53962L17.7285 7.57962C17.7385 7.71962 17.7485 7.84962 17.7485 7.99962V15.9996C17.7485 16.1496 17.7285 16.2796 17.7285 16.4196L19.2085 17.4596C19.8285 17.8996 20.3685 18.0396 20.7985 18.0396C21.1685 18.0396 21.4585 17.9396 21.6485 17.8396C22.0585 17.6296 22.7485 17.0596 22.7485 15.6296V8.37962C22.7485 6.94962 22.0585 6.37962 21.6485 6.16962Z" fill="#4B84F7"/>
    </g>
</svg>
