<svg width="30" height="28" viewBox="0 0 30 28" fill="none" xmlns="http://www.w3.org/2000/svg">
<path opacity="0.6" d="M19.3201 18.4425C21.2221 18.4425 22.7619 16.9437 22.7619 15.0922C22.7619 13.2407 21.2221 11.7418 19.3201 11.7418C19.3083 11.7418 19.2965 11.7418 19.2846 11.7418C18.9814 9.07767 16.6541 7 13.8266 7C11.5937 7 9.67594 8.29567 8.81745 10.1548C8.78989 10.1548 8.76232 10.151 8.73476 10.151C6.38377 10.151 4.47778 12.0063 4.47778 14.2948C4.47778 16.5833 6.38377 18.4387 8.73476 18.4387" fill="#57AAFF"/>
<path opacity="0.6" fill-rule="evenodd" clip-rule="evenodd" d="M19.4564 18.44C21.2952 18.3705 22.762 16.8993 22.762 15.0922C22.762 13.2407 21.2222 11.7419 19.3202 11.7419H19.2848C19.2741 11.6487 19.261 11.5561 19.2455 11.4644C19.6227 11.3266 20.0313 11.2512 20.4582 11.2512C22.2303 11.2512 23.6913 12.5546 23.8843 14.2336H23.9079C25.1011 14.2336 26.0698 15.1766 26.0698 16.3381C26.0698 17.4996 25.1011 18.4426 23.9079 18.4426L19.4564 18.44Z" fill="#5686DF"/>
</svg>
