<svg width="24" height="24" viewBox="0 0 24 24" fill="none" xmlns="http://www.w3.org/2000/svg">
<path d="M17.8164 5.37953C16.2851 4.15436 14.3822 3.48731 12.4212 3.48828C10.1095 3.48828 7.95033 4.37888 6.33609 5.99616C4.77612 7.56107 3.92119 9.62726 3.92802 11.8126C3.92807 13.4148 4.39845 14.9818 5.28081 16.3191L5.28802 16.3294C5.29864 16.3449 5.30965 16.3605 5.32065 16.3756C5.33165 16.3908 5.34531 16.4106 5.34835 16.4155L5.3567 16.4307C5.39958 16.5066 5.43259 16.5992 5.40337 16.6925L4.7044 19.222C4.67644 19.3161 4.66113 19.4134 4.65887 19.5115C4.65836 19.7696 4.76022 20.0174 4.94211 20.2005C5.124 20.3836 5.37107 20.4871 5.62915 20.4883C5.76553 20.4838 5.89993 20.4543 6.02569 20.4014L8.58669 19.477L8.61895 19.4645C8.68861 19.4352 8.76348 19.4204 8.83903 19.4208C8.9087 19.421 8.97775 19.4339 9.04281 19.4588C9.10428 19.4827 9.66247 19.6963 10.2514 19.861C10.7409 19.9976 11.7594 20.2025 12.5574 20.2025C14.8209 20.2025 16.9345 19.326 18.5085 17.7338C20.0689 16.1537 20.928 14.0533 20.928 11.8171C20.9282 11.2431 20.8674 10.6707 20.7466 10.1096C20.3542 8.2646 19.3137 6.58433 17.8164 5.37953Z" stroke="#3F3F46" stroke-width="2"/>
<rect x="2.70707" y="4.02823" width="3.25119" height="24.4505" rx="1.62559" transform="rotate(-45.5616 2.70707 4.02823)" fill="#3F3F46" stroke="white"/>
</svg>
