<svg width="17" height="16" viewBox="0 0 17 16" fill="none" xmlns="http://www.w3.org/2000/svg">
<path d="M12.9077 2.81634C11.6316 1.85542 10.0459 1.33225 8.41164 1.33301C6.48523 1.33301 4.68594 2.03152 3.34075 3.29997C2.04077 4.52735 1.32833 6.14789 1.33402 7.86188C1.33406 9.11851 1.72604 10.3475 2.46134 11.3964L2.46735 11.4044C2.4762 11.4166 2.48537 11.4288 2.49454 11.4407C2.50371 11.4527 2.5151 11.4681 2.51763 11.472L2.52458 11.4839C2.56032 11.5434 2.58783 11.616 2.56348 11.6893L1.981 13.6732C1.9577 13.747 1.94494 13.8233 1.94306 13.9003C1.94264 14.1027 2.02752 14.297 2.17909 14.4406C2.33067 14.5842 2.53656 14.6654 2.75163 14.6663C2.86528 14.6628 2.97728 14.6397 3.08208 14.5982L5.21624 13.8732L5.24312 13.8634C5.30118 13.8404 5.36357 13.8288 5.42653 13.8291C5.48458 13.8293 5.54213 13.8394 5.59634 13.8589C5.64757 13.8777 6.11273 14.0452 6.6035 14.1744C7.01142 14.2815 7.86016 14.4422 8.52517 14.4422C10.4114 14.4422 12.1728 13.7547 13.4844 12.5059C14.7847 11.2666 15.5007 9.61932 15.5007 7.86545C15.5008 7.41524 15.4502 6.96629 15.3495 6.52616C15.0225 5.07914 14.1555 3.76128 12.9077 2.81634Z" stroke="#6E6E6E" stroke-width="1.5"/>
</svg>
