<svg width="24" height="24" viewBox="0 0 24 24" fill="none" xmlns="http://www.w3.org/2000/svg">
    <path d="M2.40039 3.60039C2.40039 3.28213 2.52682 2.97691 2.75186 2.75186C2.97691 2.52682 3.28213 2.40039 3.60039 2.40039H6.18399C6.46804 2.40052 6.74283 2.50141 6.95948 2.6851C7.17614 2.8688 7.32061 3.12339 7.36719 3.40359L8.25519 8.72559C8.29762 8.97905 8.25756 9.23944 8.14091 9.46843C8.02425 9.69741 7.83717 9.8829 7.60719 9.99759L5.74959 10.9252C6.41572 12.576 7.40779 14.0755 8.66652 15.3343C9.92525 16.593 11.4248 17.5851 13.0756 18.2512L14.0044 16.3936C14.119 16.1638 14.3043 15.9769 14.5331 15.8603C14.7618 15.7436 15.0219 15.7034 15.2752 15.7456L20.5972 16.6336C20.8774 16.6802 21.132 16.8246 21.3157 17.0413C21.4994 17.258 21.6003 17.5327 21.6004 17.8168V20.4004C21.6004 20.7187 21.474 21.0239 21.2489 21.2489C21.0239 21.474 20.7187 21.6004 20.4004 21.6004H18.0004C9.38439 21.6004 2.40039 14.6164 2.40039 6.00039V3.60039Z" fill="#00A65F"/>
</svg>
