<svg width="24" height="25" viewBox="0 0 24 25" fill="none" xmlns="http://www.w3.org/2000/svg">
<g clip-path="url(#clip0_2630_26975)">
<path d="M7.03125 1H16.9688C20.5759 1 23.5 3.92414 23.5 7.53125V17.4688C23.5 21.0759 20.5759 24 16.9688 24H7.03125C3.42414 24 0.5 21.0759 0.5 17.4688V7.53125C0.5 3.92414 3.42414 1 7.03125 1Z" fill="#4ABDD7" stroke="#4ABDD7"/>
<path fill-rule="evenodd" clip-rule="evenodd" d="M4.94939 7.9995C7.55501 7.9671 10.0603 6.99011 12 5.25C13.9395 6.99044 16.4448 7.96775 19.0506 8.0004C19.1496 8.5854 19.2 9.1884 19.2 9.8013C19.2 14.5038 16.194 18.5043 12 19.9866C7.80599 18.5034 4.79999 14.5029 4.79999 9.8004C4.79999 9.1866 4.85129 8.5854 4.94939 7.9995ZM15.3363 11.3367C15.5002 11.167 15.5909 10.9396 15.5889 10.7036C15.5868 10.4677 15.4922 10.2419 15.3253 10.0751C15.1585 9.9082 14.9327 9.81354 14.6967 9.81149C14.4608 9.80944 14.2334 9.90016 14.0637 10.0641L11.1 13.0278L9.93629 11.8641C9.76655 11.7002 9.5392 11.6094 9.30323 11.6115C9.06725 11.6135 8.84152 11.7082 8.67465 11.8751C8.50778 12.0419 8.41313 12.2677 8.41108 12.5036C8.40903 12.7396 8.49975 12.967 8.66369 13.1367L10.4637 14.9367C10.6325 15.1054 10.8613 15.2002 11.1 15.2002C11.3386 15.2002 11.5675 15.1054 11.7363 14.9367L15.3363 11.3367Z" fill="white"/>
</g>
<defs>
<clipPath id="clip0_2630_26975">
<rect width="24" height="24" fill="white" transform="translate(0 0.5)"/>
</clipPath>
</defs>
</svg>
