<svg width="23" height="20" viewBox="0 0 23 20" fill="none" xmlns="http://www.w3.org/2000/svg">
    <defs>
        <clipPath id="clip0_2338_42357">
            <rect width="16" height="16" fill="white" transform="translate(22.6289 11.3145) rotate(135)"/>
        </clipPath>
    </defs>
    <g clip-path="url(#clip0_2338_42357)">
        <path fill-rule="evenodd" clip-rule="evenodd" d="M14.9439 15.2737C14.9439 15.4858 14.8596 15.6892 14.7096 15.8392C14.5596 15.9892 14.3562 16.0735 14.144 16.0735L7.35582 16.0735C7.14369 16.0735 6.94026 15.9892 6.79026 15.8392C6.64026 15.6892 6.55598 15.4858 6.55594 15.2737L6.55594 8.48543C6.55959 8.27569 6.64547 8.07578 6.79507 7.92875C6.94468 7.78172 7.14606 7.69933 7.35582 7.69933C7.56559 7.69933 7.76696 7.78172 7.91657 7.92875C8.06618 8.07578 8.15206 8.27569 8.1557 8.48543L8.1557 13.3424L14.7097 6.78837C14.8598 6.63834 15.0632 6.55406 15.2754 6.55406C15.4876 6.55406 15.6911 6.63834 15.8411 6.78837C15.9911 6.9384 16.0754 7.14188 16.0754 7.35406C16.0754 7.56623 15.9911 7.76971 15.8411 7.91974L9.28707 14.4738L14.144 14.4738C14.3562 14.4738 14.5596 14.5581 14.7096 14.7081C14.8596 14.8581 14.9439 15.0615 14.9439 15.2737Z" fill="#DE372D"/>
    </g>
</svg>
