<svg width="30" height="30" viewBox="0 0 30 30" fill="none" xmlns="http://www.w3.org/2000/svg">
<path opacity="0.6" d="M18.344 18.3055C20.2461 18.3055 21.7858 16.8067 21.7858 14.9552C21.7858 13.1037 20.2461 11.6049 18.344 11.6049C18.3322 11.6049 18.3204 11.6049 18.3086 11.6049C18.0054 8.9407 15.678 6.86304 12.8505 6.86304C10.6177 6.86304 8.69987 8.1587 7.84138 10.0179C7.81382 10.0179 7.78625 10.014 7.75868 10.014C5.4077 10.014 3.50171 11.8694 3.50171 14.1579C3.50171 16.4464 5.4077 18.3017 7.75868 18.3017" fill="#57AAFF"/>
<path fill-rule="evenodd" clip-rule="evenodd" d="M18.3086 11.6048C18.0986 9.7601 16.9182 8.19658 15.2733 7.40927C15.9263 5.9893 17.3906 5 19.0923 5C21.402 5 23.2745 6.82265 23.2745 9.071C23.2745 10.2651 22.7463 11.3392 21.905 12.0838C21.2822 11.4841 20.4263 11.1141 19.4821 11.1141C19.0552 11.1141 18.6466 11.1895 18.2694 11.3273C18.2849 11.419 18.298 11.5116 18.3086 11.6048H18.3086ZM18.5351 11.6099C19.484 11.6603 20.33 12.0842 20.9209 12.7332C20.921 12.7332 20.921 12.7332 20.921 12.7332C20.33 12.0842 19.484 11.6603 18.5351 11.6099Z" fill="url(#paint0_linear_2308_1997)"/>
<path opacity="0.6" fill-rule="evenodd" clip-rule="evenodd" d="M18.4803 18.303C20.3191 18.2335 21.7859 16.7623 21.7859 14.9553C21.7859 13.1038 20.2461 11.6049 18.3441 11.6049H18.3086C18.298 11.5117 18.2849 11.4192 18.2694 11.3274C18.6466 11.1896 19.0552 11.1143 19.4821 11.1143C21.2542 11.1143 22.7152 12.4176 22.9082 14.0966H22.9318C24.125 14.0966 25.0937 15.0396 25.0937 16.2011C25.0937 17.3626 24.125 18.3056 22.9318 18.3056L18.4803 18.303Z" fill="#5686DF"/>
<path d="M23.6663 6.25733C24.023 6.25733 24.3121 5.97587 24.3121 5.62867C24.3121 5.28146 24.023 5 23.6663 5C23.3096 5 23.0205 5.28146 23.0205 5.62867C23.0205 5.97587 23.3096 6.25733 23.6663 6.25733Z" fill="#FDCA4F"/>
<path d="M24.6936 9.25733C25.0503 9.25733 25.3395 8.97587 25.3395 8.62867C25.3395 8.28146 25.0503 8 24.6936 8C24.3369 8 24.0478 8.28146 24.0478 8.62867C24.0478 8.97587 24.3369 9.25733 24.6936 9.25733Z" fill="#FDCA4F"/>
<path d="M15.4479 6.25733C15.8046 6.25733 16.0937 5.97587 16.0937 5.62867C16.0937 5.28146 15.8046 5 15.4479 5C15.0912 5 14.8021 5.28146 14.8021 5.62867C14.8021 5.97587 15.0912 6.25733 15.4479 6.25733Z" fill="#FDCA4F"/>
<path d="M23.6663 12.2573C24.023 12.2573 24.3121 11.9759 24.3121 11.6287C24.3121 11.2815 24.023 11 23.6663 11C23.3096 11 23.0205 11.2815 23.0205 11.6287C23.0205 11.9759 23.3096 12.2573 23.6663 12.2573Z" fill="#FDCA4F"/>
<path d="M19.5571 4.25733C19.9138 4.25733 20.2029 3.97587 20.2029 3.62867C20.2029 3.28146 19.9138 3 19.5571 3C19.2004 3 18.9113 3.28146 18.9113 3.62867C18.9113 3.97587 19.2004 4.25733 19.5571 4.25733Z" fill="#FDCA4F"/>
<defs>
<linearGradient id="paint0_linear_2308_1997" x1="16.4447" y1="11.5991" x2="21.9085" y2="5.94609" gradientUnits="userSpaceOnUse">
<stop stop-color="#EBB63A"/>
<stop offset="1" stop-color="#F3CC3B"/>
</linearGradient>
</defs>
</svg>
