<svg width="28" height="28" viewBox="0 0 28 28" fill="none" xmlns="http://www.w3.org/2000/svg">
<path fill-rule="evenodd" clip-rule="evenodd" d="M5.60078 7.0002C4.85818 7.0002 4.14598 7.29519 3.62088 7.8203C3.09578 8.3454 2.80078 9.05759 2.80078 9.80019V21.0002C2.80078 21.7428 3.09578 22.455 3.62088 22.9801C4.14598 23.5052 4.85818 23.8002 5.60078 23.8002H22.4008C23.1434 23.8002 23.8556 23.5052 24.3807 22.9801C24.9058 22.455 25.2008 21.7428 25.2008 21.0002V9.80019C25.2008 9.05759 24.9058 8.3454 24.3807 7.8203C23.8556 7.29519 23.1434 7.0002 22.4008 7.0002H20.1804C19.8091 7.00012 19.4531 6.85256 19.1906 6.58999L17.6212 5.0206C17.0962 4.49546 16.3841 4.20035 15.6416 4.2002H12.36C11.6174 4.20035 10.9054 4.49546 10.3804 5.0206L8.81098 6.58999C8.54849 6.85256 8.19245 7.00012 7.82118 7.0002H5.60078ZM14.0008 19.6002C14.5523 19.6002 15.0985 19.4916 15.6081 19.2805C16.1176 19.0694 16.5806 18.76 16.9706 18.37C17.3606 17.98 17.67 17.517 17.8811 17.0075C18.0921 16.4979 18.2008 15.9517 18.2008 15.4002C18.2008 14.8486 18.0921 14.3025 17.8811 13.7929C17.67 13.2834 17.3606 12.8204 16.9706 12.4303C16.5806 12.0403 16.1176 11.731 15.6081 11.5199C15.0985 11.3088 14.5523 11.2002 14.0008 11.2002C12.8869 11.2002 11.8186 11.6427 11.0309 12.4303C10.2433 13.218 9.80078 14.2863 9.80078 15.4002C9.80078 16.5141 10.2433 17.5824 11.0309 18.37C11.8186 19.1577 12.8869 19.6002 14.0008 19.6002Z" fill="#4B84F7"/>
</svg>
