<svg width="14" height="14" viewBox="0 0 14 14" fill="none" xmlns="http://www.w3.org/2000/svg">
<path d="M7 0.9C3.6175 0.9 0.9 3.6175 0.9 7C0.9 10.3828 3.64507 13.1 7 13.1C10.3552 13.1 13.1 10.3552 13.1 7C13.1 3.64507 10.3828 0.9 7 0.9ZM7 12.3545C4.02828 12.3545 1.64545 9.9451 1.64545 7C1.64545 4.05523 4.05523 1.64545 7 1.64545C9.94477 1.64545 12.3545 4.05523 12.3545 7C12.3545 9.9451 9.97172 12.3545 7 12.3545Z" fill="#5686DF" stroke="#EAF0FB" stroke-width="0.2"/>
<path d="M9.13831 4.33809L7.33207 6.14434C7.22271 6.10208 7.10136 6.08153 6.99993 6.08153C6.48107 6.08153 6.05448 6.50812 6.05448 7.02698C6.05448 7.54585 6.48107 7.97244 6.99993 7.97244C7.5188 7.97244 7.94539 7.54585 7.94539 7.02698C7.94539 6.90244 7.92462 6.79632 7.88318 6.69426L9.68883 4.8886C9.83697 4.74046 9.83697 4.51351 9.68883 4.36536C9.61733 4.29387 9.52034 4.24992 9.42262 4.24103C9.32423 4.23209 9.21786 4.25854 9.13831 4.33809ZM6.99993 7.19971C6.89153 7.19971 6.79993 7.10812 6.79993 6.99971C6.79993 6.8913 6.89153 6.79971 6.99993 6.79971C7.10834 6.79971 7.19993 6.8913 7.19993 6.99971C7.19993 7.10812 7.10834 7.19971 6.99993 7.19971Z" fill="#5686DF" stroke="#EAF0FB" stroke-width="0.2"/>
</svg>
