<svg width="60" height="60" viewBox="0 0 60 60" fill="none" xmlns="http://www.w3.org/2000/svg">
<rect width="60" height="60" rx="8" fill="#E9F3FF"/>
<path fill-rule="evenodd" clip-rule="evenodd" d="M24.3753 21.6654C21.0212 21.6654 18.3022 24.3844 18.3022 27.7385C18.3022 31.0927 21.0212 33.8117 24.3753 33.8117C27.7294 33.8117 30.4484 31.0927 30.4484 27.7385C30.4484 24.3844 27.7294 21.6654 24.3753 21.6654ZM16.0938 27.7385C16.0938 23.1648 19.8015 19.457 24.3753 19.457C28.949 19.457 32.6568 23.1648 32.6568 27.7385C32.6568 32.3123 28.949 36.0201 24.3753 36.0201C19.8015 36.0201 16.0938 32.3123 16.0938 27.7385Z" fill="#085CAF"/>
<path fill-rule="evenodd" clip-rule="evenodd" d="M35.6212 19.457L35.6247 19.457C37.821 19.457 39.9274 20.3295 41.4806 21.8826C43.0336 23.4357 43.9062 25.5422 43.9062 27.7385C43.9062 29.9349 43.0336 32.0414 41.4806 33.5945C39.9274 35.1475 37.821 36.0201 35.6247 36.0201C35.0148 36.0201 34.5204 35.5257 34.5204 34.9159C34.5204 34.306 35.0148 33.8117 35.6247 33.8117C37.2352 33.8117 38.78 33.1718 39.9189 32.0329C41.0579 30.8939 41.6978 29.3492 41.6978 27.7385C41.6978 26.1278 41.0579 24.5832 39.9189 23.4442C38.7803 22.3057 37.2363 21.6659 35.6263 21.6654C35.0659 21.6673 34.5083 21.7425 33.9675 21.8892C33.3789 22.0488 32.7724 21.7011 32.6127 21.1125C32.4532 20.524 32.8009 19.9174 33.3894 19.7578C34.117 19.5605 34.8674 19.4593 35.6212 19.457Z" fill="#085CAF"/>
<path fill-rule="evenodd" clip-rule="evenodd" d="M24.3755 36.0199C22.6035 36.0199 20.8576 36.4464 19.2851 37.2633C17.7127 38.0801 16.3599 39.2634 15.3411 40.7132C14.9905 41.2122 14.3017 41.3325 13.8028 40.9818C13.3038 40.6312 13.1836 39.9425 13.5342 39.4435C14.7568 37.7037 16.3801 36.2838 18.267 35.3035C20.154 34.3233 22.2491 33.8115 24.3755 33.8115C26.5019 33.8115 28.597 34.3233 30.4839 35.3035C32.3708 36.2838 33.9942 37.7037 35.2168 39.4435C35.5674 39.9425 35.4471 40.6312 34.9481 40.9818C34.4492 41.3325 33.7604 41.2122 33.4099 40.7132C32.391 39.2634 31.0383 38.0801 29.4659 37.2633C27.8934 36.4464 26.1474 36.0199 24.3755 36.0199Z" fill="#085CAF"/>
<path fill-rule="evenodd" clip-rule="evenodd" d="M40.7159 37.2615C39.1434 36.4447 37.3973 36.0188 35.6254 36.0199C35.0155 36.0203 34.5208 35.5262 34.5205 34.9164C34.5202 34.3065 35.0142 33.8119 35.624 33.8115C37.7507 33.8102 39.8465 34.3213 41.7338 35.3018C43.6211 36.2821 45.2444 37.7027 46.4663 39.4435C46.8167 39.9426 46.6961 40.6313 46.1969 40.9817C45.6978 41.332 45.0091 41.2114 44.6587 40.7122C43.6408 39.262 42.2882 38.0783 40.7159 37.2615Z" fill="#085CAF"/>
</svg>
