<svg width="81" height="80" viewBox="0 0 81 80" fill="none" xmlns="http://www.w3.org/2000/svg">
<g clip-path="url(#clip0_2234_46412)">
<path d="M21.3318 58.4893C15.9954 58.4893 11.2487 55.0725 9.52493 49.9856L9.40837 49.6023C9.0018 48.2553 8.83148 47.1224 8.83148 45.989V23.2613L0.744712 50.2555C-0.295315 54.2259 2.07475 58.3422 6.05125 59.439L57.5963 73.2431C58.2233 73.4063 58.8685 73.4891 59.5164 73.4896C62.8361 73.4896 65.8696 71.2863 66.72 68.039L69.723 58.4893H21.3318ZM30.4989 23.4884C34.1759 23.4884 37.1653 20.4982 37.1653 16.8213C37.1653 13.1445 34.1759 10.1543 30.4989 10.1543C26.8219 10.1543 23.8319 13.1447 23.8319 16.8213C23.8319 20.498 26.8221 23.4884 30.4989 23.4884Z" fill="#DCDCDC"/>
<path d="M72.1666 0.154297H22.1654C17.5724 0.154297 13.832 3.8947 13.832 8.48826V45.1554C13.832 49.7491 17.5724 53.4894 22.1654 53.4894H72.1666C76.7604 53.4894 80.5006 49.7491 80.5006 45.1554V8.48826C80.5006 3.8947 76.7604 0.154297 72.1666 0.154297ZM22.1654 6.82134H72.1666C73.0871 6.82134 73.8336 7.56792 73.8336 8.48826V32.1521L63.3036 19.865C62.1865 18.5551 60.5698 17.8549 58.8332 17.8154C57.1066 17.8251 55.4865 18.5916 54.3799 19.9185L41.9993 34.7786L37.9659 30.7551C35.6862 28.4753 31.9759 28.4753 29.6992 30.7551L20.4991 39.9522V8.4881C20.4991 7.56777 21.2457 6.82134 22.1654 6.82134Z" fill="#DCDCDC"/>
</g>
<defs>
<clipPath id="clip0_2234_46412">
<rect width="80" height="80" fill="white" transform="translate(0.5)"/>
</clipPath>
</defs>
</svg>
