<svg width="72" height="72" viewBox="0 0 72 72" fill="none" xmlns="http://www.w3.org/2000/svg">
    <rect width="72" height="72" rx="36" fill="#EB5757"/>
    <g clip-path="url(#clip0_2329_37625)">
        <defs>
            <clipPath id="clip0_2329_37625">
                <rect width="36" height="36" fill="white" transform="translate(18 18)"/>
            </clipPath>
        </defs>
        <path d="M53.9964 37.5002C53.9673 36.98 53.7642 36.4686 53.3869 36.0718C48.7443 31.1895 42.5692 28.5 35.9993 28.5C29.4301 28.5 23.2551 31.1895 18.6131 36.0718C18.2359 36.4686 18.0328 36.98 18.0036 37.5001C17.9697 38.1073 18.1728 38.7263 18.6131 39.189L22.0706 42.827C22.8837 43.681 24.3267 43.681 25.1398 42.827C26.2964 41.6105 27.6113 40.6077 29.0412 39.8505C29.7576 39.4813 30.2205 38.7042 30.2139 37.9696L30.7369 34.0277C34.565 32.806 37.4738 32.8053 41.2638 34.027L41.7795 37.8708C41.7795 38.7021 42.2205 39.4609 42.9412 39.8571C44.3784 40.6181 45.6933 41.6207 46.8507 42.8366C47.2572 43.2651 47.8022 43.5002 48.3853 43.5002C48.9677 43.5002 49.5126 43.2651 49.9192 42.8374L53.3869 39.1899C53.8272 38.7267 54.0304 38.1074 53.9964 37.5002Z" fill="white"/>
    </g>
</svg>
