<svg width="30" height="30" viewBox="0 0 30 30" fill="none" xmlns="http://www.w3.org/2000/svg">
<path d="M26.25 27.5H3.75C3.2375 27.5 2.8125 27.075 2.8125 26.5625C2.8125 26.05 3.2375 25.625 3.75 25.625H26.25C26.7625 25.625 27.1875 26.05 27.1875 26.5625C27.1875 27.075 26.7625 27.5 26.25 27.5Z" fill="#B4D2FF"/>
<path d="M23.775 4.34995C21.35 1.92495 18.975 1.86245 16.4875 4.34995L14.975 5.86245C14.85 5.98745 14.8 6.18745 14.85 6.36245C15.8 9.67495 18.45 12.325 21.7625 13.275C21.8125 13.2875 21.8625 13.3 21.9125 13.3C22.05 13.3 22.175 13.25 22.275 13.15L23.775 11.6375C25.0125 10.4125 25.6125 9.22495 25.6125 8.02495C25.625 6.78745 25.025 5.58745 23.775 4.34995Z" fill="#B4D2FF"/>
<path d="M19.5125 14.4125C19.15 14.2375 18.8 14.0625 18.4625 13.8625C18.1875 13.7 17.925 13.525 17.6625 13.3375C17.45 13.2 17.2 13 16.9625 12.8C16.9375 12.7875 16.85 12.7125 16.75 12.6125C16.3375 12.2625 15.875 11.8125 15.4625 11.3125C15.425 11.2875 15.3625 11.2 15.275 11.0875C15.15 10.9375 14.9375 10.6875 14.75 10.4C14.6 10.2125 14.425 9.9375 14.2625 9.6625C14.0625 9.325 13.8875 8.9875 13.7125 8.6375C13.5375 8.2625 13.4 7.9 13.275 7.5625L5.42497 15.4125C5.26247 15.575 5.11247 15.8875 5.07497 16.1L4.39997 20.8875C4.27497 21.7375 4.51247 22.5375 5.03747 23.075C5.48747 23.5125 6.11247 23.75 6.78747 23.75C6.93747 23.75 7.08747 23.7375 7.23747 23.7125L12.0375 23.0375C12.2625 23 12.575 22.85 12.725 22.6875L20.575 14.8375C20.225 14.7125 19.8875 14.575 19.5125 14.4125Z" fill="white"/>
</svg>
