<svg width="22" height="19" viewBox="0 0 22 19" fill="none" xmlns="http://www.w3.org/2000/svg">
<path d="M14.5992 4.19961C14.5992 5.15439 14.2199 6.07006 13.5448 6.74519C12.8697 7.42033 11.954 7.79961 10.9992 7.79961C10.0444 7.79961 9.12877 7.42033 8.45364 6.74519C7.7785 6.07006 7.39922 5.15439 7.39922 4.19961C7.39922 3.24483 7.7785 2.32916 8.45364 1.65403C9.12877 0.978894 10.0444 0.599609 10.9992 0.599609C11.954 0.599609 12.8697 0.978894 13.5448 1.65403C14.2199 2.32916 14.5992 3.24483 14.5992 4.19961ZM20.5992 6.59961C20.5992 7.23613 20.3464 7.84658 19.8963 8.29667C19.4462 8.74675 18.8357 8.99961 18.1992 8.99961C17.5627 8.99961 16.9523 8.74675 16.5022 8.29667C16.0521 7.84658 15.7992 7.23613 15.7992 6.59961C15.7992 5.96309 16.0521 5.35264 16.5022 4.90255C16.9523 4.45247 17.5627 4.19961 18.1992 4.19961C18.8357 4.19961 19.4462 4.45247 19.8963 4.90255C20.3464 5.35264 20.5992 5.96309 20.5992 6.59961ZM15.7992 14.9996C15.7992 13.7266 15.2935 12.5057 14.3933 11.6055C13.4932 10.7053 12.2723 10.1996 10.9992 10.1996C9.72618 10.1996 8.50528 10.7053 7.60511 11.6055C6.70493 12.5057 6.19922 13.7266 6.19922 14.9996V18.5996H15.7992V14.9996ZM6.19922 6.59961C6.19922 7.23613 5.94636 7.84658 5.49628 8.29667C5.04619 8.74675 4.43574 8.99961 3.79922 8.99961C3.1627 8.99961 2.55225 8.74675 2.10216 8.29667C1.65208 7.84658 1.39922 7.23613 1.39922 6.59961C1.39922 5.96309 1.65208 5.35264 2.10216 4.90255C2.55225 4.45247 3.1627 4.19961 3.79922 4.19961C4.43574 4.19961 5.04619 4.45247 5.49628 4.90255C5.94636 5.35264 6.19922 5.96309 6.19922 6.59961ZM18.1992 18.5996V14.9996C18.201 13.7795 17.8912 12.5792 17.2992 11.5124C17.8312 11.3763 18.3873 11.3634 18.9251 11.4749C19.4628 11.5863 19.968 11.8191 20.402 12.1555C20.8361 12.4919 21.1876 12.923 21.4298 13.4159C21.6719 13.9088 21.7983 14.4504 21.7992 14.9996V18.5996H18.1992ZM4.69922 11.5124C4.10732 12.5793 3.79754 13.7796 3.79922 14.9996V18.5996H0.199219V14.9996C0.198988 14.4501 0.324575 13.9077 0.566355 13.4142C0.808136 12.9207 1.15969 12.4891 1.59408 12.1525C2.02847 11.8159 2.53416 11.5832 3.07239 11.4722C3.61063 11.3613 4.16712 11.375 4.69922 11.5124Z" fill="#3F3F46"/>
</svg>
