<svg width="22" height="18" viewBox="0 0 22 18" fill="none" xmlns="http://www.w3.org/2000/svg">
<path d="M9.79922 4.2001C9.79922 5.15488 9.41993 6.07055 8.7448 6.74568C8.06967 7.42081 7.154 7.8001 6.19922 7.8001C5.24444 7.8001 4.32877 7.42081 3.65363 6.74568C2.9785 6.07055 2.59922 5.15488 2.59922 4.2001C2.59922 3.24532 2.9785 2.32964 3.65363 1.65451C4.32877 0.979382 5.24444 0.600098 6.19922 0.600098C7.154 0.600098 8.06967 0.979382 8.7448 1.65451C9.41993 2.32964 9.79922 3.24532 9.79922 4.2001ZM19.3992 4.2001C19.3992 4.67286 19.3061 5.14099 19.1252 5.57776C18.9443 6.01453 18.6791 6.41139 18.3448 6.74568C18.0105 7.07997 17.6136 7.34515 17.1769 7.52606C16.7401 7.70698 16.272 7.8001 15.7992 7.8001C15.3265 7.8001 14.8583 7.70698 14.4216 7.52606C13.9848 7.34515 13.5879 7.07997 13.2536 6.74568C12.9193 6.41139 12.6542 6.01453 12.4733 5.57776C12.2923 5.14099 12.1992 4.67286 12.1992 4.2001C12.1992 3.24532 12.5785 2.32964 13.2536 1.65451C13.9288 0.979382 14.8444 0.600098 15.7992 0.600098C16.754 0.600098 17.6697 0.979382 18.3448 1.65451C19.0199 2.32964 19.3992 3.24532 19.3992 4.2001ZM14.5152 17.4001C14.5704 17.0077 14.5992 16.6081 14.5992 16.2001C14.602 14.3147 13.9677 12.4837 12.7992 11.0041C13.7113 10.4775 14.746 10.2003 15.7992 10.2002C16.8524 10.2002 17.887 10.4775 18.7992 11.0041C19.7113 11.5307 20.4687 12.2881 20.9953 13.2002C21.5219 14.1122 21.7992 15.1469 21.7992 16.2001V17.4001H14.5152ZM6.19922 10.2001C7.79052 10.2001 9.31664 10.8322 10.4419 11.9575C11.5671 13.0827 12.1992 14.6088 12.1992 16.2001V17.4001H0.199219V16.2001C0.199219 14.6088 0.83136 13.0827 1.95658 11.9575C3.0818 10.8322 4.60792 10.2001 6.19922 10.2001Z" fill="#3F3F46"/>
</svg>
