<svg width="16" height="16" viewBox="0 0 16 16" fill="none" xmlns="http://www.w3.org/2000/svg">
<rect width="15" height="15" transform="translate(0.5 0.5)" fill="white" style="mix-blend-mode:multiply"/>
<path d="M7.25 5C7.25 5.59674 7.01295 6.16903 6.59099 6.59099C6.16903 7.01295 5.59674 7.25 5 7.25C4.40326 7.25 3.83097 7.01295 3.40901 6.59099C2.98705 6.16903 2.75 5.59674 2.75 5C2.75 4.40326 2.98705 3.83097 3.40901 3.40901C3.83097 2.98705 4.40326 2.75 5 2.75C5.59674 2.75 6.16903 2.98705 6.59099 3.40901C7.01295 3.83097 7.25 4.40326 7.25 5ZM13.25 5C13.25 5.29547 13.1918 5.58806 13.0787 5.86104C12.9657 6.13402 12.7999 6.38206 12.591 6.59099C12.3821 6.79992 12.134 6.96566 11.861 7.07873C11.5881 7.1918 11.2955 7.25 11 7.25C10.7045 7.25 10.4119 7.1918 10.139 7.07873C9.86598 6.96566 9.61794 6.79992 9.40901 6.59099C9.20008 6.38206 9.03434 6.13402 8.92127 5.86104C8.8082 5.58806 8.75 5.29547 8.75 5C8.75 4.40326 8.98705 3.83097 9.40901 3.40901C9.83097 2.98705 10.4033 2.75 11 2.75C11.5967 2.75 12.169 2.98705 12.591 3.40901C13.0129 3.83097 13.25 4.40326 13.25 5ZM10.1975 13.25C10.232 13.0048 10.25 12.755 10.25 12.5C10.2517 11.3216 9.8553 10.1773 9.125 9.2525C9.69507 8.92337 10.3417 8.7501 11 8.7501C11.6582 8.75009 12.3049 8.92336 12.875 9.25248C13.445 9.5816 13.9184 10.055 14.2476 10.625C14.5767 11.1951 14.75 11.8417 14.75 12.5V13.25H10.1975ZM5 8.75C5.99456 8.75 6.94839 9.14509 7.65165 9.84835C8.35491 10.5516 8.75 11.5054 8.75 12.5V13.25H1.25V12.5C1.25 11.5054 1.64509 10.5516 2.34835 9.84835C3.05161 9.14509 4.00544 8.75 5 8.75Z" fill="#6E6E6E"/>
</svg>
