<svg width="14" height="14" viewBox="0 0 14 14" fill="none" xmlns="http://www.w3.org/2000/svg">
<rect width="14" height="14" rx="4" fill="#FDA5F2"/>
<path d="M10 5.19922C10 3.54503 8.65419 2.19922 7 2.19922C5.34581 2.19922 4 3.54503 4 5.19922C4 6.65858 5.04778 7.8764 6.43022 8.1435V9.20548H5.78897C5.4744 9.20548 5.21919 9.46057 5.21919 9.77527C5.21919 10.09 5.4744 10.345 5.78897 10.345H6.43022V10.9022C6.43022 11.2169 6.68543 11.472 7 11.472C7.31457 11.472 7.56978 11.2169 7.56978 10.9022V10.345H8.21103C8.5256 10.345 8.78081 10.09 8.78081 9.77527C8.78081 9.46057 8.5256 9.20548 8.21103 9.20548H7.56978V8.1435C8.95222 7.8764 10 6.65859 10 5.19922ZM5.13956 5.19922C5.13956 4.17342 5.9742 3.33878 7 3.33878C8.0258 3.33878 8.86044 4.17342 8.86044 5.19922C8.86044 6.22514 8.0258 7.05978 7 7.05978C5.9742 7.05978 5.13956 6.22514 5.13956 5.19922Z" fill="white"/>
<path opacity="0.1" d="M7.57054 8.14257V9.20616H8.21124C8.52525 9.20616 8.78102 9.4594 8.78102 9.77594C8.78102 10.09 8.52525 10.3457 8.21124 10.3457H7.57054V10.9028C7.57054 11.2169 7.31477 11.4726 7.00076 11.4726C6.68422 11.4726 6.43098 11.2169 6.43098 10.9028V10.3457H5.78777C5.71939 10.3457 5.65355 10.3331 5.59277 10.3103C6.2284 9.73036 7.26412 8.58321 7.75793 6.89666C8.40621 6.60796 8.85952 5.95463 8.85952 5.19746C8.85952 4.49852 8.47206 3.88822 7.89974 3.57167C7.79085 3.03482 7.63892 2.58406 7.49964 2.24219C8.91776 2.47769 9.99908 3.71348 9.99908 5.19746C9.99908 6.65861 8.95322 7.87667 7.57054 8.14257Z" fill="black"/>
</svg>
