<svg width="36" height="36" viewBox="0 0 36 36" fill="none" xmlns="http://www.w3.org/2000/svg">
<g clip-path="url(#clip0_2199_38052)">
<path d="M10.5469 0.5H25.4531C31.0019 0.5 35.5 4.99814 35.5 10.5469V25.4531C35.5 31.0019 31.0019 35.5 25.4531 35.5H10.5469C4.99814 35.5 0.5 31.0019 0.5 25.4531V10.5469C0.5 4.99814 4.99814 0.5 10.5469 0.5Z" fill="#4B84F7" stroke="#4B84F7"/>
<path d="M26.0992 25.2498H26.9082L26.5464 24.5262L22.4964 16.4262L22.0492 15.5318L21.602 16.4262L19.3492 20.9318L15.7464 13.7262L15.2992 12.8318L14.852 13.7262L9.452 24.5262L9.0902 25.2498H9.89922H26.0992ZM8.34358 9.69417C8.75616 9.28159 9.31574 9.0498 9.89922 9.0498H26.0992C26.6827 9.0498 27.2423 9.28159 27.6549 9.69417C28.0674 10.1067 28.2992 10.6663 28.2992 11.2498V24.7498C28.2992 25.3333 28.0674 25.8929 27.6549 26.3054C27.2423 26.718 26.6827 26.9498 26.0992 26.9498H9.89922C9.31574 26.9498 8.75616 26.718 8.34358 26.3054C7.931 25.8929 7.69922 25.3333 7.69922 24.7498V11.2498C7.69922 10.6663 7.931 10.1067 8.34358 9.69417Z" fill="white" stroke="white"/>
</g>
<defs>
<clipPath id="clip0_2199_38052">
<rect width="36" height="36" fill="white"/>
</clipPath>
</defs>
</svg>
