<svg width="24" height="24" viewBox="0 0 24 24" fill="none" xmlns="http://www.w3.org/2000/svg">
<path fill-rule="evenodd" clip-rule="evenodd" d="M4.89999 10.8004H7.23519C7.34199 8.94519 7.69479 7.23639 8.23959 5.85879C7.3624 6.39629 6.61049 7.11542 6.03444 7.9678C5.4584 8.82017 5.07157 9.78603 4.89999 10.8004ZM12.0004 2.40039C9.45431 2.40039 7.01252 3.41182 5.21217 5.21217C3.41182 7.01252 2.40039 9.45431 2.40039 12.0004C2.40039 14.5465 3.41182 16.9883 5.21217 18.7886C7.01252 20.589 9.45431 21.6004 12.0004 21.6004C14.5465 21.6004 16.9883 20.589 18.7886 18.7886C20.589 16.9883 21.6004 14.5465 21.6004 12.0004C21.6004 9.45431 20.589 7.01252 18.7886 5.21217C16.9883 3.41182 14.5465 2.40039 12.0004 2.40039ZM12.0004 4.80039C11.9092 4.80039 11.722 4.83879 11.4424 5.11479C11.1568 5.39559 10.846 5.86239 10.558 6.53319C10.0912 7.62159 9.75039 9.10359 9.63879 10.8004H14.362C14.2504 9.10359 13.9096 7.62159 13.4428 6.53319C13.1548 5.86119 12.8428 5.39559 12.5584 5.11479C12.2788 4.83879 12.0916 4.80039 12.0004 4.80039ZM16.7656 10.8004C16.6588 8.94519 16.306 7.23639 15.7612 5.85879C16.6384 6.39629 17.3903 7.11542 17.9663 7.9678C18.5424 8.82017 18.9292 9.78603 19.1008 10.8004H16.7656ZM14.362 13.2004H9.63879C9.75039 14.8972 10.0912 16.3792 10.558 17.4676C10.846 18.1396 11.158 18.6052 11.4424 18.886C11.722 19.162 11.9092 19.2004 12.0004 19.2004C12.0916 19.2004 12.2788 19.162 12.5584 18.886C12.844 18.6052 13.156 18.1384 13.4428 17.4676C13.9096 16.3792 14.2504 14.8972 14.362 13.2004ZM15.7612 18.142C16.306 16.7656 16.6588 15.0556 16.7656 13.2004H19.1008C18.9292 14.2148 18.5424 15.1806 17.9663 16.033C17.3903 16.8854 16.6384 17.6045 15.7612 18.142ZM8.23959 18.142C7.69479 16.7644 7.34199 15.0556 7.23639 13.2004H4.89999C5.07157 14.2148 5.4584 15.1806 6.03444 16.033C6.61049 16.8854 7.3624 17.6045 8.23959 18.142Z" fill="#6E6E6E"/>
</svg>
