<svg width="16" height="16" viewBox="0 0 16 16" fill="none" xmlns="http://www.w3.org/2000/svg">
<rect width="16" height="16" rx="8" fill="#FF5757"/>
<path d="M11.2109 6.21563C11.1062 5.97316 10.9552 5.75343 10.7664 5.56876C10.5774 5.38353 10.3547 5.23633 10.1102 5.13516C9.85662 5.02984 9.58469 4.97594 9.31016 4.97657C8.925 4.97657 8.54922 5.08204 8.22266 5.28126C8.14453 5.32891 8.07031 5.38126 8 5.43829C7.92969 5.38126 7.85547 5.32891 7.77734 5.28126C7.45078 5.08204 7.075 4.97657 6.68984 4.97657C6.4125 4.97657 6.14375 5.02969 5.88984 5.13516C5.64453 5.23672 5.42344 5.38282 5.23359 5.56876C5.04453 5.75323 4.8935 5.973 4.78906 6.21563C4.68047 6.46797 4.625 6.73594 4.625 7.01172C4.625 7.27188 4.67813 7.54297 4.78359 7.81876C4.87188 8.04922 4.99844 8.28829 5.16016 8.52969C5.41641 8.91172 5.76875 9.31016 6.20625 9.71407C6.93125 10.3836 7.64922 10.8461 7.67969 10.8648L7.86484 10.9836C7.94688 11.0359 8.05234 11.0359 8.13438 10.9836L8.31953 10.8648C8.35 10.8453 9.06719 10.3836 9.79297 9.71407C10.2305 9.31016 10.5828 8.91172 10.8391 8.52969C11.0008 8.28829 11.1281 8.04922 11.2156 7.81876C11.3211 7.54297 11.3742 7.27188 11.3742 7.01172C11.375 6.73594 11.3195 6.46797 11.2109 6.21563Z" fill="white"/>
</svg>
