<svg width="20" height="18" viewBox="0 0 20 18" fill="none" xmlns="http://www.w3.org/2000/svg">
<path d="M18.0273 4.53908C17.7655 3.9329 17.3881 3.38359 16.916 2.92189C16.4436 2.45881 15.8866 2.09082 15.2754 1.8379C14.6416 1.57461 13.9617 1.43984 13.2754 1.44142C12.3125 1.44142 11.373 1.70509 10.5566 2.20314C10.3613 2.32228 10.1758 2.45314 10 2.59572C9.82422 2.45314 9.63867 2.32228 9.44336 2.20314C8.62695 1.70509 7.6875 1.44142 6.72461 1.44142C6.03125 1.44142 5.35937 1.57423 4.72461 1.8379C4.11133 2.09181 3.55859 2.45705 3.08398 2.92189C2.61132 3.38307 2.23375 3.93251 1.97266 4.53908C1.70117 5.16994 1.5625 5.83986 1.5625 6.52931C1.5625 7.1797 1.69531 7.85744 1.95898 8.54689C2.17969 9.12306 2.49609 9.72072 2.90039 10.3242C3.54102 11.2793 4.42187 12.2754 5.51562 13.2852C7.32812 14.959 9.12305 16.1152 9.19922 16.1621L9.66211 16.459C9.86719 16.5899 10.1309 16.5899 10.3359 16.459L10.7988 16.1621C10.875 16.1133 12.668 14.959 14.4824 13.2852C15.5762 12.2754 16.457 11.2793 17.0977 10.3242C17.502 9.72072 17.8203 9.12306 18.0391 8.54689C18.3027 7.85744 18.4355 7.1797 18.4355 6.52931C18.4375 5.83986 18.2988 5.16994 18.0273 4.53908V4.53908Z" stroke="#6E6E6E" stroke-width="1.6361"/>
</svg>
