<svg width="25" height="24" viewBox="0 0 25 24" fill="none" xmlns="http://www.w3.org/2000/svg">
<path d="M18.25 9V12V9ZM18.25 12V15V12ZM18.25 12H21.25H18.25ZM18.25 12H15.25H18.25ZM13.25 7C13.25 8.06087 12.8286 9.07828 12.0784 9.82843C11.3283 10.5786 10.3109 11 9.25 11C8.18913 11 7.17172 10.5786 6.42157 9.82843C5.67143 9.07828 5.25 8.06087 5.25 7C5.25 5.93913 5.67143 4.92172 6.42157 4.17157C7.17172 3.42143 8.18913 3 9.25 3C10.3109 3 11.3283 3.42143 12.0784 4.17157C12.8286 4.92172 13.25 5.93913 13.25 7V7ZM3.25 20C3.25 18.4087 3.88214 16.8826 5.00736 15.7574C6.13258 14.6321 7.6587 14 9.25 14C10.8413 14 12.3674 14.6321 13.4926 15.7574C14.6179 16.8826 15.25 18.4087 15.25 20V21H3.25V20Z" stroke="#4B84F7" stroke-width="2" stroke-linecap="round" stroke-linejoin="round"/>
</svg>
