<svg width="23" height="20" viewBox="0 0 23 20" fill="none" xmlns="http://www.w3.org/2000/svg">
    <path fill-rule="evenodd" clip-rule="evenodd" d="M7.68498 7.35526C7.68501 7.14312 7.76929 6.93969 7.91929 6.78969C8.06929 6.63969 8.27273 6.55541 8.48486 6.55538L15.2731 6.55538C15.4852 6.55541 15.6886 6.63969 15.8386 6.78969C15.9886 6.93969 16.0729 7.14312 16.073 7.35526L16.073 14.1435C16.0693 14.3532 15.9834 14.5531 15.8338 14.7002C15.6842 14.8472 15.4828 14.9296 15.2731 14.9296C15.0633 14.9296 14.8619 14.8472 14.7123 14.7002C14.5627 14.5531 14.4768 14.3532 14.4732 14.1435L14.4732 9.28651L7.91917 15.8405C7.76914 15.9906 7.56566 16.0749 7.35349 16.0749C7.14131 16.0749 6.93783 15.9906 6.7878 15.8405C6.63777 15.6905 6.55349 15.487 6.55349 15.2749C6.55349 15.0627 6.63777 14.8592 6.7878 14.7092L13.3418 8.15513L8.48486 8.15513C8.27273 8.1551 8.06929 8.07082 7.91929 7.92082C7.76929 7.77082 7.68501 7.56739 7.68498 7.35526Z" fill="#00A65F"/>
</svg>
