<svg width="25" height="24" viewBox="0 0 25 24" fill="none" xmlns="http://www.w3.org/2000/svg">
    <path fill-rule="evenodd" clip-rule="evenodd" d="M7.93408 4.67748C9.01243 3.60341 10.475 3 12 3C13.525 3 14.9876 3.60341 16.0659 4.67748C17.1443 5.75155 17.7501 7.20831 17.7501 8.72727C17.7501 11.1104 18.3514 12.6904 18.9817 13.6994L18.9914 13.7149C19.2849 14.1848 19.517 14.5562 19.6734 14.8265C19.7518 14.962 19.8232 15.0925 19.8761 15.2085C19.9025 15.2664 19.932 15.3373 19.9551 15.4145C19.9742 15.4785 20.0107 15.6153 19.997 15.7819C19.9878 15.8938 19.9649 16.085 19.8547 16.2826C19.7445 16.4802 19.5936 16.6006 19.503 16.6675C19.2974 16.8194 19.0613 16.8542 18.9825 16.8657L18.9789 16.8663C18.8578 16.8842 18.7204 16.893 18.5818 16.8984C18.3064 16.9091 17.9251 16.9091 17.451 16.9091H6.54905C6.07489 16.9091 5.69363 16.9091 5.41823 16.8984C5.27961 16.893 5.1422 16.8842 5.02112 16.8663L5.01747 16.8657C4.93867 16.8542 4.70257 16.8194 4.49697 16.6675C4.40642 16.6006 4.2555 16.4802 4.1453 16.2826C4.0351 16.085 4.01219 15.8938 4.003 15.7819C3.98932 15.6153 4.02579 15.4785 4.04494 15.4145C4.06801 15.3373 4.09754 15.2664 4.12393 15.2085C4.1768 15.0925 4.24821 14.962 4.32659 14.8265C4.48301 14.5562 4.71504 14.1848 5.00854 13.715L5.01827 13.6994C5.64862 12.6904 6.24992 11.1104 6.24992 8.72727C6.24992 7.20831 6.85573 5.75155 7.93408 4.67748ZM12 4.63636C10.9107 4.63636 9.86602 5.06737 9.09577 5.83456C8.32552 6.60176 7.8928 7.6423 7.8928 8.72727C7.8928 11.4008 7.21342 13.283 6.41315 14.564C6.23831 14.8438 6.09239 15.0775 5.97316 15.2718C6.14285 15.2727 6.34026 15.2727 6.56934 15.2727H17.4307C17.6597 15.2727 17.8572 15.2727 18.0268 15.2718C17.9076 15.0775 17.7617 14.8438 17.5869 14.564C16.7866 13.283 16.1072 11.4008 16.1072 8.72727C16.1072 7.6423 15.6745 6.60176 14.9042 5.83456C14.134 5.06737 13.0893 4.63636 12 4.63636ZM9.21075 18.8222C9.51096 18.4834 10.0301 18.4512 10.3702 18.7502C10.8051 19.1326 11.3745 19.3636 12 19.3636C12.6255 19.3636 13.1949 19.1326 13.6298 18.7502C13.9699 18.4512 14.489 18.4834 14.7893 18.8222C15.0895 19.161 15.0571 19.678 14.717 19.9771C13.9934 20.6131 13.0411 21 12 21C10.9589 21 10.0066 20.6131 9.28304 19.9771C8.94291 19.678 8.91054 19.161 9.21075 18.8222Z" fill="#212121"/>
    <path fill-rule="evenodd" clip-rule="evenodd" d="M7.93408 4.67748C9.01243 3.60341 10.475 3 12 3C13.525 3 14.9876 3.60341 16.0659 4.67748C17.1443 5.75155 17.7501 7.20831 17.7501 8.72727C17.7501 11.1104 18.3514 12.6904 18.9817 13.6994L18.9914 13.7149C19.2849 14.1848 19.517 14.5562 19.6734 14.8265C19.7518 14.962 19.8232 15.0925 19.8761 15.2085C19.9025 15.2664 19.932 15.3373 19.9551 15.4145C19.9742 15.4785 20.0107 15.6153 19.997 15.7819C19.9878 15.8938 19.9649 16.085 19.8547 16.2826C19.7445 16.4802 19.5936 16.6006 19.503 16.6675C19.2974 16.8194 19.0613 16.8542 18.9825 16.8657L18.9789 16.8663C18.8578 16.8842 18.7204 16.893 18.5818 16.8984C18.3064 16.9091 17.9251 16.9091 17.451 16.9091H6.54905C6.07489 16.9091 5.69363 16.9091 5.41823 16.8984C5.27961 16.893 5.1422 16.8842 5.02112 16.8663L5.01747 16.8657C4.93867 16.8542 4.70257 16.8194 4.49697 16.6675C4.40642 16.6006 4.2555 16.4802 4.1453 16.2826C4.0351 16.085 4.01219 15.8938 4.003 15.7819C3.98932 15.6153 4.02579 15.4785 4.04494 15.4145C4.06801 15.3373 4.09754 15.2664 4.12393 15.2085C4.1768 15.0925 4.24821 14.962 4.32659 14.8265C4.48301 14.5562 4.71504 14.1848 5.00854 13.715L5.01827 13.6994C5.64862 12.6904 6.24992 11.1104 6.24992 8.72727C6.24992 7.20831 6.85573 5.75155 7.93408 4.67748ZM12 4.63636C10.9107 4.63636 9.86602 5.06737 9.09577 5.83456C8.32552 6.60176 7.8928 7.6423 7.8928 8.72727C7.8928 11.4008 7.21342 13.283 6.41315 14.564C6.23831 14.8438 6.09239 15.0775 5.97316 15.2718C6.14285 15.2727 6.34026 15.2727 6.56934 15.2727H17.4307C17.6597 15.2727 17.8572 15.2727 18.0268 15.2718C17.9076 15.0775 17.7617 14.8438 17.5869 14.564C16.7866 13.283 16.1072 11.4008 16.1072 8.72727C16.1072 7.6423 15.6745 6.60176 14.9042 5.83456C14.134 5.06737 13.0893 4.63636 12 4.63636ZM9.21075 18.8222C9.51096 18.4834 10.0301 18.4512 10.3702 18.7502C10.8051 19.1326 11.3745 19.3636 12 19.3636C12.6255 19.3636 13.1949 19.1326 13.6298 18.7502C13.9699 18.4512 14.489 18.4834 14.7893 18.8222C15.0895 19.161 15.0571 19.678 14.717 19.9771C13.9934 20.6131 13.0411 21 12 21C10.9589 21 10.0066 20.6131 9.28304 19.9771C8.94291 19.678 8.91054 19.161 9.21075 18.8222Z" fill="black" fill-opacity="0.2"/>
    <path fill-rule="evenodd" clip-rule="evenodd" d="M7.93408 4.67748C9.01243 3.60341 10.475 3 12 3C13.525 3 14.9876 3.60341 16.0659 4.67748C17.1443 5.75155 17.7501 7.20831 17.7501 8.72727C17.7501 11.1104 18.3514 12.6904 18.9817 13.6994L18.9914 13.7149C19.2849 14.1848 19.517 14.5562 19.6734 14.8265C19.7518 14.962 19.8232 15.0925 19.8761 15.2085C19.9025 15.2664 19.932 15.3373 19.9551 15.4145C19.9742 15.4785 20.0107 15.6153 19.997 15.7819C19.9878 15.8938 19.9649 16.085 19.8547 16.2826C19.7445 16.4802 19.5936 16.6006 19.503 16.6675C19.2974 16.8194 19.0613 16.8542 18.9825 16.8657L18.9789 16.8663C18.8578 16.8842 18.7204 16.893 18.5818 16.8984C18.3064 16.9091 17.9251 16.9091 17.451 16.9091H6.54905C6.07489 16.9091 5.69363 16.9091 5.41823 16.8984C5.27961 16.893 5.1422 16.8842 5.02112 16.8663L5.01747 16.8657C4.93867 16.8542 4.70257 16.8194 4.49697 16.6675C4.40642 16.6006 4.2555 16.4802 4.1453 16.2826C4.0351 16.085 4.01219 15.8938 4.003 15.7819C3.98932 15.6153 4.02579 15.4785 4.04494 15.4145C4.06801 15.3373 4.09754 15.2664 4.12393 15.2085C4.1768 15.0925 4.24821 14.962 4.32659 14.8265C4.48301 14.5562 4.71504 14.1848 5.00854 13.715L5.01827 13.6994C5.64862 12.6904 6.24992 11.1104 6.24992 8.72727C6.24992 7.20831 6.85573 5.75155 7.93408 4.67748ZM12 4.63636C10.9107 4.63636 9.86602 5.06737 9.09577 5.83456C8.32552 6.60176 7.8928 7.6423 7.8928 8.72727C7.8928 11.4008 7.21342 13.283 6.41315 14.564C6.23831 14.8438 6.09239 15.0775 5.97316 15.2718C6.14285 15.2727 6.34026 15.2727 6.56934 15.2727H17.4307C17.6597 15.2727 17.8572 15.2727 18.0268 15.2718C17.9076 15.0775 17.7617 14.8438 17.5869 14.564C16.7866 13.283 16.1072 11.4008 16.1072 8.72727C16.1072 7.6423 15.6745 6.60176 14.9042 5.83456C14.134 5.06737 13.0893 4.63636 12 4.63636ZM9.21075 18.8222C9.51096 18.4834 10.0301 18.4512 10.3702 18.7502C10.8051 19.1326 11.3745 19.3636 12 19.3636C12.6255 19.3636 13.1949 19.1326 13.6298 18.7502C13.9699 18.4512 14.489 18.4834 14.7893 18.8222C15.0895 19.161 15.0571 19.678 14.717 19.9771C13.9934 20.6131 13.0411 21 12 21C10.9589 21 10.0066 20.6131 9.28304 19.9771C8.94291 19.678 8.91054 19.161 9.21075 18.8222Z" fill="black" fill-opacity="0.2"/>
    <path fill-rule="evenodd" clip-rule="evenodd" d="M7.93408 4.67748C9.01243 3.60341 10.475 3 12 3C13.525 3 14.9876 3.60341 16.0659 4.67748C17.1443 5.75155 17.7501 7.20831 17.7501 8.72727C17.7501 11.1104 18.3514 12.6904 18.9817 13.6994L18.9914 13.7149C19.2849 14.1848 19.517 14.5562 19.6734 14.8265C19.7518 14.962 19.8232 15.0925 19.8761 15.2085C19.9025 15.2664 19.932 15.3373 19.9551 15.4145C19.9742 15.4785 20.0107 15.6153 19.997 15.7819C19.9878 15.8938 19.9649 16.085 19.8547 16.2826C19.7445 16.4802 19.5936 16.6006 19.503 16.6675C19.2974 16.8194 19.0613 16.8542 18.9825 16.8657L18.9789 16.8663C18.8578 16.8842 18.7204 16.893 18.5818 16.8984C18.3064 16.9091 17.9251 16.9091 17.451 16.9091H6.54905C6.07489 16.9091 5.69363 16.9091 5.41823 16.8984C5.27961 16.893 5.1422 16.8842 5.02112 16.8663L5.01747 16.8657C4.93867 16.8542 4.70257 16.8194 4.49697 16.6675C4.40642 16.6006 4.2555 16.4802 4.1453 16.2826C4.0351 16.085 4.01219 15.8938 4.003 15.7819C3.98932 15.6153 4.02579 15.4785 4.04494 15.4145C4.06801 15.3373 4.09754 15.2664 4.12393 15.2085C4.1768 15.0925 4.24821 14.962 4.32659 14.8265C4.48301 14.5562 4.71504 14.1848 5.00854 13.715L5.01827 13.6994C5.64862 12.6904 6.24992 11.1104 6.24992 8.72727C6.24992 7.20831 6.85573 5.75155 7.93408 4.67748ZM12 4.63636C10.9107 4.63636 9.86602 5.06737 9.09577 5.83456C8.32552 6.60176 7.8928 7.6423 7.8928 8.72727C7.8928 11.4008 7.21342 13.283 6.41315 14.564C6.23831 14.8438 6.09239 15.0775 5.97316 15.2718C6.14285 15.2727 6.34026 15.2727 6.56934 15.2727H17.4307C17.6597 15.2727 17.8572 15.2727 18.0268 15.2718C17.9076 15.0775 17.7617 14.8438 17.5869 14.564C16.7866 13.283 16.1072 11.4008 16.1072 8.72727C16.1072 7.6423 15.6745 6.60176 14.9042 5.83456C14.134 5.06737 13.0893 4.63636 12 4.63636ZM9.21075 18.8222C9.51096 18.4834 10.0301 18.4512 10.3702 18.7502C10.8051 19.1326 11.3745 19.3636 12 19.3636C12.6255 19.3636 13.1949 19.1326 13.6298 18.7502C13.9699 18.4512 14.489 18.4834 14.7893 18.8222C15.0895 19.161 15.0571 19.678 14.717 19.9771C13.9934 20.6131 13.0411 21 12 21C10.9589 21 10.0066 20.6131 9.28304 19.9771C8.94291 19.678 8.91054 19.161 9.21075 18.8222Z" fill="black" fill-opacity="0.2"/>
    <path fill-rule="evenodd" clip-rule="evenodd" d="M7.93408 4.67748C9.01243 3.60341 10.475 3 12 3C13.525 3 14.9876 3.60341 16.0659 4.67748C17.1443 5.75155 17.7501 7.20831 17.7501 8.72727C17.7501 11.1104 18.3514 12.6904 18.9817 13.6994L18.9914 13.7149C19.2849 14.1848 19.517 14.5562 19.6734 14.8265C19.7518 14.962 19.8232 15.0925 19.8761 15.2085C19.9025 15.2664 19.932 15.3373 19.9551 15.4145C19.9742 15.4785 20.0107 15.6153 19.997 15.7819C19.9878 15.8938 19.9649 16.085 19.8547 16.2826C19.7445 16.4802 19.5936 16.6006 19.503 16.6675C19.2974 16.8194 19.0613 16.8542 18.9825 16.8657L18.9789 16.8663C18.8578 16.8842 18.7204 16.893 18.5818 16.8984C18.3064 16.9091 17.9251 16.9091 17.451 16.9091H6.54905C6.07489 16.9091 5.69363 16.9091 5.41823 16.8984C5.27961 16.893 5.1422 16.8842 5.02112 16.8663L5.01747 16.8657C4.93867 16.8542 4.70257 16.8194 4.49697 16.6675C4.40642 16.6006 4.2555 16.4802 4.1453 16.2826C4.0351 16.085 4.01219 15.8938 4.003 15.7819C3.98932 15.6153 4.02579 15.4785 4.04494 15.4145C4.06801 15.3373 4.09754 15.2664 4.12393 15.2085C4.1768 15.0925 4.24821 14.962 4.32659 14.8265C4.48301 14.5562 4.71504 14.1848 5.00854 13.715L5.01827 13.6994C5.64862 12.6904 6.24992 11.1104 6.24992 8.72727C6.24992 7.20831 6.85573 5.75155 7.93408 4.67748ZM12 4.63636C10.9107 4.63636 9.86602 5.06737 9.09577 5.83456C8.32552 6.60176 7.8928 7.6423 7.8928 8.72727C7.8928 11.4008 7.21342 13.283 6.41315 14.564C6.23831 14.8438 6.09239 15.0775 5.97316 15.2718C6.14285 15.2727 6.34026 15.2727 6.56934 15.2727H17.4307C17.6597 15.2727 17.8572 15.2727 18.0268 15.2718C17.9076 15.0775 17.7617 14.8438 17.5869 14.564C16.7866 13.283 16.1072 11.4008 16.1072 8.72727C16.1072 7.6423 15.6745 6.60176 14.9042 5.83456C14.134 5.06737 13.0893 4.63636 12 4.63636ZM9.21075 18.8222C9.51096 18.4834 10.0301 18.4512 10.3702 18.7502C10.8051 19.1326 11.3745 19.3636 12 19.3636C12.6255 19.3636 13.1949 19.1326 13.6298 18.7502C13.9699 18.4512 14.489 18.4834 14.7893 18.8222C15.0895 19.161 15.0571 19.678 14.717 19.9771C13.9934 20.6131 13.0411 21 12 21C10.9589 21 10.0066 20.6131 9.28304 19.9771C8.94291 19.678 8.91054 19.161 9.21075 18.8222Z" stroke="#212121" stroke-width="0.5" stroke-linecap="round" stroke-linejoin="round"/>
    <path fill-rule="evenodd" clip-rule="evenodd" d="M7.93408 4.67748C9.01243 3.60341 10.475 3 12 3C13.525 3 14.9876 3.60341 16.0659 4.67748C17.1443 5.75155 17.7501 7.20831 17.7501 8.72727C17.7501 11.1104 18.3514 12.6904 18.9817 13.6994L18.9914 13.7149C19.2849 14.1848 19.517 14.5562 19.6734 14.8265C19.7518 14.962 19.8232 15.0925 19.8761 15.2085C19.9025 15.2664 19.932 15.3373 19.9551 15.4145C19.9742 15.4785 20.0107 15.6153 19.997 15.7819C19.9878 15.8938 19.9649 16.085 19.8547 16.2826C19.7445 16.4802 19.5936 16.6006 19.503 16.6675C19.2974 16.8194 19.0613 16.8542 18.9825 16.8657L18.9789 16.8663C18.8578 16.8842 18.7204 16.893 18.5818 16.8984C18.3064 16.9091 17.9251 16.9091 17.451 16.9091H6.54905C6.07489 16.9091 5.69363 16.9091 5.41823 16.8984C5.27961 16.893 5.1422 16.8842 5.02112 16.8663L5.01747 16.8657C4.93867 16.8542 4.70257 16.8194 4.49697 16.6675C4.40642 16.6006 4.2555 16.4802 4.1453 16.2826C4.0351 16.085 4.01219 15.8938 4.003 15.7819C3.98932 15.6153 4.02579 15.4785 4.04494 15.4145C4.06801 15.3373 4.09754 15.2664 4.12393 15.2085C4.1768 15.0925 4.24821 14.962 4.32659 14.8265C4.48301 14.5562 4.71504 14.1848 5.00854 13.715L5.01827 13.6994C5.64862 12.6904 6.24992 11.1104 6.24992 8.72727C6.24992 7.20831 6.85573 5.75155 7.93408 4.67748ZM12 4.63636C10.9107 4.63636 9.86602 5.06737 9.09577 5.83456C8.32552 6.60176 7.8928 7.6423 7.8928 8.72727C7.8928 11.4008 7.21342 13.283 6.41315 14.564C6.23831 14.8438 6.09239 15.0775 5.97316 15.2718C6.14285 15.2727 6.34026 15.2727 6.56934 15.2727H17.4307C17.6597 15.2727 17.8572 15.2727 18.0268 15.2718C17.9076 15.0775 17.7617 14.8438 17.5869 14.564C16.7866 13.283 16.1072 11.4008 16.1072 8.72727C16.1072 7.6423 15.6745 6.60176 14.9042 5.83456C14.134 5.06737 13.0893 4.63636 12 4.63636ZM9.21075 18.8222C9.51096 18.4834 10.0301 18.4512 10.3702 18.7502C10.8051 19.1326 11.3745 19.3636 12 19.3636C12.6255 19.3636 13.1949 19.1326 13.6298 18.7502C13.9699 18.4512 14.489 18.4834 14.7893 18.8222C15.0895 19.161 15.0571 19.678 14.717 19.9771C13.9934 20.6131 13.0411 21 12 21C10.9589 21 10.0066 20.6131 9.28304 19.9771C8.94291 19.678 8.91054 19.161 9.21075 18.8222Z" stroke="black" stroke-opacity="0.2" stroke-width="0.5" stroke-linecap="round" stroke-linejoin="round"/>
    <path fill-rule="evenodd" clip-rule="evenodd" d="M7.93408 4.67748C9.01243 3.60341 10.475 3 12 3C13.525 3 14.9876 3.60341 16.0659 4.67748C17.1443 5.75155 17.7501 7.20831 17.7501 8.72727C17.7501 11.1104 18.3514 12.6904 18.9817 13.6994L18.9914 13.7149C19.2849 14.1848 19.517 14.5562 19.6734 14.8265C19.7518 14.962 19.8232 15.0925 19.8761 15.2085C19.9025 15.2664 19.932 15.3373 19.9551 15.4145C19.9742 15.4785 20.0107 15.6153 19.997 15.7819C19.9878 15.8938 19.9649 16.085 19.8547 16.2826C19.7445 16.4802 19.5936 16.6006 19.503 16.6675C19.2974 16.8194 19.0613 16.8542 18.9825 16.8657L18.9789 16.8663C18.8578 16.8842 18.7204 16.893 18.5818 16.8984C18.3064 16.9091 17.9251 16.9091 17.451 16.9091H6.54905C6.07489 16.9091 5.69363 16.9091 5.41823 16.8984C5.27961 16.893 5.1422 16.8842 5.02112 16.8663L5.01747 16.8657C4.93867 16.8542 4.70257 16.8194 4.49697 16.6675C4.40642 16.6006 4.2555 16.4802 4.1453 16.2826C4.0351 16.085 4.01219 15.8938 4.003 15.7819C3.98932 15.6153 4.02579 15.4785 4.04494 15.4145C4.06801 15.3373 4.09754 15.2664 4.12393 15.2085C4.1768 15.0925 4.24821 14.962 4.32659 14.8265C4.48301 14.5562 4.71504 14.1848 5.00854 13.715L5.01827 13.6994C5.64862 12.6904 6.24992 11.1104 6.24992 8.72727C6.24992 7.20831 6.85573 5.75155 7.93408 4.67748ZM12 4.63636C10.9107 4.63636 9.86602 5.06737 9.09577 5.83456C8.32552 6.60176 7.8928 7.6423 7.8928 8.72727C7.8928 11.4008 7.21342 13.283 6.41315 14.564C6.23831 14.8438 6.09239 15.0775 5.97316 15.2718C6.14285 15.2727 6.34026 15.2727 6.56934 15.2727H17.4307C17.6597 15.2727 17.8572 15.2727 18.0268 15.2718C17.9076 15.0775 17.7617 14.8438 17.5869 14.564C16.7866 13.283 16.1072 11.4008 16.1072 8.72727C16.1072 7.6423 15.6745 6.60176 14.9042 5.83456C14.134 5.06737 13.0893 4.63636 12 4.63636ZM9.21075 18.8222C9.51096 18.4834 10.0301 18.4512 10.3702 18.7502C10.8051 19.1326 11.3745 19.3636 12 19.3636C12.6255 19.3636 13.1949 19.1326 13.6298 18.7502C13.9699 18.4512 14.489 18.4834 14.7893 18.8222C15.0895 19.161 15.0571 19.678 14.717 19.9771C13.9934 20.6131 13.0411 21 12 21C10.9589 21 10.0066 20.6131 9.28304 19.9771C8.94291 19.678 8.91054 19.161 9.21075 18.8222Z" stroke="black" stroke-opacity="0.2" stroke-width="0.5" stroke-linecap="round" stroke-linejoin="round"/>
    <path fill-rule="evenodd" clip-rule="evenodd" d="M7.93408 4.67748C9.01243 3.60341 10.475 3 12 3C13.525 3 14.9876 3.60341 16.0659 4.67748C17.1443 5.75155 17.7501 7.20831 17.7501 8.72727C17.7501 11.1104 18.3514 12.6904 18.9817 13.6994L18.9914 13.7149C19.2849 14.1848 19.517 14.5562 19.6734 14.8265C19.7518 14.962 19.8232 15.0925 19.8761 15.2085C19.9025 15.2664 19.932 15.3373 19.9551 15.4145C19.9742 15.4785 20.0107 15.6153 19.997 15.7819C19.9878 15.8938 19.9649 16.085 19.8547 16.2826C19.7445 16.4802 19.5936 16.6006 19.503 16.6675C19.2974 16.8194 19.0613 16.8542 18.9825 16.8657L18.9789 16.8663C18.8578 16.8842 18.7204 16.893 18.5818 16.8984C18.3064 16.9091 17.9251 16.9091 17.451 16.9091H6.54905C6.07489 16.9091 5.69363 16.9091 5.41823 16.8984C5.27961 16.893 5.1422 16.8842 5.02112 16.8663L5.01747 16.8657C4.93867 16.8542 4.70257 16.8194 4.49697 16.6675C4.40642 16.6006 4.2555 16.4802 4.1453 16.2826C4.0351 16.085 4.01219 15.8938 4.003 15.7819C3.98932 15.6153 4.02579 15.4785 4.04494 15.4145C4.06801 15.3373 4.09754 15.2664 4.12393 15.2085C4.1768 15.0925 4.24821 14.962 4.32659 14.8265C4.48301 14.5562 4.71504 14.1848 5.00854 13.715L5.01827 13.6994C5.64862 12.6904 6.24992 11.1104 6.24992 8.72727C6.24992 7.20831 6.85573 5.75155 7.93408 4.67748ZM12 4.63636C10.9107 4.63636 9.86602 5.06737 9.09577 5.83456C8.32552 6.60176 7.8928 7.6423 7.8928 8.72727C7.8928 11.4008 7.21342 13.283 6.41315 14.564C6.23831 14.8438 6.09239 15.0775 5.97316 15.2718C6.14285 15.2727 6.34026 15.2727 6.56934 15.2727H17.4307C17.6597 15.2727 17.8572 15.2727 18.0268 15.2718C17.9076 15.0775 17.7617 14.8438 17.5869 14.564C16.7866 13.283 16.1072 11.4008 16.1072 8.72727C16.1072 7.6423 15.6745 6.60176 14.9042 5.83456C14.134 5.06737 13.0893 4.63636 12 4.63636ZM9.21075 18.8222C9.51096 18.4834 10.0301 18.4512 10.3702 18.7502C10.8051 19.1326 11.3745 19.3636 12 19.3636C12.6255 19.3636 13.1949 19.1326 13.6298 18.7502C13.9699 18.4512 14.489 18.4834 14.7893 18.8222C15.0895 19.161 15.0571 19.678 14.717 19.9771C13.9934 20.6131 13.0411 21 12 21C10.9589 21 10.0066 20.6131 9.28304 19.9771C8.94291 19.678 8.91054 19.161 9.21075 18.8222Z" stroke="black" stroke-opacity="0.2" stroke-width="0.5" stroke-linecap="round" stroke-linejoin="round"/>
    <path d="M21 3L3 21" stroke="#212121" stroke-width="2" stroke-linecap="round"/>
    <path d="M21 3L3 21" stroke="black" stroke-opacity="0.2" stroke-width="2" stroke-linecap="round"/>
    <path d="M21 3L3 21" stroke="black" stroke-opacity="0.2" stroke-width="2" stroke-linecap="round"/>
    <path d="M21 3L3 21" stroke="black" stroke-opacity="0.2" stroke-width="2" stroke-linecap="round"/>
</svg>
