<svg width="16" height="16" viewBox="0 0 16 16" fill="none" xmlns="http://www.w3.org/2000/svg">
<path fill-rule="evenodd" clip-rule="evenodd" d="M3.99992 3.33333C3.6463 3.33333 3.30716 3.47381 3.05711 3.72386C2.80706 3.97391 2.66659 4.31304 2.66659 4.66667V11.3333C2.66659 11.687 2.80706 12.0261 3.05711 12.2761C3.30716 12.5262 3.6463 12.6667 3.99992 12.6667H6.66659C7.02021 12.6667 7.35935 12.5262 7.6094 12.2761C7.85944 12.0261 7.99992 11.687 7.99992 11.3333V10.6667C7.99992 10.2985 8.2984 10 8.66659 10C9.03478 10 9.33325 10.2985 9.33325 10.6667V11.3333C9.33325 12.0406 9.0523 12.7189 8.5522 13.219C8.05211 13.719 7.37383 14 6.66659 14H3.99992C3.29267 14 2.6144 13.719 2.1143 13.219C1.6142 12.7189 1.33325 12.0406 1.33325 11.3333V4.66667C1.33325 3.95942 1.6142 3.28115 2.1143 2.78105C2.6144 2.28095 3.29267 2 3.99992 2H6.66659C7.37383 2 8.05211 2.28095 8.5522 2.78105C9.0523 3.28115 9.33325 3.95942 9.33325 4.66667V5.33333C9.33325 5.70152 9.03478 6 8.66659 6C8.2984 6 7.99992 5.70152 7.99992 5.33333V4.66667C7.99992 4.31304 7.85944 3.97391 7.6094 3.72386C7.35935 3.47381 7.02021 3.33333 6.66659 3.33333H3.99992ZM10.8618 4.86193C11.1222 4.60158 11.5443 4.60158 11.8047 4.86193L14.4713 7.5286C14.7317 7.78895 14.7317 8.21106 14.4713 8.4714L11.8047 11.1381C11.5443 11.3984 11.1222 11.3984 10.8618 11.1381C10.6015 10.8777 10.6015 10.4556 10.8618 10.1953L12.3904 8.66667H4.66659C4.2984 8.66667 3.99992 8.36819 3.99992 8C3.99992 7.63181 4.2984 7.33333 4.66659 7.33333H12.3904L10.8618 5.80474C10.6015 5.54439 10.6015 5.12228 10.8618 4.86193Z" fill="#DE372D"/>
</svg>
