<svg width="50" height="50" viewBox="0 0 50 50" fill="none" xmlns="http://www.w3.org/2000/svg">
<path fill-rule="evenodd" clip-rule="evenodd" d="M25 7.5C20.8579 7.5 17.5 10.8579 17.5 15C17.5 19.1421 20.8579 22.5 25 22.5C29.1421 22.5 32.5 19.1421 32.5 15C32.5 10.8579 29.1421 7.5 25 7.5ZM33.336 24.3147C35.8918 22.026 37.5 18.7008 37.5 15C37.5 8.09644 31.9036 2.5 25 2.5C18.0964 2.5 12.5 8.09644 12.5 15C12.5 18.7008 14.1083 22.0259 16.664 24.3147C9.78032 27.4753 5 34.4294 5 42.5C5 43.8807 6.11929 45 7.5 45C8.88071 45 10 43.8807 10 42.5C10 34.2157 16.7157 27.5 25 27.5C33.2843 27.5 40 34.2157 40 42.5C40 43.8807 41.1193 45 42.5 45C43.8807 45 45 43.8807 45 42.5C45 34.4294 40.2197 27.4753 33.336 24.3147Z" fill="#085CAF"/>
</svg>
