<svg width="14" height="14" viewBox="0 0 14 14" fill="none" xmlns="http://www.w3.org/2000/svg">
<g clip-path="url(#clip0_5176_52636)">
<path d="M4.93953 11.0846H9.06078L11.1214 9.04395H2.87891L4.93953 11.0846Z" fill="#52DBFF"/>
<path d="M7.00008 13.1246L9.0607 11.084H4.93945L7.00008 13.1246Z" fill="#A67EFF"/>
<path d="M1.16555 7.34683L2.87891 9.04359H11.1214L12.8348 7.34683C12.9288 7.23714 13.0167 7.12233 13.098 7.00293H0.902344C0.983673 7.12233 1.07154 7.23714 1.16555 7.34683Z" fill="#00DCAB"/>
<path d="M0.223633 4.96191C0.256644 5.6919 0.49172 6.39838 0.90266 7.00261H13.0983C13.5092 6.39838 13.7443 5.6919 13.7773 4.96191H0.223633Z" fill="#FFDD00"/>
<path d="M13.3238 2.92188H0.676417C0.345982 3.54948 0.189514 4.25407 0.223249 4.96254H13.7769C13.8107 4.25407 13.6542 3.54948 13.3238 2.92188Z" fill="#FF8522"/>
<path d="M12.7271 2.08256C11.4586 0.723079 9.42257 0.482126 7.88405 1.50938L7.00044 2.06806L6.11682 1.50938C4.5783 0.482126 2.54229 0.723079 1.27378 2.08256C1.03854 2.33461 0.837777 2.61676 0.676758 2.92163H13.3241C13.1631 2.61676 12.9623 2.33461 12.7271 2.08256Z" fill="#FA496E"/>
</g>
<defs>
<clipPath id="clip0_5176_52636">
<rect width="14" height="14" fill="white"/>
</clipPath>
</defs>
</svg>
