<svg width="20" height="20" viewBox="0 0 20 20" fill="none" xmlns="http://www.w3.org/2000/svg">
<path d="M14.6337 1.66602H5.34199C3.31699 1.66602 1.66699 3.31602 1.66699 5.34102V10.7577V10.9243C1.66699 12.9577 3.31699 14.5993 5.34199 14.5993H8.54199C9.00033 14.5993 9.37533 14.9743 9.37533 15.4327V16.241C9.37533 16.6993 9.00033 17.0743 8.54199 17.0743H6.52533C6.18366 17.0743 5.90033 17.3577 5.90033 17.6994C5.90033 18.041 6.17533 18.3327 6.52533 18.3327H13.4837C13.8253 18.3327 14.1087 18.0493 14.1087 17.7077C14.1087 17.366 13.8253 17.0827 13.4837 17.0827H11.467C11.0087 17.0827 10.6337 16.7077 10.6337 16.2493V15.441C10.6337 14.9827 11.0087 14.6077 11.467 14.6077H14.642C16.6753 14.6077 18.317 12.9577 18.317 10.9327V10.766V5.34935C18.3087 3.31602 16.6587 1.66602 14.6337 1.66602Z" fill="#4B84F7"/>
</svg>
