<svg width="14" height="14" viewBox="0 0 14 14" fill="none" xmlns="http://www.w3.org/2000/svg">
<rect width="14" height="14" rx="4" fill="#79B6EF"/>
<path d="M7.56937 5.52745V4.05484L7.80848 4.27173C7.91753 4.37076 8.05451 4.41947 8.19101 4.41947C8.34629 4.41947 8.50084 4.35642 8.61335 4.23253C8.82452 3.99948 8.80696 3.63921 8.57403 3.42779L7.38243 2.34696C7.3817 2.34733 7.3813 2.34766 7.38057 2.34803C7.27947 2.25648 7.14672 2.19922 6.99965 2.19922C6.85231 2.19922 6.71929 2.25668 6.61813 2.34852C6.61762 2.34794 6.61739 2.34755 6.61688 2.34696L5.42527 3.42779C5.19234 3.63921 5.17479 3.99948 5.38596 4.23253C5.49847 4.35654 5.65301 4.41947 5.8083 4.41947C5.94479 4.41947 6.08178 4.37064 6.19083 4.27173L6.42994 4.05484V5.52745C5.04766 5.79452 4 7.01218 4 8.47127C4 10.1253 5.34565 11.4709 6.99965 11.4709C8.65365 11.4709 9.9993 10.1253 9.9993 8.47127C9.9993 7.01218 8.95165 5.79452 7.56937 5.52745ZM6.99965 10.3315C5.97397 10.3315 5.13943 9.49695 5.13943 8.47127C5.13943 7.44558 5.97397 6.61104 6.99965 6.61104C8.02533 6.61104 8.85988 7.44558 8.85988 8.47127C8.85988 9.49695 8.02533 10.3315 6.99965 10.3315Z" fill="white"/>
<path opacity="0.1" d="M7.73906 4.21062C7.64789 3.39529 7.43268 2.7243 7.24023 2.25586C7.29088 2.27865 7.33899 2.31157 7.3795 2.34956C7.38203 2.34702 7.38203 2.34702 7.38203 2.34702L8.57464 3.4282C8.80758 3.6409 8.82531 4.00045 8.61261 4.23341C8.50121 4.35748 8.34675 4.42078 8.19229 4.42078C8.05557 4.42078 7.91883 4.37014 7.80742 4.27139L7.73906 4.21062Z" fill="black"/>
<path opacity="0.1" d="M10.0004 8.47206C10.0004 10.1255 8.65333 11.4725 6.99989 11.4725C6.22256 11.4725 5.5161 11.1763 4.98438 10.6901C5.17428 10.5382 5.47813 10.2774 5.81742 9.9052C6.13899 10.1711 6.54919 10.3331 6.99989 10.3331C8.02538 10.3331 8.86096 9.49754 8.86096 8.47206C8.86096 7.64661 8.32163 6.94522 7.57467 6.70215C7.64304 6.42869 7.69874 6.14003 7.73419 5.84124C7.74431 5.75009 7.75445 5.65893 7.76204 5.57031C9.04833 5.90962 10.0004 7.08196 10.0004 8.47206Z" fill="black"/>
</svg>
