<svg width="73" height="72" viewBox="0 0 73 72" fill="none" xmlns="http://www.w3.org/2000/svg">
    <rect x="0.5" width="72" height="72" rx="36" fill="white" fill-opacity="0.2"/>
    <path fill-rule="evenodd" clip-rule="evenodd" d="M31.1004 25.2008C31.1004 23.7686 31.6693 22.3951 32.682 21.3824C33.6947 20.3697 35.0682 19.8008 36.5004 19.8008C37.9326 19.8008 39.3061 20.3697 40.3188 21.3824C41.3315 22.3951 41.9004 23.7686 41.9004 25.2008V32.4008C41.9004 33.833 41.3315 35.2065 40.3188 36.2192C39.3061 37.2319 37.9326 37.8008 36.5004 37.8008C35.0682 37.8008 33.6947 37.2319 32.682 36.2192C31.6693 35.2065 31.1004 33.833 31.1004 32.4008V25.2008ZM38.3004 44.8748C41.2996 44.4415 44.0422 42.942 46.0257 40.651C48.0092 38.3601 49.1008 35.4311 49.1004 32.4008C49.1004 31.9234 48.9108 31.4656 48.5732 31.128C48.2356 30.7904 47.7778 30.6008 47.3004 30.6008C46.823 30.6008 46.3652 30.7904 46.0276 31.128C45.69 31.4656 45.5004 31.9234 45.5004 32.4008C45.5004 34.7877 44.5522 37.0769 42.8644 38.7647C41.1765 40.4526 38.8873 41.4008 36.5004 41.4008C34.1134 41.4008 31.8243 40.4526 30.1364 38.7647C28.4486 37.0769 27.5004 34.7877 27.5004 32.4008C27.5004 31.9234 27.3107 31.4656 26.9732 31.128C26.6356 30.7904 26.1778 30.6008 25.7004 30.6008C25.223 30.6008 24.7652 30.7904 24.4276 31.128C24.09 31.4656 23.9004 31.9234 23.9004 32.4008C23.9 35.4311 24.9916 38.3601 26.9751 40.651C28.9586 42.942 31.7012 44.4415 34.7004 44.8748V48.6008H29.3004C28.823 48.6008 28.3652 48.7904 28.0276 49.128C27.69 49.4656 27.5004 49.9234 27.5004 50.4008C27.5004 50.8782 27.69 51.336 28.0276 51.6736C28.3652 52.0111 28.823 52.2008 29.3004 52.2008H43.7004C44.1778 52.2008 44.6356 52.0111 44.9732 51.6736C45.3107 51.336 45.5004 50.8782 45.5004 50.4008C45.5004 49.9234 45.3107 49.4656 44.9732 49.128C44.6356 48.7904 44.1778 48.6008 43.7004 48.6008H38.3004V44.8748Z" fill="white"/>
</svg>
