<svg width="72" height="72" viewBox="0 0 72 72" fill="none" xmlns="http://www.w3.org/2000/svg">
    <rect width="72" height="72" rx="36" fill="white" fill-opacity="0.2"/>
    <path fill-rule="evenodd" clip-rule="evenodd" d="M32.182 21.3824C31.1693 22.3951 30.6004 23.7686 30.6004 25.2008V26.6839L40.0608 35.9607C40.9217 34.9789 41.4004 33.7145 41.4004 32.4008V25.2008C41.4004 23.7686 40.8315 22.3951 39.8188 21.3824C38.8061 20.3697 37.4326 19.8008 36.0004 19.8008C34.5682 19.8008 33.1947 20.3697 32.182 21.3824ZM33.6999 37.2863L31.161 34.7966C31.4192 35.3184 31.7626 35.7997 32.182 36.2192C32.6269 36.664 33.1414 37.0233 33.6999 37.2863ZM37.7257 41.2339L40.6595 44.1107C39.7461 44.4743 38.7871 44.7322 37.8004 44.8748V48.6008H43.2004C43.6778 48.6008 44.1356 48.7904 44.4732 49.128C44.8107 49.4656 45.0004 49.9234 45.0004 50.4008C45.0004 50.8782 44.8107 51.336 44.4732 51.6736C44.1356 52.0111 43.6778 52.2008 43.2004 52.2008H28.8004C28.323 52.2008 27.8652 52.0111 27.5276 51.6736C27.19 51.336 27.0004 50.8782 27.0004 50.4008C27.0004 49.9234 27.19 49.4656 27.5276 49.128C27.8652 48.7904 28.323 48.6008 28.8004 48.6008H34.2004V44.8748C31.2012 44.4415 28.4586 42.942 26.4751 40.6511C24.4916 38.3601 23.4 35.4311 23.4004 32.4008C23.4004 31.9234 23.59 31.4656 23.9276 31.128C24.2652 30.7904 24.723 30.6008 25.2004 30.6008C25.6778 30.6008 26.1356 30.7904 26.4732 31.128C26.8107 31.4656 27.0004 31.9234 27.0004 32.4008C27.0004 34.7877 27.9486 37.0769 29.6364 38.7647C31.3243 40.4526 33.6134 41.4008 36.0004 41.4008C36.5838 41.4008 37.1614 41.3441 37.7257 41.2339ZM45.2062 41.0062L42.6336 38.4836C44.1527 36.8271 45.0004 34.6577 45.0004 32.4008C45.0004 31.9234 45.19 31.4656 45.5276 31.128C45.8652 30.7904 46.323 30.6008 46.8004 30.6008C47.2778 30.6008 47.7356 30.7904 48.0732 31.128C48.4108 31.4656 48.6004 31.9234 48.6004 32.4008C48.6008 35.4311 47.5092 38.3601 45.5257 40.6511C45.4213 40.7716 45.3148 40.89 45.2062 41.0062Z" fill="white"/>
    <path d="M21.086 23.6313C20.3762 22.9353 20.365 21.7957 21.061 21.0859C21.7571 20.3761 22.8967 20.3649 23.6065 21.0609L50.5959 47.5263C51.3057 48.2223 51.3168 49.3619 50.6208 50.0718C49.9248 50.7816 48.7851 50.7927 48.0753 50.0967L21.086 23.6313Z" fill="white"/>
</svg>
