<svg width="18" height="19" viewBox="0 0 18 19" fill="none" xmlns="http://www.w3.org/2000/svg">
<path fill-rule="evenodd" clip-rule="evenodd" d="M8.99961 7.79961C9.95439 7.79961 10.8701 7.42033 11.5452 6.74519C12.2203 6.07006 12.5996 5.15439 12.5996 4.19961C12.5996 3.24483 12.2203 2.32916 11.5452 1.65403C10.8701 0.978894 9.95439 0.599609 8.99961 0.599609C8.04483 0.599609 7.12916 0.978894 6.45402 1.65403C5.77889 2.32916 5.39961 3.24483 5.39961 4.19961C5.39961 5.15439 5.77889 6.07006 6.45402 6.74519C7.12916 7.42033 8.04483 7.79961 8.99961 7.79961ZM0.599609 18.5996C0.599609 17.4965 0.816882 16.4042 1.23902 15.3851C1.66116 14.3659 2.2799 13.4399 3.05991 12.6599C3.83992 11.8799 4.76593 11.2612 5.78507 10.839C6.8042 10.4169 7.89651 10.1996 8.99961 10.1996C10.1027 10.1996 11.195 10.4169 12.2141 10.839C13.2333 11.2612 14.1593 11.8799 14.9393 12.6599C15.7193 13.4399 16.3381 14.3659 16.7602 15.3851C17.1823 16.4042 17.3996 17.4965 17.3996 18.5996H0.599609Z" fill="#3F3F46"/>
</svg>
