<svg width="36" height="36" viewBox="0 0 36 36" fill="none" xmlns="http://www.w3.org/2000/svg">
<g clip-path="url(#clip0_2199_38054)">
<path d="M10.5469 0.5H25.4531C31.0019 0.5 35.5 4.99814 35.5 10.5469V25.4531C35.5 31.0019 31.0019 35.5 25.4531 35.5H10.5469C4.99814 35.5 0.5 31.0019 0.5 25.4531V10.5469C0.5 4.99814 4.99814 0.5 10.5469 0.5Z" fill="#F98BCD" stroke="#F98BCD"/>
<path d="M11.6705 10.3213L11.6706 10.3212C13.3491 8.6427 15.6257 7.69971 17.9995 7.69971C20.3733 7.69971 22.6499 8.6427 24.3285 10.3212C26.007 11.9998 26.95 14.2764 26.95 16.6502C26.95 19.024 26.007 21.3006 24.3285 22.9791L17.9995 29.3081L11.6706 22.9791L11.6705 22.9791C10.8394 22.148 10.18 21.1613 9.73019 20.0754C9.28036 18.9895 9.04883 17.8256 9.04883 16.6502C9.04883 15.4748 9.28036 14.3109 9.73019 13.225C10.18 12.139 10.8394 11.1524 11.6705 10.3213ZM17.9995 19.8502C18.8482 19.8502 19.6621 19.513 20.2623 18.9129C20.8624 18.3128 21.1995 17.4989 21.1995 16.6502C21.1995 15.8015 20.8624 14.9876 20.2622 14.3874C19.6621 13.7873 18.8482 13.4502 17.9995 13.4502C17.1508 13.4502 16.3369 13.7873 15.7368 14.3874C15.1367 14.9876 14.7995 15.8015 14.7995 16.6502C14.7995 17.4989 15.1367 18.3128 15.7368 18.9129C16.3369 19.513 17.1508 19.8502 17.9995 19.8502Z" fill="white" stroke="white"/>
</g>
<defs>
<clipPath id="clip0_2199_38054">
<rect width="36" height="36" fill="white"/>
</clipPath>
</defs>
</svg>
