<svg width="20" height="20" viewBox="0 0 20 20" fill="none" xmlns="http://www.w3.org/2000/svg">
<path fill-rule="evenodd" clip-rule="evenodd" d="M2.89999 8.80039H5.23519C5.34199 6.94519 5.69479 5.23639 6.23959 3.85879C5.3624 4.39629 4.61049 5.11542 4.03444 5.9678C3.4584 6.82017 3.07157 7.78603 2.89999 8.80039ZM10.0004 0.400391C7.45431 0.400391 5.01252 1.41182 3.21217 3.21217C1.41182 5.01252 0.400391 7.45431 0.400391 10.0004C0.400391 12.5465 1.41182 14.9883 3.21217 16.7886C5.01252 18.589 7.45431 19.6004 10.0004 19.6004C12.5465 19.6004 14.9883 18.589 16.7886 16.7886C18.589 14.9883 19.6004 12.5465 19.6004 10.0004C19.6004 7.45431 18.589 5.01252 16.7886 3.21217C14.9883 1.41182 12.5465 0.400391 10.0004 0.400391ZM10.0004 2.80039C9.90919 2.80039 9.72199 2.83879 9.44239 3.11479C9.15679 3.39559 8.84599 3.86239 8.55799 4.53319C8.09119 5.62159 7.75039 7.10359 7.63879 8.80039H12.362C12.2504 7.10359 11.9096 5.62159 11.4428 4.53319C11.1548 3.86119 10.8428 3.39559 10.5584 3.11479C10.2788 2.83879 10.0916 2.80039 10.0004 2.80039ZM14.7656 8.80039C14.6588 6.94519 14.306 5.23639 13.7612 3.85879C14.6384 4.39629 15.3903 5.11542 15.9663 5.9678C16.5424 6.82017 16.9292 7.78603 17.1008 8.80039H14.7656ZM12.362 11.2004H7.63879C7.75039 12.8972 8.09119 14.3792 8.55799 15.4676C8.84599 16.1396 9.15799 16.6052 9.44239 16.886C9.72199 17.162 9.90919 17.2004 10.0004 17.2004C10.0916 17.2004 10.2788 17.162 10.5584 16.886C10.844 16.6052 11.156 16.1384 11.4428 15.4676C11.9096 14.3792 12.2504 12.8972 12.362 11.2004ZM13.7612 16.142C14.306 14.7656 14.6588 13.0556 14.7656 11.2004H17.1008C16.9292 12.2148 16.5424 13.1806 15.9663 14.033C15.3903 14.8854 14.6384 15.6045 13.7612 16.142ZM6.23959 16.142C5.69479 14.7644 5.34199 13.0556 5.23639 11.2004H2.89999C3.07157 12.2148 3.4584 13.1806 4.03444 14.033C4.61049 14.8854 5.3624 15.6045 6.23959 16.142Z" fill="#3F3F46"/>
</svg>
