<svg width="24" height="24" viewBox="0 0 24 24" fill="none" xmlns="http://www.w3.org/2000/svg">
<g clip-path="url(#clip0_1890_26231)">
<path d="M7.03125 0.5H16.9688C20.5759 0.5 23.5 3.42414 23.5 7.03125V16.9688C23.5 20.5759 20.5759 23.5 16.9688 23.5H7.03125C3.42414 23.5 0.5 20.5759 0.5 16.9688V7.03125C0.5 3.42414 3.42414 0.5 7.03125 0.5Z" fill="#FF909D" stroke="#FF909D"/>
<path d="M17.4 17H18.2091L17.8473 16.2763L15.1473 10.8763L14.7 9.98192L14.2528 10.8763L12.9 13.5819L10.6473 9.07634L10.2 8.18192L9.75284 9.07634L6.15284 16.2763L5.79103 17H6.60005H17.4ZM5.68081 6.58071C5.92461 6.33692 6.25527 6.19995 6.60005 6.19995H17.4C17.7448 6.19995 18.0755 6.33691 18.3193 6.58071C18.5631 6.82451 18.7 7.15517 18.7 7.49995V16.5C18.7 16.8447 18.5631 17.1754 18.3193 17.4192C18.0755 17.663 17.7448 17.8 17.4 17.8H6.60005C6.25527 17.8 5.92461 17.663 5.68081 17.4192C5.43701 17.1754 5.30005 16.8447 5.30005 16.5V7.49995C5.30005 7.15517 5.43701 6.82451 5.68081 6.58071Z" fill="white" stroke="white"/>
</g>
<defs>
<clipPath id="clip0_1890_26231">
<rect width="24" height="24" fill="white"/>
</clipPath>
</defs>
</svg>
