<svg width="23" height="22" viewBox="0 0 23 22" fill="none" xmlns="http://www.w3.org/2000/svg">
<path d="M14.1992 20.6752H8.79922C3.91222 20.6752 1.82422 18.5872 1.82422 13.7002V8.30019C1.82422 3.4132 3.91222 1.3252 8.79922 1.3252H14.1992C19.0862 1.3252 21.1742 3.4132 21.1742 8.30019V13.7002C21.1742 18.5872 19.0862 20.6752 14.1992 20.6752ZM8.79922 2.6752C4.65022 2.6752 3.17422 4.1512 3.17422 8.30019V13.7002C3.17422 17.8492 4.65022 19.3252 8.79922 19.3252H14.1992C18.3482 19.3252 19.8242 17.8492 19.8242 13.7002V8.30019C19.8242 4.1512 18.3482 2.6752 14.1992 2.6752H8.79922Z" fill="#667385"/>
<path d="M16.4494 16.2475H14.7844C14.4154 16.2475 14.1094 15.9415 14.1094 15.5725C14.1094 15.2035 14.4154 14.8975 14.7844 14.8975H16.4494C16.8184 14.8975 17.1244 15.2035 17.1244 15.5725C17.1244 15.9415 16.8184 16.2475 16.4494 16.2475Z" fill="#667385"/>
<path d="M12.373 16.2475H6.55C6.181 16.2475 5.875 15.9415 5.875 15.5725C5.875 15.2035 6.181 14.8975 6.55 14.8975H12.373C12.742 14.8975 13.048 15.2035 13.048 15.5725C13.048 15.9415 12.751 16.2475 12.373 16.2475Z" fill="#667385"/>
<path d="M16.4489 12.8637H11.4719C11.1029 12.8637 10.7969 12.5577 10.7969 12.1887C10.7969 11.8197 11.1029 11.5137 11.4719 11.5137H16.4489C16.8179 11.5137 17.1239 11.8197 17.1239 12.1887C17.1239 12.5577 16.8179 12.8637 16.4489 12.8637Z" fill="#667385"/>
<path d="M9.043 12.8637H6.55C6.181 12.8637 5.875 12.5577 5.875 12.1887C5.875 11.8197 6.181 11.5137 6.55 11.5137H9.043C9.412 11.5137 9.718 11.8197 9.718 12.1887C9.718 12.5577 9.412 12.8637 9.043 12.8637Z" fill="#667385"/>
</svg>
