<svg width="20" height="20" viewBox="0 0 20 20" fill="none" xmlns="http://www.w3.org/2000/svg">
<path d="M9.99999 3.33301V4.16634M15 13.333H16.6667M11.6667 13.333H9.99999V16.6663M9.99999 7.49967V9.99967M9.99999 9.99967H10.0083M9.99999 9.99967H13.3417M13.3333 16.6663H16.6667M3.33333 9.99967H6.66666M16.6667 9.99967H16.675M4.16666 6.66634H5.83333C6.05434 6.66634 6.2663 6.57854 6.42258 6.42226C6.57886 6.26598 6.66666 6.05402 6.66666 5.83301V4.16634C6.66666 3.94533 6.57886 3.73337 6.42258 3.57709C6.2663 3.42081 6.05434 3.33301 5.83333 3.33301H4.16666C3.94565 3.33301 3.73369 3.42081 3.57741 3.57709C3.42113 3.73337 3.33333 3.94533 3.33333 4.16634V5.83301C3.33333 6.05402 3.42113 6.26598 3.57741 6.42226C3.73369 6.57854 3.94565 6.66634 4.16666 6.66634ZM14.1667 6.66634H15.8333C16.0543 6.66634 16.2663 6.57854 16.4226 6.42226C16.5789 6.26598 16.6667 6.05402 16.6667 5.83301V4.16634C16.6667 3.94533 16.5789 3.73337 16.4226 3.57709C16.2663 3.42081 16.0543 3.33301 15.8333 3.33301H14.1667C13.9456 3.33301 13.7337 3.42081 13.5774 3.57709C13.4211 3.73337 13.3333 3.94533 13.3333 4.16634V5.83301C13.3333 6.05402 13.4211 6.26598 13.5774 6.42226C13.7337 6.57854 13.9456 6.66634 14.1667 6.66634ZM4.16666 16.6663H5.83333C6.05434 16.6663 6.2663 16.5785 6.42258 16.4223C6.57886 16.266 6.66666 16.054 6.66666 15.833V14.1663C6.66666 13.9453 6.57886 13.7334 6.42258 13.5771C6.2663 13.4208 6.05434 13.333 5.83333 13.333H4.16666C3.94565 13.333 3.73369 13.4208 3.57741 13.5771C3.42113 13.7334 3.33333 13.9453 3.33333 14.1663V15.833C3.33333 16.054 3.42113 16.266 3.57741 16.4223C3.73369 16.5785 3.94565 16.6663 4.16666 16.6663Z" stroke="#4B84F7" stroke-width="2" stroke-linecap="round" stroke-linejoin="round"/>
</svg>
