<svg width="17" height="16" viewBox="0 0 17 16" fill="none" xmlns="http://www.w3.org/2000/svg">
<path fill-rule="evenodd" clip-rule="evenodd" d="M3.93442 3.43417C4.08445 3.2842 4.28789 3.19994 4.50002 3.19994C4.71216 3.19994 4.9156 3.2842 5.06562 3.43417L8.50002 6.86857L11.9344 3.43417C12.0082 3.35776 12.0965 3.29682 12.1941 3.25489C12.2917 3.21296 12.3967 3.19089 12.5029 3.18997C12.6091 3.18905 12.7145 3.20929 12.8128 3.24951C12.9111 3.28974 13.0004 3.34914 13.0755 3.42426C13.1507 3.49937 13.2101 3.58869 13.2503 3.68701C13.2905 3.78533 13.3107 3.89067 13.3098 3.99689C13.3089 4.10312 13.2868 4.20809 13.2449 4.3057C13.203 4.4033 13.142 4.49157 13.0656 4.56537L9.63122 7.99977L13.0656 11.4342C13.2114 11.5851 13.292 11.7871 13.2902 11.9969C13.2883 12.2066 13.2042 12.4073 13.0559 12.5556C12.9076 12.704 12.7069 12.7881 12.4971 12.7899C12.2874 12.7917 12.0853 12.7111 11.9344 12.5654L8.50002 9.13097L5.06562 12.5654C4.91474 12.7111 4.71266 12.7917 4.5029 12.7899C4.29315 12.7881 4.0925 12.704 3.94417 12.5556C3.79584 12.4073 3.71171 12.2066 3.70989 11.9969C3.70806 11.7871 3.7887 11.5851 3.93442 11.4342L7.36883 7.99977L3.93442 4.56537C3.78445 4.41535 3.7002 4.2119 3.7002 3.99977C3.7002 3.78764 3.78445 3.58419 3.93442 3.43417Z" fill="#4B84F7"/>
</svg>
