<svg width="21" height="20" viewBox="0 0 21 20" fill="none" xmlns="http://www.w3.org/2000/svg">
<path d="M10.4997 11.6673C11.4201 11.6673 12.1663 10.9211 12.1663 10.0007C12.1663 9.08018 11.4201 8.33398 10.4997 8.33398C9.5792 8.33398 8.83301 9.08018 8.83301 10.0007C8.83301 10.9211 9.5792 11.6673 10.4997 11.6673Z" stroke="#6E6E6E" stroke-width="1.5" stroke-linecap="round" stroke-linejoin="round"/>
<path d="M17.167 15C18.217 13.6083 18.8337 11.875 18.8337 10C18.8337 8.125 18.217 6.39167 17.167 5" stroke="#6E6E6E" stroke-width="1.5" stroke-linecap="round" stroke-linejoin="round"/>
<path d="M3.83366 5C2.78366 6.39167 2.16699 8.125 2.16699 10C2.16699 11.875 2.78366 13.6083 3.83366 15" stroke="#6E6E6E" stroke-width="1.5" stroke-linecap="round" stroke-linejoin="round"/>
<path d="M14.5 13C15.125 12.1667 15.5 11.125 15.5 10C15.5 8.87501 15.125 7.83333 14.5 7" stroke="#6E6E6E" stroke-width="1.5" stroke-linecap="round" stroke-linejoin="round"/>
<path d="M6.50001 7C5.87501 7.83333 5.5 8.87501 5.5 10C5.5 11.125 5.87501 12.1667 6.50001 13" stroke="#6E6E6E" stroke-width="1.5" stroke-linecap="round" stroke-linejoin="round"/>
</svg>
