<svg width="23" height="23" viewBox="0 0 23 23" fill="none" xmlns="http://www.w3.org/2000/svg">
<path opacity="0.6" d="M15.663 14.3368C17.5145 14.3368 19.0133 12.838 19.0133 10.9865C19.0133 9.13495 17.5145 7.63612 15.663 7.63612C15.6515 7.63612 15.6399 7.63612 15.6284 7.63612C15.3333 4.97195 13.0678 2.89429 10.3155 2.89429C8.14195 2.89429 6.27512 4.18995 5.43945 6.04912C5.41262 6.04912 5.38578 6.04529 5.35895 6.04529C3.07045 6.04529 1.21512 7.90062 1.21512 10.1891C1.21512 12.4776 3.07045 14.333 5.35895 14.333" fill="#57AAFF"/>
<path fill-rule="evenodd" clip-rule="evenodd" d="M15.5903 7.35859C15.3068 5.63529 14.1941 4.18804 12.6738 3.44052C13.3095 2.02055 14.7349 1.03125 16.3913 1.03125C18.6397 1.03125 20.4623 2.8539 20.4623 5.10225C20.4623 6.29636 19.9482 7.37038 19.1293 8.11506C18.523 7.51538 17.6899 7.14539 16.7708 7.14539C16.3552 7.14539 15.9574 7.22075 15.5903 7.35859Z" fill="#FDCA4F"/>
<path opacity="0.6" fill-rule="evenodd" clip-rule="evenodd" d="M15.7957 14.3343C17.5856 14.2647 19.0134 12.7936 19.0134 10.9865C19.0134 9.13501 17.5145 7.63618 15.663 7.63618H15.6285C15.6182 7.54294 15.6055 7.45042 15.5904 7.35868C15.9575 7.22086 16.3552 7.14551 16.7708 7.14551C18.4958 7.14551 19.918 8.44884 20.1058 10.1278H20.1288C21.2903 10.1278 22.2333 11.0708 22.2333 12.2323C22.2333 13.3938 21.2903 14.3368 20.1288 14.3368L15.7957 14.3343Z" fill="#5686DF"/>
<path d="M6.59717 16.9165C6.94438 16.9165 7.22584 16.6351 7.22584 16.2878C7.22584 15.9406 6.94438 15.6592 6.59717 15.6592C6.24997 15.6592 5.96851 15.9406 5.96851 16.2878C5.96851 16.6351 6.24997 16.9165 6.59717 16.9165Z" fill="#57AAFF"/>
<path d="M9.73664 16.9165C10.0838 16.9165 10.3653 16.6351 10.3653 16.2878C10.3653 15.9406 10.0838 15.6592 9.73664 15.6592C9.38943 15.6592 9.10797 15.9406 9.10797 16.2878C9.10797 16.6351 9.38943 16.9165 9.73664 16.9165Z" fill="#57AAFF"/>
<path d="M12.8799 16.9165C13.2272 16.9165 13.5086 16.6351 13.5086 16.2878C13.5086 15.9406 13.2272 15.6592 12.8799 15.6592C12.5327 15.6592 12.2513 15.9406 12.2513 16.2878C12.2513 16.6351 12.5327 16.9165 12.8799 16.9165Z" fill="#57AAFF"/>
<path d="M16.0196 16.9165C16.3668 16.9165 16.6483 16.6351 16.6483 16.2878C16.6483 15.9406 16.3668 15.6592 16.0196 15.6592C15.6724 15.6592 15.391 15.9406 15.391 16.2878C15.391 16.6351 15.6724 16.9165 16.0196 16.9165Z" fill="#57AAFF"/>
<path d="M12.6288 2.25733C12.976 2.25733 13.2574 1.97587 13.2574 1.62867C13.2574 1.28146 12.976 1 12.6288 1C12.2816 1 12.0001 1.28146 12.0001 1.62867C12.0001 1.97587 12.2816 2.25733 12.6288 2.25733Z" fill="#FDCA4F"/>
<path d="M6.59717 22.0303C6.94438 22.0303 7.22584 21.7488 7.22584 21.4016C7.22584 21.0544 6.94438 20.7729 6.59717 20.7729C6.24997 20.7729 5.96851 21.0544 5.96851 21.4016C5.96851 21.7488 6.24997 22.0303 6.59717 22.0303Z" fill="#57AAFF"/>
<path d="M9.73664 22.0303C10.0838 22.0303 10.3653 21.7488 10.3653 21.4016C10.3653 21.0544 10.0838 20.7729 9.73664 20.7729C9.38943 20.7729 9.10797 21.0544 9.10797 21.4016C9.10797 21.7488 9.38943 22.0303 9.73664 22.0303Z" fill="#57AAFF"/>
<path d="M12.8799 22.0303C13.2272 22.0303 13.5086 21.7488 13.5086 21.4016C13.5086 21.0544 13.2272 20.7729 12.8799 20.7729C12.5327 20.7729 12.2513 21.0544 12.2513 21.4016C12.2513 21.7488 12.5327 22.0303 12.8799 22.0303Z" fill="#57AAFF"/>
<path d="M16.0195 22.0303C16.3667 22.0303 16.6482 21.7488 16.6482 21.4016C16.6482 21.0544 16.3667 20.7729 16.0195 20.7729C15.6723 20.7729 15.3909 21.0544 15.3909 21.4016C15.3909 21.7488 15.6723 22.0303 16.0195 22.0303Z" fill="#57AAFF"/>
<path d="M5.02549 19.5193C5.37269 19.5193 5.65415 19.2378 5.65415 18.8906C5.65415 18.5434 5.37269 18.262 5.02549 18.262C4.67828 18.262 4.39682 18.5434 4.39682 18.8906C4.39682 19.2378 4.67828 19.5193 5.02549 19.5193Z" fill="#57AAFF"/>
<path d="M8.16883 19.5193C8.51603 19.5193 8.7975 19.2378 8.7975 18.8906C8.7975 18.5434 8.51603 18.262 8.16883 18.262C7.82162 18.262 7.54016 18.5434 7.54016 18.8906C7.54016 19.2378 7.82162 19.5193 8.16883 19.5193Z" fill="#57AAFF"/>
<path d="M11.3084 19.5193C11.6556 19.5193 11.937 19.2378 11.937 18.8906C11.937 18.5434 11.6556 18.262 11.3084 18.262C10.9612 18.262 10.6797 18.5434 10.6797 18.8906C10.6797 19.2378 10.9612 19.5193 11.3084 19.5193Z" fill="#57AAFF"/>
<path d="M14.4478 19.5193C14.795 19.5193 15.0764 19.2378 15.0764 18.8906C15.0764 18.5434 14.795 18.262 14.4478 18.262C14.1006 18.262 13.8191 18.5434 13.8191 18.8906C13.8191 19.2378 14.1006 19.5193 14.4478 19.5193Z" fill="#57AAFF"/>
</svg>
