<svg width="24" height="24" viewBox="0 0 24 24" fill="none" xmlns="http://www.w3.org/2000/svg">
<path d="M14.5282 2.74023H9.47266V6.77727H14.5282V2.74023Z" fill="#4B84F7"/>
<path d="M15.916 2.74023V6.77727H21.1382C20.666 4.23098 18.7864 2.74949 15.916 2.74023Z" fill="#4B84F7"/>
<path d="M2.74023 8.16602V15.879C2.74023 19.2493 4.74949 21.2586 8.11986 21.2586H15.8791C19.2495 21.2586 21.2588 19.2493 21.2588 15.879V8.16602H2.74023ZM14.2588 15.8697L12.3328 16.9808C11.9254 17.2123 11.5273 17.3327 11.1569 17.3327C10.8791 17.3327 10.6291 17.2679 10.3976 17.1382C9.86061 16.8327 9.56431 16.2031 9.56431 15.3882V13.166C9.56431 12.3512 9.86061 11.7216 10.3976 11.416C10.9347 11.1012 11.6199 11.1568 12.3328 11.5734L14.2588 12.6845C14.9717 13.0919 15.3606 13.666 15.3606 14.2864C15.3606 14.9068 14.9625 15.4531 14.2588 15.8697Z" fill="#4B84F7"/>
<path d="M8.08355 2.74023C5.21318 2.74949 3.33355 4.23098 2.86133 6.77727H8.08355V2.74023Z" fill="#4B84F7"/>
</svg>
