<svg width="36" height="36" viewBox="0 0 36 36" fill="none" xmlns="http://www.w3.org/2000/svg">
<g clip-path="url(#clip0_2199_38053)">
<path d="M10.5469 0.5H25.4531C31.0019 0.5 35.5 4.99814 35.5 10.5469V25.4531C35.5 31.0019 31.0019 35.5 25.4531 35.5H10.5469C4.99814 35.5 0.5 31.0019 0.5 25.4531V10.5469C0.5 4.99814 4.99814 0.5 10.5469 0.5Z" fill="#FDB022" stroke="#FDB022"/>
<path d="M20.5091 20.5099C20.509 20.51 20.509 20.5101 20.5089 20.5101C19.8432 21.1755 18.9405 21.5493 17.9992 21.5493C17.058 21.5493 16.1553 21.1755 15.4895 20.5101C15.1427 20.163 14.6721 19.9679 14.1814 19.9677C13.6907 19.9675 13.22 20.1623 12.8729 20.5092C12.5257 20.8561 12.3306 21.3266 12.3305 21.8173C12.3303 22.3081 12.5251 22.7788 12.8719 23.1259L12.872 23.126C13.5453 23.7994 14.3446 24.3336 15.2243 24.698C16.1041 25.0625 17.047 25.2501 17.9992 25.2501C18.9515 25.2501 19.8944 25.0625 20.7741 24.698C21.6538 24.3336 22.4532 23.7994 23.1264 23.126L23.1265 23.1259C23.2983 22.954 23.4345 22.75 23.5274 22.5255C23.6203 22.3009 23.6681 22.0603 23.668 21.8173C23.6679 21.5744 23.6199 21.3338 23.5269 21.1093L23.065 21.3008L23.5269 21.1093C23.4338 20.8849 23.2974 20.6809 23.1256 20.5092C22.9537 20.3374 22.7497 20.2012 22.5252 20.1083C22.3006 20.0154 22.06 19.9676 21.817 19.9677C21.5741 19.9678 21.3335 20.0158 21.109 20.1088L21.3005 20.5707M20.5091 20.5099L20.8626 20.8635C20.9879 20.7381 21.1367 20.6386 21.3005 20.5707M20.5091 20.5099C20.6808 20.3381 20.8846 20.2018 21.109 20.1088L21.3005 20.5707M20.5091 20.5099L21.3005 20.5707M23.3574 13.992L23.0038 14.3456L23.3574 13.992C23.0104 13.6451 22.5399 13.4502 22.0492 13.4502C21.5586 13.4502 21.088 13.6451 20.7411 13.992C20.3941 14.339 20.1992 14.8095 20.1992 15.3002C20.1992 15.7908 20.3941 16.2614 20.7411 16.6083C21.088 16.9553 21.5586 17.1502 22.0492 17.1502C22.5399 17.1502 23.0104 16.9553 23.3574 16.6083C23.7043 16.2614 23.8992 15.7908 23.8992 15.3002C23.8992 14.8095 23.7043 14.339 23.3574 13.992ZM25.2824 25.2834C23.3508 27.215 20.7309 28.3002 17.9992 28.3002C15.2675 28.3002 12.6476 27.215 10.716 25.2834C8.78439 23.3518 7.69922 20.7319 7.69922 18.0002C7.69922 15.2685 8.78439 12.6486 10.716 10.717C12.6476 8.78537 15.2675 7.7002 17.9992 7.7002C20.7309 7.7002 23.3508 8.78537 25.2824 10.717C27.214 12.6486 28.2992 15.2685 28.2992 18.0002C28.2992 20.7319 27.214 23.3518 25.2824 25.2834ZM13.9492 17.1502C14.4399 17.1502 14.9104 16.9553 15.2574 16.6083C15.6043 16.2614 15.7992 15.7908 15.7992 15.3002C15.7992 14.8095 15.6043 14.339 15.2574 13.992C14.9104 13.6451 14.4399 13.4502 13.9492 13.4502C13.4586 13.4502 12.988 13.6451 12.6411 13.992C12.2941 14.339 12.0992 14.8095 12.0992 15.3002C12.0992 15.7908 12.2941 16.2614 12.6411 16.6083C12.988 16.9553 13.4586 17.1502 13.9492 17.1502Z" fill="white" stroke="white"/>
</g>
<defs>
<clipPath id="clip0_2199_38053">
<rect width="36" height="36" fill="white"/>
</clipPath>
</defs>
</svg>
