<svg width="20" height="17" viewBox="0 0 20 17" fill="none" xmlns="http://www.w3.org/2000/svg">
<path d="M12.084 10.5358H11.7509V10.3255V10.245L11.5649 10.2183L11.5644 10.2183L10.9644 10.132C10.2479 10.0291 8.9496 10.0036 7.34021 10.6601C6.03693 11.1917 4.56545 12.156 3.05164 13.8296C3.07459 13.6324 3.10516 13.4367 3.14317 13.2429C7.54904 8.65095 11.4747 9.88185 11.6568 9.94293C11.7812 9.98442 11.8894 10.064 11.9661 10.1704C12.0428 10.2768 12.084 10.4046 12.084 10.5358ZM12.084 10.5358L11.7509 10.5358V11.0395V13.0636L12.084 12.7304V10.5358ZM11.1672 10.762C11.0918 10.7459 10.9959 10.7282 10.881 10.7124C10.4373 10.6512 9.71146 10.6181 8.79939 10.8168C7.25705 11.1527 5.09131 12.1706 2.80273 15.0224L2.43522 15.4803L2.43457 15.4811L2.1243 15.8677M11.1672 10.762V5.24397H10.834H10.6261L10.6257 4.91078M11.1672 10.762V11.0395V14.027V14.5299V14.53V15.0033V15.2936V10.762ZM2.1243 15.8677L1.91094 15.1813C1.9364 15.1734 1.95872 15.1576 1.97472 15.1363L1.97639 15.1341C2.1002 14.97 2.22392 14.811 2.34749 14.657C2.40052 14.5909 2.45352 14.5258 2.50649 14.4615L2.0877 14.4485L1.76624 14.1906C1.76138 14.273 1.75767 14.3556 1.75511 14.4383C1.75238 14.5264 1.75096 14.6146 1.75086 14.703V15.0666V15.0761L1.75081 15.0761C1.75058 15.0985 1.75751 15.1204 1.7706 15.1386L1.13503 15.5955M2.1243 15.8677L1.91094 15.1813C1.88548 15.1892 1.85817 15.1889 1.83289 15.1804L1.83291 15.1803L1.82357 15.1773C1.80224 15.1704 1.78368 15.1568 1.7706 15.1386L1.13503 15.5955M2.1243 15.8677L1.93639 16.1019C2.01964 16.0969 2.10247 16.0818 2.18305 16.0568C2.39271 15.9916 2.57648 15.862 2.70821 15.6863C6.31295 10.9097 9.67029 10.8723 10.834 11.0395L0.834039 15.0666M1.13503 15.5955L1.15126 15.0699L1.15136 15.0666L1.16259 14.7028L0.834039 14.7024M1.13503 15.5955L1.12886 15.7954C1.09169 15.7577 1.05733 15.7171 1.02616 15.6737C0.899104 15.497 0.831796 15.2843 0.834039 15.0666M0.834039 14.7024H1.1626L1.17132 14.4202C1.24575 12.0095 2.23721 9.71991 3.94027 8.01701C3.97337 7.98391 4.00673 7.95104 4.04037 7.91839C5.80464 6.20583 8.16591 5.24672 10.6247 5.24397L10.6257 5.24397V4.91078M0.834039 14.7024V15.0666M0.834039 14.7024C0.836966 12.1064 1.86952 9.61759 3.70518 7.78193C5.54084 5.94627 8.02969 4.91371 10.6257 4.91078M10.6257 4.91078H10.834L0.834039 15.0666M11.459 5.8276H10.834L10.6267 5.8276C10.6266 5.8276 10.6265 5.8276 10.6263 5.8276C10.6261 5.8276 10.6259 5.8276 10.6257 5.8276C10.6256 5.8276 10.6255 5.8276 10.6253 5.8276C8.3166 5.83057 6.10147 6.73191 4.44738 8.33769C4.41587 8.36828 4.38457 8.39912 4.35347 8.43022C3.02828 9.75541 2.16482 11.4561 1.86681 13.2824C2.01141 13.1158 2.15588 12.9551 2.30012 12.8002C2.66643 11.2036 3.48681 9.73344 4.67894 8.57625C6.27239 7.02951 8.40502 6.16327 10.6257 6.16078H11.459M11.459 5.8276L11.9009 5.97768C11.7837 6.09488 11.6248 6.16074 11.459 6.16078M11.459 5.8276L11.459 6.16078M11.459 5.8276L11.459 6.16078M11.7509 13.6938L12.084 14.027L11.7509 13.6938Z" fill="#4B84F7" stroke="#6E6E6E" stroke-width="1.83363"/>
</svg>
