<svg width="24" height="24" viewBox="0 0 24 24" fill="none" xmlns="http://www.w3.org/2000/svg">
<path d="M5.71274 7.63151C6.16988 5.86309 6.28417 5.78941 6.28417 5.97362H16.5703L18.2846 6.52623L19.4275 20.342L18.856 21.4473H7.99845C4.79845 21.4473 4.3794 20.7104 4.56988 20.342C4.76036 16.842 5.25559 9.39994 5.71274 7.63151Z" fill="#4B84F7"/>
<path d="M19.9979 19.8131C19.9536 18.3194 19.1151 9.28881 18.9464 7.49207C18.8923 6.90599 18.6368 6.37349 18.229 5.99338C17.8425 5.63169 17.3511 5.4341 16.809 5.42405C16.6092 5.4207 16.2341 5.41735 15.7428 5.41568V4.73583C15.7428 3.25724 15.0369 2.36807 14.444 1.88247C13.7708 1.32988 12.8569 1 12.0003 1H11.7039C11.1454 1 10.2724 1.23276 9.49607 1.88581C8.90154 2.38649 8.19399 3.2857 8.19399 4.73583V5.4207C7.51757 5.42237 7.05242 5.42405 6.95252 5.42405C6.33342 5.40395 5.14926 5.77402 5.02315 7.32462L4.01424 19.6289C3.99623 19.7813 3.91925 20.6922 4.45646 21.3486C4.76437 21.7254 5.21805 21.938 5.76836 21.9648C6.28428 21.99 7.83039 21.9983 9.65822 21.9983C13.1763 21.9983 17.7409 21.9682 18.0275 21.9648C18.116 21.9648 18.9103 21.9481 19.477 21.3503C19.8423 20.9668 20.0175 20.4494 19.9979 19.8131ZM9.15704 4.73583C9.15704 2.66111 11.052 1.98461 11.7039 1.98461H12.0003C13.0747 1.98461 14.7814 2.73144 14.7814 4.73583V5.41233C13.1157 5.41065 10.8325 5.414 9.15704 5.41735V4.73583ZM18.7908 20.6604C18.5025 20.9702 18.0275 20.9819 18.0243 20.9819C17.9178 20.9819 7.2981 21.0556 5.81422 20.9819C5.53415 20.9685 5.3327 20.8831 5.19676 20.719C4.95272 20.4243 4.95108 19.9119 4.97074 19.7411L4.97238 19.731L5.98292 7.40667C6.01895 6.97297 6.17455 6.68663 6.45789 6.5309C6.69046 6.40364 6.92959 6.40699 6.92631 6.40699H6.93614H6.94597C6.96562 6.40699 7.44878 6.40531 8.19399 6.40364V7.4435C7.99418 7.60091 7.86479 7.84706 7.86479 8.12336C7.86479 8.59724 8.23985 8.9807 8.70336 8.9807C9.16687 8.9807 9.54193 8.59724 9.54193 8.12336C9.54193 7.82194 9.38961 7.5557 9.15868 7.40332V6.40029C10.8325 6.39694 13.1206 6.39359 14.783 6.39526V7.42174C14.5668 7.57747 14.426 7.83199 14.426 8.12336C14.426 8.59724 14.801 8.9807 15.2645 8.9807C15.728 8.9807 16.1031 8.59724 16.1031 8.12336C16.1031 7.83367 15.9622 7.57747 15.746 7.42174V6.39861C16.2308 6.40029 16.5994 6.40364 16.7943 6.40699C17.1071 6.41368 17.3659 6.51415 17.5837 6.71844C17.8146 6.93445 17.9604 7.24256 17.9915 7.58416C18.1586 9.37421 18.9955 18.378 19.0397 19.8399C19.0463 20.1999 18.9644 20.4762 18.7908 20.6604Z" fill="#2FEFF4"/>
<path d="M17.3334 10.4834L12 19.6293L14.4838 11.1105C14.593 10.7389 14.9283 10.4834 15.3118 10.4834H17.3334Z" fill="white"/>
<path d="M11.9994 19.6293L9.51557 11.1105C9.40637 10.7389 9.07112 10.4834 8.68763 10.4834H6.66602L11.9994 19.6293Z" fill="white"/>
<path d="M11.9996 19.4033L14.2955 11.3877L11.9996 15.3955L9.70117 11.3877L11.9996 19.4033Z" fill="#2FEFF4"/>
</svg>
