<svg width="30" height="28" viewBox="0 0 30 28" fill="none" xmlns="http://www.w3.org/2000/svg">
<path d="M14.7628 20C18.4507 20 21.4403 17.0899 21.4403 13.5C21.4403 9.91015 18.4507 7 14.7628 7C11.0749 7 8.08533 9.91015 8.08533 13.5C8.08533 17.0899 11.0749 20 14.7628 20Z" fill="url(#paint0_linear_2308_1983)"/>
<path d="M23.1134 14.2573C23.4701 14.2573 23.7593 13.9759 23.7593 13.6287C23.7593 13.2815 23.4701 13 23.1134 13C22.7567 13 22.4676 13.2815 22.4676 13.6287C22.4676 13.9759 22.7567 14.2573 23.1134 14.2573Z" fill="#FDCA4F"/>
<path d="M14.895 22.2573C15.2517 22.2573 15.5408 21.9759 15.5408 21.6287C15.5408 21.2815 15.2517 21 14.895 21C14.5383 21 14.2491 21.2815 14.2491 21.6287C14.2491 21.9759 14.5383 22.2573 14.895 22.2573Z" fill="#FDCA4F"/>
<path d="M14.895 6.25733C15.2517 6.25733 15.5408 5.97587 15.5408 5.62867C15.5408 5.28146 15.2517 5 14.895 5C14.5383 5 14.2491 5.28146 14.2491 5.62867C14.2491 5.97587 14.5383 6.25733 14.895 6.25733Z" fill="#FDCA4F"/>
<path d="M6.67653 14.2573C7.03322 14.2573 7.32237 13.9759 7.32237 13.6287C7.32237 13.2815 7.03322 13 6.67653 13C6.31985 13 6.0307 13.2815 6.0307 13.6287C6.0307 13.9759 6.31985 14.2573 6.67653 14.2573Z" fill="#FDCA4F"/>
<path d="M8.73116 9.25733C9.08784 9.25733 9.37699 8.97587 9.37699 8.62867C9.37699 8.28146 9.08784 8 8.73116 8C8.37448 8 8.08533 8.28146 8.08533 8.62867C8.08533 8.97587 8.37448 9.25733 8.73116 9.25733Z" fill="#FDCA4F"/>
<path d="M21.0588 9.25733C21.4155 9.25733 21.7046 8.97587 21.7046 8.62867C21.7046 8.28146 21.4155 8 21.0588 8C20.7021 8 20.413 8.28146 20.413 8.62867C20.413 8.97587 20.7021 9.25733 21.0588 9.25733Z" fill="#FDCA4F"/>
<path d="M21.0588 19.2573C21.4155 19.2573 21.7046 18.9759 21.7046 18.6287C21.7046 18.2815 21.4155 18 21.0588 18C20.7021 18 20.413 18.2815 20.413 18.6287C20.413 18.9759 20.7021 19.2573 21.0588 19.2573Z" fill="#FDCA4F"/>
<path d="M8.73116 19.2573C9.08784 19.2573 9.37699 18.9759 9.37699 18.6287C9.37699 18.2815 9.08784 18 8.73116 18C8.37448 18 8.08533 18.2815 8.08533 18.6287C8.08533 18.9759 8.37448 19.2573 8.73116 19.2573Z" fill="#FDCA4F"/>
<defs>
<linearGradient id="paint0_linear_2308_1983" x1="10.0406" y1="18.0935" x2="19.2275" y2="8.65583" gradientUnits="userSpaceOnUse">
<stop stop-color="#EBB63A"/>
<stop offset="1" stop-color="#F3CC3B"/>
</linearGradient>
</defs>
</svg>
