<svg width="24" height="24" viewBox="0 0 24 24" fill="none" xmlns="http://www.w3.org/2000/svg">
<g clip-path="url(#clip0_1890_26250)">
<path d="M7.03125 0.5H16.9688C20.5759 0.5 23.5 3.42414 23.5 7.03125V16.9688C23.5 20.5759 20.5759 23.5 16.9688 23.5H7.03125C3.42414 23.5 0.5 20.5759 0.5 16.9688V7.03125C0.5 3.42414 3.42414 0.5 7.03125 0.5Z" fill="#00A65F" stroke="#00A65F"/>
<path d="M15.6899 11.1899L15.69 11.1899L15.696 11.1837C15.951 10.9196 16.0921 10.566 16.0889 10.1989C16.0857 9.83185 15.9385 9.48071 15.6789 9.22114C15.4194 8.96157 15.0682 8.81434 14.7012 8.81115C14.3341 8.80796 13.9804 8.94907 13.7164 9.20409L13.7163 9.20404L13.7102 9.21018L11.1 11.8203L10.2899 11.0102L10.29 11.0101L10.2837 11.0041C10.0197 10.7491 9.66602 10.608 9.29894 10.6111C8.93187 10.6143 8.58073 10.7616 8.32116 11.0211C8.06159 11.2807 7.91435 11.6319 7.91116 11.9989C7.90797 12.366 8.04908 12.7196 8.30411 12.9837L8.30405 12.9837L8.3102 12.9899L10.1102 14.7899L10.1102 14.7899C10.3728 15.0524 10.7288 15.1998 11.1 15.1998C11.4713 15.1998 11.8273 15.0524 12.0898 14.7899L12.0899 14.7899L15.6899 11.1899ZM5.30005 9.30003C5.30005 8.85445 5.32837 8.41598 5.3831 7.98566C7.80877 7.86332 10.1302 6.95952 12 5.4098C13.8698 6.95993 16.1915 7.86405 18.6174 7.98655C18.6722 8.41634 18.7 8.85561 18.7 9.30093C18.7 13.7224 15.9133 17.4944 12.0001 18.9543C8.08681 17.4935 5.30005 13.7215 5.30005 9.30003Z" fill="white" stroke="white"/>
</g>
<defs>
<clipPath id="clip0_1890_26250">
<rect width="24" height="24" fill="white"/>
</clipPath>
</defs>
</svg>
