<svg width="24" height="24" viewBox="0 0 24 24" fill="none" xmlns="http://www.w3.org/2000/svg">
    <g clip-path="url(#clip0_2606_46683)">
        <defs>
            <clipPath id="clip0_2606_46683">
                <rect width="24" height="24" fill="white"/>
            </clipPath>
        </defs>
        <path d="M6.66864 14.794L6.66864 14.794L6.67537 14.7936C6.73152 14.7903 6.82535 14.8105 6.92295 14.9169C8.04767 16.5967 9.89266 17.7019 12.0009 17.7019C14.121 17.7019 15.9749 16.5843 17.0978 14.8886C17.1523 14.8063 17.3191 14.7712 17.4062 14.83C17.4885 14.8856 17.5256 15.0536 17.4641 15.1465L17.4641 15.1465C16.2613 16.9629 14.2555 18.1556 12.0009 18.1556C9.7466 18.1556 7.74093 16.9631 6.53812 15.147C6.47947 15.0579 6.47563 14.9539 6.50162 14.8879C6.51316 14.8586 6.52886 14.8401 6.54615 14.8277C6.56235 14.8161 6.59756 14.7972 6.66864 14.794ZM1.46094 12.1139C1.46094 6.23891 6.19286 1.46875 12.0009 1.46875C17.809 1.46875 22.5409 6.23891 22.5409 12.1139C22.5409 17.9889 17.809 22.7591 12.0009 22.7591C6.19286 22.7591 1.46094 17.9889 1.46094 12.1139ZM22.1009 12.1139C22.1009 6.48123 17.592 1.92246 12.0009 1.92246C6.40988 1.92246 1.90094 6.48123 1.90094 12.1139C1.90094 17.7466 6.40988 22.3053 12.0009 22.3053C17.592 22.3053 22.1009 17.7466 22.1009 12.1139ZM6.98094 8.96418C6.98094 8.43298 7.40623 8.01046 7.92094 8.01046C8.43562 8.01046 8.86094 8.43298 8.86094 8.96418C8.86094 9.49538 8.43562 9.91789 7.92094 9.91789C7.40623 9.91789 6.98094 9.49538 6.98094 8.96418ZM15.1409 8.96418C15.1409 8.43298 15.5662 8.01046 16.0809 8.01046C16.5956 8.01046 17.0209 8.43298 17.0209 8.96418C17.0209 9.49538 16.5956 9.91789 16.0809 9.91789C15.5662 9.91789 15.1409 9.49538 15.1409 8.96418Z" fill="#4B84F7" stroke="#4B84F7"/>
        <circle cx="12" cy="12" r="9.75" stroke="#4B84F7" stroke-width="1.5"/>
    </g>
</svg>
