<svg width="40" height="40" viewBox="0 0 40 40" fill="none" xmlns="http://www.w3.org/2000/svg">
    <rect width="40" height="40" rx="20" fill="white" fill-opacity="0.2"/>
    <path d="M10.666 10.6663V16.4996H11.345M11.345 16.4996C12.1195 14.5841 13.5076 12.9796 15.2919 11.9378C17.0761 10.8959 19.1556 10.4754 21.2045 10.7423C23.2533 11.0091 25.1558 11.9482 26.6136 13.4123C28.0715 14.8765 29.0023 16.7829 29.2603 18.8329M11.345 16.4996H16.4993M29.3327 29.3329V23.4996H28.6549M28.6549 23.4996C27.8792 25.414 26.4907 27.0171 24.7067 28.0581C22.9226 29.0991 20.8437 29.519 18.7955 29.2523C16.7472 28.9855 14.8452 28.0471 13.3873 26.5839C11.9294 25.1208 10.9978 23.2154 10.7383 21.1663M28.6549 23.4996H23.4993" stroke="white" stroke-width="2" stroke-linecap="round" stroke-linejoin="round"/>
</svg>
