<svg width="24" height="25" viewBox="0 0 24 25" fill="none" xmlns="http://www.w3.org/2000/svg">
<g clip-path="url(#clip0_3124_7331)">
<path d="M7.03125 1.00006H16.9688C20.5759 1.00006 23.5 3.9242 23.5 7.53131V17.4688C23.5 21.0759 20.5759 24.0001 16.9688 24.0001H7.03125C3.42414 24.0001 0.5 21.0759 0.5 17.4688V7.53131C0.5 3.9242 3.42414 1.00006 7.03125 1.00006Z" fill="#F98BCD" stroke="#F98BCD"/>
<path fill-rule="evenodd" clip-rule="evenodd" d="M9.3 5.30005C8.82261 5.30005 8.36477 5.48969 8.02721 5.82726C7.68964 6.16482 7.5 6.62266 7.5 7.10005V17.9C7.5 18.3774 7.68964 18.8353 8.02721 19.1728C8.36477 19.5104 8.82261 19.7 9.3 19.7H14.7C15.1774 19.7 15.6352 19.5104 15.9728 19.1728C16.3104 18.8353 16.5 18.3774 16.5 17.9V7.10005C16.5 6.62266 16.3104 6.16482 15.9728 5.82726C15.6352 5.48969 15.1774 5.30005 14.7 5.30005H9.3ZM12 17.9C12.2387 17.9 12.4676 17.8052 12.6364 17.6364C12.8052 17.4677 12.9 17.2387 12.9 17C12.9 16.7614 12.8052 16.5324 12.6364 16.3637C12.4676 16.1949 12.2387 16.1 12 16.1C11.7613 16.1 11.5324 16.1949 11.3636 16.3637C11.1948 16.5324 11.1 16.7614 11.1 17C11.1 17.2387 11.1948 17.4677 11.3636 17.6364C11.5324 17.8052 11.7613 17.9 12 17.9Z" fill="white"/>
</g>
<defs>
<clipPath id="clip0_3124_7331">
<rect width="24" height="24" fill="white" transform="translate(0 0.500061)"/>
</clipPath>
</defs>
</svg>
