<svg width="16" height="16" viewBox="0 0 16 16" fill="none" xmlns="http://www.w3.org/2000/svg">
<path d="M4 3.2001C4 2.77575 4.16857 2.36878 4.46863 2.06873C4.76869 1.76867 5.17565 1.6001 5.6 1.6001H10.4C10.8243 1.6001 11.2313 1.76867 11.5314 2.06873C11.8314 2.36878 12 2.77575 12 3.2001V14.4001L8 12.4001L4 14.4001V3.2001Z" fill="#212121"/>
<path d="M4 3.2001C4 2.77575 4.16857 2.36878 4.46863 2.06873C4.76869 1.76867 5.17565 1.6001 5.6 1.6001H10.4C10.8243 1.6001 11.2313 1.76867 11.5314 2.06873C11.8314 2.36878 12 2.77575 12 3.2001V14.4001L8 12.4001L4 14.4001V3.2001Z" fill="black" fill-opacity="0.2"/>
<path d="M4 3.2001C4 2.77575 4.16857 2.36878 4.46863 2.06873C4.76869 1.76867 5.17565 1.6001 5.6 1.6001H10.4C10.8243 1.6001 11.2313 1.76867 11.5314 2.06873C11.8314 2.36878 12 2.77575 12 3.2001V14.4001L8 12.4001L4 14.4001V3.2001Z" fill="black" fill-opacity="0.2"/>
<path d="M4 3.2001C4 2.77575 4.16857 2.36878 4.46863 2.06873C4.76869 1.76867 5.17565 1.6001 5.6 1.6001H10.4C10.8243 1.6001 11.2313 1.76867 11.5314 2.06873C11.8314 2.36878 12 2.77575 12 3.2001V14.4001L8 12.4001L4 14.4001V3.2001Z" fill="black" fill-opacity="0.2"/>
</svg>
