<svg width="24" height="24" viewBox="0 0 24 24" fill="none" xmlns="http://www.w3.org/2000/svg">
<g clip-path="url(#clip0_704_14539)">
<path d="M15.1339 3.36618C14.9591 3.19135 14.7363 3.07228 14.4939 3.02403C14.2514 2.97579 14.0001 3.00053 13.7717 3.09513C13.5433 3.18973 13.3481 3.34993 13.2107 3.55549C13.0734 3.76105 13.0001 4.00272 13.0001 4.24994V8.29294H12.7501C9.63485 8.29645 6.64823 9.53552 4.44544 11.7383C2.24265 13.9411 1.00358 16.9277 1.00007 20.0429V20.4799C0.997374 20.7411 1.07814 20.9964 1.23061 21.2085C1.38308 21.4206 1.59928 21.5785 1.84773 21.6591C2.09743 21.7432 2.36728 21.7463 2.61888 21.6681C2.87047 21.5899 3.091 21.4344 3.24907 21.2236C7.57475 15.4917 11.6036 15.4467 13.0001 15.6474V19.8359C13 20.0832 13.0733 20.3248 13.2107 20.5304C13.348 20.736 13.5433 20.8962 13.7717 20.9908C14.0001 21.0854 14.2514 21.1101 14.4939 21.0619C14.7363 21.0136 14.9591 20.8946 15.1339 20.7197L22.5733 13.2803C22.7358 13.1178 22.8648 12.9249 22.9528 12.7126C23.0407 12.5003 23.086 12.2728 23.086 12.043C23.086 11.8132 23.0407 11.5856 22.9528 11.3733C22.8648 11.161 22.7358 10.9681 22.5733 10.8057L15.1339 3.36618ZM21.5128 12.2197L14.5001 19.2324V15.0429C14.5001 14.8856 14.4505 14.7322 14.3585 14.6045C14.2665 14.4768 14.1367 14.3813 13.9874 14.3315C13.7515 14.2524 8.28277 12.5381 2.50446 19.7382C2.58669 17.0747 3.70182 14.5476 5.61395 12.6915C7.52608 10.8354 10.0852 9.79593 12.7501 9.79294H13.7501C13.949 9.79289 14.1397 9.71385 14.2803 9.57321C14.421 9.43257 14.5 9.24184 14.5001 9.04294V4.85349L21.5128 11.8662C21.5594 11.9132 21.5856 11.9767 21.5856 12.0429C21.5856 12.1092 21.5594 12.1727 21.5128 12.2197Z" fill="#1D2B39"/>
</g>
<defs>
<clipPath id="clip0_704_14539">
<rect width="24" height="24" fill="white"/>
</clipPath>
</defs>
</svg>
