<svg width="16" height="22" viewBox="0 0 16 22" fill="none" xmlns="http://www.w3.org/2000/svg">
<path d="M1.71274 6.63103C2.16988 4.86261 2.28417 4.78892 2.28417 4.97313H12.5703L14.2846 5.52574L15.4275 19.3415L14.856 20.4468H3.99845C0.798452 20.4468 0.379405 19.7099 0.569881 19.3415C0.760357 15.8415 1.25559 8.39945 1.71274 6.63103Z" fill="#4B84F7"/>
<path d="M15.9979 18.8131C15.9536 17.3194 15.1151 8.28881 14.9464 6.49207C14.8923 5.90599 14.6368 5.37349 14.229 4.99338C13.8425 4.63169 13.3511 4.4341 12.809 4.42405C12.6092 4.4207 12.2341 4.41735 11.7428 4.41568V3.73583C11.7428 2.25724 11.0369 1.36807 10.444 0.882465C9.77082 0.329878 8.85691 0 8.00032 0H7.70387C7.14537 0 6.27241 0.232757 5.49607 0.885814C4.90154 1.38649 4.19399 2.2857 4.19399 3.73583V4.4207C3.51757 4.42237 3.05242 4.42405 2.95252 4.42405C2.33342 4.40395 1.14926 4.77402 1.02315 6.32462L0.0142422 18.6289C-0.00377396 18.7813 -0.0807522 19.6922 0.456457 20.3486C0.76437 20.7254 1.21805 20.938 1.76836 20.9648C2.28428 20.99 3.83039 20.9983 5.65822 20.9983C9.17628 20.9983 13.7409 20.9682 14.0275 20.9648C14.116 20.9648 14.9103 20.9481 15.477 20.3503C15.8423 19.9668 16.0175 19.4494 15.9979 18.8131ZM5.15704 3.73583C5.15704 1.66111 7.05201 0.98461 7.70387 0.98461H8.00032C9.07474 0.98461 10.7814 1.73144 10.7814 3.73583V4.41233C9.11569 4.41065 6.83255 4.414 5.15704 4.41735V3.73583ZM14.7908 19.6604C14.5025 19.9702 14.0275 19.9819 14.0243 19.9819C13.9178 19.9819 3.2981 20.0556 1.81422 19.9819C1.53415 19.9685 1.3327 19.8831 1.19676 19.719C0.952721 19.4243 0.951083 18.9119 0.970737 18.7411L0.972375 18.731L1.98292 6.40667C2.01895 5.97297 2.17455 5.68663 2.45789 5.5309C2.69046 5.40364 2.92959 5.40699 2.92631 5.40699H2.93614H2.94597C2.96562 5.40699 3.44878 5.40531 4.19399 5.40364V6.4435C3.99418 6.60091 3.86479 6.84706 3.86479 7.12336C3.86479 7.59724 4.23985 7.9807 4.70336 7.9807C5.16687 7.9807 5.54193 7.59724 5.54193 7.12336C5.54193 6.82194 5.38961 6.5557 5.15868 6.40332V5.40029C6.83255 5.39694 9.1206 5.39359 10.783 5.39526V6.42174C10.5668 6.57747 10.426 6.83199 10.426 7.12336C10.426 7.59724 10.801 7.9807 11.2645 7.9807C11.728 7.9807 12.1031 7.59724 12.1031 7.12336C12.1031 6.83367 11.9622 6.57747 11.746 6.42174V5.39861C12.2308 5.40029 12.5994 5.40364 12.7943 5.40699C13.1071 5.41368 13.3659 5.51415 13.5837 5.71844C13.8146 5.93445 13.9604 6.24256 13.9915 6.58416C14.1586 8.37421 14.9955 17.378 15.0397 18.8399C15.0463 19.1999 14.9644 19.4762 14.7908 19.6604Z" fill="#2FEFF4"/>
<path d="M13.3334 9.4834L8 18.6293L10.4838 10.1105C10.593 9.73888 10.9283 9.4834 11.3118 9.4834H13.3334Z" fill="white"/>
<path d="M7.99941 18.6293L5.51557 10.1105C5.40637 9.73888 5.07112 9.4834 4.68763 9.4834H2.66602L7.99941 18.6293Z" fill="white"/>
<path d="M7.99961 18.4033L10.2955 10.3877L7.99961 14.3955L5.70117 10.3877L7.99961 18.4033Z" fill="#2FEFF4"/>
</svg>
