<svg width="24" height="25" viewBox="0 0 24 25" fill="none" xmlns="http://www.w3.org/2000/svg">
<g clip-path="url(#clip0_2636_24100)">
<path d="M7.03125 1H16.9688C20.5759 1 23.5 3.92414 23.5 7.53125V17.4688C23.5 21.0759 20.5759 24 16.9688 24H7.03125C3.42414 24 0.5 21.0759 0.5 17.4688V7.53125C0.5 3.92414 3.42414 1 7.03125 1Z" fill="#FDB022" stroke="#FDB022"/>
<path d="M6.16667 19.2222V16.878V16.8778H6.66667C6.66564 16.086 6.82028 15.3047 7.11852 14.5837L6.16667 19.2222ZM6.16667 19.2222H4.5L4.5 16.8778L4.5 16.8776C4.49986 16.5146 4.57769 16.1574 4.72632 15.8338C4.87492 15.5103 5.08965 15.2303 5.35179 15.0136C5.61378 14.797 5.91633 14.6493 6.23565 14.579C6.35612 14.5526 6.47809 14.5373 6.60026 14.5332L6.16667 19.2222ZM17.8333 16.8784V19.2222H19.5L19.5 16.8786C19.5 16.8784 19.5 16.8782 19.5 16.878C19.4993 16.5154 19.421 16.1587 19.2722 15.8356C19.1233 15.5124 18.9085 15.2326 18.6465 15.016C18.3846 14.7995 18.0822 14.6516 17.7631 14.581C17.6432 14.5545 17.5219 14.5391 17.4004 14.5348C17.6868 15.2771 17.8344 16.0732 17.8333 16.8784ZM17.8333 16.8784L17.3333 16.8778M14.1667 8.34444C14.1667 8.97627 13.9311 9.57624 13.5209 10.0138C13.1117 10.4503 12.5638 10.6889 12 10.6889C11.4362 10.6889 10.8883 10.4503 10.4792 10.0138C10.0689 9.57624 9.83333 8.97627 9.83333 8.34444C9.83333 7.71262 10.0689 7.11265 10.4792 6.67509C10.8883 6.23862 11.4362 6 12 6C12.5638 6 13.1117 6.23862 13.5208 6.67509L13.8856 6.33312L13.5209 6.67509C13.9311 7.11265 14.1667 7.71262 14.1667 8.34444ZM18.6111 10.2407C18.6111 10.6211 18.4692 10.9799 18.2256 11.2397C17.9832 11.4983 17.6614 11.637 17.3333 11.637C17.0052 11.637 16.6835 11.4983 16.441 11.2397C16.1975 10.9799 16.0556 10.6211 16.0556 10.2407C16.0556 9.86038 16.1975 9.50157 16.441 9.24183C16.6835 8.98317 17.0052 8.84444 17.3333 8.84444C17.6614 8.84444 17.9832 8.98317 18.2256 9.24183C18.4692 9.50157 18.6111 9.86038 18.6111 10.2407ZM14.1494 14.538C14.7263 15.1534 15.0556 15.9945 15.0556 16.8778V19.2222H8.94445V16.8778C8.94445 15.9945 9.2737 15.1534 9.85061 14.538C10.4265 13.9237 11.2004 13.5852 12 13.5852C12.7996 13.5852 13.5735 13.9237 14.1494 14.538ZM7.94445 10.2407C7.94445 10.6211 7.80249 10.9799 7.55898 11.2397C7.31649 11.4983 6.99476 11.637 6.66667 11.637C6.33857 11.637 6.01685 11.4983 5.77436 11.2397C5.53084 10.9799 5.38889 10.6211 5.38889 10.2407C5.38889 9.86038 5.53084 9.50157 5.77436 9.24183C6.01685 8.98317 6.33857 8.84444 6.66667 8.84444C6.99476 8.84444 7.31649 8.98317 7.55898 9.24183C7.80249 9.50157 7.94445 9.86038 7.94445 10.2407Z" fill="white" stroke="white"/>
</g>
<defs>
<clipPath id="clip0_2636_24100">
<rect width="24" height="24" fill="white" transform="translate(0 0.5)"/>
</clipPath>
</defs>
</svg>
