<svg width="54" height="72" viewBox="0 0 54 72" fill="none" xmlns="http://www.w3.org/2000/svg">
<path d="M52.4115 3.09391C50.0289 15.6443 50.696 51.1359 50.8892 59.4021C50.9149 60.5174 50.9324 61.1372 50.9324 61.1372C48.5467 64.3904 41.2477 65.0616 41.2477 65.0616C41.4019 64.338 41.5335 63.5753 41.6455 62.7828C42.9427 53.609 41.6013 40.521 41.6013 40.521C39.0388 43.6663 34.951 46.4437 34.951 46.4437V68.9583C31.9177 71.2854 27.5965 71.8754 26.7279 71.9731V71.9895C26.7279 71.9895 26.7002 71.9875 26.6498 71.9823C26.5984 71.9875 26.5717 71.9895 26.5717 71.9895V71.9731C25.7031 71.8754 21.3819 71.2854 18.3497 68.9583V46.4437C18.3497 46.4437 14.2608 43.6663 11.6983 40.521C11.6983 40.521 10.36 53.5751 11.6489 62.7468C11.762 63.5517 11.8956 64.3267 12.0519 65.0606C12.0519 65.0606 6.64832 65.3967 3.75587 62.1486C3.75587 62.1486 3.75278 61.4753 3.74353 60.2686C3.67672 51.6252 3.26043 15.5929 0.886031 3.09391L0 0C0 0 8.44402 8.93329 19.1185 11.8823C19.1185 11.8823 10.4011 17.3177 10.4011 26.7618C10.4011 36.206 14.858 46.6945 26.5922 46.7746C26.6107 46.7746 26.6292 46.7746 26.6488 46.7746C38.4252 46.7284 42.8965 36.1844 42.8965 26.7618C42.8965 17.3393 34.179 11.8823 34.179 11.8823C44.8535 8.93329 53.2976 0 53.2976 0L52.4115 3.09391Z" fill="url(#paint0_linear_4370_99014)"/>
<path d="M52.4121 3.09484C49.7077 17.3402 50.9329 61.1381 50.9329 61.1381C48.5472 64.3913 41.2483 65.0626 41.2483 65.0626C43.1848 55.9689 41.6008 40.523 41.6008 40.523C39.0383 43.6683 34.9505 46.4456 34.9505 46.4456V68.9603C31.9172 71.2874 27.596 71.8774 26.7274 71.975V71.9915C26.7274 71.9915 26.6997 71.9894 26.6493 71.9843L26.5928 46.7766C26.6113 46.7766 26.6298 46.7766 26.6493 46.7766C38.4257 46.7303 42.897 36.1864 42.897 26.7638C42.897 17.3412 34.1795 11.8842 34.1795 11.8842C44.8541 8.93524 53.2981 0.00195312 53.2981 0.00195312L52.4121 3.09587V3.09484Z" fill="#A20074"/>
<path d="M12.0505 65.0615C12.0505 65.0615 6.64697 65.3976 3.75452 62.1495C3.75452 62.1495 3.75144 61.4763 3.74219 60.2695C6.88133 62.1074 10.0719 62.611 11.6476 62.7477C11.7607 63.5526 11.8943 64.3276 12.0505 65.0615Z" fill="url(#paint1_linear_4370_99014)"/>
<path d="M34.9499 67.6596V68.9589C31.9166 71.286 27.5954 71.876 26.7269 71.9736V71.9901C26.7269 71.9901 26.6991 71.988 26.6488 71.9829C26.5974 71.988 26.5706 71.9901 26.5706 71.9901V71.9736C25.7021 71.876 21.3809 71.286 18.3486 68.9589V67.4551C21.9154 69.1305 26.6457 70.0052 26.6457 70.0052C26.6457 70.0052 31.5404 69.0205 34.9509 67.6596H34.9499Z" fill="url(#paint2_linear_4370_99014)"/>
<path d="M50.9327 61.1374C48.547 64.3906 41.248 65.0618 41.248 65.0618C41.4022 64.3382 41.5338 63.5755 41.6458 62.783C44.4982 62.3822 48.6704 60.4888 50.8906 59.4023C50.9163 60.5176 50.9337 61.1374 50.9337 61.1374H50.9327Z" fill="url(#paint3_linear_4370_99014)"/>
<g style="mix-blend-mode:multiply" opacity="0.5">
<path d="M3.73535 59.4012C5.54442 56.4111 6.27216 56.1943 7.20753 56.7904C8.14289 57.3856 8.34847 64.6866 8.34847 64.6866C8.34847 64.6866 10.3282 65.1574 12.0499 65.0607C12.0499 65.0607 10.6941 56.7627 11.1022 51.2923L3.74255 50.7383L3.73535 59.4023V59.4012Z" fill="#912774"/>
</g>
<g style="mix-blend-mode:multiply" opacity="0.5">
<path d="M50.8998 59.8218C49.0908 56.8317 47.1861 56.1954 46.2507 56.7906C45.3154 57.3857 45.1211 64.3393 45.1211 64.3393C45.1211 64.3393 42.4723 65.0619 41.248 65.0619C41.248 65.0619 42.4794 59.2266 42.1999 51.5895L50.6644 49.8164L50.8998 59.8218Z" fill="#912774"/>
</g>
<g style="mix-blend-mode:multiply" opacity="0.5">
<path d="M18.3477 51.0147H34.9499V68.9573C34.9499 68.9573 32.8798 70.5022 30.7511 71.0779C30.7511 71.0779 30.7151 58.1173 30.2824 55.5045C29.8496 52.8916 28.684 52.9492 28.684 52.9492L29.0623 71.5527C29.0623 71.5527 27.173 72.0852 26.5707 71.9875C26.5707 71.9875 26.5995 59.1791 26.655 57.0638C26.7105 54.9484 24.5992 52.9995 23.6793 54.8939C22.7593 56.7883 22.3255 67.4525 22.3255 67.4525C22.3255 67.4525 22.2711 55.3729 21.7304 53.6985C21.1887 52.0251 19.6325 69.8043 19.6325 69.8043L18.3487 68.9563V51.0137L18.3477 51.0147Z" fill="#912774"/>
</g>
<defs>
<linearGradient id="paint0_linear_4370_99014" x1="54.5865" y1="35.9953" x2="-41.8614" y2="35.9953" gradientUnits="userSpaceOnUse">
<stop stop-color="#DE0086"/>
<stop offset="1" stop-color="#FF003B"/>
</linearGradient>
<linearGradient id="paint1_linear_4370_99014" x1="12.0505" y1="62.6696" x2="4.47506" y2="62.6696" gradientUnits="userSpaceOnUse">
<stop stop-color="#CA6B34"/>
<stop offset="0.18" stop-color="#CB6D33"/>
<stop offset="0.31" stop-color="#D27732"/>
<stop offset="0.42" stop-color="#DC8730"/>
<stop offset="0.53" stop-color="#EA9D2E"/>
<stop offset="0.63" stop-color="#FDBA2B"/>
<stop offset="0.64" stop-color="#FFBD2B"/>
<stop offset="0.8" stop-color="#FFBA2C"/>
<stop offset="0.92" stop-color="#FFB02F"/>
<stop offset="0.97" stop-color="#FFA933"/>
</linearGradient>
<linearGradient id="paint2_linear_4370_99014" x1="35.4279" y1="69.7226" x2="17.9817" y2="69.7226" gradientUnits="userSpaceOnUse">
<stop stop-color="#CA6B34"/>
<stop offset="0.18" stop-color="#CB6D33"/>
<stop offset="0.31" stop-color="#D27732"/>
<stop offset="0.42" stop-color="#DC8730"/>
<stop offset="0.53" stop-color="#EA9D2E"/>
<stop offset="0.63" stop-color="#FDBA2B"/>
<stop offset="0.64" stop-color="#FFBD2B"/>
<stop offset="0.8" stop-color="#FFBA2C"/>
<stop offset="0.92" stop-color="#FFB02F"/>
<stop offset="0.97" stop-color="#FFA933"/>
</linearGradient>
<linearGradient id="paint3_linear_4370_99014" x1="50.6922" y1="62.2321" x2="42.4908" y2="62.2321" gradientUnits="userSpaceOnUse">
<stop stop-color="#CA6B34"/>
<stop offset="0.18" stop-color="#CB6D33"/>
<stop offset="0.31" stop-color="#D27732"/>
<stop offset="0.42" stop-color="#DC8730"/>
<stop offset="0.53" stop-color="#EA9D2E"/>
<stop offset="0.63" stop-color="#FDBA2B"/>
<stop offset="0.64" stop-color="#FFBD2B"/>
<stop offset="0.8" stop-color="#FFBA2C"/>
<stop offset="0.92" stop-color="#FFB02F"/>
<stop offset="0.97" stop-color="#FFA933"/>
</linearGradient>
</defs>
</svg>
