<svg width="24" height="24" viewBox="0 0 24 24" fill="none" xmlns="http://www.w3.org/2000/svg">
<g clip-path="url(#clip0_1890_26150)">
<path d="M7.03125 0.5H16.9688C20.5759 0.5 23.5 3.42414 23.5 7.03125V16.9688C23.5 20.5759 20.5759 23.5 16.9688 23.5H7.03125C3.42414 23.5 0.5 20.5759 0.5 16.9688V7.03125C0.5 3.42414 3.42414 0.5 7.03125 0.5Z" fill="#75B9FF" stroke="#75B9FF"/>
<g clip-path="url(#clip1_1890_26150)">
<path d="M8.7929 8.74609H8.61735L8.28931 10.3867H9.12094L8.7929 8.74609ZM15.4282 12.0273C15.6053 12.5031 15.8409 12.8882 16.1016 13.2159C16.3623 12.8882 16.6252 12.5031 16.8023 12.0273H15.4282Z" fill="white"/>
<path d="M17.7695 7.48828H12.6758L13.7379 16.0108C13.7567 16.3593 13.6614 16.6875 13.4339 16.9444L11.6353 19H17.7695C18.448 19 18.9999 18.448 18.9999 17.7695V8.74609C18.9999 8.06759 18.448 7.48828 17.7695 7.48828ZM17.7695 12.0273H17.6599C17.4266 12.7761 17.0565 13.362 16.6718 13.8239C16.9731 14.0993 17.2953 14.3253 17.6157 14.5784C17.7923 14.7198 17.8211 14.9777 17.6793 15.1548C17.5382 15.3316 17.2793 15.3602 17.103 15.2185C16.7549 14.9437 16.4282 14.7138 16.1015 14.414C15.7748 14.7138 15.4754 14.9437 15.1274 15.2185C14.9511 15.3602 14.6921 15.3316 14.551 15.1548C14.4092 14.9777 14.438 14.7198 14.6147 14.5784C14.935 14.3253 15.2299 14.0993 15.5312 13.8239C15.1465 13.362 14.8038 12.7761 14.5704 12.0273H14.4609C14.2342 12.0273 14.0507 11.8439 14.0507 11.6172C14.0507 11.3905 14.2342 11.207 14.4609 11.207H15.6913V10.7969C15.6913 10.5702 15.8748 10.3867 16.1015 10.3867C16.3282 10.3867 16.5117 10.5702 16.5117 10.7969V11.207H17.7695C17.9962 11.207 18.1796 11.3905 18.1796 11.6172C18.1796 11.8439 17.9962 12.0273 17.7695 12.0273Z" fill="white"/>
<path d="M11.6764 6.07786C11.5999 5.46342 11.0747 5 10.4555 5H6.23047C5.55196 5 5 5.55196 5 6.23047V15.3086C5 15.9871 5.55196 16.5391 6.23047 16.5391H12.6987C12.8183 16.4023 12.9186 16.3166 12.9229 16.1381C12.9239 16.0934 11.6819 6.12227 11.6764 6.07786ZM10.0297 12.8396C9.81223 12.8844 9.59192 12.7432 9.54707 12.518L9.28493 11.207H8.12525L7.86311 12.518C7.81906 12.7399 7.60515 12.8857 7.38046 12.8396C7.15857 12.7952 7.01436 12.5793 7.05882 12.357L7.87911 8.25544C7.91755 8.06398 8.0858 7.92578 8.28125 7.92578H9.12891C9.32436 7.92578 9.49261 8.06398 9.53105 8.25544L10.3514 12.357C10.3958 12.5793 10.2516 12.7952 10.0297 12.8396ZM9.79229 17.3594L9.86268 17.9221C9.9096 18.299 10.16 18.6833 10.5719 18.8752L11.9489 17.3594H9.79229Z" fill="white"/>
</g>
</g>
<defs>
<clipPath id="clip0_1890_26150">
<rect width="24" height="24" fill="white"/>
</clipPath>
<clipPath id="clip1_1890_26150">
<rect width="14" height="14" fill="white" transform="translate(5 5)"/>
</clipPath>
</defs>
</svg>
