<svg width="24" height="24" viewBox="0 0 24 24" fill="none" xmlns="http://www.w3.org/2000/svg">
<path d="M18.0306 19.1128C19.2604 17.4971 19.9444 15.2979 19.9559 12.9212L20 4.51368C20.0022 4.27171 19.8863 4.04489 19.6916 3.90446M18.0306 19.1128L17.6327 18.81C17.6327 18.81 17.6327 18.81 17.6327 18.81M18.0306 19.1128C16.592 21.0026 14.5013 22 11.9818 22H11.9337M18.0306 19.1128L17.6327 18.81M17.6327 18.81C18.7861 17.2947 19.4448 15.2061 19.4559 12.9187L19.4559 12.9185L19.5 4.51106L19.5 4.50902C19.5007 4.43052 19.4632 4.35648 19.3997 4.31042M17.6327 18.81C16.2953 20.5669 14.3563 21.5 11.9818 21.5H11.9817H11.9816H11.9815H11.9814H11.9813H11.9812H11.9811H11.981H11.9809H11.9808H11.9807H11.9806H11.9805H11.9804H11.9803H11.9802H11.9801H11.98H11.98H11.9799H11.9798H11.9797H11.9796H11.9795H11.9794H11.9793H11.9792H11.9791H11.979H11.9789H11.9788H11.9787H11.9786H11.9785H11.9784H11.9783H11.9782H11.9781H11.978H11.9779H11.9778H11.9777H11.9776H11.9775H11.9775H11.9774H11.9773H11.9772H11.9771H11.977H11.9769H11.9768H11.9767H11.9766H11.9765H11.9764H11.9763H11.9762H11.9761H11.976H11.9759H11.9758H11.9757H11.9756H11.9755H11.9754H11.9753H11.9752H11.9752H11.9751H11.975H11.9749H11.9748H11.9747H11.9746H11.9745H11.9744H11.9743H11.9742H11.9741H11.974H11.9739H11.9738H11.9737H11.9736H11.9735H11.9734H11.9733H11.9732H11.9731H11.973H11.973H11.9729H11.9728H11.9727H11.9726H11.9725H11.9724H11.9723H11.9722H11.9721H11.972H11.9719H11.9718H11.9717H11.9716H11.9715H11.9714H11.9713H11.9712H11.9711H11.971H11.971H11.9709H11.9708H11.9707H11.9706H11.9705H11.9704H11.9703H11.9702H11.9701H11.97H11.9699H11.9698H11.9697H11.9696H11.9695H11.9694H11.9693H11.9692H11.9692H11.9691H11.969H11.9689H11.9688H11.9687H11.9686H11.9685H11.9684H11.9683H11.9682H11.9681H11.968H11.9679H11.9678H11.9677H11.9676H11.9675H11.9674H11.9674H11.9673H11.9672H11.9671H11.967H11.9669H11.9668H11.9667H11.9666H11.9665H11.9664H11.9663H11.9662H11.9661H11.966H11.9659H11.9658H11.9657H11.9657H11.9656H11.9655H11.9654H11.9653H11.9652H11.9651H11.965H11.9649H11.9648H11.9647H11.9646H11.9645H11.9644H11.9643H11.9642H11.9641H11.964H11.964H11.9639H11.9638H11.9637H11.9636H11.9635H11.9634H11.9633H11.9632H11.9631H11.963H11.9629H11.9628H11.9627H11.9626H11.9625H11.9624H11.9624H11.9623H11.9622H11.9621H11.962H11.9619H11.9618H11.9617H11.9616H11.9615H11.9614H11.9613H11.9612H11.9611H11.961H11.9609H11.9609H11.9608H11.9607H11.9606H11.9605H11.9604H11.9603H11.9602H11.9601H11.96H11.9599H11.9598H11.9597H11.9596H11.9595H11.9594H11.9594H11.9593H11.9592H11.9591H11.959H11.9589H11.9588H11.9587H11.9586H11.9585H11.9584H11.9583H11.9582H11.9581H11.958H11.9579H11.9579H11.9578H11.9577H11.9576H11.9575H11.9574H11.9573H11.9572H11.9571H11.957H11.9569H11.9568H11.9567H11.9566H11.9565H11.9565H11.9564H11.9563H11.9562H11.9561H11.956H11.9559H11.9558H11.9557H11.9556H11.9555H11.9554H11.9553H11.9552H11.9551H11.9551H11.955H11.9549H11.9548H11.9547H11.9546H11.9545H11.9544H11.9543H11.9542H11.9541H11.954H11.9539H11.9538H11.9537H11.9537H11.9536H11.9535H11.9534H11.9533H11.9532H11.9531H11.953H11.9529H11.9528H11.9527H11.9526H11.9525H11.9524H11.9524H11.9523H11.9522H11.9521H11.952H11.9519H11.9518H11.9517H11.9516H11.9515H11.9514H11.9513H11.9512H11.9511H11.9511H11.951H11.9509H11.9508H11.9507H11.9506H11.9505H11.9504H11.9503H11.9502H11.9501H11.95H11.9499H11.9498H11.9497H11.9497H11.9496H11.9495H11.9494H11.9493H11.9492H11.9491H11.949H11.9489H11.9488H11.9487H11.9486H11.9485H11.9484H11.9484H11.9483H11.9482H11.9481H11.948H11.9479H11.9478H11.9477H11.9476H11.9475H11.9474H11.9473H11.9472H11.9472H11.9471H11.947H11.9469H11.9468H11.9467H11.9466H11.9465H11.9464H11.9463H11.9462H11.9461H11.946H11.9459H11.9459H11.9458H11.9457H11.9456H11.9455H11.9454H11.9453H11.9452H11.9451H11.945H11.9449H11.9448H11.9447H11.9446H11.9446H11.9445H11.9444H11.9443H11.9442H11.9441H11.944H11.9439H11.9438H11.9437H11.9436H11.9435H11.9434H11.9434H11.9433H11.9432H11.9431H11.943H11.9429H11.9428H11.9427H11.9426H11.9425H11.9424H11.9423H11.9422H11.9421H11.9421H11.942H11.9419H11.9418H11.9417H11.9416H11.9415H11.9414H11.9413H11.9412H11.9411H11.941H11.9409H11.9409H11.9408H11.9407H11.9406H11.9405H11.9404H11.9403H11.9402H11.9401H11.94H11.9399H11.9398H11.9397H11.9397H11.9396H11.9395H11.9394H11.9393H11.9392H11.9391H11.939H11.9389H11.9388H11.9387H11.9386H11.9385H11.9385H11.9384H11.9383H11.9382H11.9381H11.938H11.9379H11.9378H11.9377H11.9376H11.9375H11.9374H11.9373H11.9372H11.9372H11.9371H11.937H11.9369H11.9368H11.9367H11.9366H11.9365H11.9364H11.9363H11.9362H11.9361H11.936H11.936H11.9359H11.9358H11.9357H11.9356H11.9355H11.9354H11.9353H11.9352H11.9351H11.935H11.9349H11.9349M19.3997 4.31042C19.4 4.31057 19.4002 4.31072 19.4004 4.31088L19.6916 3.90446M19.3997 4.31042C19.3995 4.31028 19.3993 4.31013 19.3992 4.30999L19.6916 3.90446M19.3997 4.31042C19.3349 4.26423 19.2575 4.25506 19.1904 4.27945L19.1883 4.28019C19.0874 4.31634 17.4629 4.91131 15.79 6.15236L15.3346 6.49021L15.0564 5.99609C13.8537 3.85982 12.4593 2.59856 12.4083 2.5524L19.0197 3.80949M19.6916 3.90446C19.4957 3.76403 19.2457 3.72741 19.0197 3.80949M19.0197 3.80949C18.9067 3.84996 17.4768 4.37439 15.9012 5.45851C15.9101 5.47412 15.9189 5.48979 15.9278 5.5055L15.4921 5.75079L15.1942 5.34923C15.2089 5.33829 15.2237 5.32741 15.2384 5.31657C14.0384 3.33571 12.7532 2.18904 12.7291 2.16876M19.0197 3.80949L11.7993 2.16447M11.7993 2.16447C11.6958 2.24837 10.3233 3.39599 9.09279 5.44571C9.10631 5.45538 9.11985 5.46508 9.13341 5.47482L8.84164 5.88087L8.40433 5.63847C8.41283 5.62313 8.42135 5.60782 8.42988 5.59256C6.55622 4.31439 5.06911 3.7521 5.02826 3.73726M11.7993 2.16447C12.0716 1.94321 12.4598 1.94574 12.7291 2.16876M11.7993 2.16447L12.4075 2.55166M5.02826 3.73726C4.80477 3.65643 4.55325 3.68952 4.35754 3.82717M5.02826 3.73726L4.85822 4.20745C4.85805 4.20739 4.85788 4.20733 4.8577 4.20727M5.02826 3.73726L4.85752 4.2072L4.8577 4.20727M4.35754 3.82717C4.16158 3.96533 4.0442 4.19088 4.0432 4.43209L4.00015 12.8398M4.35754 3.82717L4.64519 4.23615C4.64527 4.23609 4.64535 4.23603 4.64543 4.23597M4.35754 3.82717L4.64565 4.23582C4.64558 4.23587 4.6455 4.23592 4.64543 4.23597M4.00015 12.8398C3.97788 17.3789 6.42252 21.9715 11.9337 22M4.00015 12.8398L4.50014 12.8424C4.48943 15.0296 5.07443 17.198 6.291 18.8102C7.49489 20.4055 9.33726 21.4861 11.9349 21.5M4.00015 12.8398L4.50014 12.8423L4.54319 4.43465L4.54319 4.43417C4.54353 4.35411 4.58249 4.28046 4.64543 4.23597M11.9337 22V21.5H11.9338H11.9339H11.934H11.9341H11.9342H11.9343H11.9344H11.9345H11.9346H11.9347H11.9348H11.9348H11.9349M11.9337 22L11.9363 21.5C11.9358 21.5 11.9354 21.5 11.9349 21.5M4.64543 4.23597C4.70728 4.19259 4.78757 4.1821 4.8577 4.20727M4.8577 4.20727C4.86264 4.20913 4.9674 4.24858 5.1538 4.32929C5.34391 4.4116 5.61681 4.53592 5.95228 4.70542C6.6236 5.0446 7.54308 5.56348 8.54987 6.28691L9.00642 6.61496L9.27896 6.12326C10.5246 3.87597 12.0334 2.61839 12.1142 2.55289L12.1147 2.55251C12.2006 2.48264 12.3217 2.48264 12.4075 2.55166M12.4075 2.55166C12.4084 2.55238 12.4093 2.55311 12.4102 2.55385L12.7291 2.16876M12.4075 2.55166C12.407 2.5512 12.4068 2.55101 12.4069 2.55112L12.7291 2.16876M11.9387 21.0143C13.0237 21.0205 14.0315 20.8225 14.9202 20.4143L15.2096 20.2814L15.2115 19.9629C15.2668 10.6363 8.35483 6.38878 5.72799 5.11287L5.01361 4.76588L5.00954 5.56006L4.97225 12.8446L4.97225 12.8447C4.96247 14.824 5.47528 16.8474 6.6114 18.3929C7.7602 19.9556 9.5288 21.0017 11.9387 21.0143ZM11.9387 21.0143L11.9415 20.5144M11.9387 21.0143C11.9387 21.0143 11.9388 21.0143 11.9389 21.0143L11.9415 20.5144M11.9415 20.5144C12.9641 20.5202 13.8981 20.3335 14.7115 19.9599L11.9415 20.5144ZM15.6641 19.008L15.7143 20.0872L16.5045 19.3505C16.776 19.0973 17.0287 18.8167 17.262 18.5101C18.3758 17.0477 18.9749 15.0557 18.9853 12.9157C18.9853 12.9156 18.9853 12.9156 18.9853 12.9155L19.0234 5.64632L19.0276 4.83891L18.3029 5.19493C16.8309 5.91807 14.0075 7.60283 12.9649 10.3838L12.8748 10.6243L13.0177 10.8376C14.4324 12.949 15.5073 15.6379 15.6641 19.008ZM12.0385 9.52356L12.521 10.109L12.8687 9.43465C13.337 8.52622 13.9796 7.74579 14.6824 7.07915L14.9598 6.81607L14.7786 6.47944C14.0109 5.05282 13.1382 3.99956 12.6121 3.43159L12.2563 3.04737L11.8889 3.42066C11.3255 3.9932 10.3911 5.0687 9.59157 6.5706L9.40126 6.92811L9.71146 7.18851C10.4953 7.84646 11.2927 8.61893 12.0385 9.52356Z" fill="black"/>
<path d="M18.0306 19.1128C19.2604 17.4971 19.9444 15.2979 19.9559 12.9212L20 4.51368C20.0022 4.27171 19.8863 4.04489 19.6916 3.90446M18.0306 19.1128L17.6327 18.81C17.6327 18.81 17.6327 18.81 17.6327 18.81M18.0306 19.1128C16.592 21.0026 14.5013 22 11.9818 22H11.9337M18.0306 19.1128L17.6327 18.81M17.6327 18.81C18.7861 17.2947 19.4448 15.2061 19.4559 12.9187L19.4559 12.9185L19.5 4.51106L19.5 4.50902C19.5007 4.43052 19.4632 4.35648 19.3997 4.31042M17.6327 18.81C16.2953 20.5669 14.3563 21.5 11.9818 21.5H11.9817H11.9816H11.9815H11.9814H11.9813H11.9812H11.9811H11.981H11.9809H11.9808H11.9807H11.9806H11.9805H11.9804H11.9803H11.9802H11.9801H11.98H11.98H11.9799H11.9798H11.9797H11.9796H11.9795H11.9794H11.9793H11.9792H11.9791H11.979H11.9789H11.9788H11.9787H11.9786H11.9785H11.9784H11.9783H11.9782H11.9781H11.978H11.9779H11.9778H11.9777H11.9776H11.9775H11.9775H11.9774H11.9773H11.9772H11.9771H11.977H11.9769H11.9768H11.9767H11.9766H11.9765H11.9764H11.9763H11.9762H11.9761H11.976H11.9759H11.9758H11.9757H11.9756H11.9755H11.9754H11.9753H11.9752H11.9752H11.9751H11.975H11.9749H11.9748H11.9747H11.9746H11.9745H11.9744H11.9743H11.9742H11.9741H11.974H11.9739H11.9738H11.9737H11.9736H11.9735H11.9734H11.9733H11.9732H11.9731H11.973H11.973H11.9729H11.9728H11.9727H11.9726H11.9725H11.9724H11.9723H11.9722H11.9721H11.972H11.9719H11.9718H11.9717H11.9716H11.9715H11.9714H11.9713H11.9712H11.9711H11.971H11.971H11.9709H11.9708H11.9707H11.9706H11.9705H11.9704H11.9703H11.9702H11.9701H11.97H11.9699H11.9698H11.9697H11.9696H11.9695H11.9694H11.9693H11.9692H11.9692H11.9691H11.969H11.9689H11.9688H11.9687H11.9686H11.9685H11.9684H11.9683H11.9682H11.9681H11.968H11.9679H11.9678H11.9677H11.9676H11.9675H11.9674H11.9674H11.9673H11.9672H11.9671H11.967H11.9669H11.9668H11.9667H11.9666H11.9665H11.9664H11.9663H11.9662H11.9661H11.966H11.9659H11.9658H11.9657H11.9657H11.9656H11.9655H11.9654H11.9653H11.9652H11.9651H11.965H11.9649H11.9648H11.9647H11.9646H11.9645H11.9644H11.9643H11.9642H11.9641H11.964H11.964H11.9639H11.9638H11.9637H11.9636H11.9635H11.9634H11.9633H11.9632H11.9631H11.963H11.9629H11.9628H11.9627H11.9626H11.9625H11.9624H11.9624H11.9623H11.9622H11.9621H11.962H11.9619H11.9618H11.9617H11.9616H11.9615H11.9614H11.9613H11.9612H11.9611H11.961H11.9609H11.9609H11.9608H11.9607H11.9606H11.9605H11.9604H11.9603H11.9602H11.9601H11.96H11.9599H11.9598H11.9597H11.9596H11.9595H11.9594H11.9594H11.9593H11.9592H11.9591H11.959H11.9589H11.9588H11.9587H11.9586H11.9585H11.9584H11.9583H11.9582H11.9581H11.958H11.9579H11.9579H11.9578H11.9577H11.9576H11.9575H11.9574H11.9573H11.9572H11.9571H11.957H11.9569H11.9568H11.9567H11.9566H11.9565H11.9565H11.9564H11.9563H11.9562H11.9561H11.956H11.9559H11.9558H11.9557H11.9556H11.9555H11.9554H11.9553H11.9552H11.9551H11.9551H11.955H11.9549H11.9548H11.9547H11.9546H11.9545H11.9544H11.9543H11.9542H11.9541H11.954H11.9539H11.9538H11.9537H11.9537H11.9536H11.9535H11.9534H11.9533H11.9532H11.9531H11.953H11.9529H11.9528H11.9527H11.9526H11.9525H11.9524H11.9524H11.9523H11.9522H11.9521H11.952H11.9519H11.9518H11.9517H11.9516H11.9515H11.9514H11.9513H11.9512H11.9511H11.9511H11.951H11.9509H11.9508H11.9507H11.9506H11.9505H11.9504H11.9503H11.9502H11.9501H11.95H11.9499H11.9498H11.9497H11.9497H11.9496H11.9495H11.9494H11.9493H11.9492H11.9491H11.949H11.9489H11.9488H11.9487H11.9486H11.9485H11.9484H11.9484H11.9483H11.9482H11.9481H11.948H11.9479H11.9478H11.9477H11.9476H11.9475H11.9474H11.9473H11.9472H11.9472H11.9471H11.947H11.9469H11.9468H11.9467H11.9466H11.9465H11.9464H11.9463H11.9462H11.9461H11.946H11.9459H11.9459H11.9458H11.9457H11.9456H11.9455H11.9454H11.9453H11.9452H11.9451H11.945H11.9449H11.9448H11.9447H11.9446H11.9446H11.9445H11.9444H11.9443H11.9442H11.9441H11.944H11.9439H11.9438H11.9437H11.9436H11.9435H11.9434H11.9434H11.9433H11.9432H11.9431H11.943H11.9429H11.9428H11.9427H11.9426H11.9425H11.9424H11.9423H11.9422H11.9421H11.9421H11.942H11.9419H11.9418H11.9417H11.9416H11.9415H11.9414H11.9413H11.9412H11.9411H11.941H11.9409H11.9409H11.9408H11.9407H11.9406H11.9405H11.9404H11.9403H11.9402H11.9401H11.94H11.9399H11.9398H11.9397H11.9397H11.9396H11.9395H11.9394H11.9393H11.9392H11.9391H11.939H11.9389H11.9388H11.9387H11.9386H11.9385H11.9385H11.9384H11.9383H11.9382H11.9381H11.938H11.9379H11.9378H11.9377H11.9376H11.9375H11.9374H11.9373H11.9372H11.9372H11.9371H11.937H11.9369H11.9368H11.9367H11.9366H11.9365H11.9364H11.9363H11.9362H11.9361H11.936H11.936H11.9359H11.9358H11.9357H11.9356H11.9355H11.9354H11.9353H11.9352H11.9351H11.935H11.9349H11.9349M19.3997 4.31042C19.4 4.31057 19.4002 4.31072 19.4004 4.31088L19.6916 3.90446M19.3997 4.31042C19.3995 4.31028 19.3993 4.31013 19.3992 4.30999L19.6916 3.90446M19.3997 4.31042C19.3349 4.26423 19.2575 4.25506 19.1904 4.27945L19.1883 4.28019C19.0874 4.31634 17.4629 4.91131 15.79 6.15236L15.3346 6.49021L15.0564 5.99609C13.8537 3.85982 12.4593 2.59856 12.4083 2.5524L19.0197 3.80949M19.6916 3.90446C19.4957 3.76403 19.2457 3.72741 19.0197 3.80949M19.0197 3.80949C18.9067 3.84996 17.4768 4.37439 15.9012 5.45851C15.9101 5.47412 15.9189 5.48979 15.9278 5.5055L15.4921 5.75079L15.1942 5.34923C15.2089 5.33829 15.2237 5.32741 15.2384 5.31657C14.0384 3.33571 12.7532 2.18904 12.7291 2.16876M19.0197 3.80949L11.7993 2.16447M11.7993 2.16447C11.6958 2.24837 10.3233 3.39599 9.09279 5.44571C9.10631 5.45538 9.11985 5.46508 9.13341 5.47482L8.84164 5.88087L8.40433 5.63847C8.41283 5.62313 8.42135 5.60782 8.42988 5.59256C6.55622 4.31439 5.06911 3.7521 5.02826 3.73726M11.7993 2.16447C12.0716 1.94321 12.4598 1.94574 12.7291 2.16876M11.7993 2.16447L12.4075 2.55166M5.02826 3.73726C4.80477 3.65643 4.55325 3.68952 4.35754 3.82717M5.02826 3.73726L4.85822 4.20745C4.85805 4.20739 4.85788 4.20733 4.8577 4.20727M5.02826 3.73726L4.85752 4.2072L4.8577 4.20727M4.35754 3.82717C4.16158 3.96533 4.0442 4.19088 4.0432 4.43209L4.00015 12.8398M4.35754 3.82717L4.64519 4.23615C4.64527 4.23609 4.64535 4.23603 4.64543 4.23597M4.35754 3.82717L4.64565 4.23582C4.64558 4.23587 4.6455 4.23592 4.64543 4.23597M4.00015 12.8398C3.97788 17.3789 6.42252 21.9715 11.9337 22M4.00015 12.8398L4.50014 12.8424C4.48943 15.0296 5.07443 17.198 6.291 18.8102C7.49489 20.4055 9.33726 21.4861 11.9349 21.5M4.00015 12.8398L4.50014 12.8423L4.54319 4.43465L4.54319 4.43417C4.54353 4.35411 4.58249 4.28046 4.64543 4.23597M11.9337 22V21.5H11.9338H11.9339H11.934H11.9341H11.9342H11.9343H11.9344H11.9345H11.9346H11.9347H11.9348H11.9348H11.9349M11.9337 22L11.9363 21.5C11.9358 21.5 11.9354 21.5 11.9349 21.5M4.64543 4.23597C4.70728 4.19259 4.78757 4.1821 4.8577 4.20727M4.8577 4.20727C4.86264 4.20913 4.9674 4.24858 5.1538 4.32929C5.34391 4.4116 5.61681 4.53592 5.95228 4.70542C6.6236 5.0446 7.54308 5.56348 8.54987 6.28691L9.00642 6.61496L9.27896 6.12326C10.5246 3.87597 12.0334 2.61839 12.1142 2.55289L12.1147 2.55251C12.2006 2.48264 12.3217 2.48264 12.4075 2.55166M12.4075 2.55166C12.4084 2.55238 12.4093 2.55311 12.4102 2.55385L12.7291 2.16876M12.4075 2.55166C12.407 2.5512 12.4068 2.55101 12.4069 2.55112L12.7291 2.16876M11.9387 21.0143C13.0237 21.0205 14.0315 20.8225 14.9202 20.4143L15.2096 20.2814L15.2115 19.9629C15.2668 10.6363 8.35483 6.38878 5.72799 5.11287L5.01361 4.76588L5.00954 5.56006L4.97225 12.8446L4.97225 12.8447C4.96247 14.824 5.47528 16.8474 6.6114 18.3929C7.7602 19.9556 9.5288 21.0017 11.9387 21.0143ZM11.9387 21.0143L11.9415 20.5144M11.9387 21.0143C11.9387 21.0143 11.9388 21.0143 11.9389 21.0143L11.9415 20.5144M11.9415 20.5144C12.9641 20.5202 13.8981 20.3335 14.7115 19.9599L11.9415 20.5144ZM15.6641 19.008L15.7143 20.0872L16.5045 19.3505C16.776 19.0973 17.0287 18.8167 17.262 18.5101C18.3758 17.0477 18.9749 15.0557 18.9853 12.9157C18.9853 12.9156 18.9853 12.9156 18.9853 12.9155L19.0234 5.64632L19.0276 4.83891L18.3029 5.19493C16.8309 5.91807 14.0075 7.60283 12.9649 10.3838L12.8748 10.6243L13.0177 10.8376C14.4324 12.949 15.5073 15.6379 15.6641 19.008ZM12.0385 9.52356L12.521 10.109L12.8687 9.43465C13.337 8.52622 13.9796 7.74579 14.6824 7.07915L14.9598 6.81607L14.7786 6.47944C14.0109 5.05282 13.1382 3.99956 12.6121 3.43159L12.2563 3.04737L11.8889 3.42066C11.3255 3.9932 10.3911 5.0687 9.59157 6.5706L9.40126 6.92811L9.71146 7.18851C10.4953 7.84646 11.2927 8.61893 12.0385 9.52356Z" stroke="#212121"/>
<path d="M18.0306 19.1128C19.2604 17.4971 19.9444 15.2979 19.9559 12.9212L20 4.51368C20.0022 4.27171 19.8863 4.04489 19.6916 3.90446M18.0306 19.1128L17.6327 18.81C17.6327 18.81 17.6327 18.81 17.6327 18.81M18.0306 19.1128C16.592 21.0026 14.5013 22 11.9818 22H11.9337M18.0306 19.1128L17.6327 18.81M17.6327 18.81C18.7861 17.2947 19.4448 15.2061 19.4559 12.9187L19.4559 12.9185L19.5 4.51106L19.5 4.50902C19.5007 4.43052 19.4632 4.35648 19.3997 4.31042M17.6327 18.81C16.2953 20.5669 14.3563 21.5 11.9818 21.5H11.9817H11.9816H11.9815H11.9814H11.9813H11.9812H11.9811H11.981H11.9809H11.9808H11.9807H11.9806H11.9805H11.9804H11.9803H11.9802H11.9801H11.98H11.98H11.9799H11.9798H11.9797H11.9796H11.9795H11.9794H11.9793H11.9792H11.9791H11.979H11.9789H11.9788H11.9787H11.9786H11.9785H11.9784H11.9783H11.9782H11.9781H11.978H11.9779H11.9778H11.9777H11.9776H11.9775H11.9775H11.9774H11.9773H11.9772H11.9771H11.977H11.9769H11.9768H11.9767H11.9766H11.9765H11.9764H11.9763H11.9762H11.9761H11.976H11.9759H11.9758H11.9757H11.9756H11.9755H11.9754H11.9753H11.9752H11.9752H11.9751H11.975H11.9749H11.9748H11.9747H11.9746H11.9745H11.9744H11.9743H11.9742H11.9741H11.974H11.9739H11.9738H11.9737H11.9736H11.9735H11.9734H11.9733H11.9732H11.9731H11.973H11.973H11.9729H11.9728H11.9727H11.9726H11.9725H11.9724H11.9723H11.9722H11.9721H11.972H11.9719H11.9718H11.9717H11.9716H11.9715H11.9714H11.9713H11.9712H11.9711H11.971H11.971H11.9709H11.9708H11.9707H11.9706H11.9705H11.9704H11.9703H11.9702H11.9701H11.97H11.9699H11.9698H11.9697H11.9696H11.9695H11.9694H11.9693H11.9692H11.9692H11.9691H11.969H11.9689H11.9688H11.9687H11.9686H11.9685H11.9684H11.9683H11.9682H11.9681H11.968H11.9679H11.9678H11.9677H11.9676H11.9675H11.9674H11.9674H11.9673H11.9672H11.9671H11.967H11.9669H11.9668H11.9667H11.9666H11.9665H11.9664H11.9663H11.9662H11.9661H11.966H11.9659H11.9658H11.9657H11.9657H11.9656H11.9655H11.9654H11.9653H11.9652H11.9651H11.965H11.9649H11.9648H11.9647H11.9646H11.9645H11.9644H11.9643H11.9642H11.9641H11.964H11.964H11.9639H11.9638H11.9637H11.9636H11.9635H11.9634H11.9633H11.9632H11.9631H11.963H11.9629H11.9628H11.9627H11.9626H11.9625H11.9624H11.9624H11.9623H11.9622H11.9621H11.962H11.9619H11.9618H11.9617H11.9616H11.9615H11.9614H11.9613H11.9612H11.9611H11.961H11.9609H11.9609H11.9608H11.9607H11.9606H11.9605H11.9604H11.9603H11.9602H11.9601H11.96H11.9599H11.9598H11.9597H11.9596H11.9595H11.9594H11.9594H11.9593H11.9592H11.9591H11.959H11.9589H11.9588H11.9587H11.9586H11.9585H11.9584H11.9583H11.9582H11.9581H11.958H11.9579H11.9579H11.9578H11.9577H11.9576H11.9575H11.9574H11.9573H11.9572H11.9571H11.957H11.9569H11.9568H11.9567H11.9566H11.9565H11.9565H11.9564H11.9563H11.9562H11.9561H11.956H11.9559H11.9558H11.9557H11.9556H11.9555H11.9554H11.9553H11.9552H11.9551H11.9551H11.955H11.9549H11.9548H11.9547H11.9546H11.9545H11.9544H11.9543H11.9542H11.9541H11.954H11.9539H11.9538H11.9537H11.9537H11.9536H11.9535H11.9534H11.9533H11.9532H11.9531H11.953H11.9529H11.9528H11.9527H11.9526H11.9525H11.9524H11.9524H11.9523H11.9522H11.9521H11.952H11.9519H11.9518H11.9517H11.9516H11.9515H11.9514H11.9513H11.9512H11.9511H11.9511H11.951H11.9509H11.9508H11.9507H11.9506H11.9505H11.9504H11.9503H11.9502H11.9501H11.95H11.9499H11.9498H11.9497H11.9497H11.9496H11.9495H11.9494H11.9493H11.9492H11.9491H11.949H11.9489H11.9488H11.9487H11.9486H11.9485H11.9484H11.9484H11.9483H11.9482H11.9481H11.948H11.9479H11.9478H11.9477H11.9476H11.9475H11.9474H11.9473H11.9472H11.9472H11.9471H11.947H11.9469H11.9468H11.9467H11.9466H11.9465H11.9464H11.9463H11.9462H11.9461H11.946H11.9459H11.9459H11.9458H11.9457H11.9456H11.9455H11.9454H11.9453H11.9452H11.9451H11.945H11.9449H11.9448H11.9447H11.9446H11.9446H11.9445H11.9444H11.9443H11.9442H11.9441H11.944H11.9439H11.9438H11.9437H11.9436H11.9435H11.9434H11.9434H11.9433H11.9432H11.9431H11.943H11.9429H11.9428H11.9427H11.9426H11.9425H11.9424H11.9423H11.9422H11.9421H11.9421H11.942H11.9419H11.9418H11.9417H11.9416H11.9415H11.9414H11.9413H11.9412H11.9411H11.941H11.9409H11.9409H11.9408H11.9407H11.9406H11.9405H11.9404H11.9403H11.9402H11.9401H11.94H11.9399H11.9398H11.9397H11.9397H11.9396H11.9395H11.9394H11.9393H11.9392H11.9391H11.939H11.9389H11.9388H11.9387H11.9386H11.9385H11.9385H11.9384H11.9383H11.9382H11.9381H11.938H11.9379H11.9378H11.9377H11.9376H11.9375H11.9374H11.9373H11.9372H11.9372H11.9371H11.937H11.9369H11.9368H11.9367H11.9366H11.9365H11.9364H11.9363H11.9362H11.9361H11.936H11.936H11.9359H11.9358H11.9357H11.9356H11.9355H11.9354H11.9353H11.9352H11.9351H11.935H11.9349H11.9349M19.3997 4.31042C19.4 4.31057 19.4002 4.31072 19.4004 4.31088L19.6916 3.90446M19.3997 4.31042C19.3995 4.31028 19.3993 4.31013 19.3992 4.30999L19.6916 3.90446M19.3997 4.31042C19.3349 4.26423 19.2575 4.25506 19.1904 4.27945L19.1883 4.28019C19.0874 4.31634 17.4629 4.91131 15.79 6.15236L15.3346 6.49021L15.0564 5.99609C13.8537 3.85982 12.4593 2.59856 12.4083 2.5524L19.0197 3.80949M19.6916 3.90446C19.4957 3.76403 19.2457 3.72741 19.0197 3.80949M19.0197 3.80949C18.9067 3.84996 17.4768 4.37439 15.9012 5.45851C15.9101 5.47412 15.9189 5.48979 15.9278 5.5055L15.4921 5.75079L15.1942 5.34923C15.2089 5.33829 15.2237 5.32741 15.2384 5.31657C14.0384 3.33571 12.7532 2.18904 12.7291 2.16876M19.0197 3.80949L11.7993 2.16447M11.7993 2.16447C11.6958 2.24837 10.3233 3.39599 9.09279 5.44571C9.10631 5.45538 9.11985 5.46508 9.13341 5.47482L8.84164 5.88087L8.40433 5.63847C8.41283 5.62313 8.42135 5.60782 8.42988 5.59256C6.55622 4.31439 5.06911 3.7521 5.02826 3.73726M11.7993 2.16447C12.0716 1.94321 12.4598 1.94574 12.7291 2.16876M11.7993 2.16447L12.4075 2.55166M5.02826 3.73726C4.80477 3.65643 4.55325 3.68952 4.35754 3.82717M5.02826 3.73726L4.85822 4.20745C4.85805 4.20739 4.85788 4.20733 4.8577 4.20727M5.02826 3.73726L4.85752 4.2072L4.8577 4.20727M4.35754 3.82717C4.16158 3.96533 4.0442 4.19088 4.0432 4.43209L4.00015 12.8398M4.35754 3.82717L4.64519 4.23615C4.64527 4.23609 4.64535 4.23603 4.64543 4.23597M4.35754 3.82717L4.64565 4.23582C4.64558 4.23587 4.6455 4.23592 4.64543 4.23597M4.00015 12.8398C3.97788 17.3789 6.42252 21.9715 11.9337 22M4.00015 12.8398L4.50014 12.8424C4.48943 15.0296 5.07443 17.198 6.291 18.8102C7.49489 20.4055 9.33726 21.4861 11.9349 21.5M4.00015 12.8398L4.50014 12.8423L4.54319 4.43465L4.54319 4.43417C4.54353 4.35411 4.58249 4.28046 4.64543 4.23597M11.9337 22V21.5H11.9338H11.9339H11.934H11.9341H11.9342H11.9343H11.9344H11.9345H11.9346H11.9347H11.9348H11.9348H11.9349M11.9337 22L11.9363 21.5C11.9358 21.5 11.9354 21.5 11.9349 21.5M4.64543 4.23597C4.70728 4.19259 4.78757 4.1821 4.8577 4.20727M4.8577 4.20727C4.86264 4.20913 4.9674 4.24858 5.1538 4.32929C5.34391 4.4116 5.61681 4.53592 5.95228 4.70542C6.6236 5.0446 7.54308 5.56348 8.54987 6.28691L9.00642 6.61496L9.27896 6.12326C10.5246 3.87597 12.0334 2.61839 12.1142 2.55289L12.1147 2.55251C12.2006 2.48264 12.3217 2.48264 12.4075 2.55166M12.4075 2.55166C12.4084 2.55238 12.4093 2.55311 12.4102 2.55385L12.7291 2.16876M12.4075 2.55166C12.407 2.5512 12.4068 2.55101 12.4069 2.55112L12.7291 2.16876M11.9387 21.0143C13.0237 21.0205 14.0315 20.8225 14.9202 20.4143L15.2096 20.2814L15.2115 19.9629C15.2668 10.6363 8.35483 6.38878 5.72799 5.11287L5.01361 4.76588L5.00954 5.56006L4.97225 12.8446L4.97225 12.8447C4.96247 14.824 5.47528 16.8474 6.6114 18.3929C7.7602 19.9556 9.5288 21.0017 11.9387 21.0143ZM11.9387 21.0143L11.9415 20.5144M11.9387 21.0143C11.9387 21.0143 11.9388 21.0143 11.9389 21.0143L11.9415 20.5144M11.9415 20.5144C12.9641 20.5202 13.8981 20.3335 14.7115 19.9599L11.9415 20.5144ZM15.6641 19.008L15.7143 20.0872L16.5045 19.3505C16.776 19.0973 17.0287 18.8167 17.262 18.5101C18.3758 17.0477 18.9749 15.0557 18.9853 12.9157C18.9853 12.9156 18.9853 12.9156 18.9853 12.9155L19.0234 5.64632L19.0276 4.83891L18.3029 5.19493C16.8309 5.91807 14.0075 7.60283 12.9649 10.3838L12.8748 10.6243L13.0177 10.8376C14.4324 12.949 15.5073 15.6379 15.6641 19.008ZM12.0385 9.52356L12.521 10.109L12.8687 9.43465C13.337 8.52622 13.9796 7.74579 14.6824 7.07915L14.9598 6.81607L14.7786 6.47944C14.0109 5.05282 13.1382 3.99956 12.6121 3.43159L12.2563 3.04737L11.8889 3.42066C11.3255 3.9932 10.3911 5.0687 9.59157 6.5706L9.40126 6.92811L9.71146 7.18851C10.4953 7.84646 11.2927 8.61893 12.0385 9.52356Z" stroke="black" stroke-opacity="0.2"/>
<path d="M18.0306 19.1128C19.2604 17.4971 19.9444 15.2979 19.9559 12.9212L20 4.51368C20.0022 4.27171 19.8863 4.04489 19.6916 3.90446M18.0306 19.1128L17.6327 18.81C17.6327 18.81 17.6327 18.81 17.6327 18.81M18.0306 19.1128C16.592 21.0026 14.5013 22 11.9818 22H11.9337M18.0306 19.1128L17.6327 18.81M17.6327 18.81C18.7861 17.2947 19.4448 15.2061 19.4559 12.9187L19.4559 12.9185L19.5 4.51106L19.5 4.50902C19.5007 4.43052 19.4632 4.35648 19.3997 4.31042M17.6327 18.81C16.2953 20.5669 14.3563 21.5 11.9818 21.5H11.9817H11.9816H11.9815H11.9814H11.9813H11.9812H11.9811H11.981H11.9809H11.9808H11.9807H11.9806H11.9805H11.9804H11.9803H11.9802H11.9801H11.98H11.98H11.9799H11.9798H11.9797H11.9796H11.9795H11.9794H11.9793H11.9792H11.9791H11.979H11.9789H11.9788H11.9787H11.9786H11.9785H11.9784H11.9783H11.9782H11.9781H11.978H11.9779H11.9778H11.9777H11.9776H11.9775H11.9775H11.9774H11.9773H11.9772H11.9771H11.977H11.9769H11.9768H11.9767H11.9766H11.9765H11.9764H11.9763H11.9762H11.9761H11.976H11.9759H11.9758H11.9757H11.9756H11.9755H11.9754H11.9753H11.9752H11.9752H11.9751H11.975H11.9749H11.9748H11.9747H11.9746H11.9745H11.9744H11.9743H11.9742H11.9741H11.974H11.9739H11.9738H11.9737H11.9736H11.9735H11.9734H11.9733H11.9732H11.9731H11.973H11.973H11.9729H11.9728H11.9727H11.9726H11.9725H11.9724H11.9723H11.9722H11.9721H11.972H11.9719H11.9718H11.9717H11.9716H11.9715H11.9714H11.9713H11.9712H11.9711H11.971H11.971H11.9709H11.9708H11.9707H11.9706H11.9705H11.9704H11.9703H11.9702H11.9701H11.97H11.9699H11.9698H11.9697H11.9696H11.9695H11.9694H11.9693H11.9692H11.9692H11.9691H11.969H11.9689H11.9688H11.9687H11.9686H11.9685H11.9684H11.9683H11.9682H11.9681H11.968H11.9679H11.9678H11.9677H11.9676H11.9675H11.9674H11.9674H11.9673H11.9672H11.9671H11.967H11.9669H11.9668H11.9667H11.9666H11.9665H11.9664H11.9663H11.9662H11.9661H11.966H11.9659H11.9658H11.9657H11.9657H11.9656H11.9655H11.9654H11.9653H11.9652H11.9651H11.965H11.9649H11.9648H11.9647H11.9646H11.9645H11.9644H11.9643H11.9642H11.9641H11.964H11.964H11.9639H11.9638H11.9637H11.9636H11.9635H11.9634H11.9633H11.9632H11.9631H11.963H11.9629H11.9628H11.9627H11.9626H11.9625H11.9624H11.9624H11.9623H11.9622H11.9621H11.962H11.9619H11.9618H11.9617H11.9616H11.9615H11.9614H11.9613H11.9612H11.9611H11.961H11.9609H11.9609H11.9608H11.9607H11.9606H11.9605H11.9604H11.9603H11.9602H11.9601H11.96H11.9599H11.9598H11.9597H11.9596H11.9595H11.9594H11.9594H11.9593H11.9592H11.9591H11.959H11.9589H11.9588H11.9587H11.9586H11.9585H11.9584H11.9583H11.9582H11.9581H11.958H11.9579H11.9579H11.9578H11.9577H11.9576H11.9575H11.9574H11.9573H11.9572H11.9571H11.957H11.9569H11.9568H11.9567H11.9566H11.9565H11.9565H11.9564H11.9563H11.9562H11.9561H11.956H11.9559H11.9558H11.9557H11.9556H11.9555H11.9554H11.9553H11.9552H11.9551H11.9551H11.955H11.9549H11.9548H11.9547H11.9546H11.9545H11.9544H11.9543H11.9542H11.9541H11.954H11.9539H11.9538H11.9537H11.9537H11.9536H11.9535H11.9534H11.9533H11.9532H11.9531H11.953H11.9529H11.9528H11.9527H11.9526H11.9525H11.9524H11.9524H11.9523H11.9522H11.9521H11.952H11.9519H11.9518H11.9517H11.9516H11.9515H11.9514H11.9513H11.9512H11.9511H11.9511H11.951H11.9509H11.9508H11.9507H11.9506H11.9505H11.9504H11.9503H11.9502H11.9501H11.95H11.9499H11.9498H11.9497H11.9497H11.9496H11.9495H11.9494H11.9493H11.9492H11.9491H11.949H11.9489H11.9488H11.9487H11.9486H11.9485H11.9484H11.9484H11.9483H11.9482H11.9481H11.948H11.9479H11.9478H11.9477H11.9476H11.9475H11.9474H11.9473H11.9472H11.9472H11.9471H11.947H11.9469H11.9468H11.9467H11.9466H11.9465H11.9464H11.9463H11.9462H11.9461H11.946H11.9459H11.9459H11.9458H11.9457H11.9456H11.9455H11.9454H11.9453H11.9452H11.9451H11.945H11.9449H11.9448H11.9447H11.9446H11.9446H11.9445H11.9444H11.9443H11.9442H11.9441H11.944H11.9439H11.9438H11.9437H11.9436H11.9435H11.9434H11.9434H11.9433H11.9432H11.9431H11.943H11.9429H11.9428H11.9427H11.9426H11.9425H11.9424H11.9423H11.9422H11.9421H11.9421H11.942H11.9419H11.9418H11.9417H11.9416H11.9415H11.9414H11.9413H11.9412H11.9411H11.941H11.9409H11.9409H11.9408H11.9407H11.9406H11.9405H11.9404H11.9403H11.9402H11.9401H11.94H11.9399H11.9398H11.9397H11.9397H11.9396H11.9395H11.9394H11.9393H11.9392H11.9391H11.939H11.9389H11.9388H11.9387H11.9386H11.9385H11.9385H11.9384H11.9383H11.9382H11.9381H11.938H11.9379H11.9378H11.9377H11.9376H11.9375H11.9374H11.9373H11.9372H11.9372H11.9371H11.937H11.9369H11.9368H11.9367H11.9366H11.9365H11.9364H11.9363H11.9362H11.9361H11.936H11.936H11.9359H11.9358H11.9357H11.9356H11.9355H11.9354H11.9353H11.9352H11.9351H11.935H11.9349H11.9349M19.3997 4.31042C19.4 4.31057 19.4002 4.31072 19.4004 4.31088L19.6916 3.90446M19.3997 4.31042C19.3995 4.31028 19.3993 4.31013 19.3992 4.30999L19.6916 3.90446M19.3997 4.31042C19.3349 4.26423 19.2575 4.25506 19.1904 4.27945L19.1883 4.28019C19.0874 4.31634 17.4629 4.91131 15.79 6.15236L15.3346 6.49021L15.0564 5.99609C13.8537 3.85982 12.4593 2.59856 12.4083 2.5524L19.0197 3.80949M19.6916 3.90446C19.4957 3.76403 19.2457 3.72741 19.0197 3.80949M19.0197 3.80949C18.9067 3.84996 17.4768 4.37439 15.9012 5.45851C15.9101 5.47412 15.9189 5.48979 15.9278 5.5055L15.4921 5.75079L15.1942 5.34923C15.2089 5.33829 15.2237 5.32741 15.2384 5.31657C14.0384 3.33571 12.7532 2.18904 12.7291 2.16876M19.0197 3.80949L11.7993 2.16447M11.7993 2.16447C11.6958 2.24837 10.3233 3.39599 9.09279 5.44571C9.10631 5.45538 9.11985 5.46508 9.13341 5.47482L8.84164 5.88087L8.40433 5.63847C8.41283 5.62313 8.42135 5.60782 8.42988 5.59256C6.55622 4.31439 5.06911 3.7521 5.02826 3.73726M11.7993 2.16447C12.0716 1.94321 12.4598 1.94574 12.7291 2.16876M11.7993 2.16447L12.4075 2.55166M5.02826 3.73726C4.80477 3.65643 4.55325 3.68952 4.35754 3.82717M5.02826 3.73726L4.85822 4.20745C4.85805 4.20739 4.85788 4.20733 4.8577 4.20727M5.02826 3.73726L4.85752 4.2072L4.8577 4.20727M4.35754 3.82717C4.16158 3.96533 4.0442 4.19088 4.0432 4.43209L4.00015 12.8398M4.35754 3.82717L4.64519 4.23615C4.64527 4.23609 4.64535 4.23603 4.64543 4.23597M4.35754 3.82717L4.64565 4.23582C4.64558 4.23587 4.6455 4.23592 4.64543 4.23597M4.00015 12.8398C3.97788 17.3789 6.42252 21.9715 11.9337 22M4.00015 12.8398L4.50014 12.8424C4.48943 15.0296 5.07443 17.198 6.291 18.8102C7.49489 20.4055 9.33726 21.4861 11.9349 21.5M4.00015 12.8398L4.50014 12.8423L4.54319 4.43465L4.54319 4.43417C4.54353 4.35411 4.58249 4.28046 4.64543 4.23597M11.9337 22V21.5H11.9338H11.9339H11.934H11.9341H11.9342H11.9343H11.9344H11.9345H11.9346H11.9347H11.9348H11.9348H11.9349M11.9337 22L11.9363 21.5C11.9358 21.5 11.9354 21.5 11.9349 21.5M4.64543 4.23597C4.70728 4.19259 4.78757 4.1821 4.8577 4.20727M4.8577 4.20727C4.86264 4.20913 4.9674 4.24858 5.1538 4.32929C5.34391 4.4116 5.61681 4.53592 5.95228 4.70542C6.6236 5.0446 7.54308 5.56348 8.54987 6.28691L9.00642 6.61496L9.27896 6.12326C10.5246 3.87597 12.0334 2.61839 12.1142 2.55289L12.1147 2.55251C12.2006 2.48264 12.3217 2.48264 12.4075 2.55166M12.4075 2.55166C12.4084 2.55238 12.4093 2.55311 12.4102 2.55385L12.7291 2.16876M12.4075 2.55166C12.407 2.5512 12.4068 2.55101 12.4069 2.55112L12.7291 2.16876M11.9387 21.0143C13.0237 21.0205 14.0315 20.8225 14.9202 20.4143L15.2096 20.2814L15.2115 19.9629C15.2668 10.6363 8.35483 6.38878 5.72799 5.11287L5.01361 4.76588L5.00954 5.56006L4.97225 12.8446L4.97225 12.8447C4.96247 14.824 5.47528 16.8474 6.6114 18.3929C7.7602 19.9556 9.5288 21.0017 11.9387 21.0143ZM11.9387 21.0143L11.9415 20.5144M11.9387 21.0143C11.9387 21.0143 11.9388 21.0143 11.9389 21.0143L11.9415 20.5144M11.9415 20.5144C12.9641 20.5202 13.8981 20.3335 14.7115 19.9599L11.9415 20.5144ZM15.6641 19.008L15.7143 20.0872L16.5045 19.3505C16.776 19.0973 17.0287 18.8167 17.262 18.5101C18.3758 17.0477 18.9749 15.0557 18.9853 12.9157C18.9853 12.9156 18.9853 12.9156 18.9853 12.9155L19.0234 5.64632L19.0276 4.83891L18.3029 5.19493C16.8309 5.91807 14.0075 7.60283 12.9649 10.3838L12.8748 10.6243L13.0177 10.8376C14.4324 12.949 15.5073 15.6379 15.6641 19.008ZM12.0385 9.52356L12.521 10.109L12.8687 9.43465C13.337 8.52622 13.9796 7.74579 14.6824 7.07915L14.9598 6.81607L14.7786 6.47944C14.0109 5.05282 13.1382 3.99956 12.6121 3.43159L12.2563 3.04737L11.8889 3.42066C11.3255 3.9932 10.3911 5.0687 9.59157 6.5706L9.40126 6.92811L9.71146 7.18851C10.4953 7.84646 11.2927 8.61893 12.0385 9.52356Z" stroke="black" stroke-opacity="0.2"/>
<path d="M18.0306 19.1128C19.2604 17.4971 19.9444 15.2979 19.9559 12.9212L20 4.51368C20.0022 4.27171 19.8863 4.04489 19.6916 3.90446M18.0306 19.1128L17.6327 18.81C17.6327 18.81 17.6327 18.81 17.6327 18.81M18.0306 19.1128C16.592 21.0026 14.5013 22 11.9818 22H11.9337M18.0306 19.1128L17.6327 18.81M17.6327 18.81C18.7861 17.2947 19.4448 15.2061 19.4559 12.9187L19.4559 12.9185L19.5 4.51106L19.5 4.50902C19.5007 4.43052 19.4632 4.35648 19.3997 4.31042M17.6327 18.81C16.2953 20.5669 14.3563 21.5 11.9818 21.5H11.9817H11.9816H11.9815H11.9814H11.9813H11.9812H11.9811H11.981H11.9809H11.9808H11.9807H11.9806H11.9805H11.9804H11.9803H11.9802H11.9801H11.98H11.98H11.9799H11.9798H11.9797H11.9796H11.9795H11.9794H11.9793H11.9792H11.9791H11.979H11.9789H11.9788H11.9787H11.9786H11.9785H11.9784H11.9783H11.9782H11.9781H11.978H11.9779H11.9778H11.9777H11.9776H11.9775H11.9775H11.9774H11.9773H11.9772H11.9771H11.977H11.9769H11.9768H11.9767H11.9766H11.9765H11.9764H11.9763H11.9762H11.9761H11.976H11.9759H11.9758H11.9757H11.9756H11.9755H11.9754H11.9753H11.9752H11.9752H11.9751H11.975H11.9749H11.9748H11.9747H11.9746H11.9745H11.9744H11.9743H11.9742H11.9741H11.974H11.9739H11.9738H11.9737H11.9736H11.9735H11.9734H11.9733H11.9732H11.9731H11.973H11.973H11.9729H11.9728H11.9727H11.9726H11.9725H11.9724H11.9723H11.9722H11.9721H11.972H11.9719H11.9718H11.9717H11.9716H11.9715H11.9714H11.9713H11.9712H11.9711H11.971H11.971H11.9709H11.9708H11.9707H11.9706H11.9705H11.9704H11.9703H11.9702H11.9701H11.97H11.9699H11.9698H11.9697H11.9696H11.9695H11.9694H11.9693H11.9692H11.9692H11.9691H11.969H11.9689H11.9688H11.9687H11.9686H11.9685H11.9684H11.9683H11.9682H11.9681H11.968H11.9679H11.9678H11.9677H11.9676H11.9675H11.9674H11.9674H11.9673H11.9672H11.9671H11.967H11.9669H11.9668H11.9667H11.9666H11.9665H11.9664H11.9663H11.9662H11.9661H11.966H11.9659H11.9658H11.9657H11.9657H11.9656H11.9655H11.9654H11.9653H11.9652H11.9651H11.965H11.9649H11.9648H11.9647H11.9646H11.9645H11.9644H11.9643H11.9642H11.9641H11.964H11.964H11.9639H11.9638H11.9637H11.9636H11.9635H11.9634H11.9633H11.9632H11.9631H11.963H11.9629H11.9628H11.9627H11.9626H11.9625H11.9624H11.9624H11.9623H11.9622H11.9621H11.962H11.9619H11.9618H11.9617H11.9616H11.9615H11.9614H11.9613H11.9612H11.9611H11.961H11.9609H11.9609H11.9608H11.9607H11.9606H11.9605H11.9604H11.9603H11.9602H11.9601H11.96H11.9599H11.9598H11.9597H11.9596H11.9595H11.9594H11.9594H11.9593H11.9592H11.9591H11.959H11.9589H11.9588H11.9587H11.9586H11.9585H11.9584H11.9583H11.9582H11.9581H11.958H11.9579H11.9579H11.9578H11.9577H11.9576H11.9575H11.9574H11.9573H11.9572H11.9571H11.957H11.9569H11.9568H11.9567H11.9566H11.9565H11.9565H11.9564H11.9563H11.9562H11.9561H11.956H11.9559H11.9558H11.9557H11.9556H11.9555H11.9554H11.9553H11.9552H11.9551H11.9551H11.955H11.9549H11.9548H11.9547H11.9546H11.9545H11.9544H11.9543H11.9542H11.9541H11.954H11.9539H11.9538H11.9537H11.9537H11.9536H11.9535H11.9534H11.9533H11.9532H11.9531H11.953H11.9529H11.9528H11.9527H11.9526H11.9525H11.9524H11.9524H11.9523H11.9522H11.9521H11.952H11.9519H11.9518H11.9517H11.9516H11.9515H11.9514H11.9513H11.9512H11.9511H11.9511H11.951H11.9509H11.9508H11.9507H11.9506H11.9505H11.9504H11.9503H11.9502H11.9501H11.95H11.9499H11.9498H11.9497H11.9497H11.9496H11.9495H11.9494H11.9493H11.9492H11.9491H11.949H11.9489H11.9488H11.9487H11.9486H11.9485H11.9484H11.9484H11.9483H11.9482H11.9481H11.948H11.9479H11.9478H11.9477H11.9476H11.9475H11.9474H11.9473H11.9472H11.9472H11.9471H11.947H11.9469H11.9468H11.9467H11.9466H11.9465H11.9464H11.9463H11.9462H11.9461H11.946H11.9459H11.9459H11.9458H11.9457H11.9456H11.9455H11.9454H11.9453H11.9452H11.9451H11.945H11.9449H11.9448H11.9447H11.9446H11.9446H11.9445H11.9444H11.9443H11.9442H11.9441H11.944H11.9439H11.9438H11.9437H11.9436H11.9435H11.9434H11.9434H11.9433H11.9432H11.9431H11.943H11.9429H11.9428H11.9427H11.9426H11.9425H11.9424H11.9423H11.9422H11.9421H11.9421H11.942H11.9419H11.9418H11.9417H11.9416H11.9415H11.9414H11.9413H11.9412H11.9411H11.941H11.9409H11.9409H11.9408H11.9407H11.9406H11.9405H11.9404H11.9403H11.9402H11.9401H11.94H11.9399H11.9398H11.9397H11.9397H11.9396H11.9395H11.9394H11.9393H11.9392H11.9391H11.939H11.9389H11.9388H11.9387H11.9386H11.9385H11.9385H11.9384H11.9383H11.9382H11.9381H11.938H11.9379H11.9378H11.9377H11.9376H11.9375H11.9374H11.9373H11.9372H11.9372H11.9371H11.937H11.9369H11.9368H11.9367H11.9366H11.9365H11.9364H11.9363H11.9362H11.9361H11.936H11.936H11.9359H11.9358H11.9357H11.9356H11.9355H11.9354H11.9353H11.9352H11.9351H11.935H11.9349H11.9349M19.3997 4.31042C19.4 4.31057 19.4002 4.31072 19.4004 4.31088L19.6916 3.90446M19.3997 4.31042C19.3995 4.31028 19.3993 4.31013 19.3992 4.30999L19.6916 3.90446M19.3997 4.31042C19.3349 4.26423 19.2575 4.25506 19.1904 4.27945L19.1883 4.28019C19.0874 4.31634 17.4629 4.91131 15.79 6.15236L15.3346 6.49021L15.0564 5.99609C13.8537 3.85982 12.4593 2.59856 12.4083 2.5524L19.0197 3.80949M19.6916 3.90446C19.4957 3.76403 19.2457 3.72741 19.0197 3.80949M19.0197 3.80949C18.9067 3.84996 17.4768 4.37439 15.9012 5.45851C15.9101 5.47412 15.9189 5.48979 15.9278 5.5055L15.4921 5.75079L15.1942 5.34923C15.2089 5.33829 15.2237 5.32741 15.2384 5.31657C14.0384 3.33571 12.7532 2.18904 12.7291 2.16876M19.0197 3.80949L11.7993 2.16447M11.7993 2.16447C11.6958 2.24837 10.3233 3.39599 9.09279 5.44571C9.10631 5.45538 9.11985 5.46508 9.13341 5.47482L8.84164 5.88087L8.40433 5.63847C8.41283 5.62313 8.42135 5.60782 8.42988 5.59256C6.55622 4.31439 5.06911 3.7521 5.02826 3.73726M11.7993 2.16447C12.0716 1.94321 12.4598 1.94574 12.7291 2.16876M11.7993 2.16447L12.4075 2.55166M5.02826 3.73726C4.80477 3.65643 4.55325 3.68952 4.35754 3.82717M5.02826 3.73726L4.85822 4.20745C4.85805 4.20739 4.85788 4.20733 4.8577 4.20727M5.02826 3.73726L4.85752 4.2072L4.8577 4.20727M4.35754 3.82717C4.16158 3.96533 4.0442 4.19088 4.0432 4.43209L4.00015 12.8398M4.35754 3.82717L4.64519 4.23615C4.64527 4.23609 4.64535 4.23603 4.64543 4.23597M4.35754 3.82717L4.64565 4.23582C4.64558 4.23587 4.6455 4.23592 4.64543 4.23597M4.00015 12.8398C3.97788 17.3789 6.42252 21.9715 11.9337 22M4.00015 12.8398L4.50014 12.8424C4.48943 15.0296 5.07443 17.198 6.291 18.8102C7.49489 20.4055 9.33726 21.4861 11.9349 21.5M4.00015 12.8398L4.50014 12.8423L4.54319 4.43465L4.54319 4.43417C4.54353 4.35411 4.58249 4.28046 4.64543 4.23597M11.9337 22V21.5H11.9338H11.9339H11.934H11.9341H11.9342H11.9343H11.9344H11.9345H11.9346H11.9347H11.9348H11.9348H11.9349M11.9337 22L11.9363 21.5C11.9358 21.5 11.9354 21.5 11.9349 21.5M4.64543 4.23597C4.70728 4.19259 4.78757 4.1821 4.8577 4.20727M4.8577 4.20727C4.86264 4.20913 4.9674 4.24858 5.1538 4.32929C5.34391 4.4116 5.61681 4.53592 5.95228 4.70542C6.6236 5.0446 7.54308 5.56348 8.54987 6.28691L9.00642 6.61496L9.27896 6.12326C10.5246 3.87597 12.0334 2.61839 12.1142 2.55289L12.1147 2.55251C12.2006 2.48264 12.3217 2.48264 12.4075 2.55166M12.4075 2.55166C12.4084 2.55238 12.4093 2.55311 12.4102 2.55385L12.7291 2.16876M12.4075 2.55166C12.407 2.5512 12.4068 2.55101 12.4069 2.55112L12.7291 2.16876M11.9387 21.0143C13.0237 21.0205 14.0315 20.8225 14.9202 20.4143L15.2096 20.2814L15.2115 19.9629C15.2668 10.6363 8.35483 6.38878 5.72799 5.11287L5.01361 4.76588L5.00954 5.56006L4.97225 12.8446L4.97225 12.8447C4.96247 14.824 5.47528 16.8474 6.6114 18.3929C7.7602 19.9556 9.5288 21.0017 11.9387 21.0143ZM11.9387 21.0143L11.9415 20.5144M11.9387 21.0143C11.9387 21.0143 11.9388 21.0143 11.9389 21.0143L11.9415 20.5144M11.9415 20.5144C12.9641 20.5202 13.8981 20.3335 14.7115 19.9599L11.9415 20.5144ZM15.6641 19.008L15.7143 20.0872L16.5045 19.3505C16.776 19.0973 17.0287 18.8167 17.262 18.5101C18.3758 17.0477 18.9749 15.0557 18.9853 12.9157C18.9853 12.9156 18.9853 12.9156 18.9853 12.9155L19.0234 5.64632L19.0276 4.83891L18.3029 5.19493C16.8309 5.91807 14.0075 7.60283 12.9649 10.3838L12.8748 10.6243L13.0177 10.8376C14.4324 12.949 15.5073 15.6379 15.6641 19.008ZM12.0385 9.52356L12.521 10.109L12.8687 9.43465C13.337 8.52622 13.9796 7.74579 14.6824 7.07915L14.9598 6.81607L14.7786 6.47944C14.0109 5.05282 13.1382 3.99956 12.6121 3.43159L12.2563 3.04737L11.8889 3.42066C11.3255 3.9932 10.3911 5.0687 9.59157 6.5706L9.40126 6.92811L9.71146 7.18851C10.4953 7.84646 11.2927 8.61893 12.0385 9.52356Z" stroke="black" stroke-opacity="0.2"/>
</svg>
