<svg width="36" height="36" viewBox="0 0 36 36" fill="none" xmlns="http://www.w3.org/2000/svg">
<g clip-path="url(#clip0_2199_38055)">
<path d="M10.5469 0.5H25.4531C31.0019 0.5 35.5 4.99814 35.5 10.5469V25.4531C35.5 31.0019 31.0019 35.5 25.4531 35.5H10.5469C4.99814 35.5 0.5 31.0019 0.5 25.4531V10.5469C0.5 4.99814 4.99814 0.5 10.5469 0.5Z" fill="#C28BF9" stroke="#C28BF9"/>
<path d="M7.94783 18.6006L7.94832 18.6011L17.3983 28.051C17.3983 28.0511 17.3983 28.0511 17.3983 28.0511C17.5577 28.2104 17.7739 28.2999 17.9992 28.2999C18.2246 28.2999 18.4407 28.2104 18.6001 28.0511L7.94783 18.6006ZM7.94783 18.6006C7.86892 18.5219 7.80634 18.4284 7.76367 18.3255C7.72101 18.2225 7.6991 18.1121 7.69922 18.0007V18.0002V11.2502C7.69922 10.3087 8.07324 9.40572 8.73899 8.73997C9.40474 8.07421 10.3077 7.7002 11.2492 7.7002H17.9992C18.2173 7.7002 18.4342 7.78336 18.6001 7.9493L28.0501 17.3992C28.0501 17.3993 28.0501 17.3993 28.0501 17.3993C28.2094 17.5587 28.2989 17.7748 28.2989 18.0002C28.2989 18.2256 28.2094 18.4417 28.0501 18.6011C28.0501 18.6011 28.0501 18.6011 28.0501 18.6011L18.6002 28.051L7.94783 18.6006ZM11.2492 13.1002C11.7399 13.1002 12.2104 12.9053 12.5574 12.5583C12.9043 12.2114 13.0992 11.7408 13.0992 11.2502C13.0992 10.7595 12.9043 10.289 12.5574 9.94205C12.2104 9.59511 11.7399 9.4002 11.2492 9.4002C10.7586 9.4002 10.288 9.59511 9.94107 9.94205C9.59413 10.289 9.39922 10.7595 9.39922 11.2502C9.39922 11.7408 9.59413 12.2114 9.94107 12.5583C10.288 12.9053 10.7586 13.1002 11.2492 13.1002Z" fill="white" stroke="white"/>
</g>
<defs>
<clipPath id="clip0_2199_38055">
<rect width="36" height="36" fill="white"/>
</clipPath>
</defs>
</svg>
