<svg width="17" height="16" viewBox="0 0 17 16" fill="none" xmlns="http://www.w3.org/2000/svg">
<path d="M10.9 4.7999C10.9 5.43642 10.6471 6.04687 10.197 6.49696C9.74696 6.94705 9.13651 7.1999 8.49999 7.1999C7.86347 7.1999 7.25302 6.94705 6.80293 6.49696C6.35284 6.04687 6.09999 5.43642 6.09999 4.7999C6.09999 4.16338 6.35284 3.55293 6.80293 3.10285C7.25302 2.65276 7.86347 2.3999 8.49999 2.3999C9.13651 2.3999 9.74696 2.65276 10.197 3.10285C10.6471 3.55293 10.9 4.16338 10.9 4.7999ZM14.9 6.3999C14.9 6.82425 14.7314 7.23122 14.4314 7.53127C14.1313 7.83133 13.7243 7.9999 13.3 7.9999C12.8756 7.9999 12.4687 7.83133 12.1686 7.53127C11.8686 7.23122 11.7 6.82425 11.7 6.3999C11.7 5.97556 11.8686 5.56859 12.1686 5.26853C12.4687 4.96847 12.8756 4.7999 13.3 4.7999C13.7243 4.7999 14.1313 4.96847 14.4314 5.26853C14.7314 5.56859 14.9 5.97556 14.9 6.3999ZM11.7 11.9999C11.7 11.1512 11.3628 10.3373 10.7627 9.73716C10.1626 9.13704 9.34868 8.7999 8.49999 8.7999C7.65129 8.7999 6.83736 9.13704 6.23725 9.73716C5.63713 10.3373 5.29999 11.1512 5.29999 11.9999V14.3999H11.7V11.9999ZM5.29999 6.3999C5.29999 6.82425 5.13142 7.23122 4.83136 7.53127C4.5313 7.83133 4.12433 7.9999 3.69999 7.9999C3.27564 7.9999 2.86868 7.83133 2.56862 7.53127C2.26856 7.23122 2.09999 6.82425 2.09999 6.3999C2.09999 5.97556 2.26856 5.56859 2.56862 5.26853C2.86868 4.96847 3.27564 4.7999 3.69999 4.7999C4.12433 4.7999 4.5313 4.96847 4.83136 5.26853C5.13142 5.56859 5.29999 5.97556 5.29999 6.3999ZM13.3 14.3999V11.9999C13.3011 11.1865 13.0946 10.3863 12.7 9.6751C13.0547 9.58434 13.4254 9.57578 13.7839 9.65008C14.1424 9.72438 14.4791 9.87958 14.7685 10.1038C15.0579 10.3281 15.2923 10.6155 15.4537 10.9441C15.6151 11.2727 15.6994 11.6338 15.7 11.9999V14.3999H13.3ZM4.29999 9.6751C3.90539 10.3863 3.69887 11.1865 3.69999 11.9999V14.3999H1.29999V11.9999C1.29983 11.6335 1.38356 11.272 1.54475 10.943C1.70593 10.614 1.9403 10.3262 2.22989 10.1018C2.51949 9.87742 2.85661 9.72228 3.21544 9.64832C3.57426 9.57435 3.94525 9.58351 4.29999 9.6751Z" fill="#4B84F7"/>
</svg>
