<svg width="24" height="24" viewBox="0 0 24 24" fill="none" xmlns="http://www.w3.org/2000/svg">
<path d="M10.8002 7.19961C10.8002 8.15439 10.4209 9.07006 9.74578 9.74519C9.07065 10.4203 8.15497 10.7996 7.20019 10.7996C6.24542 10.7996 5.32974 10.4203 4.65461 9.74519C3.97948 9.07006 3.6002 8.15439 3.6002 7.19961C3.6002 6.24483 3.97948 5.32916 4.65461 4.65402C5.32974 3.97889 6.24542 3.59961 7.20019 3.59961C8.15497 3.59961 9.07065 3.97889 9.74578 4.65402C10.4209 5.32916 10.8002 6.24483 10.8002 7.19961ZM20.4002 7.19961C20.4002 7.67237 20.3071 8.1405 20.1262 8.57727C19.9452 9.01404 19.6801 9.4109 19.3458 9.74519C19.0115 10.0795 18.6146 10.3447 18.1779 10.5256C17.7411 10.7065 17.273 10.7996 16.8002 10.7996C16.3274 10.7996 15.8593 10.7065 15.4225 10.5256C14.9858 10.3447 14.5889 10.0795 14.2546 9.74519C13.9203 9.4109 13.6551 9.01404 13.4742 8.57727C13.2933 8.1405 13.2002 7.67237 13.2002 7.19961C13.2002 6.24483 13.5795 5.32916 14.2546 4.65402C14.9297 3.97889 15.8454 3.59961 16.8002 3.59961C17.755 3.59961 18.6706 3.97889 19.3458 4.65402C20.0209 5.32916 20.4002 6.24483 20.4002 7.19961ZM15.5162 20.3996C15.5714 20.0072 15.6002 19.6076 15.6002 19.1996C15.603 17.3142 14.9687 15.4832 13.8002 14.0036C14.7123 13.477 15.7469 13.1998 16.8002 13.1998C17.8534 13.1998 18.888 13.477 19.8001 14.0036C20.7122 14.5302 21.4697 15.2876 21.9963 16.1997C22.5229 17.1118 22.8002 18.1464 22.8002 19.1996V20.3996H15.5162ZM7.20019 13.1996C8.79149 13.1996 10.3176 13.8317 11.4428 14.957C12.5681 16.0822 13.2002 17.6083 13.2002 19.1996V20.3996H1.2002V19.1996C1.2002 17.6083 1.83234 16.0822 2.95755 14.957C4.08277 13.8317 5.6089 13.1996 7.20019 13.1996Z" fill="#6E6E6E"/>
</svg>
