<svg width="72" height="72" viewBox="0 0 72 72" fill="none" xmlns="http://www.w3.org/2000/svg">
    <rect width="72" height="72" rx="36" fill="#20C17C"/>
    <path d="M38.0449 22.875L29.0449 22.875C23.9149 22.875 21.9199 24.87 21.9199 30L21.9199 42C21.9199 45.45 23.7949 49.125 29.0449 49.125H38.0449C43.1749 49.125 45.1699 47.13 45.1699 42V30C45.1699 24.87 43.1749 22.875 38.0449 22.875Z" fill="white"/>
    <path d="M35.7946 35.0697C37.3521 35.0697 38.6146 33.8071 38.6146 32.2497C38.6146 30.6922 37.3521 29.4297 35.7946 29.4297C34.2372 29.4297 32.9746 30.6922 32.9746 32.2497C32.9746 33.8071 34.2372 35.0697 35.7946 35.0697Z" fill="white"/>
    <path d="M51.0206 27.2554C50.4056 26.9404 49.1156 26.5804 47.3606 27.8104L45.1406 29.3704C45.1556 29.5804 45.1706 29.7754 45.1706 30.0004V42.0004C45.1706 42.2254 45.1406 42.4204 45.1406 42.6304L47.3606 44.1904C48.2906 44.8504 49.1006 45.0604 49.7456 45.0604C50.3006 45.0604 50.7356 44.9104 51.0206 44.7604C51.6356 44.4454 52.6706 43.5904 52.6706 41.4454V30.5704C52.6706 28.4254 51.6356 27.5704 51.0206 27.2554Z" fill="white"/>
</svg>
