<svg width="36" height="36" viewBox="0 0 36 36" fill="none" xmlns="http://www.w3.org/2000/svg">
<g clip-path="url(#clip0_3046_50919)">
<path d="M10.5469 0.5H25.4531C31.0019 0.5 35.5 4.99814 35.5 10.5469V25.4531C35.5 31.0019 31.0019 35.5 25.4531 35.5H10.5469C4.99814 35.5 0.5 31.0019 0.5 25.4531V10.5469C0.5 4.99814 4.99814 0.5 10.5469 0.5Z" fill="#4B84F7" stroke="#4B84F7"/>
<path d="M18 29.25C24.2132 29.25 29.25 24.2132 29.25 18C29.25 11.7868 24.2132 6.75 18 6.75C11.7868 6.75 6.75 11.7868 6.75 18C6.75 24.2132 11.7868 29.25 18 29.25Z" fill="white"/>
<path d="M14.7383 18.0004V16.3354C14.7383 14.1867 16.257 13.3204 18.1133 14.3892L19.5533 15.2217L20.9933 16.0542C22.8495 17.1229 22.8495 18.8779 20.9933 19.9467L19.5533 20.7792L18.1133 21.6117C16.257 22.6804 14.7383 21.8029 14.7383 19.6654V18.0004Z" fill="#4B84F7"/>
</g>
<defs>
<clipPath id="clip0_3046_50919">
<rect width="36" height="36" fill="white"/>
</clipPath>
</defs>
</svg>
