<svg width="72" height="72" viewBox="0 0 72 72" fill="none" xmlns="http://www.w3.org/2000/svg">
    <rect width="72" height="72" rx="36" fill="white" fill-opacity="0.2"/>
    <g clip-path="url(#clip0_2329_37568)">
        <defs>
            <clipPath id="clip0_2329_37568">
                <rect width="36" height="36" fill="white" transform="translate(18 18)"/>
            </clipPath>
        </defs>
        <path d="M37.5 22.875H28.5C23.37 22.875 21.375 24.87 21.375 30V42C21.375 45.45 23.25 49.125 28.5 49.125H37.5C42.63 49.125 44.625 47.13 44.625 42V30C44.625 24.87 42.63 22.875 37.5 22.875Z" fill="white"/>
        <path d="M35.2497 35.0697C36.8071 35.0697 38.0697 33.8071 38.0697 32.2497C38.0697 30.6922 36.8071 29.4297 35.2497 29.4297C33.6922 29.4297 32.4297 30.6922 32.4297 32.2497C32.4297 33.8071 33.6922 35.0697 35.2497 35.0697Z" fill="white"/>
        <path d="M50.4757 27.2554C49.8607 26.9404 48.5707 26.5804 46.8157 27.8104L44.5957 29.3704C44.6107 29.5804 44.6257 29.7754 44.6257 30.0004V42.0004C44.6257 42.2254 44.5957 42.4204 44.5957 42.6304L46.8157 44.1904C47.7457 44.8504 48.5557 45.0604 49.2007 45.0604C49.7557 45.0604 50.1907 44.9104 50.4757 44.7604C51.0907 44.4454 52.1257 43.5904 52.1257 41.4454V30.5704C52.1257 28.4254 51.0907 27.5704 50.4757 27.2554Z" fill="white"/>
    </g>
</svg>
