<svg width="73" height="72" viewBox="0 0 73 72" fill="none" xmlns="http://www.w3.org/2000/svg">
    <rect x="0.5" width="72" height="72" rx="36" fill="white" fill-opacity="0.2"/>
    <path fill-rule="evenodd" clip-rule="evenodd" d="M35.3902 23.5377C35.719 23.674 36 23.9048 36.1977 24.2009C36.3954 24.4969 36.5009 24.8449 36.5008 25.2009V46.8009C36.5007 47.1569 36.3951 47.5048 36.1973 47.8007C35.9995 48.0967 35.7184 48.3273 35.3896 48.4635C35.0607 48.5997 34.6988 48.6354 34.3497 48.566C34.0006 48.4965 33.6799 48.3252 33.4282 48.0735L26.7556 41.4009H22.1008C21.6234 41.4009 21.1656 41.2113 20.828 40.8737C20.4904 40.5361 20.3008 40.0783 20.3008 39.6009V32.4009C20.3008 31.9235 20.4904 31.4657 20.828 31.1281C21.1656 30.7906 21.6234 30.6009 22.1008 30.6009H26.7556L33.4282 23.9283C33.6799 23.6764 34.0007 23.5049 34.3499 23.4353C34.6992 23.3658 35.0612 23.4014 35.3902 23.5377ZM44.8834 23.2731C45.2209 22.9357 45.6787 22.7461 46.156 22.7461C46.6333 22.7461 47.091 22.9357 47.4286 23.2731C49.1023 24.9429 50.4296 26.9268 51.3344 29.1111C52.2391 31.2953 52.7035 33.6367 52.7008 36.0009C52.7035 38.3651 52.2391 40.7065 51.3344 42.8908C50.4296 45.075 49.1023 47.0589 47.4286 48.7287C47.0891 49.0566 46.6344 49.238 46.1625 49.2339C45.6905 49.2298 45.239 49.0405 44.9053 48.7068C44.5716 48.3731 44.3823 47.9216 44.3782 47.4496C44.3741 46.9777 44.5555 46.523 44.8834 46.1835C46.2228 44.848 47.285 43.2608 48.0088 41.5133C48.7326 39.7658 49.1037 37.8924 49.1008 36.0009C49.1008 32.0229 47.4916 28.4265 44.8834 25.8183C44.5459 25.4808 44.3564 25.023 44.3564 24.5457C44.3564 24.0684 44.5459 23.6107 44.8834 23.2731ZM39.7912 28.3635C39.9584 28.1962 40.1569 28.0634 40.3754 27.9728C40.5939 27.8822 40.8281 27.8356 41.0647 27.8356C41.3012 27.8356 41.5355 27.8822 41.754 27.9728C41.9725 28.0634 42.171 28.1962 42.3382 28.3635C43.3424 29.3655 44.1387 30.556 44.6814 31.8667C45.2242 33.1773 45.5026 34.5823 45.5008 36.0009C45.5025 37.4195 45.224 38.8244 44.6813 40.1351C44.1386 41.4457 43.3423 42.6363 42.3382 43.6383C42.0004 43.9761 41.5423 44.1658 41.0647 44.1658C40.587 44.1658 40.1289 43.9761 39.7912 43.6383C39.4534 43.3006 39.2637 42.8425 39.2637 42.3648C39.2637 41.8872 39.4534 41.4291 39.7912 41.0913C40.4611 40.4238 40.9924 39.6304 41.3544 38.7568C41.7165 37.8832 41.9022 36.9466 41.9008 36.0009C41.9023 35.0552 41.7166 34.1186 41.3546 33.2449C40.9925 32.3713 40.4612 31.5779 39.7912 30.9105C39.6238 30.7433 39.4911 30.5448 39.4005 30.3263C39.3099 30.1078 39.2633 29.8736 39.2633 29.637C39.2633 29.4005 39.3099 29.1662 39.4005 28.9477C39.4911 28.7292 39.6238 28.5307 39.7912 28.3635Z" fill="white"/>
</svg>
