<svg width="24" height="25" viewBox="0 0 24 25" fill="none" xmlns="http://www.w3.org/2000/svg">
<g clip-path="url(#clip0_3498_18908)">
<path d="M7.03125 1.00024H16.9688C20.5759 1.00024 23.5 3.92438 23.5 7.53149V17.469C23.5 21.0761 20.5759 24.0002 16.9688 24.0002H7.03125C3.42414 24.0002 0.5 21.0761 0.5 17.469V7.53149C0.5 3.92438 3.42414 1.00024 7.03125 1.00024Z" fill="#4AC957" stroke="#4AC957"/>
<path fill-rule="evenodd" clip-rule="evenodd" d="M6.6002 5.30029C6.83889 5.30029 7.06781 5.39511 7.23659 5.5639C7.40537 5.73268 7.5002 5.9616 7.5002 6.20029V8.09119C8.24903 7.32734 9.17998 6.76667 10.2054 6.462C11.2307 6.15733 12.3168 6.11868 13.3612 6.3497C14.4057 6.58072 15.3741 7.0738 16.1754 7.78249C16.9766 8.49119 17.5843 9.39218 17.9411 10.4006C17.9844 10.5129 18.0047 10.6327 18.0009 10.753C17.9971 10.8733 17.9692 10.9915 17.9188 11.1008C17.8685 11.2102 17.7967 11.3082 17.7078 11.3893C17.6189 11.4704 17.5146 11.5329 17.4012 11.573C17.2877 11.613 17.1674 11.63 17.0472 11.6227C16.9271 11.6155 16.8097 11.5842 16.7018 11.5308C16.594 11.4774 16.498 11.4029 16.4194 11.3117C16.3409 11.2206 16.2814 11.1145 16.2446 11C15.9729 10.2321 15.498 9.55236 14.8705 9.03311C14.2429 8.51387 13.4863 8.17461 12.6811 8.05149C11.876 7.92836 11.0525 8.02599 10.2984 8.33396C9.5444 8.64193 8.88803 9.14871 8.3993 9.80029H11.1002C11.3389 9.80029 11.5678 9.89511 11.7366 10.0639C11.9054 10.2327 12.0002 10.4616 12.0002 10.7003C12.0002 10.939 11.9054 11.1679 11.7366 11.3367C11.5678 11.5055 11.3389 11.6003 11.1002 11.6003H6.6002C6.3615 11.6003 6.13258 11.5055 5.9638 11.3367C5.79502 11.1679 5.7002 10.939 5.7002 10.7003V6.20029C5.7002 5.9616 5.79502 5.73268 5.9638 5.5639C6.13258 5.39511 6.3615 5.30029 6.6002 5.30029ZM6.6074 13.4516C6.71885 13.4122 6.83696 13.3952 6.955 13.4015C7.07303 13.4078 7.18867 13.4372 7.29531 13.4882C7.40195 13.5392 7.4975 13.6107 7.57651 13.6986C7.65553 13.7865 7.71644 13.8891 7.7558 14.0006C8.02747 14.7685 8.50239 15.4482 9.12993 15.9675C9.75748 16.4867 10.5141 16.826 11.3193 16.9491C12.1244 17.0722 12.9479 16.9746 13.702 16.6666C14.456 16.3587 15.1124 15.8519 15.6011 15.2003H12.9002C12.6615 15.2003 12.4326 15.1055 12.2638 14.9367C12.095 14.7679 12.0002 14.539 12.0002 14.3003C12.0002 14.0616 12.095 13.8327 12.2638 13.6639C12.4326 13.4951 12.6615 13.4003 12.9002 13.4003H17.4002C17.6389 13.4003 17.8678 13.4951 18.0366 13.6639C18.2054 13.8327 18.3002 14.0616 18.3002 14.3003V18.8003C18.3002 19.039 18.2054 19.2679 18.0366 19.4367C17.8678 19.6055 17.6389 19.7003 17.4002 19.7003C17.1615 19.7003 16.9326 19.6055 16.7638 19.4367C16.595 19.2679 16.5002 19.039 16.5002 18.8003V16.9094C15.7514 17.6732 14.8204 18.2339 13.795 18.5386C12.7696 18.8433 11.6836 18.8819 10.6391 18.6509C9.5947 18.4199 8.62625 17.9268 7.82501 17.2181C7.02378 16.5094 6.41613 15.6084 6.0593 14.6C6.01993 14.4885 6.0029 14.3704 6.00919 14.2524C6.01548 14.1344 6.04495 14.0187 6.09593 13.9121C6.14691 13.8054 6.2184 13.7099 6.30631 13.6309C6.39422 13.5519 6.49684 13.4909 6.6083 13.4516H6.6074Z" fill="white"/>
</g>
<defs>
<clipPath id="clip0_3498_18908">
<rect width="24" height="24" fill="white" transform="translate(0 0.500244)"/>
</clipPath>
</defs>
</svg>
