<svg width="72" height="72" viewBox="0 0 72 72" fill="none" xmlns="http://www.w3.org/2000/svg">
    <rect width="72" height="72" rx="36" fill="white" fill-opacity="0.2"/>
    <path fill-rule="evenodd" clip-rule="evenodd" d="M23.3622 27.1485C23.0031 28.0584 22.8379 29.1994 22.8379 30.6V41.4C22.8379 44.505 24.5254 47.8125 29.2504 47.8125H37.3504C39.8975 47.8125 41.5859 47.266 42.5878 46.0008L23.3622 27.1485ZM48.3711 44.1088C48.6411 44.0579 48.8624 43.971 49.0276 43.884C49.5811 43.6005 50.5126 42.831 50.5126 40.9005V31.113C50.5126 29.1825 49.5811 28.413 49.0276 28.1295C48.4741 27.846 47.3131 27.522 45.7336 28.629L43.7529 30.0209C43.6035 25.8321 41.7692 24.1875 37.3504 24.1875H29.2504C28.8449 24.1875 28.4611 24.2014 28.0984 24.2297L48.3711 44.1088Z" fill="white"/>
    <path d="M21.086 23.6313C20.3762 22.9353 20.365 21.7957 21.061 21.0859C21.7571 20.3761 22.8967 20.3649 23.6065 21.0609L50.5959 47.5263C51.3057 48.2223 51.3168 49.3619 50.6208 50.0718C49.9248 50.7816 48.7851 50.7927 48.0753 50.0967L21.086 23.6313Z" fill="white"/>
</svg>
