<svg width="38" height="38" viewBox="0 0 38 38" fill="none" xmlns="http://www.w3.org/2000/svg">
<g filter="url(#filter0_bi_2714_50785)">
<circle cx="18.9629" cy="18.999" r="18" fill="black" fill-opacity="0.25"/>
<circle cx="18.9629" cy="18.999" r="18.2872" stroke="url(#paint0_linear_2714_50785)" stroke-opacity="0.2" stroke-width="0.574359"/>
</g>
<path d="M17.2405 22.4457V16.7021L16.0918 17.7791" stroke="white" stroke-opacity="0.8" stroke-width="0.861538" stroke-linecap="round" stroke-linejoin="round"/>
<path d="M19.5371 22.0869C19.8371 22.3122 20.21 22.4457 20.614 22.4457C21.6053 22.4457 22.4089 21.6421 22.4089 20.6509C22.4089 19.6596 21.6053 18.856 20.614 18.856C20.21 18.856 19.8371 18.9895 19.5371 19.2148L19.8961 16.7021H22.4089" stroke="white" stroke-opacity="0.8" stroke-width="0.861538" stroke-linecap="round" stroke-linejoin="round"/>
<path d="M24.4468 13.4972C27.6947 16.506 27.8724 21.5607 24.8437 24.7873C21.815 28.0138 16.7268 28.1903 13.479 25.1815C10.2311 22.1727 10.0534 17.118 13.0821 13.8914C14.8048 12.0562 17.1939 11.2077 19.5316 11.3709M18.3885 9.52246L20.4366 11.4625L18.3885 13.543" stroke="white" stroke-opacity="0.8" stroke-width="1.4359" stroke-linecap="round" stroke-linejoin="round"/>
<defs>
<filter id="filter0_bi_2714_50785" x="-11.0985" y="-11.0624" width="60.1228" height="60.1228" filterUnits="userSpaceOnUse" color-interpolation-filters="sRGB">
<feFlood flood-opacity="0" result="BackgroundImageFix"/>
<feGaussianBlur in="BackgroundImageFix" stdDeviation="5.74359"/>
<feComposite in2="SourceAlpha" operator="in" result="effect1_backgroundBlur_2714_50785"/>
<feBlend mode="normal" in="SourceGraphic" in2="effect1_backgroundBlur_2714_50785" result="shape"/>
<feColorMatrix in="SourceAlpha" type="matrix" values="0 0 0 0 0 0 0 0 0 0 0 0 0 0 0 0 0 0 127 0" result="hardAlpha"/>
<feMorphology radius="0.838824" operator="dilate" in="SourceAlpha" result="effect2_innerShadow_2714_50785"/>
<feOffset dx="-0.419412" dy="0.419412"/>
<feGaussianBlur stdDeviation="0.209706"/>
<feComposite in2="hardAlpha" operator="arithmetic" k2="-1" k3="1"/>
<feColorMatrix type="matrix" values="0 0 0 0 1 0 0 0 0 1 0 0 0 0 1 0 0 0 0.35 0"/>
<feBlend mode="normal" in2="shape" result="effect2_innerShadow_2714_50785"/>
</filter>
<linearGradient id="paint0_linear_2714_50785" x1="32.7532" y1="3.46677" x2="18.9629" y2="36.999" gradientUnits="userSpaceOnUse">
<stop stop-color="white"/>
<stop offset="1" stop-color="white" stop-opacity="0"/>
</linearGradient>
</defs>
</svg>
