<svg width="25" height="24" viewBox="0 0 25 24" fill="none" xmlns="http://www.w3.org/2000/svg">
<path d="M12.4707 2C6.9507 2 2.4707 6.48 2.4707 12C2.4707 17.52 6.9507 22 12.4707 22C17.9907 22 22.4707 17.52 22.4707 12C22.4707 6.48 18.0007 2 12.4707 2ZM15.4707 14.23L12.5707 15.9C12.2107 16.11 11.8107 16.21 11.4207 16.21C11.0207 16.21 10.6307 16.11 10.2707 15.9C9.5507 15.48 9.1207 14.74 9.1207 13.9V10.55C9.1207 9.72 9.5507 8.97 10.2707 8.55C10.9907 8.13 11.8507 8.13 12.5807 8.55L15.4807 10.22C16.2007 10.64 16.6307 11.38 16.6307 12.22C16.6307 13.06 16.2007 13.81 15.4707 14.23Z" fill="#4B84F7"/>
</svg>
