<svg width="30" height="30" viewBox="0 0 30 30" fill="none" xmlns="http://www.w3.org/2000/svg">
<path d="M16.25 4.0625H8.75C4.475 4.0625 2.8125 5.725 2.8125 10V20C2.8125 22.875 4.375 25.9375 8.75 25.9375H16.25C20.525 25.9375 22.1875 24.275 22.1875 20V10C22.1875 5.725 20.525 4.0625 16.25 4.0625Z" fill="white"/>
<path d="M14.375 14.225C15.6729 14.225 16.725 13.1729 16.725 11.875C16.725 10.5772 15.6729 9.52502 14.375 9.52502C13.0771 9.52502 12.025 10.5772 12.025 11.875C12.025 13.1729 13.0771 14.225 14.375 14.225Z" fill="#B4D2FF"/>
<path d="M27.0625 7.71251C26.55 7.45001 25.475 7.15001 24.0125 8.17501L22.1625 9.47501C22.175 9.65001 22.1875 9.81251 22.1875 10V20C22.1875 20.1875 22.1625 20.35 22.1625 20.525L24.0125 21.825C24.7875 22.375 25.4625 22.55 26 22.55C26.4625 22.55 26.825 22.425 27.0625 22.3C27.575 22.0375 28.4375 21.325 28.4375 19.5375V10.475C28.4375 8.68751 27.575 7.97501 27.0625 7.71251Z" fill="#B4D2FF"/>
</svg>
