<svg width="30" height="30" viewBox="0 0 30 30" fill="none" xmlns="http://www.w3.org/2000/svg">
<g filter="url(#filter0_bi_2714_51420)">
<ellipse cx="14.5742" cy="14.7832" rx="14" ry="14" fill="black" fill-opacity="0.25"/>
<path d="M14.5742 29.0704C22.4648 29.0704 28.8614 22.6738 28.8614 14.7832C28.8614 6.89261 22.4648 0.496024 14.5742 0.496024C6.68362 0.496024 0.287039 6.89261 0.287039 14.7832C0.287039 22.6738 6.68362 29.0704 14.5742 29.0704Z" stroke="url(#paint0_linear_2714_51420)" stroke-opacity="0.2" stroke-width="0.574359"/>
</g>
<path fill-rule="evenodd" clip-rule="evenodd" d="M15.452 12.2233C15.4268 11.9802 15.4006 11.7279 15.3361 11.4761C15.1605 10.8738 14.6739 10.4981 14.1522 10.4981C13.8613 10.497 13.4932 10.6763 13.2845 10.8577L11.5549 12.3065H10.6494C9.98303 12.3065 9.44719 12.8202 9.346 13.5616C9.26002 14.2734 9.23905 15.617 9.346 16.4002C9.4388 17.1834 9.95052 17.6896 10.6494 17.6896H11.5549L13.3181 19.1599C13.499 19.3171 13.8183 19.4975 14.1119 19.4975C14.1308 19.498 14.1475 19.498 14.1643 19.498C14.6959 19.498 15.1641 19.1083 15.3398 18.5076C15.406 18.2537 15.4292 18.0157 15.4516 17.7856L15.452 17.7814L15.4756 17.5521C15.5658 16.8087 15.5658 13.1826 15.4756 12.4445L15.452 12.2233ZM17.4766 12.2456C17.3325 12.033 17.0467 11.9798 16.8375 12.1275C16.6304 12.2762 16.579 12.5693 16.7232 12.7813C17.1243 13.3723 17.345 14.1593 17.345 14.9983C17.345 15.8368 17.1243 16.6242 16.7232 17.2153C16.579 17.4273 16.6304 17.7204 16.838 17.8691C16.9156 17.9238 17.0063 17.9528 17.0997 17.9528C17.2501 17.9528 17.3907 17.8771 17.4766 17.751C17.9831 17.0048 18.2626 16.0273 18.2626 14.9983C18.2626 13.9692 17.9831 12.9917 17.4766 12.2456ZM18.4183 10.6086C18.6269 10.4605 18.9137 10.5147 19.0569 10.7267C19.8412 11.8814 20.2732 13.3989 20.2732 14.9981C20.2732 16.5983 19.8412 18.1153 19.0569 19.2699C18.9714 19.3961 18.8304 19.4718 18.6799 19.4718C18.5866 19.4718 18.4964 19.4428 18.4188 19.388C18.2112 19.2393 18.1598 18.9468 18.3034 18.7342C18.9819 17.7347 19.3557 16.4077 19.3557 14.9981C19.3557 13.589 18.9819 12.262 18.3034 11.2625C18.1598 11.0504 18.2112 10.7573 18.4183 10.6086Z" fill="white"/>
<defs>
<filter id="filter0_bi_2714_51420" x="-11.4872" y="-11.2782" width="52.1228" height="52.1228" filterUnits="userSpaceOnUse" color-interpolation-filters="sRGB">
<feFlood flood-opacity="0" result="BackgroundImageFix"/>
<feGaussianBlur in="BackgroundImageFix" stdDeviation="5.74359"/>
<feComposite in2="SourceAlpha" operator="in" result="effect1_backgroundBlur_2714_51420"/>
<feBlend mode="normal" in="SourceGraphic" in2="effect1_backgroundBlur_2714_51420" result="shape"/>
<feColorMatrix in="SourceAlpha" type="matrix" values="0 0 0 0 0 0 0 0 0 0 0 0 0 0 0 0 0 0 127 0" result="hardAlpha"/>
<feMorphology radius="0.838824" operator="dilate" in="SourceAlpha" result="effect2_innerShadow_2714_51420"/>
<feOffset dx="-0.419412" dy="0.419412"/>
<feGaussianBlur stdDeviation="0.209706"/>
<feComposite in2="hardAlpha" operator="arithmetic" k2="-1" k3="1"/>
<feColorMatrix type="matrix" values="0 0 0 0 1 0 0 0 0 1 0 0 0 0 1 0 0 0 0.35 0"/>
<feBlend mode="normal" in2="shape" result="effect2_innerShadow_2714_51420"/>
</filter>
<linearGradient id="paint0_linear_2714_51420" x1="25.3" y1="2.70256" x2="14.5742" y2="28.7832" gradientUnits="userSpaceOnUse">
<stop stop-color="white"/>
<stop offset="1" stop-color="white" stop-opacity="0"/>
</linearGradient>
</defs>
</svg>
