<svg width="72" height="72" viewBox="0 0 72 72" fill="none" xmlns="http://www.w3.org/2000/svg">
    <rect width="72" height="72" rx="36" fill="white" fill-opacity="0.4"/>
    <path fill-rule="evenodd" clip-rule="evenodd" d="M34.8902 23.5377C35.219 23.674 35.5 23.9048 35.6977 24.2009C35.8954 24.4969 36.0009 24.8449 36.0008 25.2009V46.8009C36.0007 47.1569 35.8951 47.5048 35.6973 47.8007C35.4995 48.0967 35.2184 48.3273 34.8896 48.4635C34.5607 48.5997 34.1988 48.6354 33.8497 48.566C33.5006 48.4965 33.1799 48.3252 32.9282 48.0735L26.2556 41.4009H21.6008C21.1234 41.4009 20.6656 41.2113 20.328 40.8737C19.9904 40.5361 19.8008 40.0783 19.8008 39.6009V32.4009C19.8008 31.9235 19.9904 31.4657 20.328 31.1281C20.6656 30.7906 21.1234 30.6009 21.6008 30.6009H26.2556L32.9282 23.9283C33.1799 23.6764 33.5007 23.5049 33.8499 23.4353C34.1992 23.3658 34.5612 23.4014 34.8902 23.5377ZM44.3834 23.2731C44.7209 22.9357 45.1787 22.7461 45.656 22.7461C46.1333 22.7461 46.591 22.9357 46.9286 23.2731C48.6023 24.9429 49.9296 26.9268 50.8344 29.1111C51.7391 31.2953 52.2035 33.6367 52.2008 36.0009C52.2035 38.3651 51.7391 40.7065 50.8344 42.8908C49.9296 45.075 48.6023 47.0589 46.9286 48.7287C46.5891 49.0566 46.1344 49.238 45.6625 49.2339C45.1905 49.2298 44.739 49.0405 44.4053 48.7068C44.0716 48.3731 43.8823 47.9216 43.8782 47.4496C43.8741 46.9777 44.0555 46.523 44.3834 46.1835C45.7228 44.848 46.785 43.2608 47.5088 41.5133C48.2326 39.7658 48.6037 37.8924 48.6008 36.0009C48.6008 32.0229 46.9916 28.4265 44.3834 25.8183C44.0459 25.4808 43.8564 25.023 43.8564 24.5457C43.8564 24.0684 44.0459 23.6107 44.3834 23.2731ZM39.2912 28.3635C39.4584 28.1962 39.6569 28.0634 39.8754 27.9728C40.0939 27.8822 40.3281 27.8356 40.5647 27.8356C40.8012 27.8356 41.0355 27.8822 41.254 27.9728C41.4725 28.0634 41.671 28.1962 41.8382 28.3635C42.8424 29.3655 43.6387 30.556 44.1814 31.8667C44.7242 33.1773 45.0026 34.5823 45.0008 36.0009C45.0025 37.4195 44.724 38.8244 44.1813 40.1351C43.6386 41.4457 42.8423 42.6363 41.8382 43.6383C41.5004 43.9761 41.0423 44.1658 40.5647 44.1658C40.087 44.1658 39.6289 43.9761 39.2912 43.6383C38.9534 43.3006 38.7637 42.8425 38.7637 42.3648C38.7637 41.8872 38.9534 41.4291 39.2912 41.0913C39.9611 40.4238 40.4924 39.6304 40.8544 38.7568C41.2165 37.8832 41.4022 36.9466 41.4008 36.0009C41.4023 35.0552 41.2166 34.1186 40.8546 33.2449C40.4925 32.3713 39.9612 31.5779 39.2912 30.9105C39.1238 30.7433 38.9911 30.5448 38.9005 30.3263C38.8099 30.1078 38.7633 29.8736 38.7633 29.637C38.7633 29.4005 38.8099 29.1662 38.9005 28.9477C38.9911 28.7292 39.1238 28.5307 39.2912 28.3635Z" fill="white"/>
</svg>
