<svg width="73" height="72" viewBox="0 0 73 72" fill="none" xmlns="http://www.w3.org/2000/svg">
    <rect x="0.5" width="72" height="72" rx="36" fill="white" fill-opacity="0.2"/>
    <path fill-rule="evenodd" clip-rule="evenodd" d="M39.3448 21.7562C39.7206 21.912 40.0417 22.1758 40.2677 22.5141C40.4936 22.8524 40.6141 23.2502 40.614 23.657V48.3429C40.6139 48.7497 40.4932 49.1473 40.2672 49.4856C40.0411 49.8238 39.7199 50.0874 39.344 50.243C38.9682 50.3987 38.5546 50.4394 38.1557 50.3601C37.7567 50.2808 37.3902 50.0849 37.1025 49.7973L29.4766 42.1714H24.1568C23.6112 42.1714 23.0879 41.9547 22.7021 41.5689C22.3163 41.1831 22.0996 40.6599 22.0996 40.1143V31.8856C22.0996 31.34 22.3163 30.8168 22.7021 30.431C23.0879 30.0452 23.6112 29.8285 24.1568 29.8285H29.4766L37.1025 22.2026C37.3901 21.9147 37.7567 21.7187 38.1559 21.6392C38.555 21.5597 38.9688 21.6005 39.3448 21.7562ZM44.3745 27.2714C44.5656 27.0802 44.7924 26.9284 45.0422 26.8249C45.2919 26.7214 45.5596 26.6681 45.8299 26.6681C46.1003 26.6681 46.368 26.7214 46.6177 26.8249C46.8674 26.9284 47.0943 27.0802 47.2854 27.2714C48.433 28.4166 49.3431 29.7772 49.9634 31.2751C50.5837 32.773 50.9019 34.3787 50.8998 35.9999C50.9018 37.6212 50.5835 39.2269 49.9633 40.7247C49.343 42.2226 48.4329 43.5833 47.2854 44.7285C46.8994 45.1145 46.3758 45.3313 45.8299 45.3313C45.284 45.3313 44.7605 45.1145 44.3745 44.7285C43.9885 44.3425 43.7716 43.8189 43.7716 43.273C43.7716 42.7271 43.9885 42.2036 44.3745 41.8176C45.1401 41.0548 45.7473 40.148 46.1611 39.1496C46.5748 38.1511 46.7871 37.0807 46.7855 35.9999C46.7872 34.9192 46.575 33.8487 46.1612 32.8503C45.7474 31.8518 45.1402 30.9451 44.3745 30.1823C44.1832 29.9913 44.0315 29.7644 43.928 29.5146C43.8245 29.2649 43.7712 28.9972 43.7712 28.7269C43.7712 28.4565 43.8245 28.1888 43.928 27.9391C44.0315 27.6894 44.1832 27.4625 44.3745 27.2714Z" fill="white"/>
</svg>
