<svg width="30" height="30" viewBox="0 0 30 30" fill="none" xmlns="http://www.w3.org/2000/svg">
<g filter="url(#filter0_bi_2714_51423)">
<ellipse cx="15.168" cy="14.7832" rx="14" ry="14" fill="black" fill-opacity="0.25"/>
<path d="M15.168 29.0704C23.0585 29.0704 29.4551 22.6738 29.4551 14.7832C29.4551 6.89261 23.0585 0.496024 15.168 0.496024C7.27737 0.496024 0.880789 6.89261 0.880789 14.7832C0.880789 22.6738 7.27737 29.0704 15.168 29.0704Z" stroke="url(#paint0_linear_2714_51423)" stroke-opacity="0.2" stroke-width="0.574359"/>
</g>
<path d="M12.9441 10.2949V12.018C12.9441 12.6524 12.4298 13.1667 11.7953 13.1667H10.0723" stroke="white" stroke-width="0.861538" stroke-linecap="round" stroke-linejoin="round"/>
<path d="M16.3899 19.4844L16.3899 17.7613C16.3899 17.1269 16.9042 16.6126 17.5386 16.6126L19.2617 16.6126" stroke="white" stroke-width="0.861538" stroke-linecap="round" stroke-linejoin="round"/>
<path d="M19.2617 13.1667L17.5386 13.1667C16.9042 13.1667 16.3899 12.6524 16.3899 12.018L16.3899 10.2949" stroke="white" stroke-width="0.861538" stroke-linecap="round" stroke-linejoin="round"/>
<path d="M10.0723 16.6126L11.7953 16.6126C12.4298 16.6126 12.9441 17.1269 12.9441 17.7613L12.9441 19.4844" stroke="white" stroke-width="0.861538" stroke-linecap="round" stroke-linejoin="round"/>
<defs>
<filter id="filter0_bi_2714_51423" x="-10.8934" y="-11.2782" width="52.1228" height="52.1228" filterUnits="userSpaceOnUse" color-interpolation-filters="sRGB">
<feFlood flood-opacity="0" result="BackgroundImageFix"/>
<feGaussianBlur in="BackgroundImageFix" stdDeviation="5.74359"/>
<feComposite in2="SourceAlpha" operator="in" result="effect1_backgroundBlur_2714_51423"/>
<feBlend mode="normal" in="SourceGraphic" in2="effect1_backgroundBlur_2714_51423" result="shape"/>
<feColorMatrix in="SourceAlpha" type="matrix" values="0 0 0 0 0 0 0 0 0 0 0 0 0 0 0 0 0 0 127 0" result="hardAlpha"/>
<feMorphology radius="0.838824" operator="dilate" in="SourceAlpha" result="effect2_innerShadow_2714_51423"/>
<feOffset dx="-0.419412" dy="0.419412"/>
<feGaussianBlur stdDeviation="0.209706"/>
<feComposite in2="hardAlpha" operator="arithmetic" k2="-1" k3="1"/>
<feColorMatrix type="matrix" values="0 0 0 0 1 0 0 0 0 1 0 0 0 0 1 0 0 0 0.35 0"/>
<feBlend mode="normal" in2="shape" result="effect2_innerShadow_2714_51423"/>
</filter>
<linearGradient id="paint0_linear_2714_51423" x1="25.8938" y1="2.70256" x2="15.1679" y2="28.7832" gradientUnits="userSpaceOnUse">
<stop stop-color="white"/>
<stop offset="1" stop-color="white" stop-opacity="0"/>
</linearGradient>
</defs>
</svg>
