<svg width="28" height="28" viewBox="0 0 28 28" fill="none" xmlns="http://www.w3.org/2000/svg">
<g clip-path="url(#clip0_2231_44563)">
<path d="M13.9655 2.3335C7.52549 2.3335 2.29883 7.56016 2.29883 14.0002C2.29883 20.4402 7.52549 25.6668 13.9655 25.6668C20.4055 25.6668 25.6322 20.4402 25.6322 14.0002C25.6322 7.56016 20.4172 2.3335 13.9655 2.3335ZM17.4655 16.6018L14.0822 18.5502C13.6622 18.7952 13.1955 18.9118 12.7405 18.9118C12.2738 18.9118 11.8188 18.7952 11.3988 18.5502C10.5588 18.0602 10.0572 17.1968 10.0572 16.2168V12.3085C10.0572 11.3402 10.5588 10.4652 11.3988 9.97516C12.2388 9.48516 13.2422 9.48516 14.0938 9.97516L17.4772 11.9235C18.3172 12.4135 18.8188 13.2768 18.8188 14.2568C18.8188 15.2368 18.3172 16.1118 17.4655 16.6018Z" fill="#4B84F7"/>
</g>
<defs>
<clipPath id="clip0_2231_44563">
<rect width="28" height="28" fill="white"/>
</clipPath>
</defs>
</svg>
