<svg width="38" height="38" viewBox="0 0 38 38" fill="none" xmlns="http://www.w3.org/2000/svg">
<g filter="url(#filter0_bi_2714_51441)">
<circle cx="18.584" cy="18.999" r="18" fill="black" fill-opacity="0.25"/>
<circle cx="18.584" cy="18.999" r="18.2872" stroke="url(#paint0_linear_2714_51441)" stroke-opacity="0.2" stroke-width="0.574359"/>
</g>
<path d="M16.8965 22.374V16.749L15.7715 17.8037" stroke="white" stroke-opacity="0.8" stroke-width="0.861538" stroke-linecap="round" stroke-linejoin="round"/>
<path d="M19.1465 22.0226C19.4403 22.2433 19.8055 22.374 20.2012 22.374C21.172 22.374 21.959 21.587 21.959 20.6162C21.959 19.6454 21.172 18.8584 20.2012 18.8584C19.8055 18.8584 19.4403 18.9892 19.1465 19.2098L19.498 16.749H21.959" stroke="white" stroke-opacity="0.8" stroke-width="0.861538" stroke-linecap="round" stroke-linejoin="round"/>
<path d="M13.2133 13.6104C10.0324 16.5571 9.85843 21.5075 12.8246 24.6674C15.7908 27.8273 20.7739 28.0002 23.9547 25.0535C27.1355 22.1069 27.3095 17.1565 24.3434 13.9965C22.6562 12.1992 20.3165 11.3682 18.0271 11.5281M19.1465 9.71777L17.1407 11.6177L19.1465 13.6553" stroke="white" stroke-opacity="0.8" stroke-width="1.4359" stroke-linecap="round" stroke-linejoin="round"/>
<defs>
<filter id="filter0_bi_2714_51441" x="-11.4774" y="-11.0624" width="60.1228" height="60.1228" filterUnits="userSpaceOnUse" color-interpolation-filters="sRGB">
<feFlood flood-opacity="0" result="BackgroundImageFix"/>
<feGaussianBlur in="BackgroundImageFix" stdDeviation="5.74359"/>
<feComposite in2="SourceAlpha" operator="in" result="effect1_backgroundBlur_2714_51441"/>
<feBlend mode="normal" in="SourceGraphic" in2="effect1_backgroundBlur_2714_51441" result="shape"/>
<feColorMatrix in="SourceAlpha" type="matrix" values="0 0 0 0 0 0 0 0 0 0 0 0 0 0 0 0 0 0 127 0" result="hardAlpha"/>
<feMorphology radius="0.838824" operator="dilate" in="SourceAlpha" result="effect2_innerShadow_2714_51441"/>
<feOffset dx="-0.419412" dy="0.419412"/>
<feGaussianBlur stdDeviation="0.209706"/>
<feComposite in2="hardAlpha" operator="arithmetic" k2="-1" k3="1"/>
<feColorMatrix type="matrix" values="0 0 0 0 1 0 0 0 0 1 0 0 0 0 1 0 0 0 0.35 0"/>
<feBlend mode="normal" in2="shape" result="effect2_innerShadow_2714_51441"/>
</filter>
<linearGradient id="paint0_linear_2714_51441" x1="32.3743" y1="3.46677" x2="18.584" y2="36.999" gradientUnits="userSpaceOnUse">
<stop stop-color="white"/>
<stop offset="1" stop-color="white" stop-opacity="0"/>
</linearGradient>
</defs>
</svg>
