<svg width="15" height="10" viewBox="0 0 15 10" fill="none" xmlns="http://www.w3.org/2000/svg">
<path d="M9.92786 1.89054C9.92786 0.848182 9.07968 0 8.03733 0H7.74981V0.766718H8.03733C8.65703 0.766718 9.16114 1.27084 9.16114 1.89054C9.16114 2.51043 8.65703 3.01474 8.03733 3.01474H2.53632V3.78145H8.03714C9.07968 3.78165 9.92786 2.93327 9.92786 1.89054Z" fill="#5686DF"/>
<path d="M12.2455 1.6333H11.9579V2.40002H12.2455C12.8653 2.40002 13.3696 2.90433 13.3696 3.52403C13.3696 4.14373 12.8653 4.64785 12.2455 4.64785H0V5.41456H12.2455C13.288 5.41456 14.1364 4.56638 14.1364 3.52403C14.1364 2.48129 13.288 1.6333 12.2455 1.6333Z" fill="#5686DF"/>
<path d="M9.89029 6.21851H2.53632V6.98522H9.8901C10.51 6.98522 11.0143 7.48953 11.0143 8.10923C11.0143 8.72893 10.51 9.23324 9.8901 9.23324H9.60258V9.99996H9.8901C10.9326 9.99996 11.781 9.15178 11.781 8.10923C11.781 7.06669 10.9328 6.21851 9.89029 6.21851Z" fill="#5686DF"/>
</svg>
