<svg width="56" height="56" viewBox="0 0 56 56" fill="none" xmlns="http://www.w3.org/2000/svg">
<path fill-rule="evenodd" clip-rule="evenodd" d="M27.9999 56C35.3199 56 42.34 53.05 47.516 47.799C52.6921 42.548 55.5999 35.4261 55.5999 28C55.5999 20.5739 52.6921 13.452 47.516 8.20101C42.34 2.94999 35.3199 0 27.9999 0C20.6799 0 13.6598 2.94999 8.48376 8.20101C3.30775 13.452 0.399902 20.5739 0.399902 28C0.399902 35.4261 3.30775 42.548 8.48376 47.799C13.6598 53.05 20.6799 56 27.9999 56ZM31.4499 14C31.4499 13.0717 31.0864 12.1815 30.4394 11.5251C29.7924 10.8687 28.9149 10.5 27.9999 10.5C27.0849 10.5 26.2074 10.8687 25.5604 11.5251C24.9134 12.1815 24.5499 13.0717 24.5499 14V28C24.5501 28.9282 24.9137 29.8183 25.5608 30.4745L35.3174 40.376C35.6379 40.7012 36.0184 40.9591 36.4372 41.1351C36.856 41.3111 37.3049 41.4017 37.7582 41.4017C38.2115 41.4017 38.6604 41.3111 39.0792 41.1351C39.498 40.9591 39.8786 40.7012 40.1991 40.376C40.5196 40.0508 40.7739 39.6648 40.9474 39.2399C41.1209 38.815 41.2101 38.3596 41.2101 37.8997C41.2101 37.4399 41.1209 36.9845 40.9474 36.5596C40.7739 36.1347 40.5196 35.7487 40.1991 35.4235L31.4499 26.551V14Z" fill="#FBAD39"/>
</svg>
