<svg width="100" height="116" viewBox="0 0 100 116" fill="none" xmlns="http://www.w3.org/2000/svg">
<g opacity="0.3">
<path d="M48.7648 52.4634L34.454 3.59724C33.8248 1.46554 31.8933 0 29.6838 0H18.0361L48.7648 52.4634Z" fill="white"/>
<path d="M50.0072 49.2217L63.2352 3.24219L50.0072 26.2319L36.7646 3.24219L50.0072 49.2217Z" fill="#775F8E"/>
<path d="M81.964 0L51.2354 52.4634L65.5461 3.59724C66.1753 1.46554 68.1069 0 70.3164 0H81.964Z" fill="white"/>
<path d="M16.096 61.4785L8.04799 79.213L0 61.4785H3.92157L8.04799 70.553L12.1598 61.4785H16.096Z" fill="white"/>
<path d="M25.8126 79.227H22.2568V75.6298H25.8126H26.4271H27.7294H28.2855C29.6024 75.6298 30.7584 75.1561 31.7534 74.2235C32.7631 73.2908 33.3045 72.1214 33.3777 70.7298C33.3777 70.715 33.3777 70.7002 33.3777 70.6854C33.3777 70.641 33.3777 70.6114 33.3923 70.5966C33.3923 70.5818 33.3923 70.567 33.3923 70.5522C33.3923 70.5374 33.3923 70.5078 33.3923 70.493C33.3923 70.4634 33.3923 70.4486 33.3923 70.419C33.3923 69.3975 33.1435 68.4353 32.6607 67.5619C32.1632 66.6885 31.4169 66.0075 30.4219 65.5338C30.4072 65.5338 30.378 65.519 30.3633 65.519C30.3487 65.519 30.3341 65.5042 30.3194 65.4894C30.3048 65.4894 30.2755 65.4746 30.217 65.445C29.9097 65.3118 29.5878 65.2082 29.2513 65.1341C29.2366 65.1341 29.2074 65.1341 29.1927 65.1341C29.1781 65.1341 29.1488 65.1341 29.1342 65.1341C28.8854 65.0897 28.6074 65.0601 28.2709 65.0601H27.7148H26.4125H25.7979H22.2422V61.4629H25.7979H27.8758H28.7684C28.9001 61.4629 29.0171 61.4629 29.1049 61.4777C31.2998 61.6849 33.1582 62.6176 34.68 64.2903C36.2164 65.9631 36.9773 67.932 36.9773 70.2117C36.9773 70.2561 36.9773 70.2857 36.9773 70.3302C36.9773 70.3746 36.9773 70.4042 36.9773 70.4486C36.9773 72.7283 36.2164 74.6972 34.68 76.37C33.1435 78.0427 31.2852 78.9754 29.1049 79.1826C29.0318 79.1974 28.9586 79.2122 28.8854 79.2122H28.7684H27.8758H25.8126V79.227Z" fill="white"/>
<path d="M59.277 70.3754C59.277 71.6189 59.0429 72.7735 58.5892 73.8394C58.1356 74.9052 57.5064 75.8379 56.7016 76.6372C55.9115 77.4366 54.975 78.0732 53.9068 78.5321C52.8532 78.991 51.7119 79.2278 50.4827 79.2278C49.2536 79.2278 48.1122 78.991 47.0587 78.5321C45.9905 78.0732 45.054 77.4366 44.2638 76.6224C43.4444 75.8083 42.8152 74.8756 42.3762 73.8246C41.9226 72.7439 41.6885 71.5893 41.6885 70.3606C41.6885 69.1467 41.9226 67.992 42.3762 66.9262C42.8152 65.8603 43.459 64.9129 44.2638 64.0839C45.0686 63.2697 46.0051 62.6332 47.0587 62.1743C48.1122 61.7154 49.2536 61.4785 50.4827 61.4785C51.7265 61.4785 52.8825 61.7154 53.936 62.1743C54.9896 62.648 55.9261 63.2845 56.7163 64.0987C57.5064 64.8981 58.121 65.8455 58.5892 66.941C59.0429 68.0068 59.277 69.1467 59.277 70.3754ZM55.6773 70.3754C55.6773 69.9313 55.6188 69.4576 55.4871 68.9543C55.3408 68.4509 55.1359 67.9772 54.8725 67.5331C54.5799 67.0742 54.2141 66.6597 53.7751 66.2896C53.3215 65.9047 52.7801 65.6087 52.1509 65.3718C52.0045 65.3274 51.8436 65.283 51.6972 65.2682C51.6094 65.2682 51.5217 65.2534 51.4485 65.2386C51.3753 65.2238 51.3022 65.209 51.2436 65.1942C51.1997 65.1942 51.0241 65.1646 50.7461 65.1054C50.4974 65.0906 50.3803 65.0906 50.4096 65.0906C50.0584 65.0906 49.6779 65.135 49.2828 65.2386C48.9024 65.3422 48.4927 65.4902 48.0976 65.6975C47.6732 65.9195 47.2928 66.186 46.9709 66.4969C46.6343 66.8078 46.3124 67.1926 46.0344 67.6516C45.6978 68.2289 45.4783 68.7766 45.3905 69.3095C45.3613 69.4576 45.332 69.6352 45.2881 69.8425C45.2735 70.0201 45.2588 70.1978 45.2588 70.405C45.2588 71.1304 45.3906 71.7965 45.6686 72.4183C45.9173 73.04 46.2831 73.5877 46.7807 74.0911C47.2489 74.5796 47.8049 74.9645 48.4341 75.2309C49.0634 75.527 49.7365 75.6602 50.4535 75.6602C51.1266 75.6602 51.7997 75.527 52.4581 75.2457C53.0727 74.9793 53.6288 74.6092 54.1116 74.1355C54.5945 73.6618 54.975 73.114 55.2384 72.4775C55.5456 71.8261 55.6773 71.1304 55.6773 70.3754Z" fill="white"/>
<path d="M80.2896 79.213H76.7192L68.9786 67.8736V79.213H65.3789V61.4785H68.9639L76.7046 72.818V61.4785H80.2896V79.213Z" fill="white"/>
<path d="M87.5771 65.0758V61.4785H100V65.0758C97.9225 65.0758 95.8593 65.0758 93.7814 65.0758C91.7036 65.0758 89.6404 65.0758 87.5771 65.0758ZM87.5771 72.1518V68.5546C88.9087 68.5546 90.2257 68.5546 91.5572 68.5546C92.8888 68.5546 94.2204 68.5546 95.552 68.5546V72.1518C94.2204 72.1518 92.8888 72.1518 91.5572 72.1518C90.2257 72.1518 88.8941 72.1518 87.5771 72.1518ZM100 79.213H87.5771V75.601C89.6404 75.601 91.7182 75.601 93.7814 75.601C95.8446 75.601 97.9225 75.601 100 75.601V79.213Z" fill="white"/>
<path d="M26.9833 72.9068H24.1299V68.377H26.9833L28.4319 70.6419L26.9833 72.9068Z" fill="#775F8E"/>
</g>
<path opacity="0.3" d="M33.0381 107.229V94.5459H35.6924V105.04H41.335V107.229H33.0381ZM44.7979 96.0664C44.0068 96.0664 43.3477 95.4336 43.3477 94.6426C43.3477 93.8428 44.0068 93.21 44.7979 93.21C45.5889 93.21 46.2393 93.8428 46.2393 94.6426C46.2393 95.4336 45.5889 96.0664 44.7979 96.0664ZM43.5059 107.229V97.5518H46.0723V107.229H43.5059ZM51.1875 107.229L47.8213 97.5518H50.5723L52.5762 104.829H52.7344L54.7207 97.5518H57.4189L54.0703 107.229H51.1875ZM63 107.431C60.0557 107.431 58.2715 105.506 58.2715 102.403V102.395C58.2715 99.3184 60.0732 97.3408 62.8945 97.3408C65.7158 97.3408 67.4736 99.2744 67.4736 102.201V103.001H60.8115C60.8379 104.592 61.6904 105.515 63.0527 105.515C64.1777 105.515 64.8018 104.917 64.9775 104.548L65.0039 104.495H67.3945L67.377 104.583C67.0781 105.796 65.8301 107.431 63 107.431ZM62.9385 99.2656C61.8223 99.2656 60.9961 100.021 60.8379 101.393H65.0127C64.8545 99.9863 64.0547 99.2656 62.9385 99.2656Z" fill="white"/>
</svg>
