<svg width="25" height="25" viewBox="0 0 25 25" fill="none" xmlns="http://www.w3.org/2000/svg">
<path d="M8.9235 19.6918H8.41068C4.30812 19.6918 2.25684 18.6661 2.25684 13.5379V8.40971C2.25684 4.30714 4.30812 2.25586 8.41068 2.25586H16.6158C20.7184 2.25586 22.7697 4.30714 22.7697 8.40971V13.5379C22.7697 17.6405 20.7184 19.6918 16.6158 19.6918H16.103C15.785 19.6918 15.4773 19.8456 15.2825 20.102L13.744 22.1533C13.0671 23.0559 11.9594 23.0559 11.2825 22.1533L9.74402 20.102C9.57991 19.8764 9.20043 19.6918 8.9235 19.6918Z" stroke="white" stroke-width="1.5" stroke-miterlimit="10" stroke-linecap="round" stroke-linejoin="round"/>
<path d="M7.38477 8.41016H17.6412" stroke="white" stroke-width="1.5" stroke-linecap="round" stroke-linejoin="round"/>
<path d="M7.38477 13.5391H13.5386" stroke="white" stroke-width="1.5" stroke-linecap="round" stroke-linejoin="round"/>
</svg>
