<svg width="25" height="25" viewBox="0 0 25 25" fill="none" xmlns="http://www.w3.org/2000/svg">
<path d="M21.1247 23.1893C20.8377 23.52 20.4831 23.7852 20.0848 23.9671C19.6865 24.1491 19.2538 24.2434 18.816 24.2437H6.18442C5.74682 24.2431 5.31443 24.1488 4.91635 23.9671C4.51827 23.7854 4.16373 23.5205 3.87662 23.1902C3.5895 22.86 3.37647 22.4721 3.25185 22.0526C3.12723 21.6331 3.09393 21.1918 3.15418 20.7584L3.57597 17.8392L4.74145 9.65861C4.84666 8.93238 5.20951 8.26819 5.76378 7.78728C6.31805 7.30637 7.02677 7.0408 7.76059 7.03906H17.2398C17.668 7.04281 18.0909 7.13344 18.483 7.30546C18.9534 7.51615 19.3629 7.84238 19.6734 8.25379C19.9839 8.66521 20.1853 9.14846 20.259 9.65861L21.8462 20.7584C21.9059 21.1916 21.8725 21.6325 21.748 22.0518C21.6236 22.471 21.4111 22.8588 21.1247 23.1893Z" fill="#00AA41"/>
<path d="M18.4832 7.30546C17.5412 10.364 15.6431 13.0398 13.0678 14.9398C10.4926 16.8397 7.37586 17.8638 4.17556 17.8614C3.97551 17.865 3.7754 17.8576 3.57617 17.8392L4.74165 9.65861C4.84686 8.93238 5.20971 8.26819 5.76398 7.78728C6.31825 7.30637 7.02698 7.0408 7.76079 7.03906H17.24C17.6682 7.04281 18.0911 7.13344 18.4832 7.30546Z" fill="#5CD95B"/>
<path d="M16.3855 8.70375H8.61569C8.3949 8.70375 8.18315 8.61604 8.02703 8.45992C7.87091 8.3038 7.7832 8.09205 7.7832 7.87126V5.09632C7.7832 3.84518 8.28021 2.64529 9.1649 1.7606C10.0496 0.875918 11.2495 0.378906 12.5006 0.378906C13.7517 0.378906 14.9516 0.875918 15.8363 1.7606C16.721 2.64529 17.218 3.84518 17.218 5.09632V7.87126C17.218 8.09205 17.1303 8.3038 16.9742 8.45992C16.8181 8.61604 16.6063 8.70375 16.3855 8.70375ZM9.44817 7.03878H15.5531V5.09632C15.5531 4.28676 15.2315 3.51036 14.659 2.93791C14.0866 2.36547 13.3102 2.04387 12.5006 2.04387C11.6911 2.04387 10.9147 2.36547 10.3422 2.93791C9.76977 3.51036 9.44817 4.28676 9.44817 5.09632V7.03878Z" fill="#5CD95B"/>
<path d="M12.5003 17.5834C11.3968 17.5819 10.3389 17.1429 9.55866 16.3626C8.77837 15.5823 8.33936 14.5245 8.33789 13.421V12.311C8.33789 12.0902 8.4256 11.8785 8.58172 11.7223C8.73784 11.5662 8.94959 11.4785 9.17037 11.4785C9.39116 11.4785 9.60291 11.5662 9.75903 11.7223C9.91515 11.8785 10.0029 12.0902 10.0029 12.311V13.421C10.0029 14.0833 10.266 14.7186 10.7343 15.1869C11.2027 15.6553 11.8379 15.9184 12.5003 15.9184C13.1627 15.9184 13.7979 15.6553 14.2663 15.1869C14.7346 14.7186 14.9978 14.0833 14.9978 13.421V12.311C14.9978 12.0902 15.0855 11.8785 15.2416 11.7223C15.3977 11.5662 15.6095 11.4785 15.8302 11.4785C16.051 11.4785 16.2628 11.5662 16.4189 11.7223C16.575 11.8785 16.6627 12.0902 16.6627 12.311V13.421C16.6613 14.5245 16.2223 15.5823 15.442 16.3626C14.6617 17.1429 13.6038 17.5819 12.5003 17.5834Z" fill="#E5F9F8"/>
</svg>
