<svg width="24" height="24" viewBox="0 0 24 24" fill="none" xmlns="http://www.w3.org/2000/svg">
<path d="M20.9373 13.0728C21.1363 12.9731 21.3037 12.8199 21.4207 12.6304C21.5377 12.441 21.5996 12.2227 21.5996 12C21.5996 11.7774 21.5377 11.5591 21.4207 11.3696C21.3037 11.1802 21.1363 11.027 20.9373 10.9272L4.13729 2.52723C3.92898 2.423 3.69485 2.38165 3.46344 2.40822C3.23203 2.43479 3.01336 2.52813 2.8341 2.67686C2.65484 2.82559 2.52274 3.02327 2.45391 3.2458C2.38508 3.46832 2.3825 3.70607 2.44649 3.93003L4.16129 9.93003C4.23301 10.1808 4.38449 10.4014 4.59279 10.5584C4.80109 10.7153 5.05486 10.8002 5.31569 10.8L10.8009 10.8C11.1191 10.8 11.4244 10.9265 11.6494 11.1515C11.8745 11.3765 12.0009 11.6818 12.0009 12C12.0009 12.3183 11.8745 12.6235 11.6494 12.8486C11.4244 13.0736 11.1191 13.2 10.8009 13.2L5.31569 13.2C5.05486 13.1999 4.80109 13.2847 4.59279 13.4417C4.38449 13.5987 4.23301 13.8193 4.16129 14.07L2.44769 20.07C2.38358 20.2939 2.386 20.5316 2.45467 20.7542C2.52333 20.9767 2.65527 21.1745 2.83439 21.3233C3.01351 21.4722 3.23208 21.5657 3.46343 21.5924C3.69478 21.6192 3.92892 21.5781 4.13729 21.474L20.9373 13.074L20.9373 13.0728Z" fill="#4B84F7"/>
</svg>
