<svg width="25" height="25" viewBox="0 0 25 25" fill="none" xmlns="http://www.w3.org/2000/svg">
<g clip-path="url(#clip0_4341_85931)">
<path d="M15.3389 3.57126C15.1641 3.39643 14.9414 3.27736 14.699 3.22911C14.4565 3.18086 14.2052 3.20561 13.9768 3.3002C13.7484 3.3948 13.5531 3.55501 13.4158 3.76057C13.2784 3.96613 13.2051 4.2078 13.2051 4.45502V8.49802H12.9551C9.83993 8.50153 6.85331 9.7406 4.65052 11.9434C2.44773 14.1462 1.20866 17.1328 1.20514 20.248V20.685C1.20245 20.9462 1.28322 21.2015 1.43569 21.4136C1.58816 21.6257 1.80436 21.7835 2.0528 21.8642C2.30251 21.9483 2.57236 21.9514 2.82395 21.8732C3.07555 21.795 3.29607 21.6395 3.45414 21.4287C7.77983 15.6967 11.8086 15.6518 13.2051 15.8525V20.041C13.2051 20.2882 13.2784 20.5299 13.4158 20.7355C13.5531 20.941 13.7483 21.1013 13.9767 21.1959C14.2052 21.2905 14.4565 21.3152 14.699 21.267C14.9414 21.2187 15.1641 21.0996 15.3389 20.9248L22.7784 13.4853C22.9409 13.3229 23.0699 13.13 23.1578 12.9177C23.2458 12.7054 23.2911 12.4779 23.2911 12.248C23.2911 12.0182 23.2458 11.7907 23.1578 11.5784C23.0699 11.3661 22.9409 11.1732 22.7784 11.0107L15.3389 3.57126ZM21.7178 12.4248L14.7051 19.4375V15.248C14.7051 15.0906 14.6556 14.9372 14.5636 14.8096C14.4716 14.6819 14.3417 14.5864 14.1924 14.5366C13.9566 14.4575 8.48785 12.7431 2.70953 19.9433C2.79177 17.2798 3.9069 14.7527 5.81903 12.8966C7.73116 11.0405 10.2903 10.001 12.9551 9.99802H13.9551C14.154 9.99796 14.3448 9.91893 14.4854 9.77829C14.6261 9.63765 14.7051 9.44691 14.7051 9.24802V5.05857L21.7178 12.0713C21.7645 12.1182 21.7907 12.1818 21.7907 12.248C21.7907 12.3142 21.7645 12.3778 21.7178 12.4248Z" fill="white"/>
</g>
<defs>
<clipPath id="clip0_4341_85931">
<rect width="24" height="24" fill="white" transform="translate(0.205078 0.205078)"/>
</clipPath>
</defs>
</svg>
