<svg width="25" height="25" viewBox="0 0 25 25" fill="none" xmlns="http://www.w3.org/2000/svg">
<path d="M22.2051 8.72508V4.18508C22.2051 2.77508 21.5651 2.20508 19.9751 2.20508H15.9351C14.3451 2.20508 13.7051 2.77508 13.7051 4.18508V8.71508C13.7051 10.1351 14.3451 10.6951 15.9351 10.6951H19.9751C21.5651 10.7051 22.2051 10.1351 22.2051 8.72508Z" fill="white"/>
<path d="M22.2051 19.9751V15.9351C22.2051 14.3451 21.5651 13.7051 19.9751 13.7051H15.9351C14.3451 13.7051 13.7051 14.3451 13.7051 15.9351V19.9751C13.7051 21.5651 14.3451 22.2051 15.9351 22.2051H19.9751C21.5651 22.2051 22.2051 21.5651 22.2051 19.9751Z" fill="white"/>
<path d="M10.7051 8.72508V4.18508C10.7051 2.77508 10.0651 2.20508 8.47508 2.20508H4.43508C2.84508 2.20508 2.20508 2.77508 2.20508 4.18508V8.71508C2.20508 10.1351 2.84508 10.6951 4.43508 10.6951H8.47508C10.0651 10.7051 10.7051 10.1351 10.7051 8.72508Z" fill="white"/>
<path d="M10.7051 19.9751V15.9351C10.7051 14.3451 10.0651 13.7051 8.47508 13.7051H4.43508C2.84508 13.7051 2.20508 14.3451 2.20508 15.9351V19.9751C2.20508 21.5651 2.84508 22.2051 4.43508 22.2051H8.47508C10.0651 22.2051 10.7051 21.5651 10.7051 19.9751Z" fill="white"/>
</svg>
