<svg width="17" height="16" viewBox="0 0 17 16" fill="none" xmlns="http://www.w3.org/2000/svg">
<path fill-rule="evenodd" clip-rule="evenodd" d="M3.83334 3.33333C3.65653 3.33333 3.48696 3.40357 3.36194 3.5286C3.23691 3.65362 3.16668 3.82319 3.16668 4V12C3.16668 12.1768 3.23691 12.3464 3.36194 12.4714C3.48696 12.5964 3.65653 12.6667 3.83334 12.6667H11.2811C11.2061 12.4545 11.1667 12.2293 11.1667 12V4C11.1667 3.82319 11.0964 3.65362 10.9714 3.5286C10.8464 3.40357 10.6768 3.33333 10.5 3.33333H3.83334ZM3.83334 2C3.30291 2 2.7942 2.21071 2.41913 2.58579C2.04406 2.96086 1.83334 3.46957 1.83334 4V12C1.83334 12.5304 2.04406 13.0391 2.41913 13.4142C2.7942 13.7893 3.30291 14 3.83334 14H13.1667C13.6971 14 14.2058 13.7893 14.5809 13.4142C14.956 13.0391 15.1667 12.5304 15.1667 12V6C15.1667 5.46957 14.956 4.96086 14.5809 4.58579C14.2058 4.21071 13.6971 4 13.1667 4H12.5C12.5 3.46957 12.2893 2.96086 11.9142 2.58579C11.5392 2.21071 11.0304 2 10.5 2H3.83334ZM12.5 5.33333V12C12.5 12.1768 12.5702 12.3464 12.6953 12.4714C12.8203 12.5964 12.9899 12.6667 13.1667 12.6667C13.3435 12.6667 13.5131 12.5964 13.6381 12.4714C13.7631 12.3464 13.8333 12.1768 13.8333 12V6C13.8333 5.82319 13.7631 5.65362 13.6381 5.5286C13.5131 5.40357 13.3435 5.33333 13.1667 5.33333H12.5ZM4.50001 5.33333C4.50001 4.96514 4.79849 4.66667 5.16668 4.66667H9.16668C9.53487 4.66667 9.83334 4.96514 9.83334 5.33333V8C9.83334 8.36819 9.53487 8.66667 9.16668 8.66667H5.16668C4.79849 8.66667 4.50001 8.36819 4.50001 8V5.33333ZM5.83334 6V7.33333H8.50001V6H5.83334ZM4.50001 10.6667C4.50001 10.2985 4.79849 10 5.16668 10H9.16668C9.53487 10 9.83334 10.2985 9.83334 10.6667C9.83334 11.0349 9.53487 11.3333 9.16668 11.3333H5.16668C4.79849 11.3333 4.50001 11.0349 4.50001 10.6667Z" fill="#ACACAC"/>
</svg>
