<svg width="14" height="14" viewBox="0 0 14 14" fill="none" xmlns="http://www.w3.org/2000/svg">
<path d="M13.5 7C13.5 10.5899 10.5899 13.5 7 13.5C3.41015 13.5 0.5 10.5899 0.5 7C0.5 3.41015 3.41015 0.5 7 0.5C10.5899 0.5 13.5 3.41015 13.5 7Z" fill="#1E90FF" stroke="white"/>
<path d="M8.94526 7.7338C8.64235 7.98612 8.21471 8.11229 7.64453 8.11229H6.57544V9.98668H5.50635V4.76001H7.73362C8.25035 4.76001 8.66017 4.88617 8.96307 5.15652C9.26598 5.42686 9.42635 5.84139 9.42635 6.4001C9.39071 7.04893 9.24817 7.48148 8.94526 7.7338ZM8.12562 5.85941C7.98307 5.75127 7.80489 5.67918 7.55544 5.67918H6.57544V7.21114H7.55544C7.80489 7.21114 8.00089 7.15707 8.12562 7.03091C8.25035 6.90475 8.33944 6.70649 8.33944 6.43615C8.32162 6.1658 8.25035 5.96755 8.12562 5.85941Z" fill="white"/>
</svg>
