<svg width="21" height="20" viewBox="0 0 21 20" fill="none" xmlns="http://www.w3.org/2000/svg">
<path d="M9.71652 2.84169C10.0302 2.09018 11.0949 2.09018 11.4086 2.84169L12.8533 6.30245C12.9787 6.60279 13.2539 6.81415 13.5764 6.8578L17.4337 7.37987C18.2285 7.48744 18.5118 8.49165 17.8904 8.99874L14.9322 11.4127C14.6615 11.6337 14.5399 11.9893 14.6186 12.3298L15.5632 16.4113C15.7527 17.2306 14.8315 17.8515 14.1432 17.3685L11.0893 15.225C10.7732 15.0032 10.352 15.0032 10.0359 15.225L6.98188 17.3685C6.29361 17.8516 5.3724 17.2306 5.56196 16.4114L6.50642 12.3298C6.5852 11.9893 6.4636 11.6337 6.19286 11.4128L3.2347 8.99873C2.61331 8.49165 2.8966 7.48745 3.69139 7.37988L7.54874 6.8578C7.87126 6.81415 8.14646 6.60279 8.27184 6.30245L9.71652 2.84169Z" fill="#F2C94C" stroke="white" stroke-width="1.22243" stroke-miterlimit="3.3292" stroke-linecap="round" stroke-linejoin="round"/>
</svg>
