<svg width="18" height="14" viewBox="0 0 18 14" fill="none" xmlns="http://www.w3.org/2000/svg">
<path fill-rule="evenodd" clip-rule="evenodd" d="M2.0325 1.4048C1.74 1.1123 1.74 0.639805 2.0325 0.347305C2.325 0.0548047 2.805 0.0548047 3.0975 0.347305L15.33 12.5948C15.6225 12.8873 15.6225 13.3598 15.33 13.6523C15.0375 13.9448 14.565 13.9448 14.2725 13.6523L12.2325 11.6123C11.2275 12.0023 10.14 12.2273 9 12.2273C5.25 12.2273 2.0475 9.8948 0.75 6.6023C1.3275 5.1248 2.295 3.8498 3.51 2.8823L2.0325 1.4048ZM12.75 6.6023C12.75 4.5323 11.07 2.8523 9 2.8523C8.6175 2.8523 8.25 2.9273 7.8975 3.0323L6.27 1.4048C7.1325 1.1273 8.0475 0.977305 9 0.977305C12.75 0.977305 15.9525 3.3098 17.25 6.5948C16.7325 7.9148 15.9075 9.06981 14.865 9.9923L12.57 7.6973C12.675 7.3523 12.75 6.9848 12.75 6.6023ZM9 10.3523C6.93 10.3523 5.25 8.6723 5.25 6.6023C5.25 6.0248 5.385 5.4773 5.6175 4.9973L6.795 6.1748C6.7725 6.3098 6.75 6.4523 6.75 6.6023C6.75 7.8473 7.755 8.8523 9 8.8523C9.15 8.8523 9.285 8.8298 9.4275 8.7998L10.605 9.9773C10.1175 10.2173 9.5775 10.3523 9 10.3523ZM11.2275 6.3548C11.115 5.3048 10.29 4.4873 9.2475 4.3748L11.2275 6.3548Z" fill="#9EAED1"/>
</svg>
