<svg width="14" height="18" viewBox="0 0 14 18" fill="none" xmlns="http://www.w3.org/2000/svg">
<path d="M4.49935 10.6667L9.49935 5.66667M4.91602 6.08333H4.92435M9.08268 10.25H9.09102M12.8327 16.5V3.16667C12.8327 2.72464 12.6571 2.30072 12.3445 1.98816C12.032 1.67559 11.608 1.5 11.166 1.5H2.83268C2.39065 1.5 1.96673 1.67559 1.65417 1.98816C1.34161 2.30072 1.16602 2.72464 1.16602 3.16667V16.5L4.08268 14.8333L6.99935 16.5L9.91602 14.8333L12.8327 16.5ZM5.33268 6.08333C5.33268 6.19384 5.28878 6.29982 5.21064 6.37796C5.1325 6.4561 5.02652 6.5 4.91602 6.5C4.80551 6.5 4.69953 6.4561 4.62139 6.37796C4.54325 6.29982 4.49935 6.19384 4.49935 6.08333C4.49935 5.97283 4.54325 5.86685 4.62139 5.78871C4.69953 5.71056 4.80551 5.66667 4.91602 5.66667C5.02652 5.66667 5.1325 5.71056 5.21064 5.78871C5.28878 5.86685 5.33268 5.97283 5.33268 6.08333ZM9.49935 10.25C9.49935 10.3605 9.45545 10.4665 9.37731 10.5446C9.29917 10.6228 9.19319 10.6667 9.08268 10.6667C8.97218 10.6667 8.86619 10.6228 8.78805 10.5446C8.70991 10.4665 8.66602 10.3605 8.66602 10.25C8.66602 10.1395 8.70991 10.0335 8.78805 9.95537C8.86619 9.87723 8.97218 9.83333 9.08268 9.83333C9.19319 9.83333 9.29917 9.87723 9.37731 9.95537C9.45545 10.0335 9.49935 10.1395 9.49935 10.25Z" stroke="#FF7626" stroke-width="1.5" stroke-linecap="round" stroke-linejoin="round"/>
</svg>
