<svg width="65" height="52" viewBox="0 0 65 52" fill="none" xmlns="http://www.w3.org/2000/svg">
<path d="M44.5066 33.385C44.5066 33.805 44.4133 34.2367 44.215 34.6567C44.0166 35.0767 43.76 35.4734 43.4216 35.8467C42.85 36.4767 42.22 36.9317 41.5083 37.2234C40.8083 37.515 40.05 37.6667 39.2333 37.6667C38.0433 37.6667 36.7716 37.3867 35.43 36.815C34.0883 36.2434 32.7466 35.4734 31.4166 34.505C30.075 33.525 28.8033 32.44 27.59 31.2384C26.3883 30.025 25.3033 28.7534 24.335 27.4234C23.3783 26.0934 22.6083 24.7634 22.0483 23.445C21.4883 22.115 21.2083 20.8434 21.2083 19.63C21.2083 18.8367 21.3483 18.0784 21.6283 17.3784C21.9083 16.6667 22.3516 16.0134 22.97 15.43C23.7166 14.695 24.5333 14.3334 25.3966 14.3334C25.7233 14.3334 26.05 14.4034 26.3416 14.5434C26.645 14.6834 26.9133 14.8934 27.1233 15.1967L29.83 19.0117C30.04 19.3034 30.1916 19.5717 30.2966 19.8284C30.4016 20.0734 30.46 20.3184 30.46 20.54C30.46 20.82 30.3783 21.1 30.215 21.3684C30.0633 21.6367 29.8416 21.9167 29.5616 22.1967L28.675 23.1184C28.5466 23.2467 28.4883 23.3984 28.4883 23.585C28.4883 23.6784 28.5 23.76 28.5233 23.8534C28.5583 23.9467 28.5933 24.0167 28.6166 24.0867C28.8266 24.4717 29.1883 24.9734 29.7016 25.58C30.2266 26.1867 30.7866 26.805 31.3933 27.4234C32.0233 28.0417 32.63 28.6134 33.2483 29.1384C33.855 29.6517 34.3566 30.0017 34.7533 30.2117C34.8116 30.235 34.8816 30.27 34.9633 30.305C35.0566 30.34 35.15 30.3517 35.255 30.3517C35.4533 30.3517 35.605 30.2817 35.7333 30.1534L36.62 29.2784C36.9116 28.9867 37.1916 28.765 37.46 28.625C37.7283 28.4617 37.9966 28.38 38.2883 28.38C38.51 28.38 38.7433 28.4267 39 28.5317C39.2566 28.6367 39.525 28.7884 39.8166 28.9867L43.6783 31.7284C43.9816 31.9384 44.1916 32.1834 44.32 32.475C44.4366 32.7667 44.5066 33.0584 44.5066 33.385Z" fill="#4B84F7"/>
<path d="M40.4583 22.5001C40.4583 21.8001 39.91 20.7267 39.0933 19.8517C38.3467 19.0467 37.355 18.4167 36.375 18.4167" stroke="#4B84F7" stroke-width="1.5" stroke-linecap="round" stroke-linejoin="round"/>
<path d="M44.5417 22.5C44.5417 17.985 40.89 14.3334 36.375 14.3334" stroke="#4B84F7" stroke-width="1.5" stroke-linecap="round" stroke-linejoin="round"/>
</svg>
