<svg width="24" height="24" viewBox="0 0 24 24" fill="none" xmlns="http://www.w3.org/2000/svg">
<path fill-rule="evenodd" clip-rule="evenodd" d="M14.1315 5.03134C14.3887 5.09912 14.6041 5.2746 14.7239 5.51325C15.1724 6.41118 15.5076 6.95627 15.8447 7.39827C16.1864 7.84585 16.5467 8.21168 17.0964 8.76047C18.3649 10.0298 19 11.6948 19 13.3569C19 15.0191 18.3649 16.684 17.0964 17.9534C14.5577 20.4911 10.4423 20.4911 7.90357 17.9534C6.63515 16.684 6 15.0191 6 13.3569C6 11.6948 6.63515 10.0298 7.90357 8.76047C8.16915 8.4949 8.56843 8.41597 8.91571 8.5599C9.263 8.7029 9.48865 9.04186 9.48865 9.417C9.48865 10.457 9.55364 11.2491 9.85821 11.8814C10.0254 12.2287 10.2863 12.5686 10.7357 12.8722C10.8434 11.887 11.0403 10.6863 11.3059 9.54792C11.5148 8.65092 11.7748 7.75577 12.0849 7.0092C12.24 6.63498 12.4155 6.28024 12.6142 5.97289C12.8074 5.67389 13.0562 5.37029 13.3775 5.15579C13.5994 5.00815 13.8743 4.96262 14.1315 5.03134ZM14.4695 17.1835C13.3821 18.2718 11.6179 18.2718 10.5305 17.1835C9.98636 16.6403 9.71429 15.9272 9.71429 15.2141C9.71429 15.2141 10.5305 15.6783 12.0357 15.6783C12.0357 14.7498 12.5 11.9641 13.1964 11.4998C13.6607 12.4283 13.9263 12.7004 14.4695 13.2446C15.0136 13.7878 15.2857 14.5009 15.2857 15.2141C15.2857 15.9272 15.0136 16.6403 14.4695 17.1835Z" fill="#4B84F7"/>
</svg>
