<svg width="29" height="28" viewBox="0 0 29 28" fill="none" xmlns="http://www.w3.org/2000/svg">
<path d="M17.3769 22.2725L17.3757 22.2741L15.6257 24.5957L15.625 24.5967C15.3205 25.0026 14.9533 25.1667 14.625 25.1667C14.2966 25.1667 13.9294 25.0026 13.625 24.5967L13.6243 24.5957L11.8765 22.277C11.723 22.0678 11.5008 21.9065 11.2844 21.7982C11.0658 21.6889 10.8022 21.6084 10.5416 21.6084H8.79165C5.84583 21.6084 3.45831 19.2286 3.45831 16.2984V15.1317V8.15504C3.45831 5.21249 5.84648 2.83337 8.79165 2.83337H20.4583C23.4035 2.83337 25.7916 5.21249 25.7916 8.15504V16.2984C25.7916 19.2286 23.4041 21.6084 20.4583 21.6084H18.7083C18.188 21.6084 17.6917 21.8583 17.3769 22.2725Z" fill="#4B84F7" stroke="white"/>
<path d="M20.4584 9.70837H8.79169C8.5895 9.70837 8.41669 9.53556 8.41669 9.33337C8.41669 9.13118 8.5895 8.95837 8.79169 8.95837H20.4584C20.6605 8.95837 20.8334 9.13118 20.8334 9.33337C20.8334 9.53556 20.6605 9.70837 20.4584 9.70837Z" fill="#292D32" stroke="white"/>
<path d="M15.7917 15.5416H8.79169C8.5895 15.5416 8.41669 15.3688 8.41669 15.1666C8.41669 14.9644 8.5895 14.7916 8.79169 14.7916H15.7917C15.9939 14.7916 16.1667 14.9644 16.1667 15.1666C16.1667 15.3688 15.9939 15.5416 15.7917 15.5416Z" fill="#292D32" stroke="white"/>
</svg>
