<svg width="20" height="20" viewBox="0 0 20 20" fill="none" xmlns="http://www.w3.org/2000/svg">
<path d="M17 13.6083C16.7667 14.2333 16.275 14.7083 15.6334 14.9249C14.7334 15.2249 13.8084 15.4499 12.875 15.6083C12.7834 15.6249 12.6917 15.6416 12.6 15.6499C12.45 15.6749 12.3 15.6916 12.15 15.7083C11.9667 15.7333 11.775 15.7499 11.5834 15.7666C11.0584 15.8083 10.5417 15.8333 10.0167 15.8333C9.48336 15.8333 8.95003 15.8083 8.42503 15.7583C8.20003 15.7416 7.98336 15.7166 7.76669 15.6833C7.64169 15.6666 7.51669 15.6499 7.40003 15.6333C7.30836 15.6166 7.21669 15.6083 7.12503 15.5916C6.20003 15.4416 5.28336 15.2166 4.39169 14.9166C3.72503 14.6916 3.21669 14.2166 2.99169 13.6083C2.76669 13.0083 2.85003 12.3083 3.20836 11.7083L4.15003 10.1416C4.35003 9.79992 4.53336 9.14159 4.53336 8.74159V7.19159C4.53336 4.16659 6.99169 1.70825 10.0167 1.70825C13.0334 1.70825 15.4917 4.16659 15.4917 7.19159V8.74159C15.4917 9.14159 15.675 9.79992 15.8834 10.1416L16.825 11.7083C17.1667 12.2916 17.2334 12.9749 17 13.6083Z" fill="#C2D3FF"/>
<path d="M9.99997 8.9667C9.64997 8.9667 9.36664 8.68337 9.36664 8.33337V5.75003C9.36664 5.40003 9.64997 5.1167 9.99997 5.1167C10.35 5.1167 10.6333 5.40003 10.6333 5.75003V8.33337C10.625 8.68337 10.3416 8.9667 9.99997 8.9667Z" fill="#0071FF"/>
<path d="M12.3584 16.6751C12.0084 17.6417 11.0834 18.3334 10 18.3334C9.34169 18.3334 8.69169 18.0667 8.23336 17.5917C7.96669 17.3417 7.76669 17.0084 7.65002 16.6667C7.75836 16.6834 7.86669 16.6917 7.98336 16.7084C8.17502 16.7334 8.37502 16.7584 8.57502 16.7751C9.05002 16.8167 9.53336 16.8417 10.0167 16.8417C10.4917 16.8417 10.9667 16.8167 11.4334 16.7751C11.6084 16.7584 11.7834 16.7501 11.95 16.7251C12.0834 16.7084 12.2167 16.6917 12.3584 16.6751Z" fill="#0071FF"/>
</svg>
