<svg width="29" height="28" viewBox="0 0 29 28" fill="none" xmlns="http://www.w3.org/2000/svg">
<path fill-rule="evenodd" clip-rule="evenodd" d="M14.125 25.2001C17.0954 25.2001 19.9442 24.0201 22.0446 21.9196C24.145 19.8192 25.325 16.9705 25.325 14C25.325 11.0296 24.145 8.18086 22.0446 6.08045C19.9442 3.98005 17.0954 2.80005 14.125 2.80005C11.1546 2.80005 8.3058 3.98005 6.20539 6.08045C4.10498 8.18086 2.92499 11.0296 2.92499 14C2.92499 16.9705 4.10498 19.8192 6.20539 21.9196C8.3058 24.0201 11.1546 25.2001 14.125 25.2001ZM15.525 9.80005C15.525 9.42875 15.3775 9.07265 15.1149 8.8101C14.8524 8.54755 14.4963 8.40005 14.125 8.40005C13.7537 8.40005 13.3976 8.54755 13.135 8.8101C12.8725 9.07265 12.725 9.42875 12.725 9.80005V12.6H9.92499C9.55369 12.6 9.19759 12.7475 8.93504 13.0101C8.67249 13.2727 8.52499 13.6287 8.52499 14C8.52499 14.3714 8.67249 14.7274 8.93504 14.99C9.19759 15.2526 9.55369 15.4 9.92499 15.4H12.725V18.2001C12.725 18.5714 12.8725 18.9274 13.135 19.19C13.3976 19.4526 13.7537 19.6 14.125 19.6C14.4963 19.6 14.8524 19.4526 15.1149 19.19C15.3775 18.9274 15.525 18.5714 15.525 18.2001V15.4H18.325C18.6963 15.4 19.0524 15.2526 19.3149 14.99C19.5775 14.7274 19.725 14.3714 19.725 14C19.725 13.6287 19.5775 13.2727 19.3149 13.0101C19.0524 12.7475 18.6963 12.6 18.325 12.6H15.525V9.80005Z" fill="#4B84F7"/>
</svg>
