<svg width="29" height="28" viewBox="0 0 29 28" fill="none" xmlns="http://www.w3.org/2000/svg">
<path d="M22.4717 6.32339L16.44 2.83505C15.285 2.17005 13.4767 2.17005 12.3217 2.83505L6.2317 6.34672C3.8167 7.98005 3.6767 8.22505 3.6767 10.8267V17.1617C3.6767 19.7634 3.8167 20.0201 6.27836 21.6767L12.31 25.1651C12.8934 25.5034 13.64 25.6667 14.375 25.6667C15.11 25.6667 15.8567 25.5034 16.4284 25.1651L22.5184 21.6534C24.9334 20.0201 25.0734 19.7751 25.0734 17.1734V10.8267C25.0734 8.22505 24.9334 7.98005 22.4717 6.32339Z" fill="#4B84F7"/>
<path d="M14.375 17.7917C16.4691 17.7917 18.1666 16.0941 18.1666 14C18.1666 11.906 16.4691 10.2084 14.375 10.2084C12.2809 10.2084 10.5833 11.906 10.5833 14C10.5833 16.0941 12.2809 17.7917 14.375 17.7917Z" fill="white"/>
</svg>
