<svg width="24" height="24" viewBox="0 0 24 24" fill="none" xmlns="http://www.w3.org/2000/svg">
<path opacity="0.4" d="M19.8082 11.4916V16.4833C19.8082 18.7833 17.9416 20.65 15.6416 20.65H8.35823C6.05823 20.65 4.19156 18.7833 4.19156 16.4833V11.55C4.82489 12.2333 5.72489 12.625 6.69989 12.625C7.74989 12.625 8.75823 12.1 9.39156 11.2583C9.95823 12.1 10.9249 12.625 11.9999 12.625C13.0666 12.625 14.0166 12.125 14.5916 11.2916C15.2332 12.1166 16.2249 12.625 17.2582 12.625C18.2666 12.625 19.1832 12.2166 19.8082 11.4916Z" fill="#4B84F7"/>
<path d="M14.4917 3.04175H9.49175L8.87508 9.17508C8.82508 9.74175 8.90841 10.2751 9.11675 10.7584C9.60008 11.8917 10.7334 12.6251 12.0001 12.6251C13.2834 12.6251 14.3917 11.9084 14.8917 10.7667C15.0417 10.4084 15.1334 9.99175 15.1417 9.56675V9.40841L14.4917 3.04175Z" fill="#4B84F7"/>
<path opacity="0.7" d="M20.6333 8.89175L20.3917 6.58341C20.0417 4.06675 18.9 3.04175 16.4583 3.04175H13.2583L13.875 9.29175C13.8833 9.37508 13.8917 9.46675 13.8917 9.62508C13.9417 10.0584 14.075 10.4584 14.275 10.8167C14.875 11.9167 16.0417 12.6251 17.2583 12.6251C18.3667 12.6251 19.3667 12.1334 19.9917 11.2667C20.4917 10.6001 20.7167 9.75841 20.6333 8.89175Z" fill="#4B84F7"/>
<path opacity="0.7" d="M7.49159 3.04175C5.04159 3.04175 3.90826 4.06675 3.54992 6.60841L3.32492 8.90008C3.24159 9.79175 3.48326 10.6584 4.00826 11.3334C4.64159 12.1584 5.61659 12.6251 6.69992 12.6251C7.91659 12.6251 9.08326 11.9167 9.67492 10.8334C9.89159 10.4584 10.0333 10.0251 10.0749 9.57508L10.7249 3.05008H7.49159V3.04175Z" fill="#4B84F7"/>
<path d="M11.4584 15.8834C10.4001 15.9917 9.6001 16.8917 9.6001 17.9584V20.65H14.3918V18.25C14.4001 16.5084 13.3751 15.6834 11.4584 15.8834Z" fill="#4B84F7"/>
</svg>
