<svg width="20" height="20" viewBox="0 0 20 20" fill="none" xmlns="http://www.w3.org/2000/svg">
<path d="M17.5667 7.14999V12.85C17.5667 13.7833 17.0667 14.65 16.2583 15.125L11.3083 17.9833C10.5 18.45 9.50001 18.45 8.68334 17.9833L3.73334 15.125C2.92501 14.6583 2.425 13.7916 2.425 12.85V7.14999C2.425 6.21665 2.92501 5.34995 3.73334 4.87495L8.68334 2.01663C9.49168 1.54996 10.4917 1.54996 11.3083 2.01663L16.2583 4.87495C17.0667 5.34995 17.5667 6.20832 17.5667 7.14999Z" fill="white"/>
<path d="M8.125 10.0001V9.00007C8.125 7.71674 9.03334 7.19177 10.1417 7.83344L11.0083 8.33342L11.875 8.8334C12.9833 9.47506 12.9833 10.5251 11.875 11.1668L11.0083 11.6667L10.1417 12.1667C9.03334 12.8084 8.125 12.2834 8.125 11.0001V10.0001Z" fill="#B4D2FF"/>
</svg>
