<svg width="20" height="20" viewBox="0 0 20 20" fill="none" xmlns="http://www.w3.org/2000/svg">
<path d="M18.3333 6.50829V13.4916C18.3333 16.525 16.525 18.3333 13.4917 18.3333H6.50833C3.475 18.3333 1.66666 16.525 1.66666 13.4916V6.50829C1.66666 6.08329 1.7 5.67496 1.775 5.29996C2.2 3.00829 3.89166 1.67496 6.475 1.66663H13.525C16.1083 1.67496 17.8 3.00829 18.225 5.29996C18.3 5.67496 18.3333 6.08329 18.3333 6.50829Z" fill="white"/>
<path d="M18.3333 6.50829V6.54996H1.66666V6.50829C1.66666 6.08329 1.7 5.67496 1.775 5.29996H6.475V1.66663H7.725V5.29996H12.275V1.66663H13.525V5.29996H18.225C18.3 5.67496 18.3333 6.08329 18.3333 6.50829Z" fill="#B4D2FF"/>
<path d="M12.0333 10.6L10.3 9.60003C9.65833 9.23336 9.04167 9.18336 8.55833 9.45836C8.075 9.73336 7.80833 10.3 7.80833 11.0334V13.0334C7.80833 13.7667 8.075 14.3334 8.55833 14.6084C8.76667 14.725 9 14.7834 9.24167 14.7834C9.575 14.7834 9.93333 14.675 10.3 14.4667L12.0333 13.4667C12.675 13.1 13.025 12.5834 13.025 12.025C13.025 11.4667 12.6667 10.975 12.0333 10.6Z" fill="#B4D2FF"/>
</svg>
