<svg width="259" height="239" viewBox="0 0 259 239" fill="none" xmlns="http://www.w3.org/2000/svg">
<rect width="259" height="239" rx="14" fill="url(#paint0_linear_5260_95228)"/>
<path d="M15.582 187.122C13.9072 187.122 12.8281 186.355 12.7451 185.057L12.7402 184.979H14.1318L14.1416 185.032C14.2344 185.579 14.8154 185.921 15.6211 185.921C16.4365 185.921 16.9492 185.564 16.9492 185.027V185.022C16.9492 184.544 16.6025 184.305 15.7285 184.124L14.9863 183.978C13.5947 183.699 12.8916 183.035 12.8916 181.976V181.971C12.8916 180.682 14.0146 179.832 15.5771 179.832C17.208 179.832 18.209 180.647 18.2773 181.883L18.2822 181.976H16.8906L16.8857 181.917C16.8125 181.365 16.3047 181.028 15.5771 181.028C14.8203 181.033 14.3662 181.38 14.3662 181.883V181.888C14.3662 182.332 14.7275 182.591 15.5381 182.752L16.2852 182.903C17.7598 183.196 18.4238 183.797 18.4238 184.905V184.91C18.4238 186.263 17.3594 187.122 15.582 187.122ZM18.7314 187L21.1924 179.954H22.9258L25.3818 187H23.834L23.3018 185.291H20.8115L20.2793 187H18.7314ZM22.042 181.321L21.1533 184.188H22.96L22.0713 181.321H22.042ZM26.832 187V181.17H24.7959V179.954H30.3477V181.17H28.3066V187H26.832Z" fill="white"/>
<path d="M49.3857 187.122C47.7109 187.122 46.6318 186.355 46.5488 185.057L46.5439 184.979H47.9355L47.9453 185.032C48.0381 185.579 48.6191 185.921 49.4248 185.921C50.2402 185.921 50.7529 185.564 50.7529 185.027V185.022C50.7529 184.544 50.4062 184.305 49.5322 184.124L48.79 183.978C47.3984 183.699 46.6953 183.035 46.6953 181.976V181.971C46.6953 180.682 47.8184 179.832 49.3809 179.832C51.0117 179.832 52.0127 180.647 52.0811 181.883L52.0859 181.976H50.6943L50.6895 181.917C50.6162 181.365 50.1084 181.028 49.3809 181.028C48.624 181.033 48.1699 181.38 48.1699 181.883V181.888C48.1699 182.332 48.5312 182.591 49.3418 182.752L50.0889 182.903C51.5635 183.196 52.2275 183.797 52.2275 184.905V184.91C52.2275 186.263 51.1631 187.122 49.3857 187.122ZM56.085 187.122C54.2783 187.122 53.1309 186.077 53.1309 184.51V179.954H54.6055V184.378C54.6055 185.291 55.1377 185.872 56.085 185.872C57.0322 185.872 57.5596 185.291 57.5596 184.378V179.954H59.0342V184.51C59.0342 186.072 57.9014 187.122 56.085 187.122ZM60.2109 187V179.954H61.5L64.6836 184.534H64.7129V179.954H66.1826V187H64.9033L61.71 182.386H61.6807V187H60.2109Z" fill="white"/>
<path d="M82.9404 187V179.954H84.6445L86.6465 185.018H86.6758L88.6777 179.954H90.3818V187H89.0684V182.234H89.0244L87.125 187H86.1973L84.293 182.234H84.2539V187H82.9404ZM94.7324 187.122C92.6377 187.122 91.334 185.721 91.334 183.479V183.47C91.334 181.229 92.6475 179.832 94.7324 179.832C96.8223 179.832 98.1309 181.233 98.1309 183.47V183.479C98.1309 185.721 96.8271 187.122 94.7324 187.122ZM94.7324 185.872C95.9043 185.872 96.627 184.939 96.627 183.479V183.47C96.627 182 95.8896 181.082 94.7324 181.082C93.5801 181.082 92.8379 181.995 92.8379 183.47V183.479C92.8379 184.954 93.5752 185.872 94.7324 185.872ZM99.083 187V179.954H100.372L103.556 184.534H103.585V179.954H105.055V187H103.775L100.582 182.386H100.553V187H99.083Z" fill="white"/>
<path d="M123.356 187V181.17H121.32V179.954H126.872V181.17H124.831V187H123.356ZM130.642 187.122C128.835 187.122 127.688 186.077 127.688 184.51V179.954H129.162V184.378C129.162 185.291 129.694 185.872 130.642 185.872C131.589 185.872 132.116 185.291 132.116 184.378V179.954H133.591V184.51C133.591 186.072 132.458 187.122 130.642 187.122ZM134.768 187V179.954H139.436V181.17H136.242V182.859H139.255V184.012H136.242V185.784H139.436V187H134.768Z" fill="white"/>
<path d="M157.379 187L155.514 179.954H157.042L158.155 185.003H158.185L159.483 179.954H160.777L162.076 185.003H162.105L163.224 179.954H164.752L162.882 187H161.441L160.147 182.278H160.118L158.819 187H157.379ZM165.548 187V179.954H170.216V181.17H167.022V182.859H170.035V184.012H167.022V185.784H170.216V187H165.548ZM171.28 187V179.954H173.971C176.08 179.954 177.33 181.209 177.33 183.44V183.45C177.33 185.687 176.085 187 173.971 187H171.28ZM172.755 185.779H173.795C175.113 185.779 175.826 184.979 175.826 183.455V183.445C175.826 181.976 175.089 181.17 173.795 181.17H172.755V185.779Z" fill="white"/>
<path d="M195.575 187V181.17H193.539V179.954H199.091V181.17H197.05V187H195.575ZM199.906 187V179.954H201.381V182.815H204.555V179.954H206.029V187H204.555V184.031H201.381V187H199.906ZM210.155 187.122C208.349 187.122 207.201 186.077 207.201 184.51V179.954H208.676V184.378C208.676 185.291 209.208 185.872 210.155 185.872C211.103 185.872 211.63 185.291 211.63 184.378V179.954H213.104V184.51C213.104 186.072 211.972 187.122 210.155 187.122Z" fill="white"/>
<path d="M229.815 187V179.954H234.43V181.17H231.29V183.06H234.156V184.227H231.29V187H229.815ZM235.304 187V179.954H238.214C239.796 179.954 240.733 180.794 240.733 182.21V182.22C240.733 183.147 240.24 183.919 239.459 184.227L240.943 187H239.273L237.96 184.446H236.778V187H235.304ZM236.778 183.328H238.053C238.785 183.328 239.225 182.913 239.225 182.22V182.21C239.225 181.536 238.761 181.106 238.033 181.106H236.778V183.328ZM241.71 187V179.954H243.185V187H241.71Z" fill="white"/>
<path d="M21.5 214.646C23.025 214.646 24.4875 214.041 25.5659 212.962C26.6442 211.884 27.25 210.421 27.25 208.896C27.25 207.371 26.6442 205.909 25.5659 204.831C24.4875 203.752 23.025 203.146 21.5 203.146C19.975 203.146 18.5125 203.752 17.4341 204.831C16.3558 205.909 15.75 207.371 15.75 208.896C15.75 210.421 16.3558 211.884 17.4341 212.962C18.5125 214.041 19.975 214.646 21.5 214.646ZM21.5 197.396C21.6906 197.396 21.8734 197.472 22.0082 197.607C22.143 197.742 22.2188 197.925 22.2188 198.115V200.99C22.2188 201.181 22.143 201.364 22.0082 201.498C21.8734 201.633 21.6906 201.709 21.5 201.709C21.3094 201.709 21.1266 201.633 20.9918 201.498C20.857 201.364 20.7812 201.181 20.7812 200.99V198.115C20.7812 197.925 20.857 197.742 20.9918 197.607C21.1266 197.472 21.3094 197.396 21.5 197.396V197.396ZM21.5 216.084C21.6906 216.084 21.8734 216.16 22.0082 216.295C22.143 216.429 22.2188 216.612 22.2188 216.803V219.678C22.2188 219.868 22.143 220.051 22.0082 220.186C21.8734 220.321 21.6906 220.396 21.5 220.396C21.3094 220.396 21.1266 220.321 20.9918 220.186C20.857 220.051 20.7812 219.868 20.7812 219.678V216.803C20.7812 216.612 20.857 216.429 20.9918 216.295C21.1266 216.16 21.3094 216.084 21.5 216.084ZM33 208.896C33 209.087 32.9243 209.27 32.7895 209.405C32.6547 209.54 32.4719 209.615 32.2812 209.615H29.4062C29.2156 209.615 29.0328 209.54 28.898 209.405C28.7632 209.27 28.6875 209.087 28.6875 208.896C28.6875 208.706 28.7632 208.523 28.898 208.388C29.0328 208.253 29.2156 208.178 29.4062 208.178H32.2812C32.4719 208.178 32.6547 208.253 32.7895 208.388C32.9243 208.523 33 208.706 33 208.896ZM14.3125 208.896C14.3125 209.087 14.2368 209.27 14.102 209.405C13.9672 209.54 13.7844 209.615 13.5938 209.615H10.7188C10.5281 209.615 10.3453 209.54 10.2105 209.405C10.0757 209.27 10 209.087 10 208.896C10 208.706 10.0757 208.523 10.2105 208.388C10.3453 208.253 10.5281 208.178 10.7188 208.178H13.5938C13.7844 208.178 13.9672 208.253 14.102 208.388C14.2368 208.523 14.3125 208.706 14.3125 208.896ZM29.6319 200.765C29.7667 200.899 29.8424 201.082 29.8424 201.273C29.8424 201.463 29.7667 201.646 29.6319 201.781L27.5993 203.815C27.5325 203.882 27.4532 203.935 27.3659 203.971C27.2786 204.007 27.1851 204.025 27.0906 204.025C26.8999 204.025 26.7171 203.949 26.5823 203.814C26.5155 203.747 26.4626 203.668 26.4266 203.581C26.3905 203.494 26.3719 203.4 26.372 203.306C26.3721 203.115 26.448 202.932 26.583 202.797L28.6156 200.765C28.7504 200.63 28.9332 200.554 29.1238 200.554C29.3144 200.554 29.4972 200.63 29.6319 200.765ZM16.417 213.979C16.5517 214.114 16.6274 214.297 16.6274 214.488C16.6274 214.678 16.5517 214.861 16.417 214.996L14.3844 217.028C14.2488 217.159 14.0673 217.232 13.8788 217.23C13.6904 217.229 13.5101 217.153 13.3768 217.02C13.2436 216.886 13.168 216.706 13.1663 216.518C13.1647 216.329 13.2371 216.148 13.3681 216.012L15.4007 213.979C15.5355 213.845 15.7183 213.769 15.9088 213.769C16.0994 213.769 16.2822 213.845 16.417 213.979ZM29.6319 217.028C29.4972 217.163 29.3144 217.239 29.1238 217.239C28.9332 217.239 28.7504 217.163 28.6156 217.028L26.583 214.996C26.4521 214.86 26.3796 214.679 26.3813 214.49C26.3829 214.302 26.4585 214.122 26.5918 213.988C26.725 213.855 26.9053 213.779 27.0937 213.778C27.2822 213.776 27.4638 213.849 27.5993 213.979L29.6319 216.012C29.7667 216.147 29.8424 216.33 29.8424 216.52C29.8424 216.711 29.7667 216.894 29.6319 217.028ZM16.417 203.815C16.2822 203.95 16.0994 204.025 15.9088 204.025C15.7183 204.025 15.5355 203.95 15.4007 203.815L13.3681 201.781C13.2994 201.715 13.2447 201.635 13.207 201.548C13.1693 201.46 13.1495 201.366 13.1487 201.27C13.1478 201.175 13.166 201.08 13.2022 200.992C13.2383 200.903 13.2917 200.823 13.3592 200.756C13.4266 200.688 13.5069 200.635 13.5952 200.599C13.6836 200.563 13.7782 200.544 13.8736 200.545C13.9691 200.546 14.0634 200.566 14.1511 200.603C14.2388 200.641 14.3181 200.696 14.3844 200.765L16.417 202.797C16.4839 202.864 16.537 202.943 16.5733 203.031C16.6095 203.118 16.6282 203.212 16.6282 203.306C16.6282 203.401 16.6095 203.494 16.5733 203.582C16.537 203.669 16.4839 203.748 16.417 203.815Z" fill="white"/>
<path d="M57.5 214.646C59.025 214.646 60.4875 214.041 61.5659 212.962C62.6442 211.884 63.25 210.421 63.25 208.896C63.25 207.371 62.6442 205.909 61.5659 204.831C60.4875 203.752 59.025 203.146 57.5 203.146C55.975 203.146 54.5125 203.752 53.4341 204.831C52.3558 205.909 51.75 207.371 51.75 208.896C51.75 210.421 52.3558 211.884 53.4341 212.962C54.5125 214.041 55.975 214.646 57.5 214.646ZM57.5 197.396C57.6906 197.396 57.8734 197.472 58.0082 197.607C58.143 197.742 58.2188 197.925 58.2188 198.115V200.99C58.2188 201.181 58.143 201.364 58.0082 201.498C57.8734 201.633 57.6906 201.709 57.5 201.709C57.3094 201.709 57.1266 201.633 56.9918 201.498C56.857 201.364 56.7812 201.181 56.7812 200.99V198.115C56.7812 197.925 56.857 197.742 56.9918 197.607C57.1266 197.472 57.3094 197.396 57.5 197.396V197.396ZM57.5 216.084C57.6906 216.084 57.8734 216.16 58.0082 216.295C58.143 216.429 58.2188 216.612 58.2188 216.803V219.678C58.2188 219.868 58.143 220.051 58.0082 220.186C57.8734 220.321 57.6906 220.396 57.5 220.396C57.3094 220.396 57.1266 220.321 56.9918 220.186C56.857 220.051 56.7812 219.868 56.7812 219.678V216.803C56.7812 216.612 56.857 216.429 56.9918 216.295C57.1266 216.16 57.3094 216.084 57.5 216.084ZM69 208.896C69 209.087 68.9243 209.27 68.7895 209.405C68.6547 209.54 68.4719 209.615 68.2812 209.615H65.4062C65.2156 209.615 65.0328 209.54 64.898 209.405C64.7632 209.27 64.6875 209.087 64.6875 208.896C64.6875 208.706 64.7632 208.523 64.898 208.388C65.0328 208.253 65.2156 208.178 65.4062 208.178H68.2812C68.4719 208.178 68.6547 208.253 68.7895 208.388C68.9243 208.523 69 208.706 69 208.896ZM50.3125 208.896C50.3125 209.087 50.2368 209.27 50.102 209.405C49.9672 209.54 49.7844 209.615 49.5938 209.615H46.7188C46.5281 209.615 46.3453 209.54 46.2105 209.405C46.0757 209.27 46 209.087 46 208.896C46 208.706 46.0757 208.523 46.2105 208.388C46.3453 208.253 46.5281 208.178 46.7188 208.178H49.5938C49.7844 208.178 49.9672 208.253 50.102 208.388C50.2368 208.523 50.3125 208.706 50.3125 208.896ZM65.6319 200.765C65.7667 200.899 65.8424 201.082 65.8424 201.273C65.8424 201.463 65.7667 201.646 65.6319 201.781L63.5993 203.815C63.5325 203.882 63.4532 203.935 63.3659 203.971C63.2786 204.007 63.1851 204.025 63.0906 204.025C62.8999 204.025 62.7171 203.949 62.5823 203.814C62.5155 203.747 62.4626 203.668 62.4266 203.581C62.3905 203.494 62.3719 203.4 62.372 203.306C62.3721 203.115 62.448 202.932 62.583 202.797L64.6156 200.765C64.7504 200.63 64.9332 200.554 65.1238 200.554C65.3144 200.554 65.4972 200.63 65.6319 200.765ZM52.417 213.979C52.5517 214.114 52.6274 214.297 52.6274 214.488C52.6274 214.678 52.5517 214.861 52.417 214.996L50.3844 217.028C50.2488 217.159 50.0673 217.232 49.8788 217.23C49.6904 217.229 49.5101 217.153 49.3768 217.02C49.2436 216.886 49.168 216.706 49.1663 216.518C49.1647 216.329 49.2371 216.148 49.3681 216.012L51.4007 213.979C51.5355 213.845 51.7183 213.769 51.9088 213.769C52.0994 213.769 52.2822 213.845 52.417 213.979ZM65.6319 217.028C65.4972 217.163 65.3144 217.239 65.1238 217.239C64.9332 217.239 64.7504 217.163 64.6156 217.028L62.583 214.996C62.4521 214.86 62.3796 214.679 62.3813 214.49C62.3829 214.302 62.4585 214.122 62.5918 213.988C62.725 213.855 62.9053 213.779 63.0937 213.778C63.2822 213.776 63.4638 213.849 63.5993 213.979L65.6319 216.012C65.7667 216.147 65.8424 216.33 65.8424 216.52C65.8424 216.711 65.7667 216.894 65.6319 217.028ZM52.417 203.815C52.2822 203.95 52.0994 204.025 51.9088 204.025C51.7183 204.025 51.5355 203.95 51.4007 203.815L49.3681 201.781C49.2994 201.715 49.2447 201.635 49.207 201.548C49.1693 201.46 49.1495 201.366 49.1487 201.27C49.1478 201.175 49.166 201.08 49.2022 200.992C49.2383 200.903 49.2917 200.823 49.3592 200.756C49.4266 200.688 49.5069 200.635 49.5952 200.599C49.6836 200.563 49.7782 200.544 49.8736 200.545C49.9691 200.546 50.0634 200.566 50.1511 200.603C50.2388 200.641 50.3181 200.696 50.3844 200.765L52.417 202.797C52.4839 202.864 52.537 202.943 52.5733 203.031C52.6095 203.118 52.6282 203.212 52.6282 203.306C52.6282 203.401 52.6095 203.494 52.5733 203.582C52.537 203.669 52.4839 203.748 52.417 203.815Z" fill="white"/>
<path d="M98.4934 212.49C98.3317 211.033 97.6796 209.673 96.6442 208.635C95.6088 207.597 94.2514 206.942 92.7946 206.777C91.3378 206.611 89.868 206.946 88.6263 207.725C87.3845 208.505 86.4444 209.683 85.9601 211.067C84.8505 211.158 83.8189 211.674 83.0815 212.508C82.344 213.342 81.9578 214.43 82.0037 215.542C82.0495 216.654 82.5239 217.706 83.3276 218.477C84.1312 219.247 85.2018 219.677 86.3151 219.676H98.5322C99.4852 219.676 100.399 219.298 101.073 218.624C101.747 217.95 102.125 217.036 102.125 216.083C102.125 215.13 101.747 214.216 101.073 213.542C100.399 212.868 99.4852 212.49 98.5322 212.49H98.4934Z" fill="white"/>
<path d="M97.0949 198.835C97.0949 198.645 97.0192 198.462 96.8844 198.327C96.7496 198.192 96.5668 198.117 96.3762 198.117C96.1856 198.117 96.0028 198.192 95.8681 198.327C95.7333 198.462 95.6576 198.645 95.6576 198.835V200.273C95.6576 200.463 95.7333 200.646 95.8681 200.781C96.0028 200.916 96.1856 200.991 96.3762 200.991C96.5668 200.991 96.7496 200.916 96.8844 200.781C97.0192 200.646 97.0949 200.463 97.0949 200.273V198.835ZM102.475 201.658C102.543 201.592 102.598 201.513 102.636 201.425C102.673 201.337 102.693 201.243 102.694 201.148C102.695 201.052 102.677 200.957 102.641 200.869C102.604 200.781 102.551 200.701 102.484 200.633C102.416 200.566 102.336 200.512 102.248 200.476C102.159 200.44 102.065 200.422 101.969 200.423C101.874 200.423 101.779 200.443 101.692 200.481C101.604 200.519 101.525 200.573 101.459 200.642L100.441 201.658C100.306 201.793 100.23 201.976 100.23 202.167C100.23 202.358 100.306 202.541 100.441 202.676C100.576 202.811 100.759 202.887 100.95 202.887C101.141 202.887 101.324 202.811 101.459 202.676L102.475 201.658ZM91.294 200.642C91.1584 200.511 90.9769 200.439 90.7885 200.44C90.6 200.442 90.4198 200.518 90.2865 200.651C90.1533 200.784 90.0777 200.964 90.0761 201.153C90.0744 201.341 90.1469 201.523 90.2778 201.658L91.294 202.676C91.3608 202.743 91.4401 202.796 91.5274 202.832C91.6147 202.868 91.7083 202.887 91.8028 202.887C91.8972 202.887 91.9908 202.868 92.0781 202.832C92.1654 202.796 92.2447 202.743 92.3116 202.676C92.3784 202.609 92.4314 202.53 92.4675 202.442C92.5037 202.355 92.5223 202.261 92.5223 202.167C92.5223 202.073 92.5037 201.979 92.4675 201.892C92.4314 201.804 92.3784 201.725 92.3116 201.658L91.294 200.642ZM93.7862 205.491C93.9649 205.121 94.2208 204.794 94.5368 204.531C94.8528 204.268 95.2215 204.076 95.618 203.968C96.0145 203.859 96.4297 203.837 96.8354 203.903C97.2411 203.969 97.6281 204.121 97.97 204.349C98.312 204.577 98.6011 204.876 98.8178 205.225C99.0345 205.575 99.1738 205.966 99.2262 206.374C99.2787 206.782 99.2431 207.196 99.1219 207.588C99.0007 207.981 98.7966 208.343 98.5236 208.651C98.8096 209.055 99.0582 209.487 99.2652 209.941C99.7523 209.501 100.132 208.956 100.377 208.346C100.621 207.737 100.723 207.08 100.675 206.425C100.627 205.771 100.429 205.136 100.099 204.569C99.7677 204.002 99.3117 203.518 98.7654 203.154C98.2191 202.79 97.5969 202.555 96.9462 202.468C96.2956 202.381 95.6336 202.444 95.0108 202.651C94.3881 202.859 93.8209 203.206 93.3526 203.666C92.8843 204.126 92.5273 204.687 92.3087 205.306C92.8146 205.322 93.309 205.385 93.7862 205.491ZM100.231 211.347C101.093 211.656 101.848 212.195 102.419 212.888C102.497 212.824 102.561 212.745 102.607 212.656C102.652 212.566 102.679 212.468 102.684 212.367C102.689 212.266 102.673 212.166 102.637 212.072C102.601 211.978 102.546 211.893 102.475 211.821L101.459 210.805C101.356 210.702 101.225 210.633 101.082 210.606C100.939 210.579 100.792 210.596 100.659 210.654C100.526 210.713 100.414 210.811 100.337 210.934C100.261 211.058 100.224 211.202 100.231 211.347ZM102.844 206.022C102.653 206.022 102.471 206.098 102.336 206.232C102.201 206.367 102.125 206.55 102.125 206.74C102.125 206.931 102.201 207.114 102.336 207.249C102.471 207.383 102.653 207.459 102.844 207.459H104.281C104.472 207.459 104.655 207.383 104.79 207.249C104.924 207.114 105 206.931 105 206.74C105 206.55 104.924 206.367 104.79 206.232C104.655 206.098 104.472 206.022 104.281 206.022H102.844Z" fill="white"/>
<path d="M136.849 208.078C136.664 206.413 135.919 204.86 134.736 203.673C133.553 202.487 132.001 201.738 130.336 201.549C128.672 201.36 126.992 201.742 125.573 202.633C124.154 203.524 123.079 204.871 122.526 206.452C121.258 206.556 120.079 207.146 119.236 208.1C118.393 209.053 117.952 210.295 118.004 211.566C118.057 212.838 118.599 214.04 119.517 214.92C120.436 215.801 121.659 216.292 122.931 216.291H136.894C137.983 216.291 139.027 215.859 139.797 215.088C140.567 214.318 141 213.274 141 212.185C141 211.096 140.567 210.051 139.797 209.281C139.027 208.511 137.983 208.078 136.894 208.078H136.849Z" fill="white"/>
<path d="M175.427 203.115C174.595 202.286 173.485 201.707 172.196 201.43C172.075 201.404 171.962 201.35 171.866 201.273C171.77 201.195 171.693 201.096 171.642 200.984C171.168 199.949 170.45 199.044 169.55 198.346C168.399 197.465 166.998 197 165.5 197C163.793 196.995 162.143 197.618 160.865 198.751C159.666 199.82 158.837 201.296 158.465 203.005C158.434 203.15 158.363 203.283 158.26 203.39C158.157 203.497 158.027 203.572 157.884 203.609C156.645 203.921 156.114 204.231 155.444 204.826C154.496 205.671 154 206.822 154 208.143C154 209.657 154.557 210.901 155.61 211.74C156.532 212.474 157.792 212.862 159.254 212.862H170.853C172.499 212.862 174.031 212.294 175.166 211.262C176.348 210.189 177 208.701 177 207.072C177 205.512 176.455 204.143 175.427 203.115Z" fill="white"/>
<path d="M158.362 218.414C158.219 218.414 158.078 218.375 157.955 218.301C157.832 218.227 157.731 218.121 157.663 217.994C157.595 217.868 157.563 217.725 157.57 217.582C157.577 217.439 157.623 217.3 157.703 217.18L159.289 214.801C159.347 214.714 159.421 214.64 159.508 214.582C159.594 214.524 159.691 214.484 159.794 214.463C159.896 214.443 160.001 214.443 160.103 214.463C160.205 214.483 160.302 214.524 160.389 214.581C160.476 214.639 160.55 214.714 160.608 214.8C160.666 214.887 160.706 214.984 160.727 215.086C160.747 215.188 160.747 215.293 160.727 215.395C160.707 215.498 160.666 215.595 160.609 215.681L159.022 218.061C158.95 218.169 158.852 218.258 158.736 218.32C158.621 218.382 158.493 218.414 158.362 218.414Z" fill="white"/>
<path d="M160.741 220.793C160.598 220.793 160.457 220.754 160.334 220.68C160.211 220.606 160.11 220.5 160.043 220.374C159.975 220.247 159.943 220.104 159.95 219.961C159.957 219.818 160.003 219.679 160.083 219.56L163.255 214.801C163.313 214.714 163.387 214.64 163.474 214.582C163.56 214.524 163.657 214.484 163.76 214.463C163.862 214.443 163.967 214.443 164.069 214.463C164.171 214.483 164.268 214.524 164.355 214.581C164.442 214.639 164.516 214.714 164.574 214.8C164.632 214.887 164.672 214.984 164.693 215.086C164.713 215.188 164.713 215.293 164.693 215.395C164.673 215.498 164.632 215.595 164.575 215.681L161.402 220.44C161.33 220.549 161.231 220.638 161.116 220.699C161.001 220.761 160.872 220.793 160.741 220.793Z" fill="white"/>
<path d="M166.293 218.414C166.15 218.414 166.009 218.375 165.886 218.301C165.763 218.227 165.662 218.121 165.594 217.994C165.526 217.868 165.494 217.725 165.501 217.582C165.508 217.439 165.554 217.3 165.634 217.18L167.22 214.801C167.337 214.626 167.518 214.505 167.725 214.463C167.931 214.422 168.145 214.465 168.32 214.581C168.495 214.698 168.616 214.88 168.658 215.086C168.699 215.292 168.656 215.506 168.54 215.681L166.953 218.061C166.881 218.169 166.783 218.258 166.668 218.32C166.552 218.382 166.424 218.414 166.293 218.414Z" fill="white"/>
<path d="M168.672 220.793C168.529 220.793 168.388 220.754 168.265 220.68C168.142 220.606 168.041 220.5 167.973 220.374C167.906 220.247 167.874 220.105 167.881 219.961C167.888 219.818 167.933 219.679 168.013 219.56L171.186 214.801C171.302 214.626 171.484 214.505 171.69 214.463C171.896 214.422 172.111 214.465 172.286 214.581C172.46 214.698 172.582 214.88 172.623 215.086C172.664 215.292 172.622 215.506 172.505 215.681L169.333 220.44C169.26 220.549 169.162 220.638 169.047 220.699C168.932 220.761 168.803 220.793 168.672 220.793Z" fill="white"/>
<path d="M208.849 208.078C208.664 206.413 207.919 204.86 206.736 203.673C205.553 202.487 204.001 201.738 202.336 201.549C200.672 201.36 198.992 201.742 197.573 202.633C196.154 203.524 195.079 204.871 194.526 206.452C193.258 206.556 192.079 207.146 191.236 208.1C190.393 209.053 189.952 210.295 190.004 211.566C190.057 212.838 190.599 214.04 191.517 214.92C192.436 215.801 193.659 216.292 194.931 216.291H208.894C209.983 216.291 211.027 215.859 211.797 215.088C212.567 214.318 213 213.274 213 212.185C213 211.096 212.567 210.051 211.797 209.281C211.027 208.511 209.983 208.078 208.894 208.078H208.849Z" fill="white"/>
<path d="M242.493 212.49C242.332 211.033 241.68 209.673 240.644 208.635C239.609 207.597 238.251 206.942 236.795 206.777C235.338 206.611 233.868 206.946 232.626 207.725C231.384 208.505 230.444 209.683 229.96 211.067C228.85 211.158 227.819 211.674 227.081 212.508C226.344 213.342 225.958 214.43 226.004 215.542C226.05 216.654 226.524 217.706 227.328 218.477C228.131 219.247 229.202 219.677 230.315 219.676H242.532C243.485 219.676 244.399 219.298 245.073 218.624C245.747 217.95 246.125 217.036 246.125 216.083C246.125 215.13 245.747 214.216 245.073 213.542C244.399 212.868 243.485 212.49 242.532 212.49H242.493Z" fill="white"/>
<path d="M241.095 198.835C241.095 198.645 241.019 198.462 240.884 198.327C240.75 198.192 240.567 198.117 240.376 198.117C240.186 198.117 240.003 198.192 239.868 198.327C239.733 198.462 239.658 198.645 239.658 198.835V200.273C239.658 200.463 239.733 200.646 239.868 200.781C240.003 200.916 240.186 200.991 240.376 200.991C240.567 200.991 240.75 200.916 240.884 200.781C241.019 200.646 241.095 200.463 241.095 200.273V198.835ZM246.475 201.658C246.543 201.592 246.598 201.513 246.636 201.425C246.673 201.337 246.693 201.243 246.694 201.148C246.695 201.052 246.677 200.957 246.641 200.869C246.604 200.781 246.551 200.701 246.484 200.633C246.416 200.566 246.336 200.512 246.248 200.476C246.159 200.44 246.065 200.422 245.969 200.423C245.874 200.423 245.779 200.443 245.692 200.481C245.604 200.519 245.525 200.573 245.459 200.642L244.441 201.658C244.306 201.793 244.23 201.976 244.23 202.167C244.23 202.358 244.306 202.541 244.441 202.676C244.576 202.811 244.759 202.887 244.95 202.887C245.141 202.887 245.324 202.811 245.459 202.676L246.475 201.658ZM235.294 200.642C235.158 200.511 234.977 200.439 234.788 200.44C234.6 200.442 234.42 200.518 234.287 200.651C234.153 200.784 234.078 200.964 234.076 201.153C234.074 201.341 234.147 201.523 234.278 201.658L235.294 202.676C235.361 202.743 235.44 202.796 235.527 202.832C235.615 202.868 235.708 202.887 235.803 202.887C235.897 202.887 235.991 202.868 236.078 202.832C236.165 202.796 236.245 202.743 236.312 202.676C236.378 202.609 236.431 202.53 236.468 202.442C236.504 202.355 236.522 202.261 236.522 202.167C236.522 202.073 236.504 201.979 236.468 201.892C236.431 201.804 236.378 201.725 236.312 201.658L235.294 200.642ZM237.786 205.491C237.965 205.121 238.221 204.794 238.537 204.531C238.853 204.268 239.221 204.076 239.618 203.968C240.015 203.859 240.43 203.837 240.835 203.903C241.241 203.969 241.628 204.121 241.97 204.349C242.312 204.577 242.601 204.876 242.818 205.225C243.034 205.575 243.174 205.966 243.226 206.374C243.279 206.782 243.243 207.196 243.122 207.588C243.001 207.981 242.797 208.343 242.524 208.651C242.81 209.055 243.058 209.487 243.265 209.941C243.752 209.501 244.132 208.956 244.377 208.346C244.621 207.737 244.723 207.08 244.675 206.425C244.627 205.771 244.429 205.136 244.099 204.569C243.768 204.002 243.312 203.518 242.765 203.154C242.219 202.79 241.597 202.555 240.946 202.468C240.296 202.381 239.634 202.444 239.011 202.651C238.388 202.859 237.821 203.206 237.353 203.666C236.884 204.126 236.527 204.687 236.309 205.306C236.815 205.322 237.309 205.385 237.786 205.491ZM244.231 211.347C245.093 211.656 245.848 212.195 246.419 212.888C246.497 212.824 246.561 212.745 246.607 212.656C246.652 212.566 246.679 212.468 246.684 212.367C246.689 212.266 246.673 212.166 246.637 212.072C246.601 211.978 246.546 211.893 246.475 211.821L245.459 210.805C245.356 210.702 245.225 210.633 245.082 210.606C244.939 210.579 244.792 210.596 244.659 210.654C244.526 210.713 244.414 210.811 244.337 210.934C244.261 211.058 244.224 211.202 244.231 211.347ZM246.844 206.022C246.653 206.022 246.471 206.098 246.336 206.232C246.201 206.367 246.125 206.55 246.125 206.74C246.125 206.931 246.201 207.114 246.336 207.249C246.471 207.383 246.653 207.459 246.844 207.459H248.281C248.472 207.459 248.655 207.383 248.79 207.249C248.924 207.114 249 206.931 249 206.74C249 206.55 248.924 206.367 248.79 206.232C248.655 206.098 248.472 206.022 248.281 206.022H246.844Z" fill="white"/>
<path d="M218 69C221.978 69 225.794 67.4196 228.607 64.6066C231.42 61.7936 233 57.9782 233 54C233 50.0218 231.42 46.2064 228.607 43.3934C225.794 40.5804 221.978 39 218 39C214.022 39 210.206 40.5804 207.393 43.3934C204.58 46.2064 203 50.0218 203 54C203 57.9782 204.58 61.7936 207.393 64.6066C210.206 67.4196 214.022 69 218 69ZM218 24C218.497 24 218.974 24.1975 219.326 24.5492C219.677 24.9008 219.875 25.3777 219.875 25.875V33.375C219.875 33.8723 219.677 34.3492 219.326 34.7008C218.974 35.0525 218.497 35.25 218 35.25C217.503 35.25 217.026 35.0525 216.674 34.7008C216.323 34.3492 216.125 33.8723 216.125 33.375V25.875C216.125 25.3777 216.323 24.9008 216.674 24.5492C217.026 24.1975 217.503 24 218 24V24ZM218 72.75C218.497 72.75 218.974 72.9475 219.326 73.2992C219.677 73.6508 219.875 74.1277 219.875 74.625V82.125C219.875 82.6223 219.677 83.0992 219.326 83.4508C218.974 83.8025 218.497 84 218 84C217.503 84 217.026 83.8025 216.674 83.4508C216.323 83.0992 216.125 82.6223 216.125 82.125V74.625C216.125 74.1277 216.323 73.6508 216.674 73.2992C217.026 72.9475 217.503 72.75 218 72.75ZM248 54C248 54.4973 247.802 54.9742 247.451 55.3258C247.099 55.6775 246.622 55.875 246.125 55.875H238.625C238.128 55.875 237.651 55.6775 237.299 55.3258C236.948 54.9742 236.75 54.4973 236.75 54C236.75 53.5027 236.948 53.0258 237.299 52.6742C237.651 52.3225 238.128 52.125 238.625 52.125H246.125C246.622 52.125 247.099 52.3225 247.451 52.6742C247.802 53.0258 248 53.5027 248 54ZM199.25 54C199.25 54.4973 199.052 54.9742 198.701 55.3258C198.349 55.6775 197.872 55.875 197.375 55.875H189.875C189.378 55.875 188.901 55.6775 188.549 55.3258C188.198 54.9742 188 54.4973 188 54C188 53.5027 188.198 53.0258 188.549 52.6742C188.901 52.3225 189.378 52.125 189.875 52.125H197.375C197.872 52.125 198.349 52.3225 198.701 52.6742C199.052 53.0258 199.25 53.5027 199.25 54ZM239.214 32.7863C239.565 33.1379 239.763 33.6147 239.763 34.1119C239.763 34.6091 239.565 35.0859 239.214 35.4375L233.911 40.7438C233.737 40.9178 233.53 41.0559 233.302 41.15C233.075 41.2441 232.831 41.2925 232.584 41.2923C232.087 41.2919 231.61 41.094 231.258 40.7419C231.084 40.5675 230.946 40.3606 230.852 40.133C230.758 39.9053 230.709 39.6613 230.71 39.4149C230.71 38.9174 230.908 38.4403 231.26 38.0887L236.562 32.7863C236.914 32.4347 237.391 32.2373 237.888 32.2373C238.385 32.2373 238.862 32.4347 239.214 32.7863ZM204.74 67.26C205.092 67.6116 205.289 68.0884 205.289 68.5856C205.289 69.0828 205.092 69.5596 204.74 69.9113L199.438 75.2137C199.084 75.5553 198.61 75.7443 198.119 75.74C197.627 75.7357 197.157 75.5386 196.809 75.1909C196.461 74.8433 196.264 74.373 196.26 73.8814C196.256 73.3898 196.445 72.9161 196.786 72.5625L202.089 67.26C202.44 66.9085 202.917 66.711 203.414 66.711C203.912 66.711 204.388 66.9085 204.74 67.26ZM239.214 75.2137C238.862 75.5653 238.385 75.7627 237.888 75.7627C237.391 75.7627 236.914 75.5653 236.562 75.2137L231.26 69.9113C230.918 69.5576 230.729 69.084 230.734 68.5924C230.738 68.1008 230.935 67.6305 231.283 67.2828C231.63 66.9352 232.101 66.738 232.592 66.7337C233.084 66.7295 233.558 66.9185 233.911 67.26L239.214 72.5625C239.565 72.9141 239.763 73.3909 239.763 73.8881C239.763 74.3853 239.565 74.8621 239.214 75.2137ZM204.74 40.7438C204.388 41.0953 203.912 41.2927 203.414 41.2927C202.917 41.2927 202.44 41.0953 202.089 40.7438L196.786 35.4375C196.607 35.2645 196.464 35.0576 196.366 34.8289C196.268 34.6001 196.216 34.3541 196.214 34.1051C196.212 33.8562 196.259 33.6093 196.353 33.3788C196.448 33.1484 196.587 32.9391 196.763 32.763C196.939 32.587 197.148 32.4477 197.379 32.3535C197.609 32.2592 197.856 32.2117 198.105 32.2139C198.354 32.2161 198.6 32.2678 198.829 32.3661C199.058 32.4643 199.265 32.6072 199.438 32.7863L204.74 38.0887C204.915 38.2629 205.053 38.4698 205.148 38.6976C205.242 38.9254 205.291 39.1696 205.291 39.4163C205.291 39.6629 205.242 39.9071 205.148 40.1349C205.053 40.3627 204.915 40.5696 204.74 40.7438Z" fill="white"/>
<path d="M209.779 156V154.447H205.572V152.971L208.965 147.545H211.461V153.035H212.574V154.447H211.461V156H209.779ZM207.113 153.082H209.814V148.822H209.773L207.113 153.035V153.082ZM213.518 156V154.787L216.506 151.992C217.596 150.973 217.824 150.557 217.824 149.971V149.959C217.818 149.268 217.291 148.775 216.541 148.775C215.674 148.775 215.088 149.344 215.064 150.105L215.059 150.158H213.418V150.111C213.418 148.518 214.742 147.398 216.529 147.398C218.316 147.398 219.547 148.418 219.547 149.859V149.871C219.547 150.896 219.061 151.564 217.602 152.906L215.832 154.523V154.594H219.664V156H213.518ZM222.617 151.898C221.398 151.898 220.654 151.049 220.654 149.684V149.678C220.654 148.318 221.398 147.469 222.617 147.469C223.83 147.469 224.574 148.318 224.574 149.678V149.684C224.574 151.049 223.83 151.898 222.617 151.898ZM223.49 156H222.184L227.527 147.545H228.828L223.49 156ZM222.617 150.926C223.086 150.926 223.344 150.486 223.344 149.684V149.678C223.344 148.881 223.086 148.441 222.617 148.441C222.143 148.441 221.879 148.881 221.879 149.678V149.684C221.879 150.486 222.143 150.926 222.617 150.926ZM228.4 156.076C227.182 156.076 226.438 155.227 226.438 153.861V153.855C226.438 152.496 227.182 151.646 228.4 151.646C229.613 151.646 230.357 152.496 230.357 153.855V153.861C230.357 155.227 229.613 156.076 228.4 156.076ZM228.4 155.104C228.869 155.104 229.127 154.664 229.127 153.861V153.855C229.127 153.059 228.869 152.619 228.4 152.619C227.926 152.619 227.662 153.059 227.662 153.855V153.861C227.662 154.664 227.926 155.104 228.4 155.104Z" fill="white"/>
<path d="M215.474 126.888C215.474 124.551 213.301 123.055 213.208 122.996C213.069 122.901 212.905 122.85 212.737 122.85C212.569 122.85 212.405 122.901 212.265 122.996C212.173 123.064 210 124.551 210 126.888C210 127.621 210.288 128.324 210.802 128.842C211.315 129.36 212.011 129.651 212.737 129.651C213.463 129.651 214.159 129.36 214.672 128.842C215.185 128.324 215.474 127.621 215.474 126.888ZM212.737 127.951C212.458 127.951 212.19 127.839 211.993 127.64C211.795 127.44 211.684 127.17 211.684 126.888C211.754 126.083 212.131 125.336 212.737 124.806C213.346 125.333 213.725 126.081 213.789 126.888C213.789 127.17 213.679 127.44 213.481 127.64C213.284 127.839 213.016 127.951 212.737 127.951ZM217.84 128.945C217.701 128.85 217.537 128.799 217.368 128.799C217.2 128.799 217.036 128.85 216.897 128.945C216.754 129.047 213.368 131.41 213.368 134.963C213.368 136.034 213.79 137.06 214.54 137.818C215.29 138.575 216.308 139 217.368 139C218.429 139 219.447 138.575 220.197 137.818C220.947 137.06 221.368 136.034 221.368 134.963C221.368 131.351 218 129.039 217.84 128.945ZM217.368 137.3C217.064 137.3 216.763 137.24 216.482 137.122C216.201 137.005 215.946 136.833 215.731 136.616C215.516 136.399 215.345 136.141 215.229 135.857C215.113 135.574 215.053 135.27 215.053 134.963C215.053 132.999 216.577 131.419 217.377 130.713C218.168 131.385 219.684 132.948 219.684 134.963C219.684 135.27 219.624 135.574 219.508 135.857C219.392 136.141 219.221 136.399 219.006 136.616C218.791 136.833 218.536 137.005 218.255 137.122C217.974 137.24 217.673 137.3 217.368 137.3ZM223.103 122.146C222.964 122.051 222.8 122 222.632 122C222.463 122 222.299 122.051 222.16 122.146C222.042 122.231 219.263 124.169 219.263 127.101C219.263 128.003 219.618 128.867 220.25 129.505C220.881 130.142 221.738 130.501 222.632 130.501C223.525 130.501 224.382 130.142 225.013 129.505C225.645 128.867 226 128.003 226 127.101C226 124.135 223.221 122.222 223.103 122.146ZM222.632 128.801C222.185 128.801 221.757 128.622 221.441 128.303C221.125 127.984 220.947 127.552 220.947 127.101C221.005 126.487 221.184 125.891 221.473 125.348C221.762 124.805 222.156 124.326 222.632 123.939C223.109 124.325 223.504 124.803 223.793 125.347C224.083 125.89 224.26 126.487 224.316 127.101C224.316 127.552 224.138 127.984 223.822 128.303C223.507 128.622 223.078 128.801 222.632 128.801Z" fill="white"/>
<path fill-rule="evenodd" clip-rule="evenodd" d="M232.083 147.826C230.7 146.317 230.871 143.959 232.113 142.328C234.43 139.283 235.808 135.467 235.808 131.324C235.808 121.361 227.835 113.285 218 113.285C208.165 113.285 200.192 121.361 200.192 131.324C200.192 135.479 201.578 139.305 203.908 142.355C205.178 144.018 205.327 146.445 203.871 147.943C202.549 149.302 200.387 149.397 199.149 147.959C195.319 143.509 193 137.691 193 131.324C193 117.338 204.193 106 218 106C231.807 106 243 117.338 243 131.324C243 137.67 240.696 143.471 236.888 147.915C235.622 149.393 233.397 149.261 232.083 147.826Z" fill="white" fill-opacity="0.5"/>
<path fill-rule="evenodd" clip-rule="evenodd" d="M205.275 113.414C204.111 111.829 201.911 111.48 200.526 112.863C195.885 117.5 193 124.001 193 131.197C193 137.61 195.291 143.47 199.074 147.951C200.296 149.399 202.432 149.304 203.737 147.935C205.176 146.426 205.029 143.982 203.774 142.307C201.473 139.236 200.103 135.382 200.103 131.197C200.103 126.45 201.866 122.129 204.751 118.892C206.101 117.378 206.478 115.054 205.275 113.414Z" fill="white"/>
<path d="M12.7837 73V67.4409L26.48 54.6309C31.4751 49.958 32.5225 48.0513 32.5225 45.3657V45.312C32.4956 42.1431 30.0786 39.8872 26.6411 39.8872C22.6665 39.8872 19.981 42.4922 19.8735 45.9834L19.8467 46.2251H12.3271V46.0103C12.3271 38.7056 18.3965 33.5762 26.5874 33.5762C34.7783 33.5762 40.418 38.249 40.418 44.8555V44.9092C40.418 49.6089 38.189 52.6704 31.502 58.8203L23.3916 66.2324V66.5547H40.9551V73H12.7837ZM61.4458 73.6714C52.1001 73.6714 45.2788 67.0918 45.2788 53.9595V53.9058C45.2788 41.2031 51.4287 33.5762 61.5264 33.5762C69.019 33.5762 74.6587 37.8999 75.8135 43.8887L75.8672 44.1572H67.8643L67.7837 43.9155C66.8169 41.5791 64.6685 39.9946 61.4995 39.9946C55.833 39.9946 53.3623 45.3926 53.0669 52.2407C53.04 52.7778 53.0132 53.3149 53.0132 53.7178H53.1743C54.7051 50.1191 58.5186 47.4873 63.7554 47.4873C71.248 47.4873 76.3774 52.8047 76.3774 60.0557V60.1094C76.3774 68.0317 70.0664 73.6714 61.4458 73.6714ZM54.2485 60.2974C54.2485 64.1914 57.3638 67.2261 61.3384 67.2261C65.2861 67.2261 68.4819 64.2183 68.4819 60.4048V60.3511C68.4819 56.3228 65.4473 53.4761 61.4189 53.4761C57.3638 53.4761 54.2485 56.2959 54.2485 60.2437V60.2974Z" fill="white"/>
<circle cx="86.5" cy="35.5" r="6" stroke="white" stroke-width="3"/>
<path d="M13.2812 25V16.6191H10.3281V15.1357H17.9844V16.6191H15.0381V25H13.2812ZM19.0713 25V15.1357H20.7734V18.9707H20.8145C21.1904 18.1025 21.9629 17.6035 23.0498 17.6035C24.6084 17.6035 25.6064 18.7383 25.6064 20.4883V25H23.9043V20.8232C23.9043 19.709 23.3438 19.0391 22.3662 19.0391C21.4023 19.0391 20.7734 19.7705 20.7734 20.8232V25H19.0713ZM30.5967 16.9336H29.4141L30.6309 14.7051H32.21L30.5967 16.9336ZM29.4482 25.1436C27.8555 25.1436 26.9463 24.1182 26.9463 22.4365V17.7539H28.6484V22.1016C28.6484 23.127 29.127 23.708 30.0977 23.708C31.0752 23.708 31.6973 23.0039 31.6973 21.9512V17.7539C33.1191 17.5625 33.4268 17.1387 33.4131 15.7373H34.7803C34.7803 17.207 34.4453 17.918 33.3994 18.3145V25H31.6973V23.8652H31.6631C31.2871 24.6377 30.542 25.1436 29.4482 25.1436ZM41.7461 25.1709C39.5654 25.1709 37.7607 23.6465 37.7607 20.1875V20.1738C37.7607 16.9131 39.2715 14.9648 41.7871 14.9648C43.6123 14.9648 44.9727 16.0176 45.2871 17.5078L45.3008 17.583H43.5508L43.5234 17.5215C43.2637 16.8447 42.6553 16.4072 41.7734 16.4072C40.1875 16.4072 39.5244 17.9248 39.4561 19.791C39.4492 19.8936 39.4492 19.9961 39.4492 20.1055H39.4834C39.873 19.2031 40.8574 18.5195 42.1973 18.5195C44.0977 18.5195 45.4307 19.8867 45.4307 21.7393V21.7529C45.4307 23.7422 43.8721 25.1709 41.7461 25.1709ZM39.75 21.7803C39.75 22.874 40.6182 23.7285 41.7188 23.7285C42.8193 23.7285 43.6943 22.8809 43.6943 21.8145V21.8008C43.6943 20.6797 42.8672 19.8799 41.7393 19.8799C40.6113 19.8799 39.75 20.6729 39.75 21.7734V21.7803Z" fill="white"/>
<path d="M85.3179 72.1099C83.4941 72.1099 82.3428 70.853 82.3428 68.8271V68.8228C82.3428 66.7969 83.4985 65.5488 85.3179 65.5488C86.7769 65.5488 87.8491 66.4585 88.0161 67.7505L88.0205 67.7944H86.9087L86.8867 67.7109C86.7021 66.9858 86.144 66.5332 85.3179 66.5332C84.2104 66.5332 83.5029 67.4165 83.5029 68.8228V68.8271C83.5029 70.2378 84.2148 71.1255 85.3179 71.1255C86.1265 71.1255 86.6934 70.6904 86.8999 69.9082L86.9131 69.8643H88.0249L88.0161 69.9082C87.8535 71.209 86.7769 72.1099 85.3179 72.1099ZM89.2378 66.8145L90.2573 65.3818H91.1934L92.2217 66.8145H91.3911L90.7231 65.896L90.0684 66.8145H89.2378ZM90.1343 72.0791C89.2026 72.0791 88.5742 71.5034 88.5742 70.6729V70.6641C88.5742 69.8379 89.2158 69.3413 90.3452 69.271L91.5625 69.1963V68.8755C91.5625 68.4053 91.2549 68.1196 90.7012 68.1196C90.1826 68.1196 89.8662 68.3613 89.7959 68.7041L89.7871 68.7437H88.772L88.7764 68.6909C88.8423 67.8647 89.5586 67.2451 90.7407 67.2451C91.9053 67.2451 92.6567 67.8604 92.6567 68.7964V72H91.5625V71.2837H91.5361C91.2681 71.7715 90.7495 72.0791 90.1343 72.0791ZM89.6641 70.6289C89.6641 71.0112 89.9805 71.2441 90.4595 71.2441C91.0879 71.2441 91.5625 70.8267 91.5625 70.2729V69.9214L90.499 69.9873C89.9585 70.0225 89.6641 70.2554 89.6641 70.6245V70.6289ZM90.7319 73.8633C90.3892 73.8633 90.1211 73.5908 90.1211 73.2656C90.1211 72.936 90.3892 72.668 90.7319 72.668C91.0747 72.668 91.3384 72.936 91.3384 73.2656C91.3384 73.5908 91.0747 73.8633 90.7319 73.8633ZM93.54 73.5381V67.3418H94.6343V68.146H94.6562C94.9243 67.5879 95.4341 67.2451 96.1021 67.2451C97.2842 67.2451 98.0312 68.168 98.0312 69.6709V69.6753C98.0312 71.1694 97.2842 72.0923 96.1152 72.0923C95.4517 72.0923 94.9199 71.7583 94.6562 71.2134H94.6343V73.5381H93.54ZM95.7769 71.1694C96.4756 71.1694 96.915 70.5938 96.915 69.6753V69.6709C96.915 68.7393 96.4756 68.168 95.7769 68.168C95.1001 68.168 94.6255 68.7568 94.6255 69.6709V69.6753C94.6255 70.585 95.1001 71.1694 95.7769 71.1694ZM100.536 72V67.3418H101.63V68.0713H101.652C101.894 67.5703 102.369 67.2451 103.076 67.2451C104.1 67.2451 104.685 67.9043 104.685 68.9854V72H103.59V69.2051C103.59 68.5415 103.283 68.168 102.659 68.168C102.03 68.168 101.63 68.625 101.63 69.2974V72H100.536ZM105.594 72V65.6587H106.688V68.124H106.715C106.957 67.5659 107.453 67.2451 108.152 67.2451C109.154 67.2451 109.795 67.9746 109.795 69.0996V72H108.701V69.3149C108.701 68.5986 108.341 68.168 107.712 68.168C107.093 68.168 106.688 68.6382 106.688 69.3149V72H105.594ZM111.158 66.8145L112.177 65.3818H113.113L114.142 66.8145H113.311L112.643 65.896L111.988 66.8145H111.158ZM112.054 72.0791C111.123 72.0791 110.494 71.5034 110.494 70.6729V70.6641C110.494 69.8379 111.136 69.3413 112.265 69.271L113.482 69.1963V68.8755C113.482 68.4053 113.175 68.1196 112.621 68.1196C112.103 68.1196 111.786 68.3613 111.716 68.7041L111.707 68.7437H110.692L110.696 68.6909C110.762 67.8647 111.479 67.2451 112.661 67.2451C113.825 67.2451 114.577 67.8604 114.577 68.7964V72H113.482V71.2837H113.456C113.188 71.7715 112.669 72.0791 112.054 72.0791ZM111.584 70.6289C111.584 71.0112 111.9 71.2441 112.379 71.2441C113.008 71.2441 113.482 70.8267 113.482 70.2729V69.9214L112.419 69.9873C111.878 70.0225 111.584 70.2554 111.584 70.6245V70.6289ZM112.652 73.8633C112.309 73.8633 112.041 73.5908 112.041 73.2656C112.041 72.936 112.309 72.668 112.652 72.668C112.995 72.668 113.258 72.936 113.258 73.2656C113.258 73.5908 112.995 73.8633 112.652 73.8633ZM117.191 72.0923C116.216 72.0923 115.754 71.6968 115.754 70.7388V68.1855H115.095V67.3418H115.754V66.1597H116.866V67.3418H117.732V68.1855H116.866V70.6465C116.866 71.1035 117.068 71.2485 117.468 71.2485C117.574 71.2485 117.657 71.2354 117.732 71.231V72.0527C117.604 72.0703 117.411 72.0923 117.191 72.0923ZM121.542 72L119.894 67.3418H121.059L122.14 70.9849H122.166L123.243 67.3418H124.385L122.746 72H121.542ZM126.481 66.8145L125.444 65.3818H126.459L127.246 66.8145H126.481ZM126.161 72.0791C125.229 72.0791 124.601 71.5034 124.601 70.6729V70.6641C124.601 69.8379 125.242 69.3413 126.372 69.271L127.589 69.1963V68.8755C127.589 68.4053 127.281 68.1196 126.728 68.1196C126.209 68.1196 125.893 68.3613 125.822 68.7041L125.813 68.7437H124.798L124.803 68.6909C124.869 67.8647 125.585 67.2451 126.767 67.2451C127.932 67.2451 128.683 67.8604 128.683 68.7964V72H127.589V71.2837H127.562C127.294 71.7715 126.776 72.0791 126.161 72.0791ZM125.69 70.6289C125.69 71.0112 126.007 71.2441 126.486 71.2441C127.114 71.2441 127.589 70.8267 127.589 70.2729V69.9214L126.525 69.9873C125.985 70.0225 125.69 70.2554 125.69 70.6245V70.6289ZM131.627 72.0923C130.256 72.0923 129.373 71.1782 129.373 69.6709V69.6621C129.373 68.168 130.27 67.2451 131.623 67.2451C132.981 67.2451 133.882 68.1592 133.882 69.6621V69.6709C133.882 71.1826 132.994 72.0923 131.627 72.0923ZM131.632 71.209C132.322 71.209 132.766 70.6465 132.766 69.6709V69.6621C132.766 68.6909 132.317 68.1328 131.623 68.1328C130.942 68.1328 130.489 68.6953 130.489 69.6621V69.6709C130.489 70.6509 130.933 71.209 131.632 71.209Z" fill="white" fill-opacity="0.5"/>
<path d="M139.237 72V66.7397H139.211L137.572 67.8647V66.8232L139.229 65.6587H140.349V72H139.237ZM143.438 72V66.7397H143.412L141.773 67.8647V66.8232L143.43 65.6587H144.55V72H143.438ZM146.611 67.8516C146.255 67.8516 145.974 67.5703 145.974 67.2144C145.974 66.8584 146.255 66.5815 146.611 66.5815C146.967 66.5815 147.244 66.8584 147.244 67.2144C147.244 67.5703 146.967 67.8516 146.611 67.8516ZM146.611 71.0771C146.255 71.0771 145.974 70.7959 145.974 70.4399C145.974 70.084 146.255 69.8071 146.611 69.8071C146.967 69.8071 147.244 70.084 147.244 70.4399C147.244 70.7959 146.967 71.0771 146.611 71.0771ZM151.142 72V70.7827H147.978V69.8159L150.61 65.6587H152.223V69.8511H153.084V70.7827H152.223V72H151.142ZM148.998 69.8774H151.16V66.5156H151.133L148.998 69.8467V69.8774ZM156.152 72.1099C154.833 72.1099 153.937 71.3232 153.854 70.2729L153.849 70.2158H154.913L154.917 70.2466C155.009 70.7783 155.493 71.187 156.161 71.187C156.917 71.187 157.439 70.6685 157.439 69.9258V69.917C157.439 69.1919 156.908 68.6733 156.165 68.6733C155.805 68.6733 155.493 68.7832 155.251 68.9854C155.132 69.082 155.027 69.2051 154.952 69.3457H153.963L154.267 65.6587H158.16V66.5859H155.172L154.996 68.4976H155.018C155.295 68.0713 155.818 67.8208 156.455 67.8208C157.664 67.8208 158.534 68.6953 158.534 69.8994V69.9082C158.534 71.2134 157.554 72.1099 156.152 72.1099Z" fill="white" fill-opacity="0.5"/>
<path d="M10.7441 97V88.5449H12.1035L16.2227 94.4688H16.2578V88.5449H17.7578V97H16.4102L12.2793 91.0527H12.25V97H10.7441ZM21.9062 99.1738C20.2598 99.1738 19.2227 98.4238 19.0469 97.4512L19.0352 97.3984H20.4707L20.4883 97.4453C20.6465 97.8027 21.1445 98.0723 21.9062 98.0723C22.8555 98.0723 23.377 97.5684 23.377 96.7773V95.8809H23.3477C23.002 96.543 22.2988 96.9648 21.4082 96.9648C19.8496 96.9648 18.8477 95.7695 18.8477 93.8359V93.8301C18.8477 91.8672 19.8613 90.6602 21.4316 90.6602C22.3105 90.6602 22.9902 91.1289 23.3418 91.8438H23.377V90.7891H24.8359V96.8242C24.8359 98.2305 23.7051 99.1738 21.9062 99.1738ZM21.8652 95.8398C22.7734 95.8398 23.3828 95.0723 23.3828 93.8652V93.8594C23.3828 92.6582 22.7676 91.8906 21.8652 91.8906C20.9277 91.8906 20.3359 92.6465 20.3359 93.8535V93.8594C20.3359 95.084 20.9277 95.8398 21.8652 95.8398ZM28.293 90.0859L26.9102 88.1758H28.2637L29.3125 90.0859H28.293ZM27.8652 97.1055C26.623 97.1055 25.7852 96.3379 25.7852 95.2305V95.2188C25.7852 94.1172 26.6406 93.4551 28.1465 93.3613L29.7695 93.2617V92.834C29.7695 92.207 29.3594 91.8262 28.6211 91.8262C27.9297 91.8262 27.5078 92.1484 27.4141 92.6055L27.4023 92.6582H26.0488L26.0547 92.5879C26.1426 91.4863 27.0977 90.6602 28.6738 90.6602C30.2266 90.6602 31.2285 91.4805 31.2285 92.7285V97H29.7695V96.0449H29.7344C29.377 96.6953 28.6855 97.1055 27.8652 97.1055ZM27.2383 95.1719C27.2383 95.6816 27.6602 95.9922 28.2988 95.9922C29.1367 95.9922 29.7695 95.4355 29.7695 94.6973V94.2285L28.3516 94.3164C27.6309 94.3633 27.2383 94.6738 27.2383 95.166V95.1719ZM33.2148 99.0625C32.9336 99.0625 32.6406 99.0273 32.4648 98.998V97.8848C32.5762 97.9082 32.7461 97.9375 32.9512 97.9375C33.5078 97.9375 33.8184 97.7793 34.0059 97.2578L34.0938 97.0059L31.8613 90.7891H33.4551L34.9082 95.7578H34.9492L36.4082 90.7891H37.9434L35.7109 97.2109C35.2363 98.5762 34.5098 99.0625 33.2148 99.0625ZM41.0488 97V95.9688L44.0371 93.0566C45.1445 91.9727 45.3848 91.5449 45.3848 90.918V90.9062C45.3789 90.1504 44.8105 89.6113 43.9961 89.6113C43.0586 89.6113 42.4023 90.2383 42.3848 91.0527V91.0938H40.9668V91.0527C40.9668 89.5059 42.2676 88.3984 43.9844 88.3984C45.6777 88.3984 46.8613 89.4238 46.8613 90.8184V90.8301C46.8613 91.8262 46.3984 92.5 44.9102 93.9297L43.0469 95.6992V95.7637H46.9902V97H41.0488ZM51.9531 97V95.377H47.7344V94.0879L51.2441 88.5449H53.3945V94.1348H54.543V95.377H53.3945V97H51.9531ZM49.0938 94.1699H51.9766V89.6875H51.9414L49.0938 94.1289V94.1699ZM60.1914 97.123C58.8906 97.123 58.2754 96.5957 58.2754 95.3184V91.9141H57.3965V90.7891H58.2754V89.2129H59.7578V90.7891H60.9121V91.9141H59.7578V95.1953C59.7578 95.8047 60.0273 95.998 60.5605 95.998C60.7012 95.998 60.8125 95.9805 60.9121 95.9746V97.0703C60.7422 97.0938 60.4844 97.123 60.1914 97.123ZM61.9551 97V88.5449H63.4141V91.832H63.4492C63.7715 91.0879 64.4336 90.6602 65.3652 90.6602C66.7012 90.6602 67.5566 91.6328 67.5566 93.1328V97H66.0977V93.4199C66.0977 92.4648 65.6172 91.8906 64.7793 91.8906C63.9531 91.8906 63.4141 92.5176 63.4141 93.4199V97H61.9551ZM71.7285 90.0859H70.709L71.7578 88.1758H73.1113L71.7285 90.0859ZM70.5684 97.1055C69.3262 97.1055 68.4883 96.3379 68.4883 95.2305V95.2188C68.4883 94.1172 69.3438 93.4551 70.8496 93.3613L72.4727 93.2617V92.834C72.4727 92.207 72.0625 91.8262 71.3242 91.8262C70.6328 91.8262 70.2109 92.1484 70.1172 92.6055L70.1055 92.6582H68.752L68.7578 92.5879C68.8457 91.4863 69.8008 90.6602 71.377 90.6602C72.9297 90.6602 73.9316 91.4805 73.9316 92.7285V97H72.4727V96.0449H72.4375C72.0801 96.6953 71.3887 97.1055 70.5684 97.1055ZM69.9414 95.1719C69.9414 95.6816 70.3633 95.9922 71.002 95.9922C71.8398 95.9922 72.4727 95.4355 72.4727 94.6973V94.2285L71.0547 94.3164C70.334 94.3633 69.9414 94.6738 69.9414 95.166V95.1719ZM75.1094 97V90.7891H76.5684V91.7617H76.5977C76.9199 91.0938 77.5527 90.6602 78.4961 90.6602C79.8613 90.6602 80.6406 91.5391 80.6406 92.9805V97H79.1816V93.2734C79.1816 92.3887 78.7715 91.8906 77.9395 91.8906C77.1016 91.8906 76.5684 92.5 76.5684 93.3965V97H75.1094ZM84.6133 99.1738C82.9668 99.1738 81.9297 98.4238 81.7539 97.4512L81.7422 97.3984H83.1777L83.1953 97.4453C83.3535 97.8027 83.8516 98.0723 84.6133 98.0723C85.5625 98.0723 86.084 97.5684 86.084 96.7773V95.8809H86.0547C85.709 96.543 85.0059 96.9648 84.1152 96.9648C82.5566 96.9648 81.5547 95.7695 81.5547 93.8359V93.8301C81.5547 91.8672 82.5684 90.6602 84.1387 90.6602C85.0176 90.6602 85.6973 91.1289 86.0488 91.8438H86.084V90.7891H87.543V96.8242C87.543 98.2305 86.4121 99.1738 84.6133 99.1738ZM84.5723 95.8398C85.4805 95.8398 86.0898 95.0723 86.0898 93.8652V93.8594C86.0898 92.6582 85.4746 91.8906 84.5723 91.8906C83.6348 91.8906 83.043 92.6465 83.043 93.8535V93.8594C83.043 95.084 83.6348 95.8398 84.5723 95.8398ZM93.3027 97V89.9863H93.2676L91.082 91.4863V90.0977L93.291 88.5449H94.7852V97H93.3027ZM96.7715 97V95.9688L99.7598 93.0566C100.867 91.9727 101.107 91.5449 101.107 90.918V90.9062C101.102 90.1504 100.533 89.6113 99.7188 89.6113C98.7812 89.6113 98.125 90.2383 98.1074 91.0527V91.0938H96.6895V91.0527C96.6895 89.5059 97.9902 88.3984 99.707 88.3984C101.4 88.3984 102.584 89.4238 102.584 90.8184V90.8301C102.584 91.8262 102.121 92.5 100.633 93.9297L98.7695 95.6992V95.7637H102.713V97H96.7715ZM106.223 97V90.7891H107.682V91.7617H107.711C108.033 91.0938 108.666 90.6602 109.609 90.6602C110.975 90.6602 111.754 91.5391 111.754 92.9805V97H110.295V93.2734C110.295 92.3887 109.885 91.8906 109.053 91.8906C108.215 91.8906 107.682 92.5 107.682 93.3965V97H106.223ZM115.557 90.1035C114.367 90.1035 113.594 89.3594 113.594 88.2754V88.2168H114.537V88.2402C114.537 88.7793 114.924 89.2188 115.557 89.2188C116.184 89.2188 116.57 88.7793 116.57 88.2402V88.2168H117.52V88.2754C117.52 89.3594 116.74 90.1035 115.557 90.1035ZM114.76 97.1055C113.518 97.1055 112.68 96.3379 112.68 95.2305V95.2188C112.68 94.1172 113.535 93.4551 115.041 93.3613L116.664 93.2617V92.834C116.664 92.207 116.254 91.8262 115.516 91.8262C114.824 91.8262 114.402 92.1484 114.309 92.6055L114.297 92.6582H112.943L112.949 92.5879C113.037 91.4863 113.992 90.6602 115.568 90.6602C117.121 90.6602 118.123 91.4805 118.123 92.7285V97H116.664V96.0449H116.629C116.271 96.6953 115.58 97.1055 114.76 97.1055ZM114.133 95.1719C114.133 95.6816 114.555 95.9922 115.193 95.9922C116.031 95.9922 116.664 95.4355 116.664 94.6973V94.2285L115.246 94.3164C114.525 94.3633 114.133 94.6738 114.133 95.166V95.1719ZM119.301 97V90.7891H120.76V91.7852H120.789C121.053 91.1055 121.691 90.6602 122.512 90.6602C123.379 90.6602 124.006 91.1172 124.234 91.9141H124.27C124.568 91.1406 125.307 90.6602 126.203 90.6602C127.428 90.6602 128.23 91.4922 128.23 92.7344V97H126.771V93.0977C126.771 92.3301 126.373 91.8906 125.658 91.8906C124.955 91.8906 124.475 92.4121 124.475 93.1621V97H123.057V93.0215C123.057 92.3242 122.635 91.8906 121.955 91.8906C121.252 91.8906 120.76 92.4414 120.76 93.1973V97H119.301ZM131.834 97V95.9688L134.822 93.0566C135.93 91.9727 136.17 91.5449 136.17 90.918V90.9062C136.164 90.1504 135.596 89.6113 134.781 89.6113C133.844 89.6113 133.188 90.2383 133.17 91.0527V91.0938H131.752V91.0527C131.752 89.5059 133.053 88.3984 134.77 88.3984C136.463 88.3984 137.646 89.4238 137.646 90.8184V90.8301C137.646 91.8262 137.184 92.5 135.695 93.9297L133.832 95.6992V95.7637H137.775V97H131.834ZM142.088 97.1465C140.014 97.1465 138.766 95.4648 138.766 92.7754V92.7637C138.766 90.0742 140.014 88.3984 142.088 88.3984C144.156 88.3984 145.41 90.0742 145.41 92.7637V92.7754C145.41 95.4648 144.156 97.1465 142.088 97.1465ZM142.088 95.9102C143.225 95.9102 143.887 94.7266 143.887 92.7754V92.7637C143.887 90.8125 143.225 89.6406 142.088 89.6406C140.945 89.6406 140.289 90.8125 140.289 92.7637V92.7754C140.289 94.7266 140.945 95.9102 142.088 95.9102ZM146.459 97V95.9688L149.447 93.0566C150.555 91.9727 150.795 91.5449 150.795 90.918V90.9062C150.789 90.1504 150.221 89.6113 149.406 89.6113C148.469 89.6113 147.812 90.2383 147.795 91.0527V91.0938H146.377V91.0527C146.377 89.5059 147.678 88.3984 149.395 88.3984C151.088 88.3984 152.271 89.4238 152.271 90.8184V90.8301C152.271 91.8262 151.809 92.5 150.32 93.9297L148.457 95.6992V95.7637H152.4V97H146.459ZM156.578 97.1465C154.721 97.1465 153.514 96.1504 153.396 94.7324L153.391 94.6621H154.838L154.844 94.7266C154.926 95.4121 155.582 95.9102 156.572 95.9102C157.551 95.9102 158.201 95.3711 158.201 94.6035V94.5918C158.201 93.7012 157.545 93.209 156.467 93.209H155.465V92.084H156.432C157.363 92.084 157.984 91.5566 157.984 90.8184V90.8066C157.984 90.0449 157.469 89.5996 156.561 89.5996C155.67 89.5996 155.061 90.0625 154.984 90.7891L154.979 90.8477H153.572L153.578 90.7773C153.701 89.3477 154.855 88.3984 156.561 88.3984C158.307 88.3984 159.438 89.2949 159.438 90.6074V90.6191C159.438 91.668 158.676 92.3652 157.662 92.5762V92.6055C158.91 92.7227 159.736 93.4609 159.736 94.6328V94.6445C159.736 96.1152 158.447 97.1465 156.578 97.1465Z" fill="white"/>
<path d="M10.8965 123V121.181L15.3789 116.988C17.0137 115.459 17.3564 114.835 17.3564 113.956V113.938C17.3477 112.901 16.5566 112.163 15.4316 112.163C14.1309 112.163 13.252 113.016 13.2168 114.158L13.208 114.237H10.7471V114.167C10.7471 111.776 12.7334 110.098 15.4141 110.098C18.0947 110.098 19.9404 111.627 19.9404 113.789V113.807C19.9404 115.345 19.2109 116.347 17.0225 118.359L14.3682 120.785V120.891H20.1162V123H10.8965ZM26.7168 123.22C23.5 123.22 21.5488 120.697 21.5488 116.663V116.646C21.5488 112.611 23.5 110.098 26.7168 110.098C29.9336 110.098 31.8848 112.611 31.8848 116.646V116.663C31.8848 120.697 29.9336 123.22 26.7168 123.22ZM26.7168 121.093C28.2988 121.093 29.2041 119.449 29.2041 116.663V116.646C29.2041 113.859 28.2988 112.225 26.7168 112.225C25.1348 112.225 24.2295 113.859 24.2295 116.646V116.663C24.2295 119.449 25.1348 121.093 26.7168 121.093ZM34.7939 114.949C33.9941 114.949 33.3701 114.325 33.3701 113.525C33.3701 112.734 33.9941 112.102 34.7939 112.102C35.585 112.102 36.2178 112.734 36.2178 113.525C36.2178 114.325 35.585 114.949 34.7939 114.949ZM34.7939 121.207C33.9941 121.207 33.3701 120.574 33.3701 119.783C33.3701 118.983 33.9941 118.359 34.7939 118.359C35.585 118.359 36.2178 118.983 36.2178 119.783C36.2178 120.574 35.585 121.207 34.7939 121.207ZM43.9082 123V120.671H37.5977V118.456L42.6865 110.317H46.4307V118.553H48.1006V120.671H46.4307V123H43.9082ZM39.9092 118.623H43.9609V112.233H43.8994L39.9092 118.553V118.623ZM54.3848 123.22C51.625 123.22 49.7969 121.611 49.6387 119.493L49.6299 119.361H52.082L52.0996 119.423C52.2842 120.381 53.1719 121.119 54.3936 121.119C55.7822 121.119 56.7578 120.17 56.7578 118.816V118.799C56.749 117.463 55.7734 116.522 54.4023 116.522C53.752 116.522 53.1982 116.716 52.7676 117.059C52.5127 117.252 52.3105 117.498 52.1611 117.762H49.8496L50.4297 110.317H58.5244V112.427H52.5391L52.2314 115.995H52.2842C52.8115 115.143 53.8574 114.624 55.1406 114.624C57.5488 114.624 59.2891 116.355 59.2891 118.746V118.764C59.2891 121.418 57.2852 123.22 54.3848 123.22Z" fill="white"/>
<path d="M149.339 17.53H146.645V25H145.247V17.53H142.547V16.36H149.339V17.53ZM150.254 20.014C150.446 19.626 150.678 19.322 150.95 19.102C151.222 18.878 151.548 18.766 151.928 18.766C152.06 18.766 152.184 18.782 152.3 18.814C152.416 18.842 152.52 18.886 152.612 18.946L152.522 19.918C152.506 19.986 152.48 20.034 152.444 20.062C152.412 20.086 152.368 20.098 152.312 20.098C152.252 20.098 152.166 20.088 152.054 20.068C151.942 20.044 151.824 20.032 151.7 20.032C151.52 20.032 151.36 20.058 151.22 20.11C151.084 20.162 150.96 20.238 150.848 20.338C150.74 20.438 150.644 20.56 150.56 20.704C150.476 20.848 150.398 21.012 150.326 21.196V25H149.036V18.88H149.786C149.922 18.88 150.016 18.906 150.068 18.958C150.12 19.006 150.156 19.092 150.176 19.216L150.254 20.014ZM155.901 24.082C156.453 24.082 156.863 23.898 157.131 23.53C157.403 23.158 157.539 22.628 157.539 21.94C157.539 21.252 157.403 20.722 157.131 20.35C156.863 19.974 156.453 19.786 155.901 19.786C155.341 19.786 154.925 19.974 154.653 20.35C154.381 20.722 154.245 21.252 154.245 21.94C154.245 22.628 154.381 23.158 154.653 23.53C154.925 23.898 155.341 24.082 155.901 24.082ZM159.987 17.944C160.011 18.024 160.031 18.12 160.047 18.232C160.063 18.34 160.071 18.452 160.071 18.568C160.071 19.024 159.945 19.416 159.693 19.744C159.445 20.072 159.071 20.294 158.571 20.41C158.771 20.846 158.871 21.354 158.871 21.934C158.871 22.418 158.801 22.854 158.661 23.242C158.521 23.63 158.321 23.962 158.061 24.238C157.805 24.51 157.493 24.72 157.125 24.868C156.761 25.016 156.353 25.09 155.901 25.09C155.445 25.09 155.033 25.016 154.665 24.868C154.301 24.72 153.989 24.51 153.729 24.238C153.469 23.962 153.269 23.63 153.129 23.242C152.989 22.854 152.919 22.418 152.919 21.934C152.919 21.45 152.989 21.014 153.129 20.626C153.269 20.238 153.469 19.908 153.729 19.636C153.989 19.364 154.301 19.154 154.665 19.006C155.033 18.858 155.445 18.784 155.901 18.784C156.413 18.784 156.869 18.878 157.269 19.066C157.669 19.25 157.999 19.516 158.259 19.864C158.479 19.812 158.647 19.726 158.763 19.606C158.883 19.482 158.943 19.34 158.943 19.18C158.943 19.116 158.929 19.06 158.901 19.012C158.873 18.96 158.841 18.91 158.805 18.862C158.769 18.81 158.737 18.754 158.709 18.694C158.681 18.634 158.667 18.558 158.667 18.466C158.667 18.298 158.721 18.17 158.829 18.082C158.941 17.99 159.113 17.944 159.345 17.944H159.987ZM155.337 16.264C155.485 16.264 155.595 16.288 155.667 16.336C155.739 16.384 155.803 16.458 155.859 16.558L156.735 18.01H156.003C155.903 18.01 155.821 17.996 155.757 17.968C155.697 17.94 155.635 17.89 155.571 17.818L154.125 16.264H155.337ZM162.028 18.88V25H160.738V18.88H162.028ZM162.244 17.032C162.244 17.148 162.22 17.258 162.172 17.362C162.128 17.466 162.066 17.558 161.986 17.638C161.906 17.714 161.812 17.776 161.704 17.824C161.6 17.868 161.488 17.89 161.368 17.89C161.252 17.89 161.142 17.868 161.038 17.824C160.938 17.776 160.85 17.714 160.774 17.638C160.698 17.558 160.636 17.466 160.588 17.362C160.544 17.258 160.522 17.148 160.522 17.032C160.522 16.912 160.544 16.8 160.588 16.696C160.636 16.592 160.698 16.502 160.774 16.426C160.85 16.346 160.938 16.284 161.038 16.24C161.142 16.192 161.252 16.168 161.368 16.168C161.488 16.168 161.6 16.192 161.704 16.24C161.812 16.284 161.906 16.346 161.986 16.426C162.066 16.502 162.128 16.592 162.172 16.696C162.22 16.8 162.244 16.912 162.244 17.032ZM167.844 19.69C167.976 19.554 168.112 19.432 168.252 19.324C168.396 19.212 168.548 19.116 168.708 19.036C168.868 18.956 169.038 18.894 169.218 18.85C169.398 18.806 169.594 18.784 169.806 18.784C170.142 18.784 170.436 18.84 170.688 18.952C170.944 19.064 171.158 19.222 171.33 19.426C171.506 19.63 171.638 19.876 171.726 20.164C171.814 20.448 171.858 20.762 171.858 21.106V25H170.574V21.106C170.574 20.694 170.478 20.374 170.286 20.146C170.098 19.918 169.81 19.804 169.422 19.804C169.134 19.804 168.866 19.87 168.618 20.002C168.374 20.134 168.144 20.314 167.928 20.542V25H166.638V18.88H167.418C167.594 18.88 167.706 18.962 167.754 19.126L167.844 19.69ZM176.634 22.324C176.174 22.34 175.786 22.378 175.47 22.438C175.154 22.494 174.898 22.568 174.702 22.66C174.506 22.748 174.364 22.854 174.276 22.978C174.192 23.102 174.15 23.238 174.15 23.386C174.15 23.53 174.172 23.654 174.216 23.758C174.264 23.858 174.328 23.942 174.408 24.01C174.492 24.074 174.588 24.122 174.696 24.154C174.808 24.182 174.93 24.196 175.062 24.196C175.398 24.196 175.686 24.134 175.926 24.01C176.17 23.882 176.406 23.698 176.634 23.458V22.324ZM173.214 19.732C173.906 19.088 174.73 18.766 175.686 18.766C176.038 18.766 176.35 18.824 176.622 18.94C176.898 19.052 177.128 19.212 177.312 19.42C177.5 19.628 177.642 19.876 177.738 20.164C177.838 20.448 177.888 20.764 177.888 21.112V25H177.312C177.188 25 177.094 24.982 177.03 24.946C176.966 24.906 176.912 24.828 176.868 24.712L176.742 24.214C176.586 24.354 176.432 24.48 176.28 24.592C176.128 24.7 175.97 24.792 175.806 24.868C175.646 24.944 175.472 25 175.284 25.036C175.1 25.076 174.896 25.096 174.672 25.096C174.424 25.096 174.192 25.062 173.976 24.994C173.764 24.926 173.58 24.824 173.424 24.688C173.268 24.548 173.144 24.376 173.052 24.172C172.964 23.968 172.92 23.728 172.92 23.452C172.92 23.216 172.982 22.986 173.106 22.762C173.234 22.538 173.442 22.338 173.73 22.162C174.022 21.982 174.404 21.834 174.876 21.718C175.352 21.602 175.938 21.536 176.634 21.52V21.112C176.634 20.672 176.54 20.344 176.352 20.128C176.164 19.912 175.888 19.804 175.524 19.804C175.276 19.804 175.068 19.836 174.9 19.9C174.732 19.96 174.586 20.026 174.462 20.098C174.338 20.17 174.228 20.238 174.132 20.302C174.036 20.362 173.934 20.392 173.826 20.392C173.738 20.392 173.662 20.37 173.598 20.326C173.538 20.278 173.488 20.22 173.448 20.152L173.214 19.732ZM175.548 18.022C175.172 18.022 174.854 17.978 174.594 17.89C174.338 17.802 174.13 17.682 173.97 17.53C173.81 17.378 173.694 17.202 173.622 17.002C173.55 16.802 173.514 16.588 173.514 16.36H174.42C174.42 16.612 174.506 16.814 174.678 16.966C174.854 17.118 175.144 17.194 175.548 17.194C175.952 17.194 176.24 17.118 176.412 16.966C176.588 16.814 176.676 16.612 176.676 16.36H177.582C177.582 16.588 177.546 16.802 177.474 17.002C177.402 17.202 177.286 17.378 177.126 17.53C176.966 17.682 176.756 17.802 176.496 17.89C176.24 17.978 175.924 18.022 175.548 18.022ZM177.648 14.764L176.202 16.318C176.138 16.386 176.074 16.436 176.01 16.468C175.95 16.496 175.87 16.51 175.77 16.51H175.002L175.872 15.052C175.928 14.956 175.992 14.884 176.064 14.836C176.14 14.788 176.25 14.764 176.394 14.764H177.648ZM180.605 19.69C180.737 19.554 180.873 19.432 181.013 19.324C181.157 19.212 181.309 19.116 181.469 19.036C181.629 18.956 181.799 18.894 181.979 18.85C182.159 18.806 182.355 18.784 182.567 18.784C182.903 18.784 183.197 18.84 183.449 18.952C183.705 19.064 183.919 19.222 184.091 19.426C184.267 19.63 184.399 19.876 184.487 20.164C184.575 20.448 184.619 20.762 184.619 21.106V25H183.335V21.106C183.335 20.694 183.239 20.374 183.047 20.146C182.859 19.918 182.571 19.804 182.183 19.804C181.895 19.804 181.627 19.87 181.379 20.002C181.135 20.134 180.905 20.314 180.689 20.542V25H179.399V18.88H180.179C180.355 18.88 180.467 18.962 180.515 19.126L180.605 19.69ZM188.31 21.886C188.71 21.886 189.01 21.784 189.21 21.58C189.41 21.376 189.51 21.11 189.51 20.782C189.51 20.446 189.41 20.18 189.21 19.984C189.01 19.788 188.71 19.69 188.31 19.69C187.914 19.69 187.614 19.788 187.41 19.984C187.21 20.18 187.11 20.446 187.11 20.782C187.11 20.942 187.136 21.09 187.188 21.226C187.24 21.362 187.316 21.48 187.416 21.58C187.516 21.676 187.64 21.752 187.788 21.808C187.94 21.86 188.114 21.886 188.31 21.886ZM190.104 25.3C190.104 25.164 190.064 25.056 189.984 24.976C189.908 24.892 189.804 24.828 189.672 24.784C189.54 24.736 189.386 24.702 189.21 24.682C189.034 24.658 188.846 24.642 188.646 24.634C188.45 24.622 188.248 24.612 188.04 24.604C187.836 24.592 187.638 24.572 187.446 24.544C187.254 24.644 187.096 24.764 186.972 24.904C186.852 25.044 186.792 25.206 186.792 25.39C186.792 25.51 186.822 25.622 186.882 25.726C186.946 25.83 187.042 25.92 187.17 25.996C187.302 26.072 187.468 26.132 187.668 26.176C187.872 26.22 188.116 26.242 188.4 26.242C188.968 26.242 189.394 26.154 189.678 25.978C189.962 25.802 190.104 25.576 190.104 25.3ZM191.4 19.102V19.582C191.4 19.742 191.304 19.84 191.112 19.876L190.5 19.978C190.604 20.21 190.656 20.468 190.656 20.752C190.656 21.052 190.596 21.324 190.476 21.568C190.36 21.812 190.198 22.02 189.99 22.192C189.782 22.364 189.534 22.496 189.246 22.588C188.958 22.68 188.646 22.726 188.31 22.726C188.182 22.726 188.056 22.72 187.932 22.708C187.812 22.692 187.694 22.672 187.578 22.648C187.462 22.716 187.376 22.788 187.32 22.864C187.264 22.94 187.236 23.018 187.236 23.098C187.236 23.23 187.294 23.328 187.41 23.392C187.526 23.456 187.678 23.502 187.866 23.53C188.058 23.558 188.276 23.576 188.52 23.584C188.764 23.592 189.012 23.606 189.264 23.626C189.516 23.646 189.764 23.68 190.008 23.728C190.252 23.772 190.468 23.848 190.656 23.956C190.848 24.06 191.002 24.202 191.118 24.382C191.234 24.562 191.292 24.796 191.292 25.084C191.292 25.348 191.226 25.606 191.094 25.858C190.962 26.11 190.77 26.334 190.518 26.53C190.27 26.726 189.966 26.882 189.606 26.998C189.246 27.118 188.836 27.178 188.376 27.178C187.92 27.178 187.522 27.134 187.182 27.046C186.846 26.958 186.564 26.838 186.336 26.686C186.112 26.538 185.944 26.366 185.832 26.17C185.724 25.974 185.67 25.77 185.67 25.558C185.67 25.27 185.76 25.024 185.94 24.82C186.124 24.616 186.372 24.456 186.684 24.34C186.516 24.26 186.38 24.15 186.276 24.01C186.176 23.87 186.126 23.686 186.126 23.458C186.126 23.278 186.192 23.09 186.324 22.894C186.456 22.698 186.654 22.532 186.918 22.396C186.614 22.228 186.374 22.006 186.198 21.73C186.022 21.45 185.934 21.124 185.934 20.752C185.934 20.448 185.992 20.174 186.108 19.93C186.228 19.686 186.394 19.478 186.606 19.306C186.818 19.134 187.068 19.002 187.356 18.91C187.648 18.818 187.966 18.772 188.31 18.772C188.838 18.772 189.298 18.882 189.69 19.102H191.4Z" fill="white" fill-opacity="0.5"/>
<path d="M10.6719 148.275C10.8048 148.275 10.9347 148.236 11.0452 148.162C11.1557 148.088 11.2418 147.983 11.2927 147.861C11.3435 147.738 11.3568 147.603 11.3309 147.472C11.305 147.342 11.241 147.222 11.147 147.128C11.053 147.034 10.9333 146.97 10.803 146.944C10.6726 146.918 10.5376 146.932 10.4148 146.983C10.292 147.034 10.1871 147.12 10.1132 147.23C10.0394 147.341 10 147.471 10 147.603C10 147.782 10.0708 147.953 10.1968 148.079C10.3228 148.205 10.4937 148.275 10.6719 148.275ZM13.3595 148.275H18.0628C18.5975 148.275 19.1102 148.063 19.4882 147.685C19.8662 147.307 20.0786 146.794 20.0786 146.26C20.0786 145.725 19.8662 145.212 19.4882 144.834C19.1102 144.456 18.5975 144.244 18.0628 144.244C17.7094 144.245 17.3623 144.338 17.055 144.513C16.978 144.557 16.9105 144.615 16.8562 144.685C16.802 144.755 16.7622 144.836 16.7391 144.921C16.716 145.007 16.7101 145.096 16.7216 145.184C16.7331 145.272 16.762 145.356 16.8064 145.433C16.8508 145.51 16.9099 145.577 16.9803 145.63C17.0507 145.684 17.1309 145.723 17.2164 145.745C17.3019 145.768 17.3911 145.773 17.4787 145.761C17.5663 145.749 17.6506 145.72 17.7269 145.675C17.8303 145.619 17.9455 145.589 18.0628 145.588C18.241 145.588 18.412 145.658 18.538 145.785C18.664 145.911 18.7348 146.081 18.7348 146.26C18.7348 146.438 18.664 146.609 18.538 146.735C18.412 146.861 18.241 146.932 18.0628 146.932H13.3595C13.1813 146.932 13.0104 147.002 12.8844 147.128C12.7584 147.254 12.6876 147.425 12.6876 147.603C12.6876 147.782 12.7584 147.953 12.8844 148.079C13.0104 148.205 13.1813 148.275 13.3595 148.275ZM10.6719 150.963H15.3752C15.5534 150.963 15.7243 150.892 15.8503 150.766C15.9763 150.64 16.0471 150.469 16.0471 150.291C16.0471 150.113 15.9763 149.942 15.8503 149.816C15.7243 149.69 15.5534 149.619 15.3752 149.619H10.6719C10.4937 149.619 10.3228 149.69 10.1968 149.816C10.0708 149.942 10 150.113 10 150.291C10 150.469 10.0708 150.64 10.1968 150.766C10.3228 150.892 10.4937 150.963 10.6719 150.963ZM22.0943 148.275C22.2272 148.275 22.3571 148.236 22.4676 148.162C22.5781 148.088 22.6642 147.983 22.715 147.861C22.7659 147.738 22.7792 147.603 22.7533 147.472C22.7273 147.342 22.6634 147.222 22.5694 147.128C22.4754 147.034 22.3557 146.97 22.2254 146.944C22.095 146.918 21.9599 146.932 21.8371 146.983C21.7144 147.034 21.6094 147.12 21.5356 147.23C21.4618 147.341 21.4224 147.471 21.4224 147.603C21.4224 147.782 21.4932 147.953 21.6192 148.079C21.7452 148.205 21.9161 148.275 22.0943 148.275ZM20.7505 149.619H18.0628C17.8846 149.619 17.7137 149.69 17.5877 149.816C17.4617 149.942 17.3909 150.113 17.3909 150.291C17.3909 150.469 17.4617 150.64 17.5877 150.766C17.7137 150.892 17.8846 150.963 18.0628 150.963H20.7505C20.9287 150.963 21.0996 151.034 21.2256 151.16C21.3516 151.286 21.4224 151.457 21.4224 151.635C21.4224 151.813 21.3516 151.984 21.2256 152.11C21.0996 152.236 20.9287 152.307 20.7505 152.307C20.5723 152.307 20.4014 152.378 20.2754 152.504C20.1494 152.63 20.0786 152.8 20.0786 152.979C20.0786 153.157 20.1494 153.328 20.2754 153.454C20.4014 153.58 20.5723 153.651 20.7505 153.651C21.2851 153.651 21.7978 153.438 22.1758 153.06C22.5538 152.682 22.7662 152.169 22.7662 151.635C22.7662 151.1 22.5538 150.588 22.1758 150.21C21.7978 149.831 21.2851 149.619 20.7505 149.619ZM16.719 152.307H14.0314C13.8532 152.307 13.6823 152.378 13.5563 152.504C13.4303 152.63 13.3595 152.8 13.3595 152.979C13.3595 153.157 13.4303 153.328 13.5563 153.454C13.6823 153.58 13.8532 153.651 14.0314 153.651H16.719C16.8972 153.651 17.0681 153.721 17.1941 153.847C17.3202 153.973 17.3909 154.144 17.3909 154.322C17.3909 154.501 17.3202 154.672 17.1941 154.798C17.0681 154.924 16.8972 154.994 16.719 154.994C16.6017 154.993 16.4865 154.963 16.3831 154.907C16.3066 154.858 16.2211 154.826 16.1317 154.811C16.0423 154.796 15.9508 154.8 15.8628 154.821C15.7748 154.843 15.692 154.882 15.6195 154.937C15.547 154.991 15.4863 155.059 15.4409 155.138C15.3956 155.216 15.3666 155.303 15.3556 155.393C15.3447 155.483 15.3521 155.574 15.3773 155.661C15.4026 155.748 15.4452 155.829 15.5025 155.899C15.5599 155.97 15.6309 156.027 15.7112 156.069C16.0184 156.244 16.3656 156.337 16.719 156.338C17.2536 156.338 17.7663 156.126 18.1444 155.748C18.5224 155.37 18.7348 154.857 18.7348 154.322C18.7348 153.788 18.5224 153.275 18.1444 152.897C17.7663 152.519 17.2536 152.307 16.719 152.307ZM11.3438 152.307H10.6719C10.4937 152.307 10.3228 152.378 10.1968 152.504C10.0708 152.63 10 152.8 10 152.979C10 153.157 10.0708 153.328 10.1968 153.454C10.3228 153.58 10.4937 153.651 10.6719 153.651H11.3438C11.522 153.651 11.6929 153.58 11.8189 153.454C11.9449 153.328 12.0157 153.157 12.0157 152.979C12.0157 152.8 11.9449 152.63 11.8189 152.504C11.6929 152.378 11.522 152.307 11.3438 152.307Z" fill="white"/>
<path fill-rule="evenodd" clip-rule="evenodd" d="M34.1524 158.256C34.1524 158.678 32.8848 159.022 32.4247 159.022C31.9634 159.022 30.697 158.678 30.697 158.256L31.5884 149.16C31.5884 148.737 31.9634 148.394 32.4247 148.394C32.886 148.394 33.261 148.737 33.261 149.16L34.1524 158.256Z" fill="white"/>
<path fill-rule="evenodd" clip-rule="evenodd" d="M32.9973 144.117C32.9973 144.452 32.7457 144.723 32.4366 144.723C32.125 144.723 31.8746 144.452 31.8746 144.117V140.606C31.8746 140.272 32.125 140 32.4366 140C32.7457 140 32.9973 140.272 32.9973 140.606V144.117Z" fill="white"/>
<path fill-rule="evenodd" clip-rule="evenodd" d="M26.851 150.636C26.5335 150.855 26.1297 150.818 25.9452 150.556C25.7654 150.293 25.8721 149.9 26.1884 149.682L29.5084 147.382C29.8248 147.164 30.2309 147.198 30.413 147.461C30.5952 147.724 30.4873 148.116 30.1698 148.335L26.851 150.636Z" fill="white"/>
<path fill-rule="evenodd" clip-rule="evenodd" d="M38.6743 149.45C38.8284 149.544 38.9387 149.696 38.9809 149.872C39.0232 150.048 38.9939 150.234 38.8996 150.388C38.7983 150.538 38.6416 150.642 38.4639 150.676C38.2862 150.711 38.102 150.674 37.9518 150.572L34.5539 148.388C34.4774 148.341 34.4109 148.28 34.3582 148.207C34.3055 148.135 34.2676 148.052 34.2467 147.965C34.2258 147.878 34.2222 147.787 34.2363 147.699C34.2504 147.61 34.2817 147.525 34.3286 147.449C34.43 147.3 34.5864 147.197 34.7635 147.162C34.9406 147.128 35.1241 147.165 35.274 147.266L38.6743 149.45Z" fill="white"/>
<path fill-rule="evenodd" clip-rule="evenodd" d="M31.5174 146.448C31.5174 145.975 31.9005 145.592 32.3731 145.592C32.8456 145.592 33.2287 145.975 33.2287 146.448V146.509C33.2287 146.981 32.8456 147.364 32.3731 147.364C31.9005 147.364 31.5174 146.981 31.5174 146.509V146.448Z" fill="white"/>
<path d="M51.9667 154.011V146.827H49.4355V145.556H55.998V146.827H53.4726V154.011H51.9667ZM59.5898 145.087L60.5331 143.37H61.8163L60.4745 145.087H59.5898ZM56.537 147.126L57.914 145.327H59.1738L60.5624 147.126H59.4492L58.541 145.948L57.6503 147.126H56.537ZM58.5468 154.134C56.7187 154.134 55.541 152.915 55.541 150.905V150.894C55.541 148.901 56.7363 147.671 58.541 147.671C60.3515 147.671 61.5527 148.89 61.5527 150.894V150.905C61.5527 152.921 60.3691 154.134 58.5468 154.134ZM58.5527 152.956C59.4726 152.956 60.0644 152.206 60.0644 150.905V150.894C60.0644 149.599 59.4667 148.855 58.541 148.855C57.6328 148.855 57.0292 149.605 57.0292 150.894V150.905C57.0292 152.212 57.621 152.956 58.5527 152.956ZM65.2324 154.134C63.3867 154.134 62.2324 152.892 62.2324 150.9V150.894C62.2324 148.913 63.4042 147.671 65.2148 147.671C66.8495 147.671 67.8691 148.708 67.957 149.95L67.9628 149.997H66.5859L66.5742 149.944C66.4511 149.341 66.0058 148.855 65.2324 148.855C64.3124 148.855 63.7206 149.634 63.7206 150.905V150.911C63.7206 152.206 64.3183 152.956 65.2382 152.956C65.9765 152.956 66.4453 152.517 66.58 151.866L66.5917 151.814H67.9687L67.9628 151.855C67.8515 153.15 66.8027 154.134 65.2324 154.134ZM73.5527 154.134C71.9824 154.134 70.9863 152.903 70.9863 150.905V150.9C70.9863 148.896 71.9882 147.671 73.5468 147.671C74.4257 147.671 75.1347 148.122 75.4863 148.866H75.5214V147.167H74.4199V146.323H75.5214V145.556H76.9804V146.323H77.6074V147.167H76.9804V154.011H75.5214V152.956H75.4863C75.1347 153.689 74.4492 154.134 73.5527 154.134ZM73.9921 152.903C74.8945 152.903 75.5214 152.124 75.5214 150.905V150.9C75.5214 149.687 74.8886 148.901 73.9921 148.901C73.0605 148.901 72.4745 149.663 72.4745 150.9V150.905C72.4745 152.142 73.0546 152.903 73.9921 152.903ZM79.1777 147.097L80.537 145.187H81.7851L83.1562 147.097H82.0488L81.1581 145.872L80.2851 147.097H79.1777ZM81.164 154.134C79.3359 154.134 78.1581 152.915 78.1581 150.905V150.894C78.1581 148.901 79.3535 147.671 81.1581 147.671C82.9687 147.671 84.1699 148.89 84.1699 150.894V150.905C84.1699 152.921 82.9863 154.134 81.164 154.134ZM81.1699 152.956C82.0898 152.956 82.6816 152.206 82.6816 150.905V150.894C82.6816 149.599 82.0839 148.855 81.1581 148.855C80.2499 148.855 79.6464 149.605 79.6464 150.894V150.905C79.6464 152.212 80.2382 152.956 81.1699 152.956ZM81.164 156.495C80.7128 156.495 80.3495 156.132 80.3495 155.698C80.3495 155.259 80.7128 154.901 81.164 154.901C81.6269 154.901 81.9785 155.259 81.9785 155.698C81.9785 156.132 81.6269 156.495 81.164 156.495ZM90.3105 156.185C88.664 156.185 87.6269 155.435 87.4511 154.462L87.4394 154.409H88.8749L88.8925 154.456C89.0507 154.814 89.5488 155.083 90.3105 155.083C91.2597 155.083 91.7812 154.579 91.7812 153.788V152.892H91.7519C91.4062 153.554 90.7031 153.976 89.8124 153.976C88.2538 153.976 87.2519 152.78 87.2519 150.847V150.841C87.2519 148.878 88.2656 147.671 89.8359 147.671C90.7148 147.671 91.3945 148.14 91.746 148.855H91.7812V147.8H93.2402V153.835C93.2402 155.241 92.1093 156.185 90.3105 156.185ZM90.2695 152.851C91.1777 152.851 91.787 152.083 91.787 150.876V150.87C91.787 149.669 91.1718 148.901 90.2695 148.901C89.332 148.901 88.7402 149.657 88.7402 150.864V150.87C88.7402 152.095 89.332 152.851 90.2695 152.851ZM95.2089 146.909C94.7519 146.909 94.3945 146.546 94.3945 146.112C94.3945 145.667 94.7519 145.31 95.2089 145.31C95.666 145.31 96.0175 145.667 96.0175 146.112C96.0175 146.546 95.666 146.909 95.2089 146.909ZM94.4765 154.011V147.8H95.9355V154.011H94.4765ZM100.295 147.097H99.2753L100.324 145.187H101.678L100.295 147.097ZM99.9257 154.134C98.0976 154.134 96.9199 152.915 96.9199 150.905V150.894C96.9199 148.901 98.1152 147.671 99.9199 147.671C101.73 147.671 102.932 148.89 102.932 150.894V150.905C102.932 152.921 101.748 154.134 99.9257 154.134ZM99.9316 152.956C100.852 152.956 101.443 152.206 101.443 150.905V150.894C101.443 149.599 100.846 148.855 99.9199 148.855C99.0117 148.855 98.4081 149.605 98.4081 150.894V150.905C98.4081 152.212 98.9999 152.956 99.9316 152.956ZM108.703 154.011V152.98L111.691 150.068C112.799 148.984 113.039 148.556 113.039 147.929V147.917C113.033 147.161 112.465 146.622 111.65 146.622C110.713 146.622 110.057 147.249 110.039 148.064V148.105H108.621V148.064C108.621 146.517 109.922 145.409 111.639 145.409C113.332 145.409 114.516 146.435 114.516 147.829V147.841C114.516 148.837 114.053 149.511 112.564 150.941L110.701 152.71V152.775H114.644V154.011H108.703ZM118.939 154.157C117.006 154.157 115.658 153.15 115.658 151.708V151.696C115.658 150.624 116.437 149.792 117.557 149.564V149.528C116.596 149.271 115.963 148.568 115.963 147.665V147.653C115.963 146.359 117.199 145.409 118.939 145.409C120.685 145.409 121.916 146.359 121.916 147.653V147.665C121.916 148.568 121.283 149.271 120.322 149.528V149.564C121.441 149.792 122.227 150.624 122.227 151.696V151.708C122.227 153.15 120.873 154.157 118.939 154.157ZM118.939 149.048C119.818 149.048 120.422 148.538 120.422 147.806V147.794C120.422 147.062 119.812 146.552 118.939 146.552C118.066 146.552 117.457 147.062 117.457 147.794V147.806C117.457 148.538 118.06 149.048 118.939 149.048ZM118.939 153.003C119.953 153.003 120.668 152.423 120.668 151.614V151.603C120.668 150.788 119.959 150.202 118.939 150.202C117.92 150.202 117.211 150.788 117.211 151.603V151.614C117.211 152.423 117.932 153.003 118.939 153.003ZM125.789 154.011V145.556H127.248V150.378H127.277L129.598 147.8H131.285L128.824 150.472L131.385 154.011H129.703L127.74 151.339L127.248 151.855V154.011H125.789ZM131.947 154.011V147.8H133.406V148.796H133.435C133.699 148.116 134.338 147.671 135.158 147.671C136.025 147.671 136.652 148.128 136.881 148.925H136.916C137.215 148.151 137.953 147.671 138.85 147.671C140.074 147.671 140.877 148.503 140.877 149.745V154.011H139.418V150.109C139.418 149.341 139.019 148.901 138.305 148.901C137.602 148.901 137.121 149.423 137.121 150.173V154.011H135.703V150.032C135.703 149.335 135.281 148.901 134.602 148.901C133.898 148.901 133.406 149.452 133.406 150.208V154.011H131.947ZM144.99 145.556L142.769 156.062H141.451L143.666 145.556H144.99ZM145.664 154.011V145.556H147.123V148.843H147.158C147.48 148.099 148.143 147.671 149.074 147.671C150.41 147.671 151.266 148.644 151.266 150.144V154.011H149.807V150.431C149.807 149.476 149.326 148.901 148.488 148.901C147.662 148.901 147.123 149.528 147.123 150.431V154.011H145.664Z" fill="white"/>
<defs>
<linearGradient id="paint0_linear_5260_95228" x1="129.5" y1="0" x2="129.5" y2="239" gradientUnits="userSpaceOnUse">
<stop stop-color="#2DB0EC"/>
<stop offset="1" stop-color="#1487EF"/>
</linearGradient>
</defs>
</svg>
